<svg width="30" height="30" viewBox="0 0 30 30" fill="none" xmlns="http://www.w3.org/2000/svg">
<g clip-path="url(#clip0_821_11168)">
<path d="M5.00085 28V5.77778C5.00085 5.04107 5.29351 4.33453 5.81445 3.81359C6.33538 3.29266 7.04192 3 7.77863 3H21.6675C22.4042 3 23.1108 3.29266 23.6317 3.81359C24.1526 4.33453 24.4453 5.04107 24.4453 5.77778V28L20.2786 25.2222L17.5009 28L14.7231 25.2222L11.9453 28L9.16752 25.2222L5.00085 28Z" stroke="#F2C200" stroke-width="2" stroke-linecap="round" stroke-linejoin="round"/>
<path d="M18.612 9.94417C18.3604 9.50773 17.9948 9.14793 17.5545 8.90327C17.1141 8.65862 16.6155 8.53833 16.112 8.55528H13.3342C12.5975 8.55528 11.891 8.84794 11.37 9.36888C10.8491 9.88981 10.5564 10.5963 10.5564 11.3331C10.5564 12.0698 10.8491 12.7763 11.37 13.2972C11.891 13.8182 12.5975 14.1108 13.3342 14.1108H16.112C16.8487 14.1108 17.5552 14.4035 18.0762 14.9244C18.5971 15.4454 18.8898 16.1519 18.8898 16.8886C18.8898 17.6253 18.5971 18.3319 18.0762 18.8528C17.5552 19.3737 16.8487 19.6664 16.112 19.6664H13.3342C12.8307 19.6833 12.3321 19.5631 11.8917 19.3184C11.4514 19.0738 11.0858 18.7139 10.8342 18.2775" stroke="#F2C200" stroke-width="2" stroke-linecap="round" stroke-linejoin="round"/>
<path d="M14.7231 7.16699V21.0559" stroke="#F2C200" stroke-width="2" stroke-linecap="round" stroke-linejoin="round"/>
</g>
<defs>
<clipPath id="clip0_821_11168">
<rect width="30" height="30" fill="white"/>
</clipPath>
</defs>
</svg>
