<svg width="30" height="30" viewBox="0 0 30 30" fill="none" xmlns="http://www.w3.org/2000/svg">
<g clip-path="url(#clip0_1113_6270)">
<path d="M14.375 26.25H7.5C7.16848 26.25 6.85054 26.1183 6.61612 25.8839C6.3817 25.6495 6.25 25.3315 6.25 25V5C6.25 4.66848 6.3817 4.35054 6.61612 4.11612C6.85054 3.8817 7.16848 3.75 7.5 3.75H22.5C22.8315 3.75 23.1495 3.8817 23.3839 4.11612C23.6183 4.35054 23.75 4.66848 23.75 5V13.75" stroke="#F2C200" stroke-width="2" stroke-linecap="round" stroke-linejoin="round"/>
<path d="M18.75 22.5C18.75 23.4946 19.1451 24.4484 19.8483 25.1517C20.5516 25.8549 21.5054 26.25 22.5 26.25C23.4946 26.25 24.4484 25.8549 25.1517 25.1517C25.8549 24.4484 26.25 23.4946 26.25 22.5C26.25 21.5054 25.8549 20.5516 25.1517 19.8483C24.4484 19.1451 23.4946 18.75 22.5 18.75C21.5054 18.75 20.5516 19.1451 19.8483 19.8483C19.1451 20.5516 18.75 21.5054 18.75 22.5Z" stroke="#F2C200" stroke-width="2" stroke-linecap="round" stroke-linejoin="round"/>
<path d="M25.25 25.25L27.5 27.5" stroke="#F2C200" stroke-width="2" stroke-linecap="round" stroke-linejoin="round"/>
</g>
<defs>
<clipPath id="clip0_1113_6270">
<rect width="30" height="30" fill="white"/>
</clipPath>
</defs>
</svg>
