<svg width="70" height="70" viewBox="0 0 70 70" fill="none" xmlns="http://www.w3.org/2000/svg">
<g clip-path="url(#clip0_1223_1888)">
<path d="M35.0003 16.041C31.8678 14.3318 27.4666 11.666 23.3337 11.666C17.2087 11.666 11.667 15.3031 11.667 26.2493C11.667 40.5381 14.747 50.7785 19.4574 56.9823C21.1287 59.1873 25.2032 58.5019 26.9445 56.2939C28.1053 54.821 29.3332 52.0969 30.6253 48.1243C31.477 45.8756 33.227 43.7377 35.0003 43.7493C36.7562 43.7493 38.5295 45.8989 39.3753 48.1243C40.6674 52.0969 41.8953 54.8181 43.0562 56.291C44.7974 58.5048 48.8895 59.1873 50.5432 56.9823C55.2537 50.7785 58.3337 40.541 58.3337 26.2493C58.3337 15.341 52.7687 11.666 46.667 11.666C42.5166 11.666 38.1503 14.3231 35.0003 16.041Z" stroke="#1E88E5" stroke-width="3" stroke-linecap="round" stroke-linejoin="round"/>
<path d="M34.9997 16.041L37.9163 23.3327L32.083 29.166L37.9163 34.9993" stroke="#1E88E5" stroke-width="3.64583" stroke-linecap="round" stroke-linejoin="round"/>
</g>
<defs>
<clipPath id="clip0_1223_1888">
<rect width="70" height="70" fill="white"/>
</clipPath>
</defs>
</svg>
