<svg width="26" height="26" viewBox="0 0 26 26" fill="none" xmlns="http://www.w3.org/2000/svg">
<g clip-path="url(#clip0_1278_21791)">
<path d="M9.75 11.916C9.75 12.778 10.0924 13.6046 10.7019 14.2141C11.3114 14.8236 12.138 15.166 13 15.166C13.862 15.166 14.6886 14.8236 15.2981 14.2141C15.9076 13.6046 16.25 12.778 16.25 11.916C16.25 11.0541 15.9076 10.2274 15.2981 9.61792C14.6886 9.00842 13.862 8.66602 13 8.66602C12.138 8.66602 11.3114 9.00842 10.7019 9.61792C10.0924 10.2274 9.75 11.0541 9.75 11.916Z" stroke="#1E88E5" stroke-width="2" stroke-linecap="round" stroke-linejoin="round"/>
<path d="M19.1291 18.0448L14.5325 22.6413C14.1262 23.0472 13.5755 23.2752 13.0012 23.2752C12.4269 23.2752 11.8762 23.0472 11.4699 22.6413L6.87224 18.0448C5.66023 16.8327 4.83485 15.2884 4.50048 13.6073C4.16611 11.9261 4.33777 10.1836 4.99374 8.59997C5.64971 7.01637 6.76054 5.66285 8.18576 4.71057C9.61098 3.75828 11.2866 3.25 13.0007 3.25C14.7147 3.25 16.3903 3.75828 17.8156 4.71057C19.2408 5.66285 20.3516 7.01637 21.0076 8.59997C21.6635 10.1836 21.8352 11.9261 21.5008 13.6073C21.1665 15.2884 20.3411 16.8327 19.1291 18.0448Z" stroke="#1E88E5" stroke-width="2" stroke-linecap="round" stroke-linejoin="round"/>
</g>
<defs>
<clipPath id="clip0_1278_21791">
<rect width="26" height="26" fill="white"/>
</clipPath>
</defs>
</svg>
