<svg width="713" height="400" viewBox="0 0 713 400" fill="none" xmlns="http://www.w3.org/2000/svg">
<g clip-path="url(#clip0_1018_13941)">
<g filter="url(#filter0_d_1018_13941)">
<path d="M713 0H0V400H713V0Z" fill="white"/>
</g>
<g opacity="0.2">
<path d="M224.403 108.365C218.372 105.528 208.397 110.14 205.217 116.888C199.146 129.77 218.781 148.427 225.922 146.425C233.901 144.187 235.477 113.572 224.403 108.365Z" stroke="#0F31AC" stroke-width="2.18116" stroke-miterlimit="10" stroke-linecap="round" stroke-dasharray="8.72 8.72"/>
<path d="M194.236 137.545C192.083 136.299 169.283 123.11 156.379 133.548C147.319 140.878 147.233 156.544 154.041 165.349C167.526 182.788 209.341 174.969 213.68 162.491C216.601 154.088 202.884 142.547 194.236 137.545Z" stroke="#0F31AC" stroke-width="2.18116" stroke-miterlimit="10" stroke-linecap="round" stroke-dasharray="8.72 8.72"/>
<path d="M223.574 352.88C279.072 339.105 342.133 325.081 440.054 327.47C494.818 328.806 507.227 311.811 548.732 290.681C585.725 271.849 603.894 234.401 592.735 213.177C581.47 191.75 547.156 200.281 519.054 168.386C506.256 153.859 508.508 143.678 501.119 127.569C477.721 76.561 390.024 36.6926 346.779 57.7921C289.647 85.6663 338.489 206.107 274.626 239.007C234.23 259.82 203.697 219.867 163.81 250.366C144.046 265.478 119.875 286.676 118.006 309.693C118.006 309.693 115.388 365.967 223.574 352.88Z" stroke="#0F31AC" stroke-width="2.18116" stroke-miterlimit="10" stroke-linecap="round" stroke-dasharray="8.72 8.72"/>
<path d="M530.198 290.205C530.198 290.205 520.145 303.534 510.089 321.822C501.025 338.314 494.131 360.535 492.608 379.088C488.339 378.886 483.649 378.697 478.579 378.517C448.551 377.451 405.201 376.784 356.998 376.784C302.199 376.784 253.671 377.647 223.86 378.976C222.834 379.022 221.829 379.067 220.848 379.114C183.63 332.984 108.684 252.616 177.654 219.554C177.654 219.554 182.707 218.015 190.282 214.709C214.257 204.245 263.525 176.087 258.045 122.997C258.045 122.997 256.178 113.09 256.178 99.3051C256.178 67.0718 266.383 13.6421 334.509 16.0806C375.765 17.5595 413.76 38.5532 436.73 72.1561C459.262 105.115 495.288 145.666 524.627 122.515C531.399 117.169 540.354 115.188 548.715 117.538C569.833 123.47 593.823 154.178 530.198 290.205Z" fill="#ACBCF8"/>
</g>
<path opacity="0.15" d="M584.981 380.884C584.981 383.065 482.909 384.834 356.998 384.834C285.954 384.834 222.5 384.271 180.688 383.388C171.058 383.184 162.576 382.964 155.415 382.73C150.698 382.576 146.554 382.415 143.03 382.249C133.966 381.825 129.015 381.365 129.015 380.884C129.015 380.271 137.05 379.692 151.392 379.175C157.266 378.963 164.196 378.761 172.066 378.574C213.474 377.58 280.88 376.934 356.998 376.934C423.953 376.934 484.167 377.433 525.876 378.23C562.602 378.931 584.981 379.862 584.981 380.884Z" fill="#040C2B"/>
<path d="M434.944 378.29H274.491C269.286 378.29 265.067 374.071 265.067 368.867V146.975C265.067 141.77 269.286 137.551 274.491 137.551H434.944C440.148 137.551 444.367 141.77 444.367 146.975V368.867C444.367 374.071 440.148 378.29 434.944 378.29Z" fill="#0F31AC"/>
<path d="M436.033 146.699H273.401V369.144H436.033V146.699Z" fill="white"/>
<path d="M346.295 159.617H284.214V190.009H346.295V159.617Z" fill="#829CF8" stroke="#829CF8" stroke-width="1.17799" stroke-miterlimit="10"/>
<path d="M300.202 183.256H295.658V170.153H291.551V166.438H304.297V170.153H300.202V183.256Z" fill="white"/>
<path d="M317.02 183.257L316.192 180.105H310.727L309.876 183.257H304.883L310.371 166.369H316.433L321.989 183.257H317.02ZM315.248 176.377L314.524 173.616C314.355 173.003 314.15 172.209 313.908 171.235C313.667 170.261 313.507 169.563 313.431 169.141C313.362 169.532 313.225 170.177 313.022 171.074C312.819 171.971 312.368 173.739 311.671 176.377L315.248 176.377Z" fill="white"/>
<path d="M338.958 183.256H333.7L330.422 177.999L327.178 183.256H322.036L327.615 174.651L322.369 166.438H327.408L330.445 171.637L333.367 166.438H338.555L333.229 175.008L338.958 183.256Z" fill="white"/>
<path d="M425.22 169.818H376.029" stroke="#ACBCF8" stroke-width="23.5598" stroke-miterlimit="10" stroke-linecap="round"/>
<path d="M425.22 174.814H376.029" stroke="#ACBCF8" stroke-width="23.5598" stroke-miterlimit="10" stroke-linecap="round"/>
<path d="M425.22 179.811H383.479" stroke="#ACBCF8" stroke-width="23.5598" stroke-miterlimit="10" stroke-linecap="round"/>
<path d="M425.19 232.123H284.185V246.612H425.19V232.123Z" fill="#E3E9F7" stroke="#829CF8" stroke-width="1.17799" stroke-miterlimit="10"/>
<path d="M292.018 251.404H284.185V259.238H292.018V251.404Z" stroke="#829CF8" stroke-width="4.71197" stroke-miterlimit="10"/>
<path d="M292.018 265.541H284.185V273.375H292.018V265.541Z" stroke="#829CF8" stroke-width="4.71197" stroke-miterlimit="10"/>
<path d="M292.018 279.676H284.185V287.509H292.018V279.676Z" stroke="#829CF8" stroke-width="4.71197" stroke-miterlimit="10"/>
<path d="M299.33 252.57H425.249" stroke="#CDD7FB" stroke-width="17.6699" stroke-miterlimit="10" stroke-linecap="round"/>
<path d="M299.33 258.072H383.784" stroke="#CDD7FB" stroke-width="17.6699" stroke-miterlimit="10" stroke-linecap="round"/>
<path d="M299.33 266.705H425.249" stroke="#CDD7FB" stroke-width="17.6699" stroke-miterlimit="10" stroke-linecap="round"/>
<path d="M299.33 272.207H363.169" stroke="#CDD7FB" stroke-width="17.6699" stroke-miterlimit="10" stroke-linecap="round"/>
<path d="M299.33 280.842H425.249" stroke="#CDD7FB" stroke-width="17.6699" stroke-miterlimit="10" stroke-linecap="round"/>
<path d="M299.33 286.344H400.511" stroke="#CDD7FB" stroke-width="17.6699" stroke-miterlimit="10" stroke-linecap="round"/>
<path d="M425.19 292.85H284.185V307.339H425.19V292.85Z" fill="#E3E9F7" stroke="#829CF8" stroke-width="1.17799" stroke-miterlimit="10"/>
<path d="M425.249 312.404H284.244V323.766H425.249V312.404Z" stroke="#829CF8" stroke-width="4.71197" stroke-miterlimit="10"/>
<path d="M425.249 312.424H416.08V357.873H425.249V312.424Z" stroke="#829CF8" stroke-width="4.71197" stroke-miterlimit="10"/>
<path d="M284.243 357.854H349.877V312.404H284.243V357.854Z" stroke="#829CF8" stroke-width="4.71197" stroke-miterlimit="10"/>
<path d="M425.249 323.766H284.244V335.127H425.249V323.766Z" stroke="#829CF8" stroke-width="4.71197" stroke-miterlimit="10"/>
<path d="M425.249 335.127H284.244V346.489H425.249V335.127Z" stroke="#829CF8" stroke-width="4.71197" stroke-miterlimit="10"/>
<path d="M425.249 346.49H284.244V357.852H425.249V346.49Z" stroke="#829CF8" stroke-width="4.71197" stroke-miterlimit="10"/>
<path d="M417.76 317.994C418.022 318.089 418.258 318.208 418.487 318.333C418.716 318.458 418.933 318.594 419.143 318.735C419.565 319.018 419.954 319.329 420.321 319.659L419.122 319.652C419.403 319.264 419.707 318.896 420.028 318.545C420.35 318.194 420.691 317.86 421.053 317.545C421.416 317.232 421.8 316.937 422.214 316.67C422.422 316.537 422.633 316.408 422.859 316.291C423.083 316.174 423.314 316.061 423.57 315.973C423.505 316.236 423.414 316.476 423.318 316.71C423.222 316.945 423.113 317.168 423 317.387C422.772 317.824 422.514 318.233 422.235 318.623C421.955 319.013 421.653 319.382 421.333 319.735C421.013 320.087 420.675 320.424 420.314 320.74L419.577 321.387L419.115 320.732C418.83 320.328 418.566 319.906 418.335 319.454C418.219 319.229 418.11 318.997 418.013 318.755C417.915 318.513 417.825 318.265 417.76 317.994Z" fill="#F6471E"/>
<path d="M417.76 329.357C418.022 329.453 418.258 329.572 418.487 329.697C418.716 329.822 418.933 329.957 419.143 330.099C419.565 330.381 419.954 330.693 420.321 331.023L419.122 331.015C419.403 330.627 419.707 330.26 420.028 329.908C420.35 329.557 420.691 329.223 421.053 328.909C421.416 328.595 421.8 328.301 422.214 328.033C422.422 327.9 422.633 327.771 422.859 327.654C423.083 327.537 423.314 327.425 423.57 327.336C423.505 327.599 423.414 327.839 423.318 328.073C423.222 328.308 423.113 328.531 423 328.75C422.772 329.187 422.514 329.596 422.235 329.986C421.955 330.376 421.653 330.746 421.333 331.098C421.013 331.451 420.675 331.787 420.314 332.103L419.577 332.751L419.115 332.096C418.83 331.692 418.566 331.269 418.335 330.817C418.219 330.592 418.11 330.361 418.013 330.118C417.915 329.876 417.825 329.628 417.76 329.357Z" fill="#F6471E"/>
<path d="M293.315 318.084H340.806" stroke="#CDD7FB" stroke-width="17.6699" stroke-miterlimit="10" stroke-linecap="round"/>
<path d="M293.315 329.445H340.806" stroke="#CDD7FB" stroke-width="17.6699" stroke-miterlimit="10" stroke-linecap="round"/>
<path d="M293.315 340.807H340.806" stroke="#CDD7FB" stroke-width="17.6699" stroke-miterlimit="10" stroke-linecap="round"/>
<path d="M293.315 352.209H340.806" stroke="#CDD7FB" stroke-width="17.6699" stroke-miterlimit="10" stroke-linecap="round"/>
<path d="M359.233 318.084H406.724" stroke="#CDD7FB" stroke-width="17.6699" stroke-miterlimit="10" stroke-linecap="round"/>
<path d="M359.233 329.445H406.724" stroke="#CDD7FB" stroke-width="17.6699" stroke-miterlimit="10" stroke-linecap="round"/>
<path d="M359.233 340.807H406.724" stroke="#CDD7FB" stroke-width="17.6699" stroke-miterlimit="10" stroke-linecap="round"/>
<path d="M359.233 352.209H406.724" stroke="#CDD7FB" stroke-width="17.6699" stroke-miterlimit="10" stroke-linecap="round"/>
<path d="M425.22 199.766H284.214V214.255H425.22V199.766Z" fill="#E3E9F7" stroke="#829CF8" stroke-width="1.17799" stroke-miterlimit="10"/>
<path d="M284.218 219.938H425.216" stroke="#CDD7FB" stroke-width="17.6699" stroke-miterlimit="10" stroke-linecap="round"/>
<path d="M284.218 226.24H397.516" stroke="#CDD7FB" stroke-width="17.6699" stroke-miterlimit="10" stroke-linecap="round"/>
<path d="M279.031 194.936H430.403" stroke="#ACBCF8" stroke-width="0.294498" stroke-miterlimit="10"/>
<path d="M354.717 112C349.22 112 344.763 116.457 344.763 121.954V142.205H364.671V121.954C364.671 116.457 360.215 112 354.717 112ZM354.717 127.397C352.209 127.397 350.175 125.363 350.175 122.855C350.175 120.346 352.209 118.313 354.717 118.313C357.226 118.313 359.259 120.346 359.259 122.855C359.259 125.363 357.226 127.397 354.717 127.397Z" fill="#0F31AC"/>
<path d="M382.875 130.104H326.56C324.208 130.37 322.381 132.365 322.381 134.787V147.858C322.381 149.432 323.153 150.823 324.337 151.68C324.906 152.231 325.667 152.58 326.543 152.58H382.891C383.767 152.58 384.529 152.231 385.096 151.68C386.282 150.823 387.053 149.432 387.053 147.858V134.787C387.053 132.365 385.226 130.37 382.875 130.104Z" fill="#0F31AC"/>
<path opacity="0.15" d="M387.053 134.787V135.609H322.381V134.787C322.381 132.365 324.208 130.37 326.56 130.104H382.875C385.226 130.37 387.053 132.365 387.053 134.787Z" fill="black"/>
<path d="M532.215 379.948C533.248 379.948 534.085 379.025 534.085 377.885C534.085 376.746 533.248 375.822 532.215 375.822C531.183 375.822 530.346 376.746 530.346 377.885C530.346 379.025 531.183 379.948 532.215 379.948Z" fill="#829CF8"/>
<path d="M523.97 379.948C525.002 379.948 525.839 379.025 525.839 377.885C525.839 376.746 525.002 375.822 523.97 375.822C522.937 375.822 522.1 376.746 522.1 377.885C522.1 379.025 522.937 379.948 523.97 379.948Z" fill="#829CF8"/>
<path d="M508.629 379.948C509.662 379.948 510.499 379.025 510.499 377.885C510.499 376.746 509.662 375.822 508.629 375.822C507.597 375.822 506.76 376.746 506.76 377.885C506.76 379.025 507.597 379.948 508.629 379.948Z" fill="#829CF8"/>
<path d="M500.383 379.948C501.416 379.948 502.253 379.025 502.253 377.885C502.253 376.746 501.416 375.822 500.383 375.822C499.351 375.822 498.514 376.746 498.514 377.885C498.514 379.025 499.351 379.948 500.383 379.948Z" fill="#829CF8"/>
<path d="M498.514 377.35L498.466 367.877L514.382 360.942V358.22L518.6 357.781V361.381L534.133 367.526V377.885H532.79L532.886 369.984L518.6 367.877V370.423L514.765 370.247V367.877L500.383 369.809V377.885L498.514 377.35Z" fill="#829CF8"/>
<path d="M517.162 359.625L525.888 368.316V377.885H523.97V370.774L517.162 367.877L508.629 370.511V377.885H506.808V368.755L516.3 359.625H517.162Z" fill="#829CF8"/>
<path d="M515.197 359.58H517.881V343.339H515.197V359.58Z" fill="#829CF8"/>
<path d="M511.841 345.008H521.237V339.214H511.841V345.008Z" fill="#829CF8"/>
<path d="M503.99 340.618H525.828C527.635 340.618 529.099 339.153 529.099 337.346V334.121H500.719V337.346C500.719 339.153 502.184 340.618 503.99 340.618Z" fill="#829CF8"/>
<path d="M523.682 308.705V312.568H509.3C509.3 312.568 503.356 310.988 502.685 332.409H500C500 332.409 498.945 308.793 509.492 308.705H523.682Z" fill="#333333"/>
<path d="M542.187 267.884H524.066C524.066 267.884 522.244 267.708 522.34 271.834L519.655 313.272C519.655 313.272 518.888 326.879 508.725 327.406H497.891C497.891 327.406 492.809 329.425 495.877 334.078L497.124 335.131L517.834 336.009L537.201 324.07L542.187 267.884Z" fill="#6275BA"/>
<path d="M538.448 270.429C538.448 270.429 541.132 264.635 543.817 270.429L540.557 318.099C540.557 318.099 540.25 332.472 528.946 335.469L518.026 336.008C518.026 336.008 510.739 332.584 518.026 327.405L526.175 327.931C526.175 327.931 535.955 325.825 535.667 314.061L538.448 270.429Z" fill="#829CF8"/>
<path d="M484.478 375.747L482.371 375.555L476.739 375.043L477.348 366.018L477.554 362.957L481.936 363.666L483.104 363.855L483.309 365.63L484.478 375.747Z" fill="#DB965F"/>
<path d="M485.384 378.502C466.972 380.964 465.18 377.073 465.18 377.073C462.851 373.89 466.613 373.108 467.969 372.933C468.189 372.906 468.411 372.904 468.632 372.918C470.653 373.042 477.05 369.207 477.05 369.207L478.504 370.327C479.987 371.695 481.261 371.649 482.194 371.217C483.048 370.822 483.618 370.102 483.798 369.85C483.839 369.794 483.86 369.76 483.86 369.76C486.551 368.948 486.595 374.71 486.595 374.71C486.983 378.452 485.384 378.502 485.384 378.502Z" fill="#040C2B"/>
<path d="M514.365 320.801C513.58 321.614 512.289 322.353 510.677 323.02C503.855 325.84 491.265 327.373 486.737 327.852C485.779 327.954 485.045 328.764 485.025 329.743L484.329 363.954C484.314 364.682 483.905 365.312 483.309 365.631C483.062 365.764 482.782 365.844 482.484 365.854L482.004 365.87L477.558 366.024C477.487 366.026 477.417 366.024 477.348 366.019C476.414 365.948 475.655 365.188 475.588 364.218L472.827 323.673C472.516 319.109 475.201 314.881 479.422 313.289L502.975 305.842L508.425 306.067L516.623 306.406L516.983 306.421C517.866 306.496 518.58 307.18 518.712 308.07C519.756 315.114 514.365 320.801 514.365 320.801Z" fill="#040C2B"/>
<path opacity="0.15" d="M517.65 303.539L516.624 306.406L510.677 323.02C503.856 325.84 491.265 327.373 486.738 327.853C485.779 327.954 485.045 328.765 485.026 329.743L484.329 363.954C484.315 364.683 483.906 365.312 483.31 365.631L483.798 369.852C483.618 370.104 483.049 370.824 482.194 371.219L482.098 368.867L482.004 365.87L481.936 363.667L480.773 326.283C480.402 320.291 483.997 314.778 489.571 312.79L508.425 306.067L509.057 305.842L517.65 303.539Z" fill="black"/>
<path d="M492.934 365.697L494.308 377.589L486.569 376.884L487.384 364.799L492.934 365.697Z" fill="#DB965F"/>
<path d="M495.213 380.345C495.213 380.345 496.812 380.296 496.424 376.553C496.424 376.553 496.38 370.792 493.689 371.604C493.689 371.604 491.482 375.076 488.333 372.171L486.879 371.051C486.879 371.051 480.482 374.885 478.461 374.762C478.24 374.748 478.018 374.749 477.798 374.777C476.442 374.952 472.68 375.733 475.009 378.917C475.009 378.917 476.802 382.808 495.213 380.345Z" fill="#040C2B"/>
<path d="M527.583 305.697L511.488 306.94C511.207 306.916 510.925 306.955 510.662 307.054L489.251 315.13C485.03 316.722 482.346 320.949 482.657 325.514L485.418 366.059C485.489 367.102 486.36 367.9 487.388 367.865L492.313 367.695C493.327 367.66 494.137 366.826 494.158 365.795L494.854 331.584C494.874 330.605 495.608 329.795 496.566 329.693C502.165 329.1 520.087 326.898 524.194 322.642C524.194 322.642 529.585 316.955 528.542 309.911C528.41 309.021 528.466 305.773 527.583 305.697Z" fill="#040C2B"/>
<path d="M527.017 307.707H498.941L498.986 304.734H526.637C526.774 305.595 526.906 306.583 527.017 307.707Z" fill="#0A0B21"/>
<path d="M502.083 304.734H501.208V307.707H502.083V304.734Z" fill="#333333"/>
<path d="M514.34 304.734H513.465V307.707H514.34V304.734Z" fill="#333333"/>
<path d="M519.331 304.734H518.455V307.707H519.331V304.734Z" fill="#333333"/>
<path d="M524.496 304.734H523.621V307.707H524.496V304.734Z" fill="#333333"/>
<path d="M510.313 304.549H505.147V308H510.313V304.549Z" fill="#829CF8"/>
<path d="M520.556 262.402L520.517 269.75L509.874 271.743L503.692 268.505L506.366 264.946L507.845 262.979C508.14 262.585 508.266 262.078 508.19 261.581L506.901 253.145L517.269 248.371L516.395 255.075L516.252 256.175C515.939 259.746 520.556 262.402 520.556 262.402Z" fill="#C9885B"/>
<path opacity="0.15" d="M517.27 248.371L516.292 255.968C512.657 262.672 508.057 264.242 506.367 264.946L507.845 262.979C508.141 262.585 508.267 262.078 508.191 261.581L506.901 253.145L517.27 248.371Z" fill="black"/>
<path d="M518.757 249.119L517.543 252.316C517.242 252.783 516.942 253.225 516.642 253.644C515.839 254.771 515.048 255.729 514.288 256.543C514.041 256.807 513.798 257.056 513.559 257.29C510.172 260.61 507.566 261.075 507.566 261.075C506.069 261.331 504.936 259.734 504.096 257.522C502.867 254.293 502.258 249.752 502.035 247.74C501.963 247.096 501.932 246.712 501.932 246.712L509.175 241.662L518.757 249.119Z" fill="#DB965F"/>
<path d="M518.672 243.262C519.839 245.585 519.603 248.425 518.719 250.884C517.722 253.663 516.238 256.471 516.238 256.471L516.448 253.977L516.642 253.644L517.348 252.44C518.757 248.788 516.253 249.203 516.253 249.203C514.218 249.784 514.296 252.44 514.296 252.44C514.273 254.612 513.99 256.155 513.559 257.29C510.172 260.61 507.566 261.075 507.566 261.075C506.069 261.331 504.937 259.734 504.096 257.522C507.889 260.293 511.277 255.917 512.685 253.655C513.464 252.407 513.633 250.831 513.105 249.443C513.027 249.235 512.966 249.119 512.966 249.119C506.374 242.684 503.309 246.585 502.035 247.74C502.035 247.74 498.932 240.826 508.475 238.597C508.475 238.597 515.649 237.244 518.672 243.262Z" fill="black"/>
<path d="M497.824 292.916L498.218 291.832L502.497 279.804L499.072 279.279L497.521 279.041L494.35 278.554L492.828 284.937L492.449 286.529L476.043 281.377C476.043 281.377 475.211 278.772 472.595 276.109C472.009 276.259 471.748 276.986 472.092 277.511L473.102 279.054C473.102 279.054 468.973 275.753 466.231 276.795C466.231 276.795 462.439 278.531 464.042 282.05C464.042 282.05 464.543 285.68 472.43 286.74L495.298 294.153C496.314 294.482 497.401 293.949 497.824 292.916Z" fill="#DB965F"/>
<path d="M504.009 278.54L503.957 278.658L500.091 287.394L498.089 292.647C497.527 294.121 495.989 294.888 494.562 294.405L493.872 294.172L473.717 287.364L476.343 281.326L492.102 286.064C494.577 272.266 496.95 267.968 498.048 267.449C498.443 267.262 498.669 267.372 498.669 267.372L499.016 268.098L503.949 278.414L504.009 278.54Z" fill="white"/>
<path opacity="0.15" d="M503.956 278.658L500.091 287.394L498.088 292.647C497.527 294.121 495.989 294.888 494.561 294.405L493.872 294.172C495.799 291.77 496.887 288.803 496.969 285.724L497.003 284.478L497.961 269.381C500.917 272.496 501.95 269.941 501.955 269.94C502.441 269.842 503.713 271.218 503.713 271.218L503.948 278.414L503.956 278.658Z" fill="black"/>
<path d="M529.867 282.577L527.386 304.828H499.019L498.554 289.698C498.562 289.601 498.565 289.505 498.562 289.409L497.884 268.147C497.871 267.738 498.096 267.361 498.451 267.199L505.195 264.11L505.209 264.104L505.481 263.979L507.942 262.853C507.191 264.87 507.625 266.158 508.425 266.975C508.636 267.191 508.871 267.374 509.117 267.529C509.666 267.876 510.274 268.077 510.894 268.137C511.041 268.151 511.188 268.158 511.336 268.155C511.958 268.148 512.584 268 513.162 267.715C513.601 267.498 514.007 267.284 514.383 267.071C520.171 263.807 518.793 261.102 518.793 261.102L520.989 262.626L521.355 262.88L521.389 262.904L529.164 268.299L529.758 280.256L529.865 282.415C529.867 282.469 529.868 282.523 529.867 282.577Z" fill="white"/>
<path d="M513.027 269.14C513.027 269.14 511.64 269.223 511.368 268.151C511.358 268.152 511.346 268.152 511.336 268.152C511.198 268.155 511.061 268.15 510.924 268.139C510.874 268.227 510.007 269.719 509.248 268.993L508.966 270.087L509.276 270.679C509.417 270.948 509.605 271.168 509.822 271.341L507.547 301.162C507.524 301.466 507.619 301.768 507.814 302.009L509.485 304.077C509.698 304.341 510.118 304.332 510.318 304.058L511.705 302.732C511.991 302.458 512.151 302.087 512.151 301.7V271.594C512.54 271.408 512.878 271.104 513.101 270.679L513.341 270.218L513.027 269.14Z" fill="#040C2B"/>
<path opacity="0.15" d="M529.867 282.577L527.386 304.828H526.062L526.019 304.761L524.083 276.145L529.56 276.281L529.758 280.257L529.864 282.416C529.867 282.47 529.868 282.523 529.867 282.577Z" fill="black"/>
<path opacity="0.15" d="M510.926 268.135C510.926 268.136 510.925 268.137 510.924 268.139C510.874 268.238 510.008 269.892 509.249 269.087L508.967 270.301L508.754 271.219C508.754 271.219 504.972 269.874 505.209 264.103L505.481 263.979C505.331 265.682 505.704 268.329 508.623 270.664L508.785 269.915L509.092 268.505C509.092 268.505 509.985 269.212 510.923 268.139C510.924 268.138 510.925 268.136 510.926 268.135Z" fill="black"/>
<path opacity="0.15" d="M521.355 262.879C520.476 265.184 518.391 268.257 513.552 271.245L513.342 270.445L513.027 269.25C513.027 269.25 511.64 269.342 511.368 268.153C511.366 268.147 511.365 268.141 511.364 268.135C511.366 268.141 511.369 268.147 511.373 268.153C511.647 268.7 512.596 269.062 513.202 268.878L513.461 270.194L513.553 270.664C513.553 270.664 519.864 267.203 520.989 262.625L521.355 262.879Z" fill="black"/>
<path d="M515.509 298.463C515.509 298.463 512.153 298.346 512.28 298.387L513.059 293.425L515.885 293.385L515.509 298.463Z" fill="#DB965F"/>
<path d="M531.032 297.419L527.757 293.026L526.479 287.753C526.479 287.753 519.977 269.25 528.29 268.137C528.29 268.137 533.174 268.008 534.929 285.235L534.919 285.239L535.266 291.588C535.383 293.051 534.787 297.419 531.032 297.419Z" fill="white"/>
<path d="M532.499 297.197C532.224 297.296 531.934 297.361 531.631 297.387L527.774 297.71L514.766 298.802L514.399 293.161L522.378 292.609C522.451 292.603 525.21 292.18 526.559 291.929C526.998 291.848 527.289 291.785 527.287 291.76L527.27 291.594L532.499 297.197Z" fill="white"/>
<path d="M496.346 293.251H472.94L457.381 268.611H480.787L496.346 293.251Z" fill="#CDD7FB"/>
<path d="M463.932 279.047C463.932 279.047 468.384 278.764 468.913 284.581C468.983 285.351 468.217 285.933 467.495 285.655C466.782 285.381 465.839 284.747 464.73 283.361C464.73 283.361 463.532 281.124 463.932 279.047Z" fill="#DB965F"/>
<path d="M542.187 310.636C542.187 311.703 541.243 312.568 540.078 312.568H527.805C527.805 312.568 521.861 310.988 521.19 332.409H518.505C518.505 332.409 517.45 308.793 527.997 308.705H540.078C541.243 308.705 542.187 309.57 542.187 310.636Z" fill="#829CF8"/>
<path opacity="0.1" d="M564.245 379.019C564.245 379.668 563.987 380.25 563.58 380.642L562.625 376.902C563.543 377.059 564.245 377.947 564.245 379.019Z" fill="black"/>
<path d="M557.192 306.193H435.298C434.396 306.193 433.664 304.864 433.664 303.224C433.664 301.585 434.396 300.256 435.298 300.256H557.192C558.095 300.256 558.827 301.585 558.827 303.224C558.827 304.864 558.095 306.193 557.192 306.193Z" fill="#ACBCF8"/>
<path d="M455.568 381.13C454.76 380.969 454.244 380.253 454.41 379.521L471.465 304.358C471.634 303.611 472.448 303.134 473.273 303.298L475.677 303.775C476.502 303.939 477.019 304.68 476.825 305.422L457.367 380.108C457.178 380.835 456.376 381.29 455.568 381.13Z" fill="#ACBCF8"/>
<path d="M542.171 381.13C542.979 380.969 543.495 380.253 543.329 379.521L526.274 304.358C526.105 303.611 525.291 303.134 524.466 303.298L522.062 303.775C521.237 303.939 520.72 304.68 520.914 305.422L540.372 380.108C540.561 380.835 541.363 381.29 542.171 381.13Z" fill="#ACBCF8"/>
<path d="M431.928 381.13C431.12 380.969 430.604 380.253 430.77 379.521L447.824 304.358C447.994 303.611 448.808 303.134 449.633 303.298L452.036 303.775C452.862 303.939 453.379 304.68 453.185 305.422L433.727 380.108C433.538 380.835 432.736 381.29 431.928 381.13Z" fill="#ACBCF8"/>
<path d="M565.811 381.13C566.619 380.969 567.135 380.253 566.969 379.521L549.914 304.358C549.745 303.611 548.931 303.134 548.106 303.298L545.702 303.775C544.877 303.939 544.36 304.68 544.554 305.422L564.012 380.108C564.201 380.835 565.003 381.29 565.811 381.13Z" fill="#ACBCF8"/>
<path d="M512.812 298.426C509.038 298.266 508.861 297.003 507.717 296.345C506.959 295.908 504.835 298.146 504.595 298.026C503.277 297.367 503.875 294.303 506.244 292.435C508.025 291.031 509.617 292.326 509.736 292.364L513.059 293.425L512.812 298.426Z" fill="#DB965F"/>
<path d="M441.448 300.282H465.746C467.382 300.282 469.172 300.511 469.172 299.587C469.172 298.663 467.382 296.936 465.746 296.936H441.448C439.811 296.936 438.484 297.685 438.484 298.609C438.484 299.533 439.811 300.282 441.448 300.282Z" fill="#081C61"/>
<path d="M467.556 300.282H484.651C485.803 300.282 486.736 299.533 486.736 298.609C486.736 297.685 485.803 296.936 484.651 296.936H467.556C466.404 296.936 465.471 297.685 465.471 298.609C465.471 299.533 466.404 300.282 467.556 300.282Z" fill="#0B2581"/>
<path d="M466.505 296.308L456.206 274.246C455.997 273.798 455.547 273.512 455.053 273.512H429.275C428.339 273.512 427.723 274.488 428.125 275.332L438.484 298.123L465.378 298.119C466.298 298.1 466.894 297.141 466.505 296.308Z" fill="#0B2581"/>
<path d="M505.035 298.287H503.736V299.114H505.035V298.287Z" fill="#F6471E"/>
<path d="M506.571 298.287H505.271V299.114H506.571V298.287Z" fill="#F6471E"/>
<path d="M508.106 298.287H506.807V299.114H508.106V298.287Z" fill="#F6471E"/>
<path d="M509.642 298.287H508.342V299.114H509.642V298.287Z" fill="#F6471E"/>
<path d="M511.177 298.287H509.878V299.114H511.177V298.287Z" fill="#F6471E"/>
<path d="M497.594 300.295H503.027V298.878H497.594V300.295Z" fill="#F6471E"/>
<path d="M497.594 299.114L503.027 298.996L501.846 297.578L496.531 297.696L497.594 299.114Z" fill="#B93516"/>
<path d="M512.358 300.294H503.027V298.877H512.358C512.749 298.877 513.067 299.194 513.067 299.586C513.067 299.977 512.749 300.294 512.358 300.294Z" fill="#B93516"/>
<path opacity="0.1" d="M275.128 378.291H186.341C184.131 378.291 182.339 376.499 182.339 374.288V262.002C182.339 259.792 184.131 258 186.341 258H275.128C277.339 258 279.131 259.792 279.131 262.002V374.288C279.131 376.499 277.339 378.291 275.128 378.291Z" fill="black"/>
<path d="M272.789 378.291H184.002C181.792 378.291 180 376.499 180 374.288V262.002C180 259.792 181.792 258 184.002 258H272.789C275 258 276.792 259.792 276.792 262.002V374.288C276.792 376.499 275 378.291 272.789 378.291Z" fill="#829CF8"/>
<g opacity="0.2">
<path d="M203.5 317.884H188.953C188.613 317.884 188.337 317.608 188.337 317.268V305.524C188.337 305.184 188.613 304.908 188.953 304.908H203.5C203.84 304.908 204.116 305.184 204.116 305.524V317.268C204.116 317.608 203.84 317.884 203.5 317.884Z" fill="black"/>
<path d="M203.5 334.587H188.953C188.613 334.587 188.337 334.311 188.337 333.971V322.227C188.337 321.887 188.613 321.611 188.953 321.611H203.5C203.84 321.611 204.116 321.887 204.116 322.227V333.971C204.116 334.311 203.84 334.587 203.5 334.587Z" fill="black"/>
<path d="M203.5 351.29H188.953C188.613 351.29 188.337 351.014 188.337 350.674V338.93C188.337 338.59 188.613 338.314 188.953 338.314H203.5C203.84 338.314 204.116 338.59 204.116 338.93V350.674C204.116 351.014 203.84 351.29 203.5 351.29Z" fill="black"/>
<path d="M203.5 367.993H188.953C188.613 367.993 188.337 367.717 188.337 367.378V355.633C188.337 355.293 188.613 355.018 188.953 355.018H203.5C203.84 355.018 204.116 355.293 204.116 355.633V367.378C204.116 367.717 203.84 367.993 203.5 367.993Z" fill="black"/>
<path d="M225.045 317.884H210.498C210.158 317.884 209.882 317.608 209.882 317.268V305.524C209.882 305.184 210.158 304.908 210.498 304.908H225.045C225.385 304.908 225.66 305.184 225.66 305.524V317.268C225.66 317.608 225.385 317.884 225.045 317.884Z" fill="black"/>
<path d="M225.045 334.587H210.498C210.158 334.587 209.882 334.311 209.882 333.971V322.227C209.882 321.887 210.158 321.611 210.498 321.611H225.045C225.385 321.611 225.66 321.887 225.66 322.227V333.971C225.66 334.311 225.385 334.587 225.045 334.587Z" fill="black"/>
<path d="M225.045 351.29H210.498C210.158 351.29 209.882 351.014 209.882 350.674V338.93C209.882 338.59 210.158 338.314 210.498 338.314H225.045C225.385 338.314 225.66 338.59 225.66 338.93V350.674C225.66 351.014 225.385 351.29 225.045 351.29Z" fill="black"/>
<path d="M225.045 367.993H210.498C210.158 367.993 209.882 367.717 209.882 367.378V355.633C209.882 355.293 210.158 355.018 210.498 355.018H225.045C225.385 355.018 225.66 355.293 225.66 355.633V367.378C225.66 367.717 225.385 367.993 225.045 367.993Z" fill="black"/>
<path d="M246.59 317.884H232.043C231.703 317.884 231.428 317.608 231.428 317.268V305.524C231.428 305.184 231.703 304.908 232.043 304.908H246.59C246.93 304.908 247.206 305.184 247.206 305.524V317.268C247.206 317.608 246.93 317.884 246.59 317.884Z" fill="black"/>
<path d="M246.59 334.587H232.043C231.703 334.587 231.428 334.311 231.428 333.971V322.227C231.428 321.887 231.703 321.611 232.043 321.611H246.59C246.93 321.611 247.206 321.887 247.206 322.227V333.971C247.206 334.311 246.93 334.587 246.59 334.587Z" fill="black"/>
<path d="M246.59 351.29H232.043C231.703 351.29 231.428 351.014 231.428 350.674V338.93C231.428 338.59 231.703 338.314 232.043 338.314H246.59C246.93 338.314 247.206 338.59 247.206 338.93V350.674C247.206 351.014 246.93 351.29 246.59 351.29Z" fill="black"/>
<path d="M246.59 367.993H232.043C231.703 367.993 231.428 367.717 231.428 367.378V355.633C231.428 355.293 231.703 355.018 232.043 355.018H246.59C246.93 355.018 247.206 355.293 247.206 355.633V367.378C247.206 367.717 246.93 367.993 246.59 367.993Z" fill="black"/>
<path d="M268.136 317.884H253.589C253.249 317.884 252.974 317.608 252.974 317.268V305.524C252.974 305.184 253.249 304.908 253.589 304.908H268.136C268.476 304.908 268.752 305.184 268.752 305.524V317.268C268.752 317.608 268.476 317.884 268.136 317.884Z" fill="black"/>
<path d="M268.136 334.587H253.589C253.249 334.587 252.974 334.311 252.974 333.971V322.227C252.974 321.887 253.249 321.611 253.589 321.611H268.136C268.476 321.611 268.752 321.887 268.752 322.227V333.971C268.752 334.311 268.476 334.587 268.136 334.587Z" fill="black"/>
<path d="M268.136 351.29H253.589C253.249 351.29 252.974 351.014 252.974 350.674V338.93C252.974 338.59 253.249 338.314 253.589 338.314H268.136C268.476 338.314 268.752 338.59 268.752 338.93V350.674C268.752 351.014 268.476 351.29 268.136 351.29Z" fill="black"/>
<path d="M268.136 367.993H253.589C253.249 367.993 252.974 367.717 252.974 367.378V355.633C252.974 355.293 253.249 355.018 253.589 355.018H268.136C268.476 355.018 268.752 355.293 268.752 355.633V367.378C268.752 367.717 268.476 367.993 268.136 367.993Z" fill="black"/>
</g>
<path d="M203.202 317.348H188.655C188.315 317.348 188.04 317.073 188.04 316.733V304.989C188.04 304.649 188.315 304.373 188.655 304.373H203.202C203.542 304.373 203.818 304.649 203.818 304.989V316.733C203.818 317.073 203.542 317.348 203.202 317.348Z" fill="#E3E9F7"/>
<path d="M203.202 334.052H188.655C188.315 334.052 188.04 333.776 188.04 333.436V321.692C188.04 321.352 188.315 321.076 188.655 321.076H203.202C203.542 321.076 203.818 321.352 203.818 321.692V333.436C203.818 333.776 203.542 334.052 203.202 334.052Z" fill="#E3E9F7"/>
<path d="M203.202 350.755H188.655C188.315 350.755 188.04 350.479 188.04 350.139V338.395C188.04 338.055 188.315 337.779 188.655 337.779H203.202C203.542 337.779 203.818 338.055 203.818 338.395V350.139C203.818 350.479 203.542 350.755 203.202 350.755Z" fill="#E3E9F7"/>
<path d="M203.202 367.458H188.655C188.315 367.458 188.04 367.182 188.04 366.842V355.098C188.04 354.758 188.315 354.482 188.655 354.482H203.202C203.542 354.482 203.818 354.758 203.818 355.098V366.842C203.818 367.182 203.542 367.458 203.202 367.458Z" fill="#E3E9F7"/>
<path d="M224.748 317.348H210.2C209.861 317.348 209.585 317.073 209.585 316.733V304.989C209.585 304.649 209.861 304.373 210.2 304.373H224.748C225.088 304.373 225.363 304.649 225.363 304.989V316.733C225.363 317.073 225.088 317.348 224.748 317.348Z" fill="#E3E9F7"/>
<path d="M224.748 334.052H210.2C209.861 334.052 209.585 333.776 209.585 333.436V321.692C209.585 321.352 209.861 321.076 210.2 321.076H224.748C225.088 321.076 225.363 321.352 225.363 321.692V333.436C225.363 333.776 225.088 334.052 224.748 334.052Z" fill="#E3E9F7"/>
<path d="M224.748 350.755H210.2C209.861 350.755 209.585 350.479 209.585 350.139V338.395C209.585 338.055 209.861 337.779 210.2 337.779H224.748C225.088 337.779 225.363 338.055 225.363 338.395V350.139C225.363 350.479 225.088 350.755 224.748 350.755Z" fill="#E3E9F7"/>
<path d="M224.748 367.458H210.2C209.861 367.458 209.585 367.182 209.585 366.842V355.098C209.585 354.758 209.861 354.482 210.2 354.482H224.748C225.088 354.482 225.363 354.758 225.363 355.098V366.842C225.363 367.182 225.088 367.458 224.748 367.458Z" fill="#E3E9F7"/>
<path d="M246.293 317.348H231.745C231.405 317.348 231.13 317.073 231.13 316.733V304.989C231.13 304.649 231.405 304.373 231.745 304.373H246.293C246.632 304.373 246.908 304.649 246.908 304.989V316.733C246.908 317.073 246.632 317.348 246.293 317.348Z" fill="#E3E9F7"/>
<path d="M246.293 334.052H231.745C231.405 334.052 231.13 333.776 231.13 333.436V321.692C231.13 321.352 231.405 321.076 231.745 321.076H246.293C246.632 321.076 246.908 321.352 246.908 321.692V333.436C246.908 333.776 246.632 334.052 246.293 334.052Z" fill="#E3E9F7"/>
<path d="M246.293 350.755H231.745C231.405 350.755 231.13 350.479 231.13 350.139V338.395C231.13 338.055 231.405 337.779 231.745 337.779H246.293C246.632 337.779 246.908 338.055 246.908 338.395V350.139C246.908 350.479 246.632 350.755 246.293 350.755Z" fill="#E3E9F7"/>
<path d="M246.293 367.458H231.745C231.405 367.458 231.13 367.182 231.13 366.842V355.098C231.13 354.758 231.405 354.482 231.745 354.482H246.293C246.632 354.482 246.908 354.758 246.908 355.098V366.842C246.908 367.182 246.632 367.458 246.293 367.458Z" fill="#E3E9F7"/>
<path d="M267.838 317.348H253.291C252.951 317.348 252.676 317.073 252.676 316.733V304.989C252.676 304.649 252.951 304.373 253.291 304.373H267.838C268.178 304.373 268.454 304.649 268.454 304.989V316.733C268.454 317.073 268.178 317.348 267.838 317.348Z" fill="#E3E9F7"/>
<path d="M267.838 334.052H253.291C252.951 334.052 252.676 333.776 252.676 333.436V321.692C252.676 321.352 252.951 321.076 253.291 321.076H267.838C268.178 321.076 268.454 321.352 268.454 321.692V333.436C268.454 333.776 268.178 334.052 267.838 334.052Z" fill="#E3E9F7"/>
<path d="M267.838 350.755H253.291C252.951 350.755 252.676 350.479 252.676 350.139V338.395C252.676 338.055 252.951 337.779 253.291 337.779H267.838C268.178 337.779 268.454 338.055 268.454 338.395V350.139C268.454 350.479 268.178 350.755 267.838 350.755Z" fill="#E3E9F7"/>
<path d="M267.838 367.458H253.291C252.951 367.458 252.676 367.182 252.676 366.842V355.098C252.676 354.758 252.951 354.482 253.291 354.482H267.838C268.178 354.482 268.454 354.758 268.454 355.098V366.842C268.454 367.182 268.178 367.458 267.838 367.458Z" fill="#F6471E"/>
<path d="M268.448 268.297H188.046V293.164H268.448V268.297Z" fill="#F4F6FC"/>
<path opacity="0.15" d="M268.448 268.297V293.164H188.046V292.391H267.746V268.297H268.448Z" fill="black"/>
<path d="M258.066 360.481V359.209H263.064V360.481H258.066ZM258.066 362.73V361.457H263.064V362.73H258.066Z" fill="white"/>
<path d="M197.298 347.027H196.131V343.832L196.142 343.307L196.161 342.733C195.967 342.927 195.833 343.054 195.757 343.114L195.123 343.624L194.56 342.922L196.339 341.506H197.298L197.298 347.027Z" fill="#829CF8"/>
<path d="M193.981 327.973C193.981 326.88 194.212 326.067 194.674 325.533C195.136 324.999 195.828 324.732 196.749 324.732C197.064 324.732 197.31 324.751 197.489 324.789V325.722C197.265 325.671 197.044 325.646 196.825 325.646C196.424 325.646 196.098 325.707 195.845 325.827C195.592 325.948 195.402 326.127 195.276 326.364C195.15 326.6 195.076 326.936 195.053 327.372H195.103C195.352 326.944 195.751 326.73 196.3 326.73C196.793 326.73 197.18 326.885 197.459 327.194C197.738 327.504 197.878 327.932 197.878 328.478C197.878 329.067 197.712 329.534 197.38 329.877C197.047 330.221 196.587 330.393 195.998 330.393C195.59 330.393 195.234 330.298 194.931 330.11C194.627 329.921 194.393 329.645 194.228 329.283C194.063 328.92 193.981 328.484 193.981 327.973ZM195.975 329.461C196.224 329.461 196.415 329.377 196.549 329.209C196.682 329.042 196.749 328.803 196.749 328.494C196.749 328.225 196.687 328.012 196.562 327.857C196.437 327.703 196.249 327.625 195.998 327.625C195.761 327.625 195.559 327.702 195.391 327.856C195.224 328.009 195.14 328.188 195.14 328.392C195.14 328.691 195.219 328.944 195.376 329.151C195.534 329.357 195.733 329.461 195.975 329.461Z" fill="#829CF8"/>
<path d="M194.598 313.617L196.671 309.085H193.948V308.104H197.91V308.836L195.821 313.617H194.598Z" fill="#829CF8"/>
<path d="M217.478 308.025C218.007 308.025 218.433 308.146 218.756 308.386C219.08 308.626 219.242 308.951 219.242 309.358C219.242 309.64 219.164 309.892 219.008 310.112C218.851 310.332 218.6 310.529 218.252 310.703C218.665 310.924 218.962 311.155 219.142 311.396C219.322 311.636 219.412 311.9 219.412 312.187C219.412 312.64 219.234 313.004 218.879 313.28C218.524 313.556 218.057 313.693 217.478 313.693C216.874 313.693 216.399 313.565 216.054 313.308C215.71 313.051 215.537 312.688 215.537 312.217C215.537 311.902 215.621 311.623 215.788 311.378C215.956 311.134 216.224 310.919 216.594 310.733C216.28 310.534 216.053 310.321 215.915 310.094C215.776 309.868 215.707 309.62 215.707 309.35C215.707 308.955 215.871 308.636 216.198 308.391C216.525 308.147 216.952 308.025 217.478 308.025ZM216.617 312.149C216.617 312.366 216.693 312.534 216.844 312.655C216.995 312.776 217.201 312.837 217.463 312.837C217.753 312.837 217.969 312.774 218.113 312.65C218.256 312.525 218.328 312.361 218.328 312.157C218.328 311.988 218.257 311.83 218.114 311.683C217.972 311.535 217.741 311.379 217.422 311.213C216.885 311.459 216.617 311.772 216.617 312.149ZM217.471 308.879C217.272 308.879 217.111 308.93 216.989 309.032C216.867 309.134 216.806 309.27 216.806 309.441C216.806 309.592 216.854 309.728 216.951 309.847C217.048 309.967 217.224 310.09 217.478 310.216C217.725 310.1 217.897 309.981 217.995 309.861C218.094 309.74 218.143 309.6 218.143 309.441C218.143 309.268 218.08 309.131 217.954 309.03C217.828 308.929 217.667 308.879 217.471 308.879Z" fill="#829CF8"/>
<path d="M240.968 310.45C240.968 311.537 240.739 312.349 240.281 312.885C239.823 313.422 239.129 313.69 238.2 313.69C237.873 313.69 237.625 313.672 237.457 313.637V312.7C237.668 312.753 237.889 312.78 238.121 312.78C238.511 312.78 238.832 312.723 239.084 312.608C239.336 312.493 239.529 312.313 239.662 312.068C239.795 311.823 239.872 311.484 239.892 311.054H239.847C239.701 311.291 239.532 311.457 239.341 311.553C239.149 311.648 238.91 311.696 238.623 311.696C238.143 311.696 237.764 311.542 237.487 311.233C237.21 310.925 237.071 310.496 237.071 309.948C237.071 309.356 237.239 308.888 237.575 308.545C237.912 308.201 238.369 308.029 238.948 308.029C239.356 308.029 239.713 308.125 240.019 308.316C240.325 308.508 240.559 308.785 240.723 309.149C240.887 309.513 240.968 309.946 240.968 310.45ZM238.971 308.966C238.729 308.966 238.54 309.049 238.404 309.215C238.268 309.381 238.2 309.62 238.2 309.932C238.2 310.199 238.262 310.411 238.385 310.567C238.509 310.723 238.696 310.801 238.948 310.801C239.185 310.801 239.387 310.724 239.556 310.569C239.725 310.414 239.809 310.236 239.809 310.035C239.809 309.735 239.73 309.482 239.573 309.276C239.416 309.069 239.215 308.966 238.971 308.966Z" fill="#829CF8"/>
<path d="M197.859 360.974C197.859 361.938 197.701 362.652 197.385 363.115C197.069 363.579 196.583 363.81 195.925 363.81C195.288 363.81 194.808 363.571 194.485 363.093C194.161 362.614 194 361.908 194 360.974C194 360 194.157 359.282 194.472 358.82C194.786 358.358 195.271 358.127 195.925 358.127C196.562 358.127 197.044 358.369 197.37 358.852C197.696 359.335 197.859 360.043 197.859 360.974ZM195.159 360.974C195.159 361.651 195.217 362.137 195.334 362.43C195.452 362.723 195.648 362.87 195.925 362.87C196.197 362.87 196.394 362.721 196.515 362.424C196.635 362.127 196.696 361.644 196.696 360.974C196.696 360.297 196.635 359.811 196.513 359.515C196.391 359.219 196.195 359.071 195.925 359.071C195.651 359.071 195.455 359.219 195.336 359.515C195.218 359.811 195.159 360.297 195.159 360.974Z" fill="#829CF8"/>
<path d="M238.469 361.535H236.521V360.429H238.469V358.461H239.571V360.429H241.518V361.535H239.571V363.478H238.469V361.535Z" fill="#829CF8"/>
<path d="M260.571 328.468L258.981 330.058L258.082 329.158L259.672 327.568L258.069 325.966L258.969 325.066L260.571 326.669L262.161 325.079L263.061 325.979L261.471 327.568L263.053 329.15L262.153 330.05L260.571 328.468Z" fill="#829CF8"/>
<path d="M216.458 360.968C216.458 360.643 216.545 360.397 216.719 360.23C216.894 360.064 217.147 359.98 217.481 359.98C217.802 359.98 218.051 360.066 218.227 360.236C218.403 360.407 218.491 360.651 218.491 360.968C218.491 361.274 218.402 361.515 218.224 361.692C218.046 361.868 217.798 361.956 217.481 361.956C217.155 361.956 216.903 361.87 216.725 361.697C216.547 361.525 216.458 361.282 216.458 360.968Z" fill="#829CF8"/>
<path d="M258.07 311.484V310.234H263.06V311.484H258.07Z" fill="#829CF8"/>
<path d="M259.839 309.069C259.839 308.836 259.901 308.661 260.026 308.542C260.15 308.423 260.331 308.363 260.569 308.363C260.799 308.363 260.977 308.424 261.102 308.546C261.228 308.668 261.291 308.842 261.291 309.069C261.291 309.287 261.228 309.46 261.1 309.585C260.973 309.711 260.796 309.774 260.569 309.774C260.337 309.774 260.157 309.713 260.03 309.59C259.903 309.466 259.839 309.293 259.839 309.069Z" fill="#829CF8"/>
<path d="M259.839 312.649C259.839 312.416 259.901 312.241 260.026 312.122C260.15 312.003 260.331 311.943 260.569 311.943C260.799 311.943 260.977 312.004 261.102 312.126C261.228 312.248 261.291 312.422 261.291 312.649C261.291 312.867 261.228 313.04 261.1 313.165C260.973 313.291 260.796 313.354 260.569 313.354C260.337 313.354 260.157 313.293 260.03 313.17C259.903 313.046 259.839 312.873 259.839 312.649Z" fill="#829CF8"/>
<path d="M219.412 347.067H215.552V346.255L216.938 344.854C217.348 344.434 217.617 344.142 217.742 343.98C217.868 343.817 217.959 343.667 218.014 343.528C218.07 343.39 218.097 343.247 218.097 343.098C218.097 342.876 218.036 342.712 217.914 342.603C217.792 342.495 217.629 342.441 217.425 342.441C217.211 342.441 217.004 342.49 216.802 342.588C216.601 342.687 216.391 342.826 216.172 343.007L215.537 342.256C215.809 342.024 216.034 341.861 216.213 341.765C216.392 341.669 216.587 341.596 216.798 341.544C217.01 341.493 217.246 341.467 217.508 341.467C217.853 341.467 218.158 341.53 218.422 341.656C218.686 341.782 218.892 341.958 219.038 342.184C219.184 342.411 219.257 342.67 219.257 342.962C219.257 343.217 219.212 343.455 219.122 343.678C219.033 343.901 218.895 344.129 218.707 344.363C218.519 344.597 218.189 344.931 217.716 345.364L217.006 346.032V346.085H219.411V347.067H219.412Z" fill="#829CF8"/>
<path d="M240.768 342.742C240.768 343.087 240.664 343.38 240.455 343.622C240.246 343.864 239.953 344.03 239.575 344.12V344.143C240.021 344.198 240.358 344.334 240.587 344.549C240.816 344.764 240.931 345.054 240.931 345.419C240.931 345.951 240.738 346.364 240.353 346.66C239.968 346.956 239.418 347.104 238.703 347.104C238.104 347.104 237.573 347.004 237.109 346.805V345.812C237.323 345.92 237.559 346.008 237.816 346.077C238.072 346.144 238.327 346.178 238.578 346.178C238.964 346.178 239.248 346.113 239.432 345.982C239.616 345.851 239.708 345.641 239.708 345.351C239.708 345.092 239.602 344.908 239.39 344.8C239.179 344.692 238.841 344.638 238.378 344.638H237.959V343.743H238.386C238.814 343.743 239.127 343.687 239.324 343.575C239.522 343.463 239.621 343.271 239.621 342.999C239.621 342.581 239.359 342.372 238.835 342.372C238.654 342.372 238.469 342.402 238.282 342.462C238.094 342.523 237.886 342.627 237.657 342.776L237.117 341.972C237.62 341.609 238.221 341.428 238.918 341.428C239.49 341.428 239.941 341.544 240.272 341.775C240.603 342.007 240.768 342.329 240.768 342.742Z" fill="#829CF8"/>
<path d="M241.1 329.178H240.436V330.322H239.295V329.178H236.939V328.366L239.359 324.801H240.436V328.271H241.1L241.1 329.178ZM239.295 328.271V327.335C239.295 327.179 239.302 326.952 239.314 326.655C239.327 326.358 239.337 326.185 239.344 326.138H239.314C239.221 326.344 239.109 326.545 238.978 326.742L237.966 328.271H239.295Z" fill="#829CF8"/>
<path d="M217.571 326.76C218.104 326.76 218.529 326.909 218.845 327.209C219.161 327.509 219.319 327.919 219.319 328.44C219.319 329.057 219.129 329.531 218.749 329.864C218.369 330.196 217.825 330.362 217.118 330.362C216.503 330.362 216.008 330.263 215.63 330.064V329.056C215.829 329.161 216.06 329.248 216.325 329.314C216.589 329.381 216.84 329.414 217.076 329.414C217.789 329.414 218.145 329.122 218.145 328.538C218.145 327.982 217.776 327.704 217.038 327.704C216.905 327.704 216.758 327.717 216.597 327.743C216.436 327.77 216.305 327.798 216.204 327.828L215.74 327.579L215.947 324.766H218.942V325.755H216.971L216.869 326.839L217.001 326.812C217.154 326.777 217.344 326.76 217.571 326.76Z" fill="#829CF8"/>
<path d="M263.071 343.629H258.059V344.901H263.071V343.629Z" fill="#829CF8"/>
<path d="M226.058 279.445C226.757 279.445 227.307 279.618 227.708 279.965C228.109 280.311 228.31 280.786 228.31 281.388C228.31 282.075 228.091 282.614 227.654 283.004C227.216 283.395 226.613 283.59 225.845 283.59C225.097 283.59 224.526 283.471 224.133 283.231V282.505C224.345 282.641 224.608 282.748 224.923 282.825C225.238 282.902 225.548 282.941 225.854 282.941C226.386 282.941 226.8 282.815 227.095 282.564C227.391 282.313 227.538 281.95 227.538 281.474C227.538 280.548 226.97 280.085 225.835 280.085C225.548 280.085 225.163 280.129 224.682 280.217L224.292 279.967L224.541 276.861H227.842V277.556H225.186L225.018 279.549C225.366 279.48 225.713 279.445 226.058 279.445Z" fill="black"/>
<path d="M233.976 281.975H232.991V283.5H232.269V281.975H229.041V281.317L232.192 276.826H232.991V281.289H233.976V281.975ZM232.269 281.289V279.083C232.269 278.65 232.284 278.161 232.315 277.616H232.278C232.133 277.907 231.997 278.147 231.87 278.338L229.795 281.289H232.269Z" fill="black"/>
<path d="M238.73 278.423C238.73 278.847 238.611 279.193 238.374 279.462C238.136 279.732 237.799 279.912 237.364 280.003V280.039C237.896 280.106 238.291 280.275 238.549 280.548C238.806 280.82 238.934 281.177 238.934 281.619C238.934 282.252 238.715 282.738 238.276 283.079C237.837 283.419 237.214 283.59 236.405 283.59C236.054 283.59 235.733 283.563 235.441 283.51C235.148 283.457 234.865 283.364 234.589 283.231V282.514C234.877 282.656 235.183 282.764 235.509 282.838C235.834 282.912 236.142 282.949 236.433 282.949C237.58 282.949 238.153 282.5 238.153 281.601C238.153 280.796 237.521 280.393 236.256 280.393H235.602V279.744H236.265C236.782 279.744 237.192 279.63 237.495 279.401C237.798 279.173 237.949 278.856 237.949 278.45C237.949 278.126 237.838 277.872 237.615 277.687C237.393 277.503 237.091 277.41 236.71 277.41C236.419 277.41 236.145 277.45 235.888 277.528C235.63 277.607 235.337 277.752 235.007 277.964L234.626 277.456C234.898 277.241 235.212 277.072 235.568 276.949C235.923 276.827 236.298 276.766 236.691 276.766C237.336 276.766 237.837 276.913 238.194 277.208C238.551 277.503 238.73 277.908 238.73 278.423Z" fill="black"/>
<path d="M244.296 283.499H239.933V282.85L241.681 281.093C242.214 280.554 242.565 280.17 242.735 279.939C242.904 279.709 243.031 279.485 243.116 279.267C243.201 279.049 243.243 278.815 243.243 278.564C243.243 278.21 243.135 277.929 242.921 277.721C242.706 277.514 242.408 277.41 242.026 277.41C241.751 277.41 241.49 277.456 241.243 277.547C240.996 277.637 240.722 277.802 240.419 278.041L240.019 277.528C240.631 277.02 241.297 276.766 242.017 276.766C242.641 276.766 243.13 276.925 243.484 277.245C243.838 277.564 244.015 277.993 244.015 278.532C244.015 278.953 243.897 279.369 243.661 279.78C243.425 280.192 242.983 280.713 242.335 281.342L240.882 282.763V282.8H244.297L244.296 283.499Z" fill="black"/>
<path d="M248.042 283.499H247.307V278.768C247.307 278.375 247.319 278.003 247.343 277.651C247.28 277.715 247.208 277.782 247.13 277.851C247.051 277.921 246.691 278.216 246.049 278.737L245.649 278.219L247.407 276.861H248.042V283.499Z" fill="black"/>
<path d="M251.702 282.418L251.77 282.522C251.691 282.825 251.577 283.177 251.429 283.578C251.281 283.979 251.126 284.352 250.966 284.697H250.398C250.48 284.382 250.57 283.993 250.669 283.53C250.767 283.067 250.836 282.697 250.875 282.418H251.702Z" fill="black"/>
<path d="M257.209 283.499H252.846V282.85L254.594 281.093C255.127 280.554 255.478 280.17 255.648 279.939C255.817 279.709 255.944 279.485 256.029 279.267C256.114 279.049 256.156 278.815 256.156 278.564C256.156 278.21 256.049 277.929 255.834 277.721C255.619 277.514 255.321 277.41 254.939 277.41C254.664 277.41 254.403 277.456 254.156 277.547C253.909 277.637 253.635 277.802 253.332 278.041L252.932 277.528C253.544 277.02 254.21 276.766 254.93 276.766C255.554 276.766 256.043 276.925 256.397 277.245C256.751 277.564 256.928 277.993 256.928 278.532C256.928 278.953 256.81 279.369 256.574 279.78C256.338 280.192 255.896 280.713 255.248 281.342L253.795 282.763V282.8H257.21L257.209 283.499Z" fill="black"/>
<path d="M260.238 279.445C260.937 279.445 261.487 279.618 261.889 279.965C262.289 280.311 262.49 280.786 262.49 281.388C262.49 282.075 262.271 282.614 261.834 283.004C261.397 283.395 260.793 283.59 260.025 283.59C259.277 283.59 258.707 283.471 258.313 283.231V282.505C258.525 282.641 258.788 282.748 259.103 282.825C259.418 282.902 259.728 282.941 260.034 282.941C260.566 282.941 260.98 282.815 261.276 282.564C261.571 282.313 261.718 281.95 261.718 281.474C261.718 280.548 261.151 280.085 260.016 280.085C259.728 280.085 259.344 280.129 258.862 280.217L258.472 279.967L258.722 276.861H262.022V277.556H259.366L259.198 279.549C259.546 279.48 259.893 279.445 260.238 279.445Z" fill="black"/>
<path opacity="0.1" d="M282.164 381.344C292.687 381.344 301.217 372.813 301.217 362.29C301.217 351.767 292.687 343.236 282.164 343.236C271.641 343.236 263.11 351.767 263.11 362.29C263.11 372.813 271.641 381.344 282.164 381.344Z" fill="black"/>
<path d="M298.472 375.762C305.913 368.321 305.913 356.257 298.472 348.816C291.032 341.375 278.967 341.375 271.527 348.816C264.086 356.257 264.086 368.321 271.527 375.762C278.968 383.203 291.032 383.203 298.472 375.762Z" fill="#FDC538"/>
<path d="M297.054 374.344C303.712 367.686 303.712 356.892 297.054 350.234C290.397 343.577 279.602 343.577 272.945 350.234C266.287 356.892 266.287 367.686 272.945 374.344C279.602 381.001 290.397 381.001 297.054 374.344Z" fill="#FDB606"/>
<path opacity="0.5" d="M270.012 363.689C269.68 361.588 269.859 359.385 270.529 357.331C270.855 356.301 271.315 355.314 271.864 354.38C272.418 353.448 273.081 352.582 273.823 351.792C274.572 351.009 275.4 350.301 276.294 349.69C277.193 349.087 278.147 348.565 279.152 348.168C281.153 347.361 283.327 346.999 285.451 347.142C283.329 347.279 281.257 347.779 279.357 348.648C278.41 349.087 277.499 349.6 276.656 350.21C275.808 350.811 275.018 351.493 274.308 352.251C274.126 352.436 273.959 352.636 273.784 352.827C273.616 353.025 273.455 353.229 273.29 353.429C273.138 353.639 272.98 353.846 272.831 354.058C272.689 354.276 272.539 354.489 272.402 354.709C271.846 355.587 271.391 356.528 271.019 357.502C270.283 359.456 269.957 361.564 270.012 363.689Z" fill="white"/>
<path d="M284.729 370.898V368.532C283.338 368.508 281.9 368.086 281.061 367.501L281.636 365.931C282.499 366.493 283.746 366.939 285.089 366.939C286.791 366.939 287.942 365.978 287.942 364.643C287.942 363.354 287.007 362.558 285.233 361.855C282.787 360.918 281.276 359.84 281.276 357.802C281.276 355.858 282.691 354.382 284.897 354.03V351.664H286.384V353.936C287.822 353.983 288.805 354.358 289.501 354.756L288.901 356.303C288.398 356.021 287.415 355.506 285.88 355.506C284.034 355.506 283.339 356.584 283.339 357.521C283.339 358.739 284.226 359.348 286.312 360.191C288.781 361.175 290.028 362.394 290.028 364.478C290.028 366.329 288.709 368.063 286.24 368.461V370.897H284.729V370.898Z" fill="white"/>
<path opacity="0.1" d="M307.356 381.344C317.879 381.344 326.41 372.813 326.41 362.29C326.41 351.767 317.879 343.236 307.356 343.236C296.833 343.236 288.302 351.767 288.302 362.29C288.302 372.813 296.833 381.344 307.356 381.344Z" fill="black"/>
<path d="M323.922 375.762C331.363 368.321 331.363 356.257 323.922 348.816C316.481 341.375 304.417 341.375 296.976 348.816C289.535 356.257 289.535 368.321 296.976 375.762C304.417 383.203 316.481 383.203 323.922 375.762Z" fill="#FDC538"/>
<path d="M310.453 379.338C319.869 379.338 327.501 371.706 327.501 362.29C327.501 352.875 319.869 345.242 310.453 345.242C301.038 345.242 293.405 352.875 293.405 362.29C293.405 371.706 301.038 379.338 310.453 379.338Z" fill="#FDB606"/>
<path opacity="0.5" d="M295.461 363.689C295.13 361.588 295.309 359.385 295.978 357.331C296.305 356.301 296.765 355.314 297.314 354.38C297.867 353.448 298.53 352.582 299.272 351.792C300.022 351.009 300.85 350.301 301.744 349.69C302.643 349.087 303.597 348.565 304.601 348.168C306.603 347.361 308.777 346.999 310.901 347.142C308.779 347.279 306.706 347.779 304.807 348.648C303.86 349.087 302.949 349.6 302.106 350.21C301.258 350.811 300.468 351.493 299.758 352.251C299.576 352.436 299.409 352.636 299.234 352.827C299.065 353.025 298.905 353.229 298.74 353.429C298.587 353.639 298.43 353.846 298.28 354.058C298.139 354.276 297.989 354.489 297.852 354.709C297.295 355.587 296.841 356.528 296.469 357.502C295.733 359.456 295.407 361.564 295.461 363.689Z" fill="white"/>
<path d="M310.179 370.898V368.532C308.789 368.508 307.35 368.086 306.511 367.501L307.086 365.931C307.949 366.493 309.196 366.939 310.539 366.939C312.241 366.939 313.392 365.978 313.392 364.643C313.392 363.354 312.457 362.558 310.683 361.855C308.237 360.918 306.727 359.84 306.727 357.802C306.727 355.858 308.141 354.382 310.347 354.03V351.664H311.834V353.936C313.272 353.983 314.255 354.358 314.951 354.756L314.351 356.303C313.848 356.021 312.865 355.506 311.33 355.506C309.484 355.506 308.789 356.584 308.789 357.521C308.789 358.739 309.676 359.348 311.762 360.191C314.232 361.175 315.478 362.394 315.478 364.478C315.478 366.329 314.16 368.063 311.69 368.461V370.897H310.179V370.898Z" fill="white"/>
<path d="M466.979 258.942C464.463 257.808 463.344 256.002 462.849 254.679L462.843 254.661H461.333C457.859 254.661 455.034 251.836 455.034 248.362V246.709C455.034 243.236 457.859 240.41 461.333 240.41H468.232C471.706 240.41 474.532 243.236 474.532 246.709V248.362C474.532 251.836 471.706 254.661 468.232 254.661H466.293L466.286 254.679C465.584 256.519 466.724 258.527 466.979 258.942Z" fill="white"/>
<path d="M468.232 240.437C471.691 240.437 474.504 243.251 474.504 246.709V248.362C474.504 251.821 471.691 254.634 468.232 254.634H466.312H466.274L466.261 254.669C465.59 256.426 466.587 258.334 466.91 258.88C464.459 257.748 463.363 255.973 462.875 254.67L462.861 254.634H462.824H461.333C457.874 254.634 455.061 251.821 455.061 248.362V246.709C455.061 243.251 457.874 240.437 461.333 240.437H468.232ZM468.232 240.383H461.333C457.839 240.383 455.006 243.215 455.006 246.709V248.362C455.006 251.856 457.839 254.689 461.333 254.689H462.824C463.283 255.916 464.399 257.838 467.051 259.003C467.051 259.003 465.523 256.753 466.312 254.689H468.232C471.726 254.689 474.559 251.856 474.559 248.362V246.709C474.559 243.215 471.726 240.383 468.232 240.383Z" fill="#040C2B"/>
<path d="M463.144 250.394L461.136 248.333C460.788 247.976 460.795 247.404 461.152 247.055C461.51 246.707 462.082 246.714 462.43 247.072L463.61 248.282L467.143 244.749C467.496 244.396 468.068 244.396 468.421 244.749C468.774 245.102 468.774 245.674 468.421 246.027L464.049 250.399C463.798 250.65 463.391 250.647 463.144 250.394Z" fill="#ACBCF8"/>
<path d="M510.115 143.428H488.329C485.909 143.428 483.947 141.467 483.947 139.047V120.034C483.947 117.614 485.909 115.652 488.329 115.652H510.115C512.535 115.652 514.496 117.614 514.496 120.034V139.047C514.496 141.467 512.535 143.428 510.115 143.428Z" fill="#DEE4FC"/>
<path d="M507.915 141.132H490.529C489.973 141.132 489.522 140.682 489.522 140.126V118.956C489.522 118.4 489.973 117.949 490.529 117.949H507.915C508.471 117.949 508.922 118.4 508.922 118.956V140.126C508.922 140.682 508.471 141.132 507.915 141.132Z" fill="white"/>
<path d="M506.97 120.008H491.474V124.705H506.97V120.008Z" fill="#ACBCF8"/>
<path d="M502.982 131.436H500.096V134.382H502.982V131.436Z" fill="#E3E9F7"/>
<path d="M498.671 131.436H495.785V134.382H498.671V131.436Z" fill="#E3E9F7"/>
<path d="M494.359 131.436H491.474V134.382H494.359V131.436Z" fill="#E3E9F7"/>
<path d="M502.982 126.75H500.096V129.697H502.982V126.75Z" fill="#E3E9F7"/>
<path d="M498.671 126.75H495.785V129.697H498.671V126.75Z" fill="#E3E9F7"/>
<path d="M494.359 126.75H491.474V129.697H494.359V126.75Z" fill="#E3E9F7"/>
<path d="M502.982 136.121H500.096V139.068H502.982V136.121Z" fill="#E3E9F7"/>
<path d="M498.671 136.121H495.785V139.068H498.671V136.121Z" fill="#E3E9F7"/>
<path d="M494.359 136.121H491.474V139.068H494.359V136.121Z" fill="#E3E9F7"/>
<path d="M506.97 126.75H504.475V132.913H506.97V126.75Z" fill="#E3E9F7"/>
<path d="M506.97 134.389H504.475V139.068H506.97V134.389Z" fill="#ACBCF8"/>
<path d="M505.532 123.696V123.346C505.335 123.342 505.131 123.28 505.012 123.193L505.094 122.961C505.216 123.044 505.392 123.11 505.582 123.11C505.823 123.11 505.986 122.968 505.986 122.77C505.986 122.579 505.854 122.462 505.603 122.358C505.257 122.219 505.043 122.059 505.043 121.758C505.043 121.47 505.243 121.252 505.555 121.2V120.85H505.766V121.186C505.97 121.193 506.109 121.248 506.207 121.307L506.122 121.536C506.051 121.494 505.912 121.418 505.695 121.418C505.433 121.418 505.335 121.578 505.335 121.716C505.335 121.897 505.46 121.987 505.756 122.112C506.105 122.257 506.282 122.437 506.282 122.746C506.282 123.02 506.095 123.276 505.746 123.335V123.696L505.532 123.696Z" fill="white"/>
<path d="M164.401 285.313H142.614C140.194 285.313 138.233 283.351 138.233 280.932V261.918C138.233 259.499 140.195 257.537 142.614 257.537H164.401C166.821 257.537 168.782 259.499 168.782 261.918V280.932C168.782 283.351 166.821 285.313 164.401 285.313Z" fill="#DEE4FC"/>
<path d="M163.205 265.439V277.412C163.205 277.656 163.126 277.881 162.994 278.064C162.874 278.227 162.713 278.358 162.525 278.437C162.392 278.494 162.245 278.525 162.092 278.525H144.924C144.77 278.525 144.624 278.494 144.491 278.437C144.303 278.358 144.141 278.227 144.021 278.064C143.89 277.881 143.811 277.656 143.811 277.412V265.439C143.811 265.253 143.857 265.076 143.938 264.923C144.029 264.749 144.165 264.602 144.33 264.498C144.502 264.388 144.706 264.326 144.924 264.326H162.092C162.31 264.326 162.513 264.389 162.685 264.498C162.85 264.602 162.986 264.749 163.078 264.923C163.158 265.076 163.205 265.253 163.205 265.439Z" fill="white"/>
<path d="M163.077 264.923L154.835 272.096L154.388 272.485L154.205 272.644C154.006 272.818 153.757 272.904 153.508 272.904C153.258 272.904 153.009 272.818 152.811 272.644L152.627 272.485L152.18 272.096L143.938 264.923C144.029 264.749 144.165 264.602 144.33 264.498L152.658 271.746L153.105 272.135L153.189 272.209C153.37 272.366 153.645 272.366 153.826 272.209L153.911 272.135L154.357 271.746L162.685 264.498C162.85 264.602 162.986 264.749 163.077 264.923Z" fill="#829CF8"/>
<path d="M153.105 272.135L152.627 272.485L144.491 278.437C144.303 278.357 144.141 278.227 144.021 278.064L152.18 272.096L152.658 271.746L153.105 272.135Z" fill="#829CF8"/>
<path d="M162.994 278.064C162.874 278.227 162.713 278.357 162.525 278.437L154.389 272.485L153.911 272.135L154.357 271.746L154.835 272.096L162.994 278.064Z" fill="#829CF8"/>
<path d="M229.12 217.891H207.333C204.914 217.891 202.952 215.93 202.952 213.51V194.497C202.952 192.077 204.914 190.115 207.333 190.115H229.12C231.54 190.115 233.501 192.077 233.501 194.497V213.51C233.501 215.93 231.54 217.891 229.12 217.891Z" fill="#DEE4FC"/>
<path d="M213.686 211.926L208.12 206.216C207.155 205.226 207.175 203.64 208.166 202.674C209.156 201.709 210.742 201.729 211.707 202.72L214.977 206.075L224.769 196.282C225.747 195.304 227.333 195.304 228.311 196.282C229.289 197.261 229.289 198.846 228.311 199.824L216.193 211.942C215.499 212.637 214.371 212.629 213.686 211.926Z" fill="white"/>
<path d="M436.829 83.5922H419.427C415.512 83.5922 412.338 80.4184 412.338 76.5034V59.0849C412.338 55.1698 415.512 51.9961 419.427 51.9961H436.829C440.744 51.9961 443.918 55.1699 443.918 59.0849V76.5034C443.918 80.4184 440.744 83.5922 436.829 83.5922Z" fill="#DEE4FC"/>
<path d="M634.653 58H631.347C630.603 58 630 57.3973 630 56.6539V53.3461C630 52.6027 630.603 52 631.347 52H634.653C635.397 52 636 52.6027 636 53.3461V56.6539C636 57.3973 635.397 58 634.653 58Z" fill="#DEE4FC"/>
<path d="M678.653 169H675.347C674.603 169 674 168.397 674 167.654V164.346C674 163.603 674.603 163 675.347 163H678.653C679.397 163 680 163.603 680 164.346V167.654C680 168.397 679.397 169 678.653 169Z" fill="#DEE4FC"/>
<path d="M610.653 308H607.347C606.603 308 606 307.397 606 306.654V303.346C606 302.603 606.603 302 607.347 302H610.653C611.397 302 612 302.603 612 303.346V306.654C612 307.397 611.397 308 610.653 308Z" fill="#DEE4FC"/>
<path d="M95.6532 277H92.3468C91.603 277 91 276.397 91 275.654V272.346C91 271.603 91.603 271 92.3468 271H95.6532C96.397 271 97 271.603 97 272.346V275.654C97 276.397 96.397 277 95.6532 277Z" fill="#DEE4FC"/>
<path d="M44.6532 55H41.3468C40.603 55 40 54.3973 40 53.6539V50.3461C40 49.6027 40.603 49 41.3468 49H44.6532C45.397 49 46 49.6027 46 50.3461V53.6539C46 54.3973 45.397 55 44.6532 55Z" fill="#DEE4FC"/>
<path d="M427.331 77.1916V74.8794C425.972 74.8565 424.566 74.4445 423.746 73.8722L424.308 72.3382C425.152 72.8877 426.37 73.3226 427.682 73.3226C429.346 73.3226 430.47 72.3841 430.47 71.0791C430.47 69.82 429.557 69.0416 427.823 68.3548C425.433 67.4391 423.957 66.386 423.957 64.3943C423.957 62.4942 425.339 61.0519 427.495 60.7086V58.3965H428.948V60.6171C430.353 60.6629 431.314 61.0291 431.994 61.4184L431.408 62.9293C430.916 62.6545 429.955 62.1509 428.456 62.1509C426.652 62.1509 425.972 63.204 425.972 64.1197C425.972 65.3101 426.839 65.9055 428.877 66.7295C431.291 67.6911 432.509 68.8814 432.509 70.919C432.509 72.7275 431.22 74.4216 428.807 74.8107V77.1916H427.331Z" fill="white"/>
<path d="M577.731 213.335H555.944C553.525 213.335 551.563 211.373 551.563 208.953V189.94C551.563 187.52 553.525 185.559 555.944 185.559H577.731C580.151 185.559 582.112 187.52 582.112 189.94V208.953C582.112 211.373 580.151 213.335 577.731 213.335Z" fill="#DEE4FC"/>
<path d="M576.23 205.136L560.025 190.744L556.836 189.601L555.259 189.035L556.014 190.548L557.519 193.565L557.523 193.561L573.729 207.953L576.23 205.136Z" fill="#829CF8"/>
<path d="M576.214 205.121L573.713 207.938L575.666 209.672C575.972 209.944 576.44 209.916 576.712 209.61L578.229 207.901C578.501 207.595 578.473 207.127 578.167 206.855L576.214 205.121Z" fill="white"/>
<path d="M556.836 189.601L555.259 189.035L556.014 190.548C556.275 190.54 556.498 190.454 556.65 190.283C556.805 190.108 556.864 189.869 556.836 189.601Z" fill="#040C2B"/>
<path d="M574.154 207.474L557.658 192.824C558.397 193.73 557.936 193.747 557.687 193.707L573.729 207.953L574.154 207.474Z" fill="#ACBCF8"/>
<path d="M574.72 206.837L558.211 192.176C558.882 193.362 557.659 192.818 557.659 192.818L568.147 202.14L574.152 207.477L574.72 206.837Z" fill="white"/>
<path d="M575.238 206.255L558.755 191.617C559.46 192.778 558.211 192.176 558.211 192.176L574.718 206.841L575.238 206.255Z" fill="#ACBCF8"/>
<path d="M575.761 205.663L559.299 191.043C560.003 192.204 558.755 191.602 558.755 191.602L575.242 206.249L575.761 205.663Z" fill="white"/>
<path d="M576.23 205.136L560.209 190.908C560.59 191.826 559.292 191.039 559.292 191.039L559.299 191.044L575.759 205.668L576.23 205.136Z" fill="#ACBCF8"/>
<path d="M268.115 126.741H246.329C243.909 126.741 241.947 124.779 241.947 122.36V103.346C241.947 100.926 243.909 98.9648 246.329 98.9648H268.115C270.535 98.9648 272.497 100.926 272.497 103.346V122.36C272.497 124.779 270.535 126.741 268.115 126.741Z" fill="#DEE4FC"/>
<path d="M265.159 122.121H249.284C248.433 122.121 247.742 121.431 247.742 120.579V106.017C247.742 105.165 248.433 104.475 249.284 104.475H265.159C266.011 104.475 266.701 105.165 266.701 106.017V120.579C266.701 121.431 266.011 122.121 265.159 122.121Z" fill="#ACBCF8"/>
<path d="M249.303 105.363C249.074 105.363 248.888 105.177 248.888 104.948V104.001C248.888 103.772 249.074 103.586 249.303 103.586C249.532 103.586 249.718 103.772 249.718 104.001V104.948C249.718 105.177 249.532 105.363 249.303 105.363Z" fill="white"/>
<path d="M250.887 105.363C250.658 105.363 250.472 105.177 250.472 104.948V104.001C250.472 103.772 250.658 103.586 250.887 103.586C251.116 103.586 251.302 103.772 251.302 104.001V104.948C251.302 105.177 251.116 105.363 250.887 105.363Z" fill="white"/>
<path d="M252.471 105.363C252.242 105.363 252.056 105.177 252.056 104.948V104.001C252.056 103.772 252.242 103.586 252.471 103.586C252.7 103.586 252.886 103.772 252.886 104.001V104.948C252.886 105.177 252.7 105.363 252.471 105.363Z" fill="white"/>
<path d="M254.055 105.363C253.825 105.363 253.64 105.177 253.64 104.948V104.001C253.64 103.772 253.825 103.586 254.055 103.586C254.284 103.586 254.47 103.772 254.47 104.001V104.948C254.47 105.177 254.284 105.363 254.055 105.363Z" fill="white"/>
<path d="M255.638 105.363C255.409 105.363 255.223 105.177 255.223 104.948V104.001C255.223 103.772 255.409 103.586 255.638 103.586C255.867 103.586 256.053 103.772 256.053 104.001V104.948C256.053 105.177 255.867 105.363 255.638 105.363Z" fill="white"/>
<path d="M257.222 105.363C256.993 105.363 256.807 105.177 256.807 104.948V104.001C256.807 103.772 256.993 103.586 257.222 103.586C257.451 103.586 257.637 103.772 257.637 104.001V104.948C257.637 105.177 257.451 105.363 257.222 105.363Z" fill="white"/>
<path d="M258.806 105.363C258.576 105.363 258.391 105.177 258.391 104.948V104.001C258.391 103.772 258.576 103.586 258.806 103.586C259.035 103.586 259.221 103.772 259.221 104.001V104.948C259.221 105.177 259.035 105.363 258.806 105.363Z" fill="white"/>
<path d="M260.39 105.363C260.16 105.363 259.975 105.177 259.975 104.948V104.001C259.975 103.772 260.16 103.586 260.39 103.586C260.619 103.586 260.805 103.772 260.805 104.001V104.948C260.805 105.177 260.619 105.363 260.39 105.363Z" fill="white"/>
<path d="M261.973 105.363C261.744 105.363 261.558 105.177 261.558 104.948V104.001C261.558 103.772 261.744 103.586 261.973 103.586C262.202 103.586 262.388 103.772 262.388 104.001V104.948C262.388 105.177 262.202 105.363 261.973 105.363Z" fill="white"/>
<path d="M263.557 105.363C263.328 105.363 263.142 105.177 263.142 104.948V104.001C263.142 103.772 263.328 103.586 263.557 103.586C263.786 103.586 263.972 103.772 263.972 104.001V104.948C263.972 105.177 263.786 105.363 263.557 105.363Z" fill="white"/>
<path d="M265.141 105.363C264.911 105.363 264.726 105.177 264.726 104.948V104.001C264.726 103.772 264.911 103.586 265.141 103.586C265.37 103.586 265.556 103.772 265.556 104.001V104.948C265.556 105.177 265.37 105.363 265.141 105.363Z" fill="white"/>
<path d="M266.698 108.021H247.722V120.708H266.698V108.021Z" fill="white"/>
<path d="M251.78 109.566H249.507V111.839H251.78V109.566Z" fill="#E3E9F7"/>
<path d="M251.78 113.229H249.507V115.502H251.78V113.229Z" fill="#E3E9F7"/>
<path d="M251.78 116.891H249.507V119.164H251.78V116.891Z" fill="#E3E9F7"/>
<path d="M255.064 109.566H252.791V111.839H255.064V109.566Z" fill="#E3E9F7"/>
<path d="M255.064 113.229H252.791V115.502H255.064V113.229Z" fill="#E3E9F7"/>
<path d="M255.064 116.891H252.791V119.164H255.064V116.891Z" fill="#E3E9F7"/>
<path d="M258.347 109.566H256.074V111.839H258.347V109.566Z" fill="#E3E9F7"/>
<path d="M258.347 113.229H256.074V115.502H258.347V113.229Z" fill="#E3E9F7"/>
<path d="M258.347 116.891H256.074V119.164H258.347V116.891Z" fill="#E3E9F7"/>
<path d="M261.63 109.566H259.357V111.839H261.63V109.566Z" fill="#E3E9F7"/>
<path d="M261.63 113.229H259.357V115.502H261.63V113.229Z" fill="#E3E9F7"/>
<path d="M261.63 116.891H259.357V119.164H261.63V116.891Z" fill="#E3E9F7"/>
<path d="M264.913 109.566H262.64V111.839H264.913V109.566Z" fill="#E3E9F7"/>
<path d="M264.913 113.229H262.64V115.502H264.913V113.229Z" fill="#E3E9F7"/>
<path d="M264.913 116.891H262.64V119.164H264.913V116.891Z" fill="#E3E9F7"/>
</g>
<defs>
<filter id="filter0_d_1018_13941" x="-10" y="-8" width="733" height="420" filterUnits="userSpaceOnUse" color-interpolation-filters="sRGB">
<feFlood flood-opacity="0" result="BackgroundImageFix"/>
<feColorMatrix in="SourceAlpha" type="matrix" values="0 0 0 0 0 0 0 0 0 0 0 0 0 0 0 0 0 0 127 0" result="hardAlpha"/>
<feOffset dy="2"/>
<feGaussianBlur stdDeviation="5"/>
<feComposite in2="hardAlpha" operator="out"/>
<feColorMatrix type="matrix" values="0 0 0 0 0.117647 0 0 0 0 0.533333 0 0 0 0 0.898039 0 0 0 0.05 0"/>
<feBlend mode="normal" in2="BackgroundImageFix" result="effect1_dropShadow_1018_13941"/>
<feBlend mode="normal" in="SourceGraphic" in2="effect1_dropShadow_1018_13941" result="shape"/>
</filter>
<clipPath id="clip0_1018_13941">
<rect width="713" height="400" fill="white"/>
</clipPath>
</defs>
</svg>
