<svg width="30" height="30" viewBox="0 0 30 30" fill="none" xmlns="http://www.w3.org/2000/svg">
<g clip-path="url(#clip0_821_11203)">
<path d="M6.25 8.21889C6.25 7.5641 6.51339 6.93613 6.98223 6.47312C7.45107 6.01011 8.08696 5.75 8.75 5.75H21.25C21.913 5.75 22.5489 6.01011 23.0178 6.47312C23.4866 6.93613 23.75 7.5641 23.75 8.21889V25.5011C23.75 26.1559 23.4866 26.7839 23.0178 27.2469C22.5489 27.7099 21.913 27.97 21.25 27.97H8.75C8.08696 27.97 7.45107 27.7099 6.98223 27.2469C6.51339 26.7839 6.25 26.1559 6.25 25.5011V8.21889Z" stroke="#00CFD9" stroke-width="2" stroke-linecap="round" stroke-linejoin="round"/>
<path d="M18.2778 15.3193H14.9792C14.4543 15.3193 13.9508 15.5279 13.5797 15.899C13.2085 16.2702 13 16.7736 13 17.2985C13 17.8234 13.2085 18.3268 13.5797 18.698C13.9508 19.0691 14.4543 19.2776 14.9792 19.2776H16.2986C16.8235 19.2776 17.3269 19.4861 17.6981 19.8573C18.0693 20.2285 18.2778 20.7319 18.2778 21.2568C18.2778 21.7817 18.0693 22.2851 17.6981 22.6562C17.3269 23.0274 16.8235 23.2359 16.2986 23.2359H13" stroke="#00CFD9" stroke-width="2.17014" stroke-linecap="round" stroke-linejoin="round"/>
<path d="M15.6387 23.236V24.5554M15.6387 14V15.3194" stroke="#00CFD9" stroke-width="2.17014" stroke-linecap="round" stroke-linejoin="round"/>
<path d="M11.25 10.75H18.75" stroke="#00CFD9" stroke-width="2" stroke-linecap="round" stroke-linejoin="round"/>
</g>
<defs>
<clipPath id="clip0_821_11203">
<rect width="30" height="30" fill="white"/>
</clipPath>
</defs>
</svg>
