<svg width="703" height="587" viewBox="0 0 703 587" fill="none" xmlns="http://www.w3.org/2000/svg">
<g clip-path="url(#clip0_1320_4548)">
<path opacity="0.5" d="M124.799 530.222C124.799 530.222 37.9258 468.432 12.9152 363.257C-12.0954 258.073 26.0766 130.546 98.4681 66.1269C170.868 1.69983 301.177 45.0934 359.095 98.9957C417.013 152.898 417.013 152.898 417.013 152.898C417.013 152.898 472.291 183.138 544.69 180.508C617.082 177.879 681.576 276.486 698.69 354.051C715.804 431.624 675 534.17 675 534.17L124.799 530.222Z" fill="#DDECFF"/>
<g opacity="0.5" style="mix-blend-mode:multiply">
<path d="M85.3067 546.005C85.3067 546.005 24.7564 513.137 8.96277 436.882C-6.83087 360.628 61.6162 290.942 68.1929 252.815C74.7776 214.688 60.2961 167.363 120.846 130.546C181.397 93.7373 289.328 106.883 330.132 97.6771C370.936 88.4789 418.325 25.3705 499.934 39.827C581.542 54.2915 660.518 97.6771 664.471 192.336C668.415 287.003 638.14 289.632 668.415 340.905C698.69 392.178 710.539 427.676 696.058 480.268C681.576 532.851 651.309 547.316 651.309 547.316L85.3067 546.005Z" fill="#DDECFF"/>
</g>
<g opacity="0.5" style="mix-blend-mode:multiply">
<path d="M211.735 528.912C207.966 524.964 152.728 414.53 214.248 313.294C275.761 212.059 430.19 223.894 491.711 263.332C553.231 302.778 583.363 354.051 589.638 407.953C595.912 461.863 554.488 546.005 554.488 546.005L211.735 528.912Z" fill="#DDECFF"/>
</g>
<path d="M644.891 342.986H573.923C569.525 342.986 565.971 339.427 565.971 335.043V299.656C565.971 295.271 569.525 291.713 573.923 291.713H644.891C649.281 291.713 652.844 295.271 652.844 299.656V335.043C652.844 339.427 649.281 342.986 644.891 342.986Z" fill="#60A8FF"/>
<path d="M609.408 363.034L620.652 336.409H598.155L609.408 363.034Z" fill="#60A8FF"/>
<path d="M609.137 308.544H629.447V311.515L639.412 305.78L629.447 300.045V303.008H609.137V308.544Z" fill="#223A7A"/>
<path d="M639.412 320.213H619.093V317.242L609.137 322.977L619.093 328.712V325.741H639.412V320.213Z" fill="white"/>
<path d="M596.667 325.432L595.697 325.781C595.697 325.781 592.683 322.35 591.116 318.6C589.558 314.859 589.502 310.284 589.502 310.284L590.21 309.99L585.915 299.719C585.144 300.323 584.412 301.086 583.824 302.087C581.39 306.185 581.637 312.484 584.078 318.64C586.528 324.788 589.144 330.277 593.916 333.724C596.731 335.766 599.14 336.123 601.017 335.821L596.667 325.432Z" fill="#223A7A"/>
<path d="M599.753 324.224L598.417 324.709L602.814 335.218C603.313 335.053 603.755 334.863 604.142 334.646C605.28 334.026 605.773 332.66 605.295 331.46L602.997 325.678C602.488 324.399 601.049 323.748 599.753 324.224Z" fill="#223A7A"/>
<path d="M589.271 297.924C588.72 298.115 588.144 298.382 587.545 298.727L591.935 309.22L593.414 308.6C594.695 308.068 595.315 306.606 594.806 305.319L592.5 299.402C591.999 298.115 590.567 297.456 589.271 297.924Z" fill="#223A7A"/>
<path d="M191.21 511.159V392.837C191.21 392.837 189.897 360.953 206.677 351.747C223.465 342.549 294.21 347.482 294.21 347.482V511.159H191.21Z" fill="#1C83FF"/>
<path d="M316.31 236.714C316.31 236.714 312.032 272.538 310.394 275.493C308.747 278.456 308.747 278.456 308.747 278.456L300.517 284.04C300.517 284.04 316.31 306.392 335.73 310.006C355.142 313.62 353.496 302.118 353.496 302.118L350.538 295.875L354.482 261.696C354.482 261.696 319.277 245.587 316.31 236.714Z" fill="#FF9D8C"/>
<path d="M290.313 287.002L303.149 281.41C303.149 281.41 311.38 294.89 330.466 302.778C349.552 310.665 349.878 306.066 350.864 302.778C351.85 299.489 350.538 295.875 350.538 295.875L351.953 284.365L359.58 286.907L386.077 500.976L317.956 504.256L290.313 287.002Z" fill="white"/>
<path d="M353.17 284.588C353.17 284.588 357.774 295.216 362.053 320.197C366.331 345.178 370.284 387.245 371.27 416.174C372.256 445.095 372.916 511.159 372.916 511.159C372.916 511.159 457.817 511.159 458.803 511.159C459.789 511.159 465.714 478.623 465.714 478.623C465.714 478.623 428.194 446.517 426.221 441.259C424.909 437.756 425.561 372.789 419.971 342.875C414.372 312.969 407.135 306.94 392.002 299.489C376.351 291.792 353.17 284.588 353.17 284.588Z" fill="#223A7A"/>
<path d="M397.919 473.5C397.481 473.5 397.124 473.143 397.124 472.706C397.124 470.355 396.71 436.969 396.304 404.68C395.899 372.384 395.485 338.99 395.485 336.631C395.485 336.194 395.835 335.837 396.281 335.837C396.718 335.837 397.076 336.194 397.076 336.631C397.076 338.983 397.489 372.368 397.895 404.657C398.301 436.954 398.714 470.347 398.714 472.706C398.714 473.143 398.364 473.5 397.919 473.5Z" fill="#8593B6"/>
<path d="M226.805 465.477L226.153 511.159H326.187C326.187 511.159 330.466 472.38 328.819 468.758C327.173 465.144 226.805 465.477 226.805 465.477Z" fill="#223A7A"/>
<g style="mix-blend-mode:multiply">
<path d="M338.14 274.508C342.219 277.796 347.794 280.426 352.136 282.022L354.482 261.696C354.482 261.696 328.04 249.59 319.062 240.591C320.938 250.813 325.551 264.372 338.14 274.508Z" fill="#8E9BBB"/>
</g>
<path d="M385.417 169.992C385.417 169.992 392.328 181.819 393.648 196.284C394.96 210.748 393.648 247.89 381.799 263.665C369.95 279.441 345.273 274.841 334.084 265.31C323.817 256.556 313.678 246.897 311.046 227.834C308.413 208.77 316.644 172.621 340.009 165.059C363.373 157.497 385.417 169.992 385.417 169.992Z" fill="#FF9D8C"/>
<path d="M415.104 490.498C415.104 490.498 413.943 490.498 412.177 490.451C411.764 490.435 411.303 490.451 410.826 490.435C409.124 490.387 407.056 490.34 404.973 490.276C404.506 490.26 404.039 490.244 403.573 490.228C401.505 490.181 399.74 490.435 398.086 490.34H398.038C397.688 490.324 397.179 490.371 396.766 490.387C396.559 490.403 396.368 490.419 396.241 490.403C395.286 490.228 395.096 490.006 394.062 489.545C392.726 488.942 374.642 484.907 359.93 485.002C345.233 485.065 332.048 486.066 329.901 484.271C327.738 482.444 326.434 464 338.983 462.793L354.411 468.639C354.411 468.639 389.64 464.461 402.555 473.977C415.502 483.493 415.104 490.498 415.104 490.498Z" fill="#FF9D8C"/>
<path d="M398.038 490.34C397.688 490.324 397.179 490.371 396.766 490.387C396.448 489.879 395.779 488.958 395.414 488.576C391.437 484.525 381.831 481.904 378.348 481.062C378.03 480.983 377.823 480.665 377.902 480.347C377.966 480.029 378.3 479.839 378.634 479.902C383.708 481.126 394.475 484.255 397.529 489.386C397.624 489.529 397.879 490.022 398.038 490.34Z" fill="#223A7A"/>
<path d="M404.972 490.276C404.506 490.265 404.042 490.25 403.581 490.228C399.239 482.317 392.129 480.045 383.358 477.225L382.833 477.059C382.53 476.955 382.355 476.614 382.451 476.296C382.554 476.002 382.88 475.82 383.214 475.923L383.715 476.09C392.996 479.068 400.463 481.459 404.972 490.276Z" fill="#223A7A"/>
<path d="M412.177 490.451C411.759 490.446 411.308 490.44 410.825 490.435C408.193 484.906 399.477 475.645 387.946 473.492C387.612 473.437 387.397 473.127 387.453 472.801C387.525 472.483 387.835 472.269 388.153 472.325C400.034 474.549 409.609 484.239 412.177 490.451Z" fill="#223A7A"/>
<path d="M318.942 211.566C318.942 211.566 326.187 208.119 331.285 198.42C336.39 188.722 335.73 180.016 335.73 180.016C335.73 180.016 344.939 178.539 358.761 182.645C372.582 186.752 389.036 192.336 402.857 184.448C416.679 176.561 416.679 163.907 409.935 158.649C402.38 152.763 387.39 156.345 387.39 156.345C387.39 156.345 393.147 150.761 390.022 147.473C386.897 144.184 375.548 148.458 375.548 148.458C375.548 148.458 361.727 137.449 335.563 138.767C309.399 140.078 296.898 158.323 295.419 178.697C293.94 199.08 301.344 219.454 301.344 219.454L318.942 211.566Z" fill="#223A7A"/>
<g style="mix-blend-mode:multiply">
<path d="M372.017 216.507C370.538 220.161 370.578 224.394 370.204 228.271C369.91 231.281 369.353 234.8 372.121 236.833C373.441 237.803 379.692 240.424 376.479 242.553C375.254 243.363 373.202 243.14 371.803 243.077C370.838 243.034 369.876 242.981 368.916 242.918C367.882 242.838 366.872 242.529 365.838 242.529C365.234 242.521 365.043 243.331 365.536 243.633C367.198 244.673 369.632 244.991 371.572 245.07C373.505 245.142 374.825 245.055 376.566 244.189C377.64 243.657 378.682 242.91 378.849 241.631C379.04 240.201 377.966 238.915 376.884 238.112C375.644 237.191 374.117 236.762 372.86 235.864C371.111 234.617 371.254 232.52 371.381 230.582C371.676 225.904 372.749 221.312 373.171 216.666C373.234 215.951 372.248 215.951 372.017 216.507Z" fill="#8E9BBB"/>
</g>
<path d="M385.473 227.437C384.98 230.209 382.96 232.163 380.964 231.813C378.968 231.464 377.743 228.93 378.236 226.158C378.729 223.386 380.741 221.424 382.745 221.781C384.741 222.131 385.966 224.665 385.473 227.437Z" fill="#223A7A"/>
<path d="M360.296 225.244C359.85 228.231 357.735 230.392 355.58 230.074C353.425 229.756 352.041 227.071 352.486 224.085C352.932 221.09 355.039 218.93 357.194 219.247C359.349 219.573 360.741 222.25 360.296 225.244Z" fill="#223A7A"/>
<path d="M379.612 216.014C381.147 216.277 382.697 216.006 384.248 216.118C384.619 216.155 384.99 216.194 385.362 216.237C385.624 216.261 384.869 216.157 385.234 216.221C385.314 216.232 385.393 216.245 385.473 216.261C385.669 216.292 385.863 216.332 386.053 216.38C386.387 216.459 386.706 216.586 387.04 216.658C387.334 216.721 387.668 216.793 387.97 216.777C388.14 216.756 388.309 216.732 388.479 216.705C388.373 216.727 388.267 216.748 388.161 216.769C388.161 216.801 388.741 216.713 388.789 216.698C389.672 216.491 390.221 215.474 389.974 214.624C389.905 214.375 389.791 214.15 389.632 213.949C389.568 213.864 389.502 213.78 389.433 213.695C389.497 213.769 389.56 213.841 389.624 213.909C389.555 213.819 389.486 213.729 389.417 213.639C389.327 213.491 389.211 213.375 389.067 213.29C388.945 213.189 388.821 213.094 388.694 213.004C388.288 212.726 387.747 212.559 387.262 212.432C386.348 212.194 385.385 212.075 384.439 212.075C383.501 212.067 382.57 212.162 381.64 212.297C380.821 212.408 379.906 212.686 379.238 213.179C378.721 213.56 378.411 214.052 378.499 214.728C378.57 215.284 379.015 215.911 379.612 216.014Z" fill="#223A7A"/>
<path d="M362.061 211.622C361.849 211.495 361.634 211.384 361.417 211.288C361.226 211.201 360.717 210.931 361.107 211.145C360.964 211.066 360.823 210.992 360.685 210.923C360.041 210.597 359.381 210.383 358.697 210.208C357.194 209.827 355.612 209.731 354.069 209.89C352.431 210.065 350.927 210.462 349.504 211.32C349.305 211.439 349.098 211.558 348.931 211.725C348.82 211.868 348.709 212.014 348.597 212.162C348.629 212.114 348.661 212.067 348.693 212.019C348.255 212.321 348.001 212.821 348.001 213.353C348.009 213.862 348.271 214.291 348.717 214.537C349.25 214.839 349.758 214.696 350.315 214.553C350.034 214.553 349.756 214.553 349.48 214.553C349.933 214.624 350.259 214.64 350.721 214.537C350.737 214.537 351.166 214.426 350.88 214.489C350.617 214.545 351.333 214.434 351.405 214.426C351.5 214.41 351.993 214.362 351.468 214.41C351.564 214.399 351.662 214.389 351.762 214.378C352.006 214.346 352.253 214.32 352.502 214.299C353.589 214.214 354.676 214.156 355.763 214.124C356.775 214.087 357.79 214.089 358.808 214.132C359.243 214.148 359.675 214.161 360.105 214.172C360.351 214.18 360.248 214.219 360.081 214.164C360.171 214.19 360.261 214.214 360.351 214.235C360.531 214.283 360.709 214.341 360.884 214.41C361.584 214.68 362.427 214.172 362.681 213.528C362.968 212.821 362.729 212.019 362.061 211.622Z" fill="#223A7A"/>
<path d="M369.87 257.311C371.381 254.277 374.125 252.053 377.306 250.623C374.546 250.345 361.528 249.137 358.244 251.004C354.562 253.093 358.928 261.473 366.538 261.894C367.333 261.934 368.057 261.87 368.757 261.759C368.821 260.234 369.17 258.717 369.87 257.311Z" fill="#223A7A"/>
<path d="M309.733 239.669C309.733 239.669 311.046 244.761 318.616 250.678C326.187 256.596 337.154 260.925 337.154 260.925L338.028 257.089C338.028 257.089 326.68 252.164 321.416 246.739C316.151 241.313 315.491 238.359 315.491 238.359L309.733 239.669Z" fill="#DEE1EB"/>
<path d="M339.348 254.253C345.44 253.967 348.836 258.78 349.265 261.894C349.687 265.008 346.76 268.495 339.913 265.429C331.412 261.624 333.257 254.539 339.348 254.253Z" fill="#223A7A"/>
<path d="M314.505 202.034C314.505 202.034 317.137 183.146 329.806 170.317C353.989 145.829 374.562 147.314 374.562 147.314C374.562 147.314 374.395 143.859 366.657 141.229C359.397 138.759 356.128 140.078 356.128 140.078C356.128 140.078 336.223 141.722 319.444 160.293C302.656 178.864 300.851 202.527 300.851 202.527L314.505 202.034Z" fill="#DEE1EB"/>
<path d="M312.692 199.739C296.85 197.054 288.015 209.43 287.355 221.924C286.695 234.411 295.785 243.903 307.92 242.958C335.237 240.821 332.112 203.019 312.692 199.739Z" fill="white"/>
<path d="M304.803 230.82C300.62 230.82 297.089 228.724 295.069 225.022C292.898 221.058 293.081 216.189 295.53 212.599C295.713 212.329 296.087 212.257 296.357 212.448C296.628 212.631 296.699 213.004 296.516 213.274C294.321 216.491 294.162 220.876 296.111 224.45C297.964 227.842 301.232 229.764 305.105 229.621C308.731 229.526 311.793 227.874 313.749 224.966C315.976 221.646 316.485 217.063 315.054 213.29C313.63 209.549 309.725 206.999 306.179 207.46C305.853 207.507 305.55 207.277 305.511 206.951C305.463 206.626 305.694 206.324 306.02 206.284C310.171 205.728 314.529 208.564 316.167 212.869C317.734 216.991 317.177 222.004 314.736 225.626C312.564 228.866 309.161 230.709 305.137 230.813C305.026 230.818 304.914 230.82 304.803 230.82Z" fill="#818FB3"/>
<path d="M293.28 282.395C293.28 282.395 245.231 294.231 228.451 313.294C211.671 332.358 203.775 426.365 203.44 443.785C203.114 461.204 215.29 468.432 222.526 473.365C229.771 478.29 261.685 487.17 287.355 488.481C313.026 489.799 337.376 488.481 337.376 488.481C337.376 488.481 337.289 482.897 341.241 474.676C344.899 467.058 349.552 465.478 349.552 465.478L327.499 457.59C327.499 457.59 323.642 388.492 317.63 355.036C310.72 316.583 293.28 282.395 293.28 282.395Z" fill="#223A7A"/>
<path d="M372.916 446.549C372.805 446.549 372.696 446.525 372.59 446.477C372.192 446.303 372.009 445.834 372.184 445.429C376.686 435.286 381.354 415.372 383.978 401.4L384.193 400.272C384.988 396.165 385.982 391.05 384.002 387.523C383 385.72 380.725 381.82 378.538 378.063C376.272 374.163 374.125 370.485 373.528 369.389C372.375 367.236 376.018 361.509 381.306 353.646C382.729 351.517 383.962 349.69 384.678 348.443C386.562 345.194 385.306 342.207 383.859 338.76L383.366 337.569C382.053 334.344 380.55 331.111 379.111 327.989C378.517 326.713 377.929 325.431 377.346 324.145C376.577 322.445 375.8 320.721 375.016 318.974C370.363 308.624 365.552 297.916 359.397 287.574C359.174 287.193 359.293 286.709 359.675 286.478C360.049 286.256 360.534 286.383 360.765 286.756C366.968 297.178 371.795 307.925 376.463 318.322C377.248 320.07 378.024 321.794 378.793 323.493C379.376 324.775 379.962 326.051 380.55 327.322C382.006 330.46 383.509 333.708 384.837 336.973L385.322 338.141C386.809 341.659 388.336 345.305 386.054 349.237C385.314 350.524 384.065 352.383 382.626 354.527C379.867 358.634 374.141 367.165 374.928 368.626C375.509 369.707 377.648 373.376 379.914 377.261C382.101 381.026 384.384 384.942 385.394 386.745C387.652 390.78 386.602 396.213 385.759 400.574L385.545 401.694C384.582 406.777 379.517 432.831 373.64 446.072C373.513 446.374 373.218 446.549 372.916 446.549Z" fill="#8593B6"/>
<path d="M326.02 449.345C325.814 449.345 325.615 449.265 325.456 449.107C321.718 445.342 303.682 414.157 302.346 408.295C301.606 405.078 303.451 396.936 305.241 389.064C306.616 382.956 308.048 376.649 307.642 374.941C307.038 372.392 302.425 368.626 297.964 364.988C292.58 360.596 287.006 356.044 285.932 351.954C284.699 347.299 285.749 318.171 286.441 298.893C286.695 291.959 286.894 286.486 286.886 284.532C286.886 284.095 287.244 283.738 287.682 283.738C288.127 283.738 288.477 284.095 288.477 284.532C288.485 286.518 288.286 292.007 288.031 298.949C287.387 316.964 286.298 347.116 287.467 351.549C288.413 355.139 294.02 359.722 298.974 363.757C303.849 367.737 308.461 371.502 309.193 374.576C309.678 376.641 308.342 382.559 306.791 389.414C305.121 396.753 303.237 405.078 303.897 407.937C305.209 413.688 322.911 444.293 326.585 447.987C326.895 448.296 326.895 448.805 326.585 449.115C326.421 449.268 326.233 449.345 326.02 449.345Z" fill="#8593B6"/>
<path d="M261.358 435.699C261.321 435.699 261.284 435.696 261.247 435.691C260.81 435.635 260.507 435.23 260.571 434.793C261.151 430.663 270.281 348.371 270.702 342.072C270.734 341.628 271.108 341.286 271.553 341.334C271.991 341.357 272.317 341.739 272.293 342.176C271.871 348.491 262.734 430.885 262.146 435.015C262.09 435.413 261.748 435.699 261.358 435.699Z" fill="#8593B6"/>
<path d="M326.847 458.051C326.747 458.051 326.646 458.032 326.545 457.995C324.525 457.177 315.587 454.166 304.27 450.354C281.431 442.657 250.154 432.124 244.213 429.042C243.823 428.836 243.672 428.359 243.871 427.97C244.07 427.581 244.547 427.422 244.945 427.628C250.782 430.663 283.276 441.608 304.779 448.844C316.12 452.665 325.074 455.684 327.142 456.518C327.547 456.684 327.746 457.145 327.579 457.558C327.452 457.86 327.158 458.051 326.847 458.051Z" fill="#8593B6"/>
<path d="M315.865 490.816C295.761 490.816 256.802 487.202 227.202 476.741C226.789 476.598 226.566 476.145 226.717 475.724C226.861 475.319 227.322 475.097 227.727 475.248C265.12 488.457 317.431 490.713 327.165 488.529C327.595 488.433 328.016 488.703 328.112 489.132C328.207 489.561 327.937 489.982 327.515 490.077C325.408 490.554 321.328 490.816 315.865 490.816Z" fill="#8593B6"/>
<path d="M85.8234 293.484C92.0661 298.965 99.9629 302.476 105.442 308.814C107.597 311.309 109.53 313.962 111.526 316.583C112.989 318.481 116.87 321.643 117.498 324.034C117.776 325.082 117.721 323.66 117.442 322.604C117.427 322.556 117.411 322.511 117.395 322.469C116.846 317.623 116.456 312.762 116.289 307.893C116.114 303.032 116.417 298.155 116.114 293.301C115.685 286.454 113.546 279.83 107.947 275.541C105.204 273.444 101.689 272.165 99.1677 269.845C96.7819 267.637 97.7362 265.103 99.1438 262.641C100.456 260.337 102.054 258.073 102.563 255.42C103.144 252.402 102.015 249.296 100.48 246.731C97.2193 241.266 89.9984 235.173 83.1514 235.984C77.4415 236.667 76.7973 243.244 76.8768 247.827C76.9564 252.283 77.4017 256.723 77.4415 261.179C77.4892 265.755 76.7019 270.25 76.6383 274.81C76.5269 282.562 80.1135 288.472 85.8234 293.484Z" fill="#6BAEFF"/>
<path d="M143.797 364.623C145.531 360.485 147.527 356.616 149.976 352.851C153.34 347.688 157.07 342.66 159.328 336.878C161.634 330.976 161.293 324.661 161.523 318.442C161.682 313.874 163.042 309.323 162.676 304.74C162.501 302.539 161.237 298.989 158.39 299.354C156.179 299.632 154.859 302.38 154.008 304.128C152.521 307.178 151.495 310.435 150.39 313.636C149.96 314.891 149.547 316.17 149.006 317.377C148.688 318.084 147.686 319.8 146.732 319.562C145.117 319.164 146.58 312.572 146.827 311.404C148.036 305.534 149.849 300.085 150.103 294.048C150.469 285.303 149.785 274.881 141.22 270.099C138.978 268.852 136.139 268.106 134.015 269.972C131.916 271.823 131.32 275.016 131.009 277.653C130.055 285.732 131.956 293.389 134.548 300.99C136.688 307.266 139.24 313.747 139.423 320.459C139.606 326.925 136.242 332.652 134.66 338.752C132.139 348.483 132.664 353.638 132.648 356.791C132.632 360.739 132.775 364.639 133.069 368.579C133.332 372.193 133.65 375.815 134.087 379.413C134.177 380.149 134.267 380.901 134.357 381.669C132.966 378.317 132.481 374.481 131.328 371.121C129.284 365.139 126.898 359.285 124.934 353.28C123.311 348.316 121.777 343.312 119.637 338.546C117.625 334.066 115.192 329.332 111.438 326.051C109.172 324.057 106.428 322.898 103.39 322.921C101.45 322.937 99.7085 323.613 97.8555 324.097C95.5732 324.701 93.7839 324.494 91.9071 323.057C85.7677 318.338 83.8989 309.887 79.3501 303.913C75.9623 299.465 67.9144 291.872 61.9978 296.725C58.8645 299.306 57.9976 304.279 58.1646 308.1C58.3714 312.881 60.4629 317.258 62.96 321.261C65.6082 325.519 69.0357 329.332 71.4692 333.708C72.9165 336.29 73.1392 338.768 72.9086 341.683C72.6938 344.432 72.4553 347.093 73.3937 349.746C76.2088 357.705 84.9963 356.593 91.8355 356.799C96.6149 356.942 101.752 357.657 106.293 359.182C111.542 360.953 114.953 364.361 116.83 369.548C118.19 373.297 118.914 377.563 121.474 380.748C122.675 382.249 124.266 383.353 126.023 384.132C128.687 385.307 136.815 385.815 136.87 385.077C137.077 382.598 138.254 379.977 138.994 377.618C140.377 373.202 142 368.897 143.797 364.623Z" fill="#6BAEFF"/>
<path d="M181.54 363.122C180.832 358.578 180.967 353.558 178.812 349.38C178.661 349.086 178.247 349.007 177.969 349.166C176.426 350.016 176.362 352.51 176.235 354.043C176.028 356.577 176.18 359.118 175.869 361.644C175.321 366.093 174.295 370.668 172.688 374.854C170.875 379.588 167.583 382.273 162.795 383.758C159.718 384.703 156.704 385.53 154.135 387.571C151.837 389.398 150.239 391.916 149.054 394.569C145.857 401.726 144.338 409.732 142.851 417.382C141.857 422.529 141.037 427.7 139.789 432.799C138.54 437.899 137.196 442.967 136.473 448.169C136.351 448.434 136.232 448.699 136.115 448.964C135.789 449.742 137.006 450.155 137.427 449.512C142.366 441.91 148.386 435.095 156.601 430.909C160.314 429.018 165.237 428.629 168.33 425.658C170.684 423.403 171.01 419.955 170.661 416.881C170.191 412.846 168.259 409.518 166.239 406.078C165.134 404.188 163.821 402.163 164.275 399.867C164.696 397.706 166.493 396.11 168.283 394.998C171.702 392.885 175.694 391.932 178.486 388.882C181.086 386.046 182.526 382.519 182.812 378.698C183.194 373.607 182.319 368.15 181.54 363.122Z" fill="#6BAEFF"/>
<path d="M114.158 389.358C109.792 383.75 104.536 378.905 98.611 374.981C95.4539 372.884 87.9944 368.746 86.4914 374.933C85.6087 378.555 89.1634 382.122 91.4935 384.394C95.0085 387.809 99.0722 390.748 102.031 394.688C98.3645 395.856 94.5314 396.086 91.3424 398.62C87.5729 401.614 85.8791 407.405 89.6167 411.083C91.4458 412.87 93.8634 413.974 96.1298 415.07C99.0802 416.5 102.086 417.795 105.116 419.058C111.653 421.782 118.262 424.546 123.836 429.01C129.514 433.562 134.85 441.259 135.304 448.678C135.351 449.385 135.081 448.741 135.503 448.416C135.733 448.63 136.513 448.257 136.505 447.844C136.393 436.826 134.413 426.334 129.904 416.246C125.721 406.889 120.456 397.46 114.158 389.358Z" fill="#6BAEFF"/>
<path d="M99.0963 286.804C101.498 291.792 104.019 296.661 106.683 301.531C109.26 306.209 111.828 310.856 113.745 315.852C116.115 322 118.596 328.061 121.101 334.153C123.701 340.492 126.031 346.942 127.892 353.534C131.534 366.402 134.246 379.644 135.582 392.948C136.258 399.716 136.568 406.523 136.385 413.323C136.234 418.637 135.638 423.895 135.137 429.177C134.62 434.682 134.246 440.242 134.708 445.763C135.089 450.378 135.821 455.858 139.407 459.155C140.107 459.798 141.101 458.996 140.696 458.162C136.433 449.432 136.672 439.924 137.491 430.464C137.936 425.237 138.564 420.043 138.739 414.8C138.962 408.128 138.7 401.448 138.071 394.807C136.839 381.741 134.23 368.841 130.851 356.179C129.117 349.682 126.97 343.312 124.497 337.06C122.015 330.801 119.152 324.709 116.751 318.41C112.409 307.027 105.792 296.931 99.9313 286.319C99.6291 285.763 98.8259 286.248 99.0963 286.804Z" fill="#43588E"/>
<path d="M135.773 379.906C136.465 371.613 137.204 363.63 139.996 355.719C141.308 352.033 142.882 348.443 144.147 344.741C145.189 341.683 146.739 337.481 145.944 334.233C145.849 333.867 145.324 333.883 145.22 334.233C144.688 336.091 144.743 338.125 144.362 340.031C143.988 341.89 143.479 343.709 142.906 345.512C141.674 349.34 140.075 353.018 138.683 356.783C135.996 364.075 134.62 372.145 135.208 379.906C135.232 380.279 135.749 380.271 135.773 379.906Z" fill="#43588E"/>
<path d="M87.6764 332.255C90.9687 340.206 100.878 340.667 108.09 342.446C113.244 343.717 117.045 347.156 119.773 351.612C122.763 356.481 124.783 362.208 126.445 367.649C126.469 367.713 126.556 367.689 126.54 367.626C124.528 358.094 121.634 346.616 111.796 342.184C103.915 338.633 93.5295 340.412 88.4876 331.913C88.241 331.492 87.4697 331.778 87.6764 332.255Z" fill="#43588E"/>
<path d="M130.564 378.651C130.962 379.175 131.32 379.731 131.725 380.247C131.924 380.502 132.131 380.748 132.377 380.954C132.64 381.169 132.942 381.431 133.3 381.423C133.443 381.415 133.546 381.256 133.467 381.121C133.308 380.859 133.014 380.7 132.783 380.494C132.544 380.287 132.309 380.078 132.075 379.866C131.614 379.429 131.193 378.961 130.747 378.516C130.66 378.428 130.493 378.547 130.564 378.651Z" fill="#43588E"/>
<path d="M109.967 403.87C115.645 408.533 120.894 414.045 125.053 420.09C127.049 422.974 128.886 426.032 130.556 429.114C132.377 432.49 133.57 436.048 134.993 439.583C135.105 439.853 135.598 439.861 135.558 439.511C134.771 432.029 130.023 425.619 126.23 419.399C124.258 416.166 121.8 413.569 119.168 410.868C116.44 408.088 113.665 405.451 110.476 403.211C110.086 402.933 109.593 403.568 109.967 403.87Z" fill="#43588E"/>
<path d="M155.225 395.069C152.481 396.618 152.394 400.939 152.338 403.696C152.243 408.994 153.555 413.966 151.225 419.018C149.117 423.577 145.761 427.39 143.121 431.624C140.648 435.587 138.206 440.655 138.262 445.429C138.27 445.699 138.692 445.858 138.819 445.572C139.813 443.411 140.171 440.949 140.886 438.677C141.69 436.128 142.811 433.808 144.258 431.56C146.803 427.628 149.921 424.046 151.98 419.82C154.151 415.356 153.833 410.94 153.69 406.11C153.603 403.028 153.292 398.08 155.781 395.792C156.171 395.435 155.67 394.815 155.225 395.069Z" fill="#43588E"/>
<path d="M136.918 445.921C125.888 445.763 104.886 445.643 104.886 445.643L110.087 484.184C111.256 492.858 118.667 499.331 127.423 499.331H136.481H137.356H146.414C155.169 499.331 162.581 492.858 163.75 484.184L168.951 445.643C168.951 445.643 147.941 445.763 136.918 445.921Z" fill="white"/>
<path d="M669.902 375.084L606.99 499.546L423.589 500.864L480.187 373.337L669.902 375.084Z" fill="#F6F7FA"/>
<path d="M301.869 500.086L301.908 490.125H420.631L475.257 370.485H665.13L669.902 375.084H484.41L427.645 499.991C427.645 499.991 301.869 499.76 301.869 500.086Z" fill="#D9DEE8"/>
<path d="M574.663 443.769C572.587 449.972 561.342 454.77 549.549 454.476C537.747 454.182 529.858 448.908 531.934 442.704C534.002 436.493 545.246 431.695 557.048 431.997C568.849 432.291 576.738 437.557 574.663 443.769Z" fill="#D9DEE8"/>
<path d="M427.645 500.785C427.539 500.785 427.431 500.761 427.319 500.713C426.922 500.531 426.747 500.062 426.922 499.657L483.901 374.29H669.902C670.339 374.29 670.697 374.647 670.697 375.084C670.697 375.529 670.339 375.879 669.902 375.879H484.927L428.377 500.316C428.242 500.61 427.948 500.785 427.645 500.785Z" fill="white"/>
<path d="M293.606 557.833H75.4375V509.522H293.606V557.833Z" fill="#596B9B"/>
<path d="M684.892 557.833H292.357V509.522H684.892V557.833Z" fill="#7A89AF"/>
<path d="M293.606 509.522H292.358H75.4375V518.395H292.358H293.606H684.892V509.522H293.606Z" fill="#BDC4D7"/>
<path d="M303.149 511.818H64.9082V499.991H303.149V511.818Z" fill="#6F7FA9"/>
<path d="M694.435 511.818H301.908V499.991H694.435V511.818Z" fill="#9CA6C3"/>
<path d="M238.527 246.484H161.507C156.743 246.484 152.878 242.632 152.878 237.866V199.461C152.878 194.703 156.743 190.843 161.507 190.843H238.527C243.29 190.843 247.155 194.703 247.155 199.461V237.866C247.155 242.632 243.29 246.484 238.527 246.484Z" fill="white"/>
<path d="M269.104 218.667L240.181 206.475V230.86L269.104 218.667Z" fill="white"/>
<path d="M187.074 218.667C187.074 221.606 184.689 223.989 181.746 223.989C178.804 223.989 176.418 221.606 176.418 218.667C176.418 215.728 178.804 213.346 181.746 213.346C184.689 213.346 187.074 215.728 187.074 218.667Z" fill="#223A7A"/>
<path d="M205.341 218.667C205.341 221.606 202.956 223.989 200.013 223.989C197.071 223.989 194.685 221.606 194.685 218.667C194.685 215.728 197.071 213.346 200.013 213.346C202.956 213.346 205.341 215.728 205.341 218.667Z" fill="#223A7A"/>
<path d="M223.616 218.667C223.616 221.606 221.23 223.989 218.288 223.989C215.345 223.989 212.959 221.606 212.959 218.667C212.959 215.728 215.345 213.346 218.288 213.346C221.23 213.346 223.616 215.728 223.616 218.667Z" fill="#223A7A"/>
<path d="M630.632 72.6959H452.822C441.403 72.6959 432.146 81.9417 432.146 93.3481V177.601C432.146 189.008 441.403 198.253 452.822 198.253H468.759C469.205 205.895 468.115 217.254 461.729 231.782C482.271 222.313 494.096 208.103 500.275 198.253H630.632C642.052 198.253 651.309 189.008 651.309 177.601V93.3481C651.309 81.9417 642.052 72.6959 630.632 72.6959Z" fill="#60A8FF"/>
<path d="M554.781 112.857H466.588C464.162 112.857 462.198 110.895 462.198 108.472C462.198 106.049 464.162 104.087 466.588 104.087H554.781C557.199 104.087 559.163 106.049 559.163 108.472C559.163 110.895 557.199 112.857 554.781 112.857Z" fill="white"/>
<path d="M618.011 138.378H464.886C463.407 138.378 462.198 137.178 462.198 135.701C462.198 134.216 463.407 133.016 464.886 133.016H618.011C619.498 133.016 620.699 134.216 620.699 135.701C620.699 137.178 619.498 138.378 618.011 138.378Z" fill="#D2E6FF"/>
<path d="M618.011 153.279H464.886C463.407 153.279 462.198 152.08 462.198 150.594C462.198 149.117 463.407 147.91 464.886 147.91H618.011C619.498 147.91 620.699 149.117 620.699 150.594C620.699 152.08 619.498 153.279 618.011 153.279Z" fill="#D2E6FF"/>
<path d="M584.611 169.166H464.886C463.407 169.166 462.198 167.966 462.198 166.481C462.198 165.003 463.407 163.796 464.886 163.796H584.611C586.098 163.796 587.299 165.003 587.299 166.481C587.299 167.966 586.098 169.166 584.611 169.166Z" fill="#D2E6FF"/>
<path d="M616.811 112.857H574.742C572.317 112.857 570.353 110.895 570.353 108.472C570.353 106.049 572.317 104.087 574.742 104.087H616.811C619.236 104.087 621.201 106.049 621.201 108.472C621.201 110.895 619.236 112.857 616.811 112.857Z" fill="white"/>
<path d="M510.78 306.614H463.01C461.252 306.614 459.829 305.192 459.829 303.437V270.838C459.829 269.083 461.252 267.661 463.01 267.661H510.78C512.538 267.661 513.961 269.083 513.961 270.838V303.437C513.961 305.192 512.538 306.614 510.78 306.614Z" fill="white"/>
<path d="M487.225 292.96C486.955 292.96 486.684 292.865 486.462 292.682L460.465 271.235C459.956 270.822 459.885 270.068 460.306 269.559C460.727 269.051 461.483 268.979 461.984 269.4L487.201 290.204L511.782 268.844C512.275 268.415 513.031 268.463 513.46 268.964C513.898 269.456 513.842 270.211 513.341 270.64L488.005 292.666C487.782 292.857 487.503 292.96 487.225 292.96Z" fill="#6F7FA9"/>
<path d="M461.228 305.725C460.934 305.725 460.632 305.613 460.401 305.391C459.924 304.938 459.908 304.184 460.362 303.707L478.541 284.62C478.994 284.143 479.758 284.119 480.227 284.572C480.712 285.033 480.728 285.787 480.275 286.264L462.087 305.351C461.857 305.597 461.539 305.725 461.228 305.725Z" fill="#6F7FA9"/>
<path d="M512.562 305.026C512.26 305.026 511.95 304.906 511.719 304.676L493.611 286.534C493.142 286.073 493.142 285.319 493.611 284.85C494.08 284.389 494.836 284.389 495.297 284.858L513.405 302.992C513.874 303.461 513.874 304.215 513.405 304.676C513.174 304.906 512.864 305.026 512.562 305.026Z" fill="#6F7FA9"/>
<path d="M532.403 266.461C532.403 275.262 525.254 282.395 516.443 282.395C507.631 282.395 500.482 275.262 500.482 266.461C500.482 257.652 507.631 250.52 516.443 250.52C525.254 250.52 532.403 257.652 532.403 266.461Z" fill="#FF5F42"/>
<path d="M676.741 260.591H583.498C579.991 260.591 577.136 257.748 577.136 254.237V239.661C577.136 236.158 579.991 233.307 583.498 233.307H676.741C680.248 233.307 683.103 236.158 683.103 239.661V254.237C683.103 257.748 680.248 260.591 676.741 260.591Z" fill="#223A7A"/>
<path d="M590.234 254.102C589.815 254.102 589.478 253.954 589.224 253.657C588.969 253.361 588.858 252.987 588.89 252.537L589.295 249.01C589.322 248.92 589.306 248.859 589.248 248.828C589.189 248.801 589.115 248.817 589.025 248.875L586.114 250.972C585.754 251.242 585.38 251.34 584.993 251.266C584.606 251.192 584.293 250.962 584.055 250.575C583.784 250.099 583.731 249.68 583.895 249.32C584.06 248.965 584.336 248.711 584.723 248.558L587.991 247.088C588.081 247.056 588.126 247.011 588.126 246.953C588.126 246.895 588.081 246.85 587.991 246.818L584.723 245.341C584.304 245.161 584.036 244.877 583.919 244.491C583.803 244.104 583.848 243.718 584.055 243.331C584.293 242.944 584.606 242.711 584.993 242.632C585.38 242.563 585.754 242.645 586.114 242.878L589.025 245.031C589.115 245.089 589.189 245.102 589.248 245.071C589.306 245.044 589.322 244.986 589.295 244.896L588.89 241.361C588.858 240.916 588.977 240.543 589.248 240.241C589.518 239.945 589.876 239.796 590.321 239.796C590.74 239.796 591.082 239.945 591.347 240.241C591.617 240.543 591.723 240.916 591.665 241.361L591.259 244.896C591.228 244.986 591.244 245.044 591.307 245.071C591.365 245.102 591.44 245.089 591.53 245.031L594.44 242.926C594.796 242.656 595.175 242.558 595.578 242.632C595.981 242.711 596.288 242.944 596.5 243.331C596.765 243.808 596.816 244.223 596.651 244.578C596.487 244.938 596.211 245.192 595.824 245.341L592.564 246.818C592.474 246.85 592.428 246.895 592.428 246.953C592.428 247.011 592.474 247.056 592.564 247.088L595.824 248.558C596.243 248.738 596.519 249.021 596.651 249.407C596.789 249.799 596.739 250.189 596.5 250.575C596.288 250.962 595.981 251.192 595.578 251.266C595.175 251.34 594.796 251.258 594.44 251.02L591.53 248.875C591.44 248.817 591.365 248.801 591.307 248.828C591.244 248.859 591.228 248.92 591.259 249.01L591.665 252.537C591.723 252.987 591.612 253.361 591.331 253.657C591.045 253.954 590.679 254.102 590.234 254.102Z" fill="white"/>
<path d="M609.518 254.102C609.099 254.102 608.763 253.954 608.508 253.657C608.254 253.361 608.142 252.987 608.174 252.537L608.572 249.01C608.604 248.92 608.59 248.859 608.532 248.828C608.469 248.801 608.394 248.817 608.309 248.875L605.399 250.972C605.038 251.242 604.665 251.34 604.278 251.266C603.891 251.192 603.578 250.962 603.339 250.575C603.069 250.099 603.016 249.68 603.18 249.32C603.344 248.965 603.62 248.711 604.007 248.558L607.276 247.088C607.366 247.056 607.411 247.011 607.411 246.953C607.411 246.895 607.366 246.85 607.276 246.818L604.007 245.341C603.588 245.161 603.321 244.877 603.204 244.491C603.087 244.104 603.132 243.718 603.339 243.331C603.578 242.944 603.891 242.711 604.278 242.632C604.665 242.563 605.038 242.645 605.399 242.878L608.309 245.031C608.394 245.089 608.469 245.102 608.532 245.071C608.59 245.044 608.604 244.986 608.572 244.896L608.174 241.361C608.142 240.916 608.262 240.543 608.532 240.241C608.803 239.945 609.16 239.796 609.606 239.796C610.025 239.796 610.367 239.945 610.632 240.241C610.902 240.543 611.008 240.916 610.95 241.361L610.544 244.896C610.512 244.986 610.528 245.044 610.592 245.071C610.65 245.102 610.724 245.089 610.815 245.031L613.725 242.926C614.08 242.656 614.459 242.558 614.862 242.632C615.265 242.711 615.573 242.944 615.785 243.331C616.05 243.808 616.1 244.223 615.936 244.578C615.772 244.938 615.496 245.192 615.109 245.341L611.84 246.818C611.756 246.85 611.713 246.895 611.713 246.953C611.713 247.011 611.756 247.056 611.84 247.088L615.109 248.558C615.528 248.738 615.803 249.021 615.936 249.407C616.074 249.799 616.023 250.189 615.785 250.575C615.573 250.962 615.265 251.192 614.862 251.266C614.459 251.34 614.08 251.258 613.725 251.02L610.815 248.875C610.724 248.817 610.65 248.801 610.592 248.828C610.528 248.859 610.512 248.92 610.544 249.01L610.95 252.537C611.008 252.987 610.897 253.361 610.616 253.657C610.329 253.954 609.964 254.102 609.518 254.102Z" fill="white"/>
<path d="M628.803 254.102C628.384 254.102 628.047 253.954 627.793 253.657C627.538 253.361 627.427 252.987 627.459 252.537L627.857 249.01C627.888 248.92 627.875 248.859 627.817 248.828C627.753 248.801 627.679 248.817 627.594 248.875L624.684 250.972C624.323 251.242 623.949 251.34 623.562 251.266C623.175 251.192 622.862 250.962 622.624 250.575C622.353 250.099 622.3 249.68 622.465 249.32C622.629 248.965 622.905 248.711 623.292 248.558L626.56 247.088C626.65 247.056 626.696 247.011 626.696 246.953C626.696 246.895 626.65 246.85 626.56 246.818L623.292 245.341C622.873 245.161 622.605 244.877 622.489 244.491C622.372 244.104 622.417 243.718 622.624 243.331C622.862 242.944 623.175 242.711 623.562 242.632C623.949 242.563 624.323 242.645 624.684 242.878L627.594 245.031C627.679 245.089 627.753 245.102 627.817 245.071C627.875 245.044 627.888 244.986 627.857 244.896L627.459 241.361C627.427 240.916 627.546 240.543 627.817 240.241C628.082 239.945 628.44 239.796 628.89 239.796C629.309 239.796 629.651 239.945 629.916 240.241C630.187 240.543 630.293 240.916 630.234 241.361L629.829 244.896C629.797 244.986 629.813 245.044 629.877 245.071C629.935 245.102 630.009 245.089 630.099 245.031L633.01 242.926C633.365 242.656 633.744 242.558 634.147 242.632C634.55 242.711 634.857 242.944 635.07 243.331C635.335 243.808 635.385 244.223 635.221 244.578C635.056 244.938 634.781 245.192 634.394 245.341L631.125 246.818C631.035 246.85 630.99 246.895 630.99 246.953C630.99 247.011 631.035 247.056 631.125 247.088L634.394 248.558C634.812 248.738 635.088 249.021 635.221 249.407C635.358 249.799 635.308 250.189 635.07 250.575C634.857 250.962 634.55 251.192 634.147 251.266C633.744 251.34 633.365 251.258 633.01 251.02L630.099 248.875C630.009 248.817 629.935 248.801 629.877 248.828C629.813 248.859 629.797 248.92 629.829 249.01L630.234 252.537C630.293 252.987 630.181 253.361 629.9 253.657C629.614 253.954 629.248 254.102 628.803 254.102Z" fill="white"/>
<path d="M648.088 254.102C647.669 254.102 647.333 253.954 647.078 253.657C646.824 253.361 646.712 252.987 646.744 252.537L647.142 249.01C647.174 248.92 647.16 248.859 647.102 248.828C647.038 248.801 646.964 248.817 646.879 248.875L643.969 250.972C643.608 251.242 643.234 251.34 642.847 251.266C642.46 251.192 642.148 250.962 641.909 250.575C641.639 250.099 641.586 249.68 641.75 249.32C641.914 248.965 642.19 248.711 642.577 248.558L645.845 247.088C645.936 247.056 645.981 247.011 645.981 246.953C645.981 246.895 645.936 246.85 645.845 246.818L642.577 245.341C642.158 245.161 641.89 244.877 641.774 244.491C641.652 244.104 641.697 243.718 641.909 243.331C642.148 242.944 642.46 242.711 642.847 242.632C643.234 242.563 643.608 242.645 643.969 242.878L646.879 245.031C646.964 245.089 647.038 245.102 647.102 245.071C647.16 245.044 647.174 244.986 647.142 244.896L646.744 241.361C646.712 240.916 646.832 240.543 647.102 240.241C647.367 239.945 647.725 239.796 648.176 239.796C648.594 239.796 648.936 239.945 649.201 240.241C649.472 240.543 649.578 240.916 649.52 241.361L649.114 244.896C649.082 244.986 649.098 245.044 649.162 245.071C649.22 245.102 649.294 245.089 649.384 245.031L652.295 242.926C652.65 242.656 653.029 242.558 653.432 242.632C653.835 242.711 654.143 242.944 654.355 243.331C654.62 243.808 654.67 244.223 654.506 244.578C654.341 244.938 654.066 245.192 653.679 245.341L650.41 246.818C650.32 246.85 650.275 246.895 650.275 246.953C650.275 247.011 650.32 247.056 650.41 247.088L653.679 248.558C654.097 248.738 654.373 249.021 654.506 249.407C654.644 249.799 654.593 250.189 654.355 250.575C654.143 250.962 653.835 251.192 653.432 251.266C653.029 251.34 652.65 251.258 652.295 251.02L649.384 248.875C649.294 248.817 649.22 248.801 649.162 248.828C649.098 248.859 649.082 248.92 649.114 249.01L649.52 252.537C649.578 252.987 649.464 253.361 649.178 253.657C648.897 253.954 648.533 254.102 648.088 254.102Z" fill="white"/>
<path d="M667.365 254.102C666.951 254.102 666.617 253.954 666.363 253.657C666.108 253.361 665.997 252.987 666.029 252.537L666.426 249.01C666.458 248.92 666.445 248.859 666.387 248.828C666.323 248.801 666.246 248.817 666.156 248.875L663.253 250.972C662.893 251.242 662.519 251.34 662.132 251.266C661.745 251.192 661.432 250.962 661.194 250.575C660.923 250.099 660.87 249.68 661.035 249.32C661.199 248.965 661.475 248.711 661.862 248.558L665.13 247.088C665.22 247.056 665.265 247.011 665.265 246.953C665.265 246.895 665.22 246.85 665.13 246.818L661.862 245.341C661.443 245.161 661.175 244.877 661.058 244.491C660.937 244.104 660.982 243.718 661.194 243.331C661.432 242.944 661.745 242.711 662.132 242.632C662.519 242.563 662.893 242.645 663.253 242.878L666.156 245.031C666.246 245.089 666.323 245.102 666.387 245.071C666.445 245.044 666.458 244.986 666.426 244.896L666.029 241.361C665.997 240.916 666.116 240.543 666.387 240.241C666.652 239.945 667.01 239.796 667.46 239.796C667.879 239.796 668.221 239.945 668.486 240.241C668.756 240.543 668.86 240.916 668.796 241.361L668.399 244.896C668.367 244.986 668.383 245.044 668.446 245.071C668.505 245.102 668.579 245.089 668.669 245.031L671.58 242.926C671.935 242.656 672.314 242.558 672.717 242.632C673.12 242.711 673.427 242.944 673.639 243.331C673.904 243.808 673.955 244.223 673.79 244.578C673.626 244.938 673.35 245.192 672.963 245.341L669.695 246.818C669.605 246.85 669.56 246.895 669.56 246.953C669.56 247.011 669.605 247.056 669.695 247.088L672.963 248.558C673.382 248.738 673.658 249.021 673.79 249.407C673.928 249.799 673.878 250.189 673.639 250.575C673.427 250.962 673.12 251.192 672.717 251.266C672.314 251.34 671.935 251.258 671.58 251.02L668.669 248.875C668.579 248.817 668.505 248.801 668.446 248.828C668.383 248.859 668.367 248.92 668.399 249.01L668.796 252.537C668.86 252.987 668.749 253.361 668.462 253.657C668.181 253.954 667.815 254.102 667.365 254.102Z" fill="#67ACFF"/>
</g>
<defs>
<clipPath id="clip0_1320_4548">
<rect width="703" height="587" fill="white"/>
</clipPath>
</defs>
</svg>
