<svg width="30" height="30" viewBox="0 0 30 30" fill="none" xmlns="http://www.w3.org/2000/svg">
<path d="M5.66602 26.7627H17.2809C18.2206 26.7627 19.1313 26.4375 19.8584 25.8423L27.7066 19.4178C28.5118 18.7599 28.6394 17.5801 27.9998 16.766C27.3398 15.926 26.0939 15.815 25.2667 16.4909L19.573 21.1427" stroke="#17AD87" stroke-width="1.75781" stroke-miterlimit="10" stroke-linecap="round" stroke-linejoin="round"/>
<path d="M11.6426 22.128H17.851C18.9032 22.128 19.7561 21.2751 19.7561 20.2229C19.7561 19.1707 18.9032 18.3178 17.851 18.3178H14.5028C13.5472 18.3178 12.5954 18.1732 11.6892 17.8698C11.0994 17.6724 10.2696 17.4844 9.24808 17.4844C7.09754 17.4844 5.55176 18.3178 5.55176 18.3178" stroke="#17AD87" stroke-width="1.75781" stroke-miterlimit="10" stroke-linecap="round" stroke-linejoin="round"/>
<path d="M1 18.3195L1 29H5.55212L5.55212 18.3195H1Z" stroke="#17AD87" stroke-width="1.75781" stroke-miterlimit="10" stroke-linecap="round" stroke-linejoin="round"/>
<circle cx="15.0017" cy="8.68232" r="0.561229" fill="#17AD87"/>
<circle cx="18.4343" cy="8.68232" r="0.561229" fill="#17AD87"/>
<circle cx="11.5681" cy="8.68232" r="0.561229" fill="#17AD87"/>
<path d="M19.3641 4H10.6364C9.16796 4 7.97754 5.19042 7.97754 6.6589V10.7047C7.97754 12.1732 9.16796 13.3636 10.6364 13.3636H13.6647L15.0003 15.1374L16.3359 13.3636H19.3642C20.8326 13.3636 22.0231 12.1732 22.0231 10.7047V6.6589C22.023 5.19042 20.8326 4 19.3641 4Z" stroke="#17AD87" stroke-width="2" stroke-miterlimit="10" stroke-linecap="round" stroke-linejoin="round"/>
</svg>
