<svg width="100" height="100" viewBox="0 0 100 100" fill="none" xmlns="http://www.w3.org/2000/svg">
<path d="M71.1937 8C69.6654 8 68.2821 8.61459 67.2783 9.6186C66.2744 10.6223 65.6596 11.9967 65.6596 13.5248V81.968C65.6596 82.7275 65.506 83.46 65.2256 84.1201C65.0899 84.4459 64.9181 84.7621 64.7191 85.0517C64.6197 85.2054 64.5201 85.3409 64.4026 85.4766C64.2941 85.6213 64.1766 85.7481 64.0499 85.8744H64.0409C63.0372 86.8784 61.6537 87.493 60.1254 87.493H12.5254V13.525C12.5254 11.9969 13.1403 10.6223 14.144 9.61877C15.1477 8.61476 16.5312 8.00017 18.0594 8.00017L71.1937 8Z" fill="#E8F1F8"/>
<path opacity="0.12" d="M71.1937 8C69.6654 8 68.2821 8.6151 67.2783 9.6186C66.2744 10.6223 65.6596 11.9967 65.6596 13.5248V81.968C65.6596 82.7279 65.506 83.4604 65.2256 84.1205C65.0899 84.4459 64.9181 84.7624 64.7191 85.0516C64.6197 85.2052 64.5201 85.3407 64.4026 85.4768C64.2941 85.6212 64.1766 85.7478 64.0499 85.8746H64.0409C63.0372 86.8782 61.6537 87.4932 60.1254 87.4932H12.5254V79.6984C37.1665 75.0866 55.8213 53.4569 55.8213 27.4775V8H71.1937Z" fill="black"/>
<path d="M60.1252 87.493H12.5159C9.46862 87.493 7 85.0155 7 81.9682V77.8086H54.6091V81.9682C54.6091 85.0155 57.0777 87.493 60.1252 87.493Z" fill="#ACBADF"/>
<path d="M82.2524 70.8183H65.6592V13.5248C65.6592 11.9967 66.2741 10.6221 67.2778 9.6186C68.2815 8.61459 69.665 8 71.1932 8C74.2405 8 76.7182 10.4773 76.7182 13.5248V65.2843C76.7184 68.341 79.1961 70.8183 82.2524 70.8183Z" fill="#ACBADF"/>
<path d="M76.7207 31.1367V65.2861C76.7207 68.3406 79.1967 70.8167 82.2512 70.8167C85.3056 70.8167 87.7816 68.3406 87.7816 65.2861V31.1367H76.7207Z" fill="#E8F1F8"/>
<path d="M92 51.6939V89.6874C92 91.5171 90.5167 93.0004 88.687 93.0004H61.231C59.4012 93.0004 57.918 91.5171 57.918 89.6874V51.6939C57.918 49.8641 59.4012 48.3809 61.231 48.3809H88.687C90.5167 48.3809 92 49.8641 92 51.6939Z" fill="#475DA9"/>
<path opacity="0.12" d="M92 51.6939V89.6865C92 91.5169 90.5174 92.9995 88.687 92.9995H61.23C59.3996 92.9995 57.917 91.5169 57.917 89.6865V88.4068H67.0984C78.3172 88.4068 87.4074 79.3167 87.4074 68.102V48.3809H88.687C90.5174 48.3809 92 49.8634 92 51.6939Z" fill="black"/>
<path d="M87.4444 62.7207V54.0041C87.4444 53.318 86.8882 52.7617 86.2021 52.7617H63.716C63.0299 52.7617 62.4736 53.318 62.4736 54.0041V62.7207C62.4736 63.4068 63.0299 63.9631 63.716 63.9631H86.2021C86.8883 63.9633 87.4444 63.407 87.4444 62.7207Z" fill="#ACBADF"/>
<path d="M68.8636 68.9684V70.9931C68.8636 71.8849 68.1407 72.608 67.2487 72.608H64.0875C63.1957 72.608 62.4727 71.8851 62.4727 70.9931V68.9684C62.4727 68.0766 63.1955 67.3535 64.0875 67.3535H67.2487C68.1405 67.3535 68.8636 68.0766 68.8636 68.9684Z" fill="#F78721"/>
<path d="M78.1546 68.9684V70.9931C78.1546 71.8849 77.4317 72.608 76.5397 72.608H73.3785C72.4867 72.608 71.7637 71.8851 71.7637 70.9931V68.9684C71.7637 68.0766 72.4866 67.3535 73.3785 67.3535H76.5397C77.4315 67.3535 78.1546 68.0766 78.1546 68.9684Z" fill="#E8F1F8"/>
<path d="M87.4446 68.9684V70.9931C87.4446 71.8849 86.7217 72.608 85.8298 72.608H82.6685C81.7768 72.608 81.0537 71.8851 81.0537 70.9931V68.9684C81.0537 68.0766 81.7766 67.3535 82.6685 67.3535H85.8298C86.7217 67.3535 87.4446 68.0766 87.4446 68.9684Z" fill="#E8F1F8"/>
<path d="M68.8636 76.9742V78.999C68.8636 79.8908 68.1407 80.6138 67.2487 80.6138H64.0875C63.1957 80.6138 62.4727 79.8909 62.4727 78.999V76.9742C62.4727 76.0824 63.1955 75.3594 64.0875 75.3594H67.2487C68.1405 75.3594 68.8636 76.0824 68.8636 76.9742Z" fill="#E8F1F8"/>
<path d="M78.1546 76.9742V78.999C78.1546 79.8908 77.4317 80.6138 76.5397 80.6138H73.3785C72.4867 80.6138 71.7637 79.8909 71.7637 78.999V76.9742C71.7637 76.0824 72.4866 75.3594 73.3785 75.3594H76.5397C77.4315 75.3594 78.1546 76.0824 78.1546 76.9742Z" fill="#E8F1F8"/>
<path d="M68.8636 84.9781V87.0029C68.8636 87.8947 68.1407 88.6177 67.2487 88.6177H64.0875C63.1957 88.6177 62.4727 87.8949 62.4727 87.0029V84.9781C62.4727 84.0864 63.1955 83.3633 64.0875 83.3633H67.2487C68.1405 83.3633 68.8636 84.0864 68.8636 84.9781Z" fill="#E8F1F8"/>
<path d="M78.1546 84.9781V87.0029C78.1546 87.8947 77.4317 88.6177 76.5397 88.6177H73.3785C72.4867 88.6177 71.7637 87.8949 71.7637 87.0029V84.9781C71.7637 84.0864 72.4866 83.3633 73.3785 83.3633H76.5397C77.4315 83.3633 78.1546 84.0864 78.1546 84.9781Z" fill="#E8F1F8"/>
<path d="M87.4428 76.9707V86.999C87.4428 87.8942 86.7194 88.6176 85.8332 88.6176H82.6684C81.7732 88.6176 81.0498 87.8942 81.0498 86.999V76.9707C81.0498 76.0846 81.7732 75.3613 82.6684 75.3613H85.8332C86.7192 75.3613 87.4428 76.0846 87.4428 76.9707Z" fill="#FDCF17"/>
<path d="M82.0399 62.6701C80.4398 62.6701 79.1377 61.3676 79.1377 59.7674V56.9593C79.1377 55.3592 80.4398 54.0566 82.0399 54.0566C83.6405 54.0566 84.9426 55.3592 84.9426 56.9593V59.7674C84.9424 61.3676 83.6403 62.6701 82.0399 62.6701ZM82.0399 55.8652C81.4368 55.8652 80.9462 56.3562 80.9462 56.9593V59.7674C80.9462 60.3706 81.4368 60.8616 82.0399 60.8616C82.643 60.8616 83.1341 60.3706 83.1341 59.7674V56.9593C83.1339 56.3562 82.643 55.8652 82.0399 55.8652Z" fill="#474747"/>
<path d="M41.8591 25.8918C41.8591 32.1148 36.818 37.1559 30.5981 37.1559C24.3783 37.1559 19.334 32.1148 19.334 25.8918C19.334 19.672 24.3783 14.6309 30.5981 14.6309C36.818 14.6309 41.8591 19.672 41.8591 25.8918Z" fill="#FDCF17"/>
<path d="M31.2984 31.0447H27.7705C27.271 31.0447 26.8662 30.6402 26.8662 30.1404C26.8662 29.6407 27.271 29.2362 27.7705 29.2362H31.2984C31.9713 29.2362 32.5183 28.6887 32.5183 28.0166C32.5183 27.3436 31.9713 26.7961 31.2984 26.7961H29.8947C28.2247 26.7961 26.8662 25.4379 26.8662 23.7682C26.8662 22.0984 28.2247 20.7402 29.8947 20.7402H33.4226C33.922 20.7402 34.3268 21.1447 34.3268 21.6445C34.3268 22.1443 33.922 22.5488 33.4226 22.5488H29.8947C29.2217 22.5488 28.6747 23.0963 28.6747 23.7682C28.6747 24.4401 29.2217 24.9876 29.8947 24.9876H31.2984C32.9683 24.9876 34.3268 26.3467 34.3268 28.0166C34.3268 29.6865 32.9683 31.0447 31.2984 31.0447Z" fill="#F78721"/>
<path d="M30.5957 32.8109C30.0962 32.8109 29.6914 32.4065 29.6914 31.9067V30.1406C29.6914 29.6408 30.0962 29.2363 30.5957 29.2363C31.0951 29.2363 31.4999 29.6408 31.4999 30.1406V31.9067C31.4998 32.4065 31.0949 32.8109 30.5957 32.8109Z" fill="#F78721"/>
<path d="M30.5957 22.5492C30.0962 22.5492 29.6914 22.1447 29.6914 21.645V19.8789C29.6914 19.3791 30.0962 18.9746 30.5957 18.9746C31.0951 18.9746 31.4999 19.3791 31.4999 19.8789V21.645C31.4998 22.1447 31.0949 22.5492 30.5957 22.5492Z" fill="#F78721"/>
<path d="M26.0464 65.2263V71.3428C26.0464 71.9931 25.5192 72.5203 24.8689 72.5203H20.5115C19.8611 72.5203 19.334 71.9931 19.334 71.3428V65.2263C19.334 64.576 19.8611 64.0488 20.5115 64.0488H24.8691C25.5192 64.0488 26.0464 64.576 26.0464 65.2263Z" fill="#F14F4A"/>
<path opacity="0.12" d="M26.0457 65.2244V71.3427C26.0457 71.9943 25.5197 72.5202 24.8682 72.5202H20.5115C19.8599 72.5202 19.334 71.9943 19.334 71.3427V71.2329C22.3405 71.178 24.7621 68.7208 24.7621 65.6987V64.0469H24.868C25.5197 64.0469 26.0457 64.5766 26.0457 65.2244Z" fill="black"/>
<path d="M35.3747 55.1482V71.3435C35.3747 71.9938 34.8475 72.521 34.1972 72.521H29.8396C29.1893 72.521 28.6621 71.9938 28.6621 71.3435V55.1482C28.6621 54.4979 29.1893 53.9707 29.8396 53.9707H34.1972C34.8475 53.9707 35.3747 54.4979 35.3747 55.1482Z" fill="#F14F4A"/>
<path opacity="0.12" d="M35.3738 55.1461V71.3434C35.3738 71.9949 34.8479 72.5209 34.1963 72.5209H29.8396C29.1881 72.5209 28.6621 71.9949 28.6621 71.3434V71.2335C31.6687 71.1786 34.0902 68.7215 34.0902 65.6993V53.9688H34.1961C34.848 53.9688 35.3738 54.4985 35.3738 55.1461Z" fill="black"/>
<path d="M44.7028 59.6384V71.3427C44.7028 71.993 44.1757 72.5202 43.5253 72.5202H39.1677C38.5174 72.5202 37.9902 71.993 37.9902 71.3427V59.6384C37.9902 58.9881 38.5174 58.4609 39.1677 58.4609H43.5253C44.1757 58.4611 44.7028 58.9883 44.7028 59.6384Z" fill="#F14F4A"/>
<path opacity="0.12" d="M44.702 59.6365V71.3426C44.702 71.9941 44.176 72.5201 43.5244 72.5201H39.1677C38.5162 72.5201 37.9902 71.9941 37.9902 71.3426V71.2328C40.9968 71.1778 43.4184 68.7207 43.4184 65.6985V58.459H43.5243C44.176 58.459 44.702 58.9889 44.702 59.6365Z" fill="black"/>
<path d="M54.0309 49.5603V71.3433C54.0309 71.9937 53.5038 72.5208 52.8534 72.5208H48.4959C47.8455 72.5208 47.3184 71.9937 47.3184 71.3433V49.5603C47.3184 48.91 47.8455 48.3828 48.4959 48.3828H52.8534C53.5038 48.3828 54.0309 48.91 54.0309 49.5603Z" fill="#F14F4A"/>
<path opacity="0.12" d="M54.0301 49.5584V71.3433C54.0301 71.9948 53.5041 72.5208 52.8526 72.5208H48.4959C47.8443 72.5208 47.3184 71.9948 47.3184 71.3433V71.2334C50.3249 71.1785 52.7465 68.7213 52.7465 65.6992V48.3809H52.8524C53.5041 48.3809 54.0301 48.9106 54.0301 49.5584Z" fill="black"/>
<path d="M35.3744 43.2187H19.3339C18.8345 43.2187 18.4297 42.8142 18.4297 42.3144C18.4297 41.8146 18.8345 41.4102 19.3339 41.4102H35.3744C35.8738 41.4102 36.2786 41.8146 36.2786 42.3144C36.2786 42.8142 35.8736 43.2187 35.3744 43.2187Z" fill="#474747"/>
<path d="M30.155 49.287H19.3339C18.8345 49.287 18.4297 48.8826 18.4297 48.3828C18.4297 47.883 18.8345 47.4785 19.3339 47.4785H30.155C30.6544 47.4785 31.0592 47.883 31.0592 48.3828C31.0592 48.8826 30.6544 49.287 30.155 49.287Z" fill="#474747"/>
</svg>
