<svg width="52" height="15" viewBox="0 0 52 15" fill="none" xmlns="http://www.w3.org/2000/svg">
<path d="M51.7071 8.07038C52.0976 7.67986 52.0976 7.04669 51.7071 6.65617L45.3431 0.292209C44.9526 -0.0983149 44.3195 -0.0983148 43.9289 0.29221C43.5384 0.682734 43.5384 1.3159 43.9289 1.70642L49.5858 7.36328L43.9289 13.0201C43.5384 13.4107 43.5384 14.0438 43.9289 14.4343C44.3195 14.8249 44.9526 14.8249 45.3431 14.4343L51.7071 8.07038ZM0 7.36328L8.74228e-08 8.36328L2.125 8.36328L2.125 7.36328L2.125 6.36328L-8.74228e-08 6.36328L0 7.36328ZM6.375 7.36328L6.375 8.36328L10.625 8.36328L10.625 7.36328L10.625 6.36328L6.375 6.36328L6.375 7.36328ZM14.875 7.36328L14.875 8.36328L19.125 8.36328L19.125 7.36328L19.125 6.36328L14.875 6.36328L14.875 7.36328ZM23.375 7.36328L23.375 8.36328L27.625 8.36328L27.625 7.36328L27.625 6.36328L23.375 6.36328L23.375 7.36328ZM31.875 7.36328L31.875 8.36328L36.125 8.36328L36.125 7.36328L36.125 6.36328L31.875 6.36328L31.875 7.36328ZM40.375 7.36328L40.375 8.36328L44.625 8.36328L44.625 7.36328L44.625 6.36328L40.375 6.36328L40.375 7.36328ZM48.875 7.36328L48.875 8.36328L51 8.36328L51 7.36328L51 6.36328L48.875 6.36328L48.875 7.36328ZM51.7071 8.07038C52.0976 7.67986 52.0976 7.04669 51.7071 6.65617L45.3431 0.292209C44.9526 -0.0983149 44.3195 -0.0983148 43.9289 0.29221C43.5384 0.682734 43.5384 1.3159 43.9289 1.70642L49.5858 7.36328L43.9289 13.0201C43.5384 13.4107 43.5384 14.0438 43.9289 14.4343C44.3195 14.8249 44.9526 14.8249 45.3431 14.4343L51.7071 8.07038ZM0 7.36328L8.74228e-08 8.36328L2.125 8.36328L2.125 7.36328L2.125 6.36328L-8.74228e-08 6.36328L0 7.36328ZM6.375 7.36328L6.375 8.36328L10.625 8.36328L10.625 7.36328L10.625 6.36328L6.375 6.36328L6.375 7.36328ZM14.875 7.36328L14.875 8.36328L19.125 8.36328L19.125 7.36328L19.125 6.36328L14.875 6.36328L14.875 7.36328ZM23.375 7.36328L23.375 8.36328L27.625 8.36328L27.625 7.36328L27.625 6.36328L23.375 6.36328L23.375 7.36328ZM31.875 7.36328L31.875 8.36328L36.125 8.36328L36.125 7.36328L36.125 6.36328L31.875 6.36328L31.875 7.36328ZM40.375 7.36328L40.375 8.36328L44.625 8.36328L44.625 7.36328L44.625 6.36328L40.375 6.36328L40.375 7.36328ZM48.875 7.36328L48.875 8.36328L51 8.36328L51 7.36328L51 6.36328L48.875 6.36328L48.875 7.36328Z" fill="#555555"/>
</svg>
