<svg width="813" height="517" viewBox="0 0 813 517" fill="none" xmlns="http://www.w3.org/2000/svg">
<path d="M645.462 462.551C688.782 469.497 735.224 444.37 753.07 404.363C769.349 367.863 762.402 325.141 748.934 287.515C742.033 268.23 733.058 248.899 717.573 235.467C685.406 207.546 637.005 213.307 595.022 220.702C611.843 198.99 609.458 161.628 595.921 137.732C582.383 113.847 553.811 99.3688 526.506 102.566C509.685 104.544 494.223 112.444 478.013 117.354C461.803 122.253 442.908 123.725 429.105 113.939C415.476 104.268 410.683 86.6157 401.478 72.6896C375.762 33.7748 315.633 29.9339 276.484 55.3481C237.335 80.7509 216.493 126.887 206.919 172.507C189.154 152.417 156.261 148.714 130.937 157.626C105.613 166.527 86.903 191.676 85.6817 218.459C84.0803 253.499 109.001 283.513 132.458 309.628C103.977 315.758 85.7048 347.393 88.9192 376.292C92.1451 405.191 112.86 429.972 138.046 444.6C163.219 459.216 192.495 465.069 221.378 468.818C309.769 480.283 399.381 474.165 488.301 468.025C535.93 464.747 597.833 465.84 645.462 462.551Z" fill="#E3EDFE"/>
<path d="M50.4952 127.382H143.679C151.133 127.382 157.181 121.345 157.181 113.904V70.8841C157.181 63.4438 151.133 57.418 143.679 57.418H50.4952C43.041 57.418 37.0039 63.4438 37.0039 70.8841V113.904C37.0039 121.345 43.041 127.382 50.4952 127.382Z" fill="#C9DBFA"/>
<path d="M99.4717 116.182L141.374 157.419L133.021 116.182H99.4717Z" fill="#C9DBFA"/>
<path d="M143.852 77.1738H50.334" stroke="#8DAEF3" stroke-width="2.18138" stroke-linecap="round" stroke-linejoin="round"/>
<path d="M143.852 87.3281H50.334" stroke="#8DAEF3" stroke-width="2.18138" stroke-linecap="round" stroke-linejoin="round"/>
<path d="M143.852 97.4707H50.334" stroke="#8DAEF3" stroke-width="2.18138" stroke-linecap="round" stroke-linejoin="round"/>
<path d="M143.852 107.613H50.334" stroke="#8DAEF3" stroke-width="2.18138" stroke-linecap="round" stroke-linejoin="round"/>
<path d="M769.718 123.013H676.534C669.08 123.013 663.031 116.987 663.031 109.547V66.5264C663.031 59.0861 669.08 53.0488 676.534 53.0488H769.718C777.172 53.0488 783.209 59.0861 783.209 66.5264V109.547C783.209 116.987 777.172 123.013 769.718 123.013Z" fill="#C9DBFA"/>
<path d="M720.752 111.824L678.838 153.05L687.202 111.824H720.752Z" fill="#C9DBFA"/>
<path d="M676.361 72.8164H769.89" stroke="#8DAEF3" stroke-width="2.18138" stroke-linecap="round" stroke-linejoin="round"/>
<path d="M676.361 82.959H769.89" stroke="#8DAEF3" stroke-width="2.18138" stroke-linecap="round" stroke-linejoin="round"/>
<path d="M676.361 93.1016H769.89" stroke="#8DAEF3" stroke-width="2.18138" stroke-linecap="round" stroke-linejoin="round"/>
<path d="M676.361 103.244H769.89" stroke="#8DAEF3" stroke-width="2.18138" stroke-linecap="round" stroke-linejoin="round"/>
<path d="M798.521 464.161C798.521 472.061 623.007 478.478 406.501 478.478C189.994 478.478 14.4805 472.061 14.4805 464.161C14.4805 456.249 189.994 449.844 406.501 449.844C623.007 449.844 798.521 456.249 798.521 464.161Z" fill="#C9DBFA"/>
<path d="M405.027 456.134L394.635 394.151C394.485 393.242 395.176 392.483 396.144 392.483L401.213 392.426C402.181 392.414 403.057 393.15 403.137 394.059L408.46 456.099C408.633 458.146 405.372 458.181 405.027 456.134Z" fill="#334148"/>
<path d="M308.133 456.134L318.526 394.151C318.675 393.242 317.996 392.483 317.028 392.483L311.958 392.426C310.979 392.414 310.104 393.15 310.034 394.059L304.712 456.099C304.527 458.146 307.799 458.181 308.133 456.134Z" fill="#334148"/>
<path d="M432.757 456.134L419.612 394.151C419.427 393.242 420.291 392.483 421.513 392.483L427.93 392.426C429.163 392.414 430.269 393.15 430.361 394.059L437.101 456.099C437.32 458.146 433.184 458.181 432.757 456.134Z" fill="#334148"/>
<path d="M280.412 456.134L293.547 394.151C293.742 393.242 292.878 392.483 291.646 392.483L285.24 392.426C284.007 392.414 282.901 393.15 282.809 394.059L276.069 456.099C275.85 458.146 279.975 458.181 280.412 456.134Z" fill="#334148"/>
<path d="M266.438 386.113V398.498H446.733V386.113H266.438Z" fill="#FFE36C"/>
<path d="M384.956 333.721H299.803V351.177H384.956V333.721Z" fill="#FFE36C"/>
<path d="M316.704 347.153H376.58V337.746H316.704V347.153Z" fill="white"/>
<path d="M311.382 342.449C311.382 339.851 310.149 337.746 308.617 337.746C307.096 337.746 305.852 339.851 305.852 342.449C305.852 345.048 307.096 347.153 308.617 347.153C310.149 347.153 311.382 345.048 311.382 342.449Z" fill="white"/>
<path d="M389.23 351.178H304.065V368.646H389.23V351.178Z" fill="#29C399"/>
<path d="M320.967 364.622H380.854V355.215H320.967V364.622Z" fill="white"/>
<path d="M315.656 359.918C315.656 357.319 314.412 355.215 312.891 355.215C311.359 355.215 310.126 357.319 310.126 359.918C310.126 362.506 311.359 364.622 312.891 364.622C314.412 364.622 315.656 362.506 315.656 359.918Z" fill="white"/>
<path d="M295.689 368.645H380.854V386.113H295.689V368.645Z" fill="#5A6CF0"/>
<path d="M363.941 382.077H304.065V372.67H363.941V382.077Z" fill="white"/>
<path d="M369.264 377.373C369.264 374.774 370.496 372.67 372.029 372.67C373.561 372.67 374.794 374.774 374.794 377.373C374.794 379.972 373.561 382.077 372.029 382.077C370.496 382.077 369.264 379.972 369.264 377.373Z" fill="white"/>
<path d="M722.677 421.427L721.536 421.553L709.531 313.664L710.672 313.537L722.677 421.427Z" fill="#FFB74F"/>
<path d="M714.508 409.272C711.363 407.409 707.446 406.535 704.024 407.8C700.614 409.077 698.079 412.917 699.058 416.425C699.876 419.334 702.745 421.255 705.671 422.083C710.153 423.371 716.559 422.692 720.119 419.357C724.313 415.436 718.229 411.469 714.508 409.272Z" fill="#FFB74F"/>
<path d="M726.836 407.902C729.486 405.407 733.116 403.682 736.733 404.177C740.351 404.671 743.657 407.856 743.473 411.49C743.323 414.526 740.938 417.022 738.277 418.471C734.175 420.702 727.781 421.449 723.576 418.977C718.622 416.067 723.691 410.858 726.836 407.902Z" fill="#FFB74F"/>
<path d="M712.895 390.091C710.027 388.389 706.432 387.584 703.298 388.757C700.164 389.919 697.849 393.437 698.747 396.646C699.496 399.314 702.123 401.073 704.796 401.832C708.921 403.005 714.773 402.396 718.045 399.337C721.882 395.749 716.306 392.115 712.895 390.091Z" fill="#FFB74F"/>
<path d="M724.186 388.838C726.617 386.561 729.947 384.985 733.254 385.434C736.572 385.882 739.602 388.803 739.429 392.138C739.291 394.91 737.102 397.198 734.671 398.52C730.915 400.567 725.062 401.257 721.203 398.992C716.663 396.324 721.306 391.552 724.186 388.838Z" fill="#FFB74F"/>
<path d="M711.455 372.277C708.852 370.736 705.603 370.012 702.768 371.058C699.934 372.116 697.826 375.302 698.644 378.211C699.324 380.626 701.708 382.213 704.128 382.903C707.849 383.972 713.161 383.409 716.11 380.649C719.589 377.395 714.543 374.106 711.455 372.277Z" fill="#FFB74F"/>
<path d="M721.675 371.14C723.875 369.07 726.894 367.644 729.889 368.058C732.885 368.46 735.638 371.105 735.477 374.13C735.35 376.637 733.38 378.707 731.168 379.914C727.769 381.766 722.469 382.375 718.979 380.328C714.865 377.925 719.071 373.601 721.675 371.14Z" fill="#FFB74F"/>
<path d="M710.58 356.5C708.425 355.224 705.718 354.614 703.368 355.488C701.017 356.362 699.278 359.007 699.957 361.411C700.51 363.423 702.492 364.745 704.497 365.32C707.584 366.194 711.997 365.734 714.439 363.446C717.331 360.744 713.138 358.007 710.58 356.5Z" fill="#FFB74F"/>
<path d="M719.059 355.558C720.891 353.833 723.391 352.648 725.88 352.993C728.357 353.327 730.638 355.523 730.511 358.03C730.408 360.112 728.772 361.825 726.94 362.826C724.117 364.367 719.716 364.873 716.824 363.182C713.414 361.181 716.893 357.593 719.059 355.558Z" fill="#FFB74F"/>
<path d="M709.658 342.458C707.815 341.366 705.511 340.848 703.506 341.596C701.501 342.343 700.015 344.597 700.591 346.656C701.075 348.358 702.757 349.485 704.462 349.979C707.101 350.727 710.856 350.336 712.942 348.381C715.407 346.081 711.836 343.746 709.658 342.458Z" fill="#FFB74F"/>
<path d="M716.882 341.654C718.438 340.193 720.569 339.181 722.689 339.469C724.809 339.756 726.756 341.631 726.641 343.758C726.548 345.541 725.154 347.001 723.599 347.852C721.191 349.163 717.435 349.6 714.97 348.151C712.066 346.449 715.039 343.39 716.882 341.654Z" fill="#FFB74F"/>
<path d="M708.656 327.97C707.123 327.061 705.211 326.624 703.54 327.245C701.87 327.866 700.637 329.741 701.121 331.454C701.513 332.88 702.918 333.812 704.335 334.226C706.536 334.847 709.658 334.513 711.398 332.892C713.437 330.983 710.476 329.039 708.656 327.97Z" fill="#FFB74F"/>
<path d="M714.67 327.302C715.971 326.083 717.734 325.243 719.508 325.485C721.271 325.715 722.884 327.279 722.792 329.05C722.711 330.533 721.559 331.752 720.257 332.454C718.253 333.546 715.13 333.914 713.08 332.707C710.66 331.281 713.137 328.739 714.67 327.302Z" fill="#FFB74F"/>
<path d="M708.138 316.769C706.974 316.09 705.523 315.757 704.255 316.228C702.988 316.7 702.055 318.126 702.412 319.425C702.723 320.506 703.783 321.219 704.866 321.53C706.525 322.001 708.898 321.748 710.223 320.518C711.779 319.057 709.52 317.585 708.138 316.769Z" fill="#FFB74F"/>
<path d="M712.712 316.263C713.691 315.343 715.039 314.699 716.387 314.883C717.723 315.067 718.956 316.251 718.887 317.597C718.829 318.724 717.942 319.644 716.951 320.184C715.431 321.012 713.069 321.288 711.502 320.368C709.67 319.299 711.548 317.367 712.712 316.263Z" fill="#FFB74F"/>
<path d="M707.434 311.962C706.824 310.754 706.605 309.282 707.169 308.063C707.722 306.833 709.22 306.005 710.487 306.453C711.547 306.833 712.181 307.948 712.411 309.041C712.769 310.731 712.354 313.077 711.017 314.308C709.462 315.745 708.149 313.399 707.434 311.962Z" fill="#FFB74F"/>
<path d="M735.604 421.427L736.756 421.553L748.761 313.664L747.609 313.537L735.604 421.427Z" fill="#FFB74F"/>
<path d="M743.784 409.272C746.918 407.409 750.847 406.535 754.257 407.8C757.679 409.077 760.213 412.917 759.222 416.425C758.416 419.334 755.536 421.255 752.621 422.083C748.128 423.371 741.733 422.692 738.173 419.357C733.98 415.436 740.063 411.469 743.784 409.272Z" fill="#FFB74F"/>
<path d="M731.456 407.902C728.807 405.407 725.166 403.682 721.56 404.177C717.942 404.671 714.624 407.856 714.82 411.49C714.97 414.526 717.354 417.022 720.016 418.471C724.117 420.702 730.512 421.449 734.717 418.977C739.671 416.067 734.602 410.858 731.456 407.902Z" fill="#FFB74F"/>
<path d="M745.385 390.091C748.265 388.389 751.86 387.584 754.982 388.757C758.116 389.919 760.431 393.437 759.533 396.646C758.795 399.314 756.157 401.073 753.484 401.832C749.371 403.005 743.507 402.396 740.246 399.337C736.41 395.749 741.986 392.115 745.385 390.091Z" fill="#FFB74F"/>
<path d="M734.106 388.838C731.675 386.561 728.345 384.985 725.027 385.434C721.721 385.882 718.691 388.803 718.852 392.138C719.002 394.91 721.179 397.198 723.622 398.52C727.378 400.567 733.23 401.257 737.09 398.992C741.618 396.324 736.986 391.552 734.106 388.838Z" fill="#FFB74F"/>
<path d="M746.837 372.277C749.429 370.736 752.689 370.012 755.524 371.058C758.358 372.116 760.455 375.302 759.637 378.211C758.968 380.626 756.583 382.213 754.164 382.903C750.443 383.972 745.131 383.409 742.17 380.649C738.703 377.395 743.749 374.106 746.837 372.277Z" fill="#FFB74F"/>
<path d="M736.606 371.14C734.406 369.07 731.399 367.644 728.403 368.058C725.396 368.46 722.654 371.105 722.804 374.13C722.942 376.637 724.912 378.707 727.124 379.914C730.523 381.766 735.823 382.375 739.314 380.328C743.415 377.925 739.221 373.601 736.606 371.14Z" fill="#FFB74F"/>
<path d="M747.713 356.5C749.867 355.224 752.563 354.614 754.913 355.488C757.264 356.362 759.015 359.007 758.335 361.411C757.771 363.423 755.801 364.745 753.784 365.32C750.697 366.194 746.296 365.734 743.842 363.446C740.961 360.744 745.143 358.007 747.713 356.5Z" fill="#FFB74F"/>
<path d="M739.221 355.558C737.4 353.833 734.9 352.648 732.412 352.993C729.923 353.327 727.642 355.523 727.769 358.03C727.884 360.112 729.52 361.825 731.352 362.826C734.175 364.367 738.576 364.873 741.467 363.182C744.878 361.181 741.387 357.593 739.221 355.558Z" fill="#FFB74F"/>
<path d="M748.634 342.458C750.478 341.366 752.782 340.848 754.786 341.596C756.791 342.343 758.277 344.597 757.701 346.656C757.217 348.358 755.535 349.485 753.819 349.979C751.18 350.727 747.436 350.336 745.339 348.381C742.885 346.081 746.457 343.746 748.634 342.458Z" fill="#FFB74F"/>
<path d="M741.411 341.654C739.844 340.193 737.712 339.181 735.592 339.469C733.473 339.756 731.537 341.631 731.641 343.758C731.733 345.541 733.127 347.001 734.694 347.852C737.102 349.163 740.846 349.6 743.312 348.151C746.227 346.449 743.254 343.39 741.411 341.654Z" fill="#FFB74F"/>
<path d="M749.636 327.97C751.168 327.061 753.081 326.624 754.752 327.245C756.411 327.866 757.655 329.741 757.171 331.454C756.768 332.88 755.374 333.812 753.945 334.226C751.756 334.847 748.634 334.513 746.894 332.892C744.843 330.983 747.816 329.039 749.636 327.97Z" fill="#FFB74F"/>
<path d="M743.622 327.302C742.32 326.083 740.546 325.243 738.783 325.485C737.021 325.715 735.408 327.279 735.5 329.05C735.569 330.533 736.733 331.752 738.035 332.454C740.039 333.546 743.15 333.914 745.212 332.707C747.62 331.281 745.155 328.739 743.622 327.302Z" fill="#FFB74F"/>
<path d="M750.143 316.769C751.307 316.09 752.759 315.757 754.026 316.228C755.293 316.7 756.238 318.126 755.869 319.425C755.57 320.506 754.51 321.219 753.427 321.53C751.756 322.001 749.383 321.748 748.069 320.518C746.514 319.057 748.761 317.585 750.143 316.769Z" fill="#FFB74F"/>
<path d="M745.58 316.263C744.59 315.343 743.242 314.699 741.905 314.883C740.569 315.067 739.336 316.251 739.405 317.597C739.463 318.724 740.35 319.644 741.329 320.184C742.85 321.012 745.223 321.288 746.779 320.368C748.622 319.299 746.744 317.367 745.58 316.263Z" fill="#FFB74F"/>
<path d="M750.858 311.962C751.457 310.754 751.687 309.282 751.122 308.063C750.558 306.833 749.072 306.005 747.793 306.453C746.733 306.833 746.111 307.948 745.869 309.041C745.512 310.731 745.938 313.077 747.263 314.308C748.83 315.745 750.143 313.399 750.858 311.962Z" fill="#FFB74F"/>
<path d="M730.131 421.451H728.979V312.895H730.131V421.451Z" fill="#E57D1F"/>
<path d="M723.356 408.457C720.441 406.272 716.639 404.961 713.102 405.846C709.565 406.732 706.627 410.273 707.215 413.861C707.699 416.851 710.337 419.071 713.148 420.221C717.469 421.992 723.909 422.026 727.815 419.105C732.412 415.667 726.812 411.055 723.356 408.457Z" fill="#E57D1F"/>
<path d="M735.753 408.457C738.668 406.272 742.47 404.961 746.007 405.846C749.544 406.732 752.482 410.273 751.894 413.861C751.41 416.851 748.76 419.071 745.961 420.221C741.64 421.992 735.2 422.026 731.294 419.105C726.686 415.667 732.297 411.055 735.753 408.457Z" fill="#E57D1F"/>
<path d="M723.875 389.218C721.202 387.217 717.722 386.021 714.485 386.826C711.247 387.642 708.552 390.885 709.093 394.174C709.531 396.911 711.962 398.947 714.531 400.004C718.483 401.626 724.382 401.649 727.965 398.981C732.182 395.83 727.043 391.598 723.875 389.218Z" fill="#E57D1F"/>
<path d="M735.234 389.218C737.907 387.217 741.387 386.021 744.624 386.826C747.861 387.642 750.557 390.885 750.016 394.174C749.567 396.911 747.147 398.947 744.578 400.004C740.615 401.626 734.727 401.649 731.144 398.981C726.928 395.83 732.066 391.598 735.234 389.218Z" fill="#E57D1F"/>
<path d="M724.416 371.359C721.996 369.542 718.839 368.449 715.913 369.185C712.975 369.921 710.533 372.854 711.028 375.844C711.431 378.316 713.62 380.156 715.948 381.11C719.531 382.582 724.865 382.605 728.114 380.19C731.928 377.338 727.273 373.509 724.416 371.359Z" fill="#E57D1F"/>
<path d="M734.693 371.359C737.112 369.542 740.269 368.449 743.196 369.185C746.134 369.921 748.576 372.854 748.081 375.844C747.677 378.316 745.488 380.156 743.161 381.11C739.578 382.582 734.232 382.605 730.995 380.19C727.181 377.338 731.836 373.509 734.693 371.359Z" fill="#E57D1F"/>
<path d="M725.291 355.569C723.287 354.063 720.66 353.166 718.229 353.775C715.798 354.385 713.77 356.823 714.173 359.295C714.519 361.353 716.328 362.883 718.263 363.665C721.236 364.884 725.672 364.907 728.356 362.906C731.524 360.537 727.665 357.363 725.291 355.569Z" fill="#E57D1F"/>
<path d="M733.817 355.569C735.822 354.063 738.437 353.166 740.88 353.775C743.311 354.385 745.338 356.823 744.924 359.295C744.59 361.353 742.769 362.883 740.845 363.665C737.861 364.884 733.437 364.907 730.753 362.906C727.584 360.537 731.444 357.363 733.817 355.569Z" fill="#E57D1F"/>
<path d="M725.914 341.516C724.209 340.228 721.974 339.469 719.9 339.986C717.826 340.504 716.098 342.585 716.444 344.69C716.732 346.438 718.287 347.749 719.935 348.416C722.469 349.462 726.237 349.474 728.529 347.76C731.237 345.748 727.942 343.045 725.914 341.516Z" fill="#E57D1F"/>
<path d="M733.195 341.516C734.9 340.228 737.135 339.469 739.209 339.986C741.283 340.504 743 342.585 742.665 344.69C742.377 346.438 740.822 347.749 739.174 348.416C736.64 349.462 732.861 349.474 730.568 347.76C727.872 345.748 731.167 343.045 733.195 341.516Z" fill="#E57D1F"/>
<path d="M726.525 327.004C725.108 325.935 723.253 325.302 721.525 325.728C719.796 326.165 718.356 327.89 718.644 329.649C718.886 331.098 720.177 332.19 721.548 332.742C723.656 333.616 726.801 333.628 728.702 332.202C730.949 330.523 728.218 328.269 726.525 327.004Z" fill="#E57D1F"/>
<path d="M732.584 327.004C734.002 325.935 735.856 325.302 737.585 325.728C739.313 326.165 740.741 327.89 740.453 329.649C740.223 331.098 738.933 332.19 737.562 332.742C735.453 333.616 732.308 333.628 730.395 332.202C728.16 330.523 730.891 328.269 732.584 327.004Z" fill="#E57D1F"/>
<path d="M727.25 315.827C726.178 315.01 724.761 314.527 723.448 314.861C722.146 315.183 721.051 316.494 721.27 317.828C721.455 318.943 722.434 319.759 723.471 320.185C725.072 320.84 727.457 320.852 728.909 319.771C730.614 318.495 728.54 316.793 727.25 315.827Z" fill="#E57D1F"/>
<path d="M731.848 315.827C732.931 315.01 734.348 314.527 735.65 314.861C736.963 315.183 738.058 316.494 737.839 317.828C737.655 318.943 736.675 319.759 735.638 320.185C734.037 320.84 731.652 320.852 730.2 319.771C728.495 318.495 730.569 316.793 731.848 315.827Z" fill="#E57D1F"/>
<path d="M727.077 310.973C726.616 309.708 726.559 308.213 727.25 307.063C727.941 305.902 729.52 305.235 730.729 305.833C731.743 306.327 732.25 307.5 732.354 308.616C732.527 310.329 731.847 312.618 730.384 313.687C728.679 314.952 727.63 312.468 727.077 310.973Z" fill="#E57D1F"/>
<path d="M694.185 383.145L705.533 461.917" stroke="#5B6479" stroke-width="1.2465" stroke-miterlimit="10"/>
<path d="M708.333 383.145L715.142 461.917" stroke="#5B6479" stroke-width="1.2465" stroke-miterlimit="10"/>
<path d="M722.48 383.145L724.75 461.917" stroke="#5B6479" stroke-width="1.2465" stroke-miterlimit="10"/>
<path d="M736.629 383.145L734.359 461.917" stroke="#5B6479" stroke-width="1.2465" stroke-miterlimit="10"/>
<path d="M750.777 383.145L743.968 461.917" stroke="#5B6479" stroke-width="1.2465" stroke-miterlimit="10"/>
<path d="M764.925 383.145L753.576 461.917" stroke="#5B6479" stroke-width="1.2465" stroke-miterlimit="10"/>
<path d="M763.98 388.158H695.129L694.185 383.145H764.925L763.98 388.158Z" fill="#3C53C6"/>
<path d="M759.533 423.945H699.577L698.747 416.838H760.351L759.533 423.945Z" fill="#3C53C6"/>
<path d="M753.576 461.917H705.533L704.876 456.236H754.233L753.576 461.917Z" fill="#3C53C6"/>
<path d="M82.5705 385.503C75.9228 374.67 73.1347 360.388 75.0703 347.037C75.3698 344.967 75.7961 342.862 76.7639 341.126C77.7432 339.401 79.3561 338.078 81.0728 338.205C82.5936 338.308 83.907 339.47 85.3472 340.045C86.7988 340.608 88.7805 340.229 89.2183 338.446C91.9142 327.476 91.3497 316.482 95.0019 305.925C95.6241 304.12 96.3153 302.303 97.4099 300.877C98.5159 299.463 100.129 298.497 101.707 298.807C103.136 299.095 104.3 300.348 105.406 301.498C106.512 302.648 107.779 303.81 109.231 303.833C110.682 303.867 112.203 302.154 111.731 300.463C115.867 293.713 122.445 288.319 129.07 286.031C131.432 285.226 134.139 284.824 136.156 286.526C138.506 288.526 138.921 292.804 137.872 296.07C136.812 299.348 134.635 301.855 132.538 304.235C134.796 306.811 137.1 310.422 137.193 314.205C137.273 318.184 134.623 321.577 131.628 323.083C128.644 324.601 125.326 324.704 122.111 325.153C118.897 325.613 115.533 326.544 113.205 329.304C116.938 329.983 120.752 334.353 121.65 338.872C122.538 343.38 121.017 348.474 117.941 351.2C115.821 353.086 113.194 353.822 110.855 355.27C108.528 356.708 106.316 359.376 106.454 362.573C109.576 362.446 111.489 365.988 111.938 369.795C112.376 373.589 110.936 377.43 108.804 380.225C106.673 383.031 103.896 384.951 101.143 386.757C97.8246 388.918 94.3106 391.011 90.5663 391.069C86.8103 391.138 84.8287 389.183 82.5705 385.503Z" fill="#E57D1F"/>
<path d="M89.4375 392.184C90.8085 361.192 101.8 331.304 119.704 309.869" stroke="#FFD985" stroke-width="1.76587" stroke-linecap="round" stroke-linejoin="round"/>
<path d="M85.8783 386.549C92.526 377.74 95.3142 366.126 93.3786 355.27C93.079 353.591 92.6528 351.878 91.6735 350.463C90.7057 349.06 89.0927 347.991 87.376 348.083C85.8553 348.175 84.5418 349.118 83.1017 349.578C81.65 350.049 79.6684 349.739 79.2306 348.29C76.5346 339.366 77.0991 330.419 73.4469 321.841C72.8248 320.38 72.1335 318.897 71.0275 317.747C69.933 316.585 68.32 315.803 66.7416 316.056C65.313 316.286 64.1493 317.31 63.0433 318.241C61.9372 319.184 60.6699 320.116 59.2182 320.139C57.7666 320.173 56.2458 318.77 56.7181 317.402C52.582 311.905 45.9919 307.535 39.3672 305.672C37.0169 305.017 34.3094 304.683 32.2932 306.075C29.9314 307.696 29.5166 311.169 30.5765 313.837C31.6365 316.493 33.814 318.529 35.9109 320.472C33.6527 322.565 31.3485 325.497 31.2563 328.579C31.1757 331.811 33.8255 334.571 36.821 335.801C39.805 337.032 43.1231 337.112 46.3375 337.48C49.552 337.848 52.9162 338.607 55.2434 340.849C51.499 341.413 47.697 344.955 46.7984 348.623C45.9113 352.303 47.4321 356.443 50.5082 358.651C52.6166 360.18 55.255 360.778 57.5938 361.963C59.921 363.136 62.1331 365.298 61.9833 367.908C58.8611 367.805 56.9601 370.68 56.5108 373.773C56.073 376.855 57.5131 379.983 59.6445 382.26C61.7759 384.537 64.5526 386.101 67.3061 387.561C70.6242 389.321 74.1267 391.022 77.8826 391.068C81.6385 391.126 83.6201 389.539 85.8783 386.549Z" fill="#FFB74F"/>
<path d="M81.7647 391.08C78.2853 365.999 65.3125 342.367 46.0029 325.957" stroke="#E57D1F" stroke-width="1.55813" stroke-linecap="round" stroke-linejoin="round"/>
<path d="M41.0723 399.429H122.769V388.344H41.0723V399.429Z" fill="#3C53C6"/>
<path d="M53.7912 461.919H110.049L118.967 399.234H44.8623L53.7912 461.919Z" fill="#5A6CF0"/>
<path d="M162.215 247.541C162.215 247.541 170.119 250.094 173.057 243.792C175.983 237.49 174.946 230.452 170.361 231.154C165.764 231.867 162.066 240.147 162.215 247.541Z" fill="#FF8C7A"/>
<path d="M163.126 151.082L137.929 190.066C135.015 194.585 134.565 200.266 136.731 205.176L162.216 247.541L173.645 233.742L157.919 205.096C157.723 204.59 157.93 204.026 158.414 203.773L169.544 198.081L163.126 151.082Z" fill="#FF8C7A"/>
<path d="M216.815 123.426L220.536 149.541L202.989 148.966L203.243 126.22L216.815 123.426Z" fill="#FCE0CA"/>
<path opacity="0.1" d="M203.209 127.543C203.209 127.543 204.73 142.401 219.235 141.055L218.59 135.34L203.209 127.543Z" fill="#21202B"/>
<path d="M226.92 114.905C226.92 114.905 229.086 112.904 230.422 114.1C231.839 115.376 231.839 119.953 227.415 120.735C227.415 120.735 226.39 118.412 226.92 114.905Z" fill="#FCE0CA"/>
<path d="M220.559 98.3457C217.794 96.7128 214.522 95.9768 211.435 95.9308C213.508 100.105 214.315 104.981 215.214 109.5C219.211 109.029 223.186 108.408 227.173 107.936C226.159 103.912 224.212 100.519 220.559 98.3457ZM227.173 107.936C223.186 108.408 219.211 109.029 215.214 109.5C217.034 118.551 220.629 127.923 219.764 137.215C223.613 136.513 225.41 133.086 226.389 130.763C228.705 123.771 228.912 114.894 227.173 107.936ZM211.435 95.9308C206.112 95.8388 201.296 97.8053 198.393 102.405C196.008 106.189 195.904 110.443 196.607 114.1C202.517 111.697 208.912 110.386 215.214 109.5C214.315 104.981 213.508 100.105 211.435 95.9308ZM215.214 109.5C208.912 110.386 202.517 111.697 196.607 114.1C197.575 119.195 200.593 122.702 200.593 122.702C201.665 124.496 202.69 126.796 203.762 128.59C209.349 137.491 215.594 137.974 219.764 137.215C220.629 127.923 217.034 118.551 215.214 109.5Z" fill="url(#paint0_linear_1018_23152)"/>
<path d="M224.638 104.681C224.638 104.681 227.242 110.995 228.186 114.433C228.186 114.433 227.829 104.658 226.055 102.266C224.269 99.886 224.638 104.681 224.638 104.681Z" fill="#AF7B58"/>
<g opacity="0.25">
<path d="M221.746 100.737H221.757C221.765 100.692 221.761 100.692 221.746 100.737Z" fill="white"/>
</g>
<path d="M222.726 95.1485C218.612 94.8725 214.649 93.0555 210.525 93.251C205.087 93.5155 200.467 97.1724 196.388 100.795C195.996 99.9783 195.87 99.0238 196.019 98.1154C195.063 99.1158 194.648 100.588 194.936 101.945C194.399 101.937 193.884 101.826 193.393 101.611C193.853 102.317 194.426 102.918 195.109 103.417C194.015 104.44 193.865 106.108 193.98 107.591C194.349 112.616 196.837 117.193 199.28 121.586C200.063 121.463 200.843 121.345 201.619 121.23C201.987 116.768 202.352 112.306 202.713 107.844C209.695 105.51 217.103 103.152 224.269 104.831C224.673 104.923 225.122 105.027 225.491 104.82C225.779 104.659 225.94 104.348 226.09 104.049C227.484 101.071 228.094 97.7244 227.818 94.4355C227.587 95.7924 227.092 97.0919 226.355 98.2419C226.362 96.7239 226.37 95.2021 226.378 93.6765C225.825 94.976 224.12 95.2404 222.726 95.1485Z" fill="#AF7B58"/>
<path d="M202.967 121.471C202.967 121.471 202.264 116.768 197.759 119.355C195.973 120.39 196.872 125.691 202.345 125.507C202.345 125.507 204.13 124.737 202.967 121.471Z" fill="#FCE0CA"/>
<path d="M171.249 398.646L163.149 464.712H171.249L179.014 398.646H171.249Z" fill="#FCE0CA"/>
<path d="M237.104 398.751L239.535 465.265L231.458 464.575L229.361 398.096L237.104 398.751Z" fill="#FCE0CA"/>
<path d="M225.421 453.431L243.659 454.892L230.629 233.719L194.925 231.154L225.421 453.431Z" fill="#343FB6"/>
<path d="M172.516 233.72L212.333 233.076L179.601 451.501L159.531 453.122L172.516 233.72Z" fill="#343FB6"/>
<path d="M172.516 233.718V227.141L231.412 227.612L230.629 233.718L205.501 234.408L172.516 233.718Z" fill="#2534A5"/>
<path d="M265.584 465.655L244.765 459.354H230.824V468.542H264.892C266.494 468.542 267.012 466.38 265.584 465.655Z" fill="#262F40"/>
<path d="M137.929 465.655L158.748 459.354H172.688V468.542H138.62C137.019 468.542 136.5 466.38 137.929 465.655Z" fill="#262F40"/>
<path d="M172.101 239.412L177.515 248.692L175.903 271.784L169.704 275.567" stroke="#253244" stroke-width="0.831" stroke-miterlimit="10" stroke-linecap="round"/>
<path d="M232.299 276.303L225.651 272.428V249.67L231.412 245.887" stroke="#253244" stroke-width="0.831" stroke-miterlimit="10" stroke-linecap="round"/>
<path d="M202.598 295.668L212.333 283.387" stroke="#253244" stroke-width="0.831" stroke-miterlimit="10" stroke-linecap="round"/>
<path d="M203.035 233.719L199.798 282.086" stroke="#253244" stroke-width="0.831" stroke-miterlimit="10" stroke-linecap="round"/>
<path d="M316.578 192.171C315.944 192.459 310.84 190.791 310.46 189.733C310.46 189.733 312.326 186.72 313.121 184.961C313.916 183.202 319.181 182.489 320.771 182.201C321.958 181.994 322.108 184.214 321.14 185.007C320.161 185.812 317.569 186.352 317.569 186.352C317.569 186.352 317.776 191.631 316.578 192.171Z" fill="#FCE0CA"/>
<path d="M318.421 188.754C318.421 188.754 332.108 188.628 334.977 188.156C338.214 187.616 339.574 190.537 336.97 190.675C334.366 190.801 319.423 192.101 318.732 192.112C318.052 192.112 316.232 189.571 318.421 188.754Z" fill="#FCE0CA"/>
<path d="M317.464 189.71C317.464 189.71 332.073 190.354 334.988 189.549C336.843 189.032 339.17 190.653 336.486 191.435C335.046 191.861 325.448 193.413 320.31 194.356C316.324 195.092 311.911 193.505 311.508 193.505C311.508 193.505 315.172 190.4 317.464 189.71Z" fill="#FCE0CA"/>
<path d="M309.653 190.135C308.754 192.953 311.001 193.712 314.123 193.907C317.245 194.103 331.382 191.481 333.444 191.561C335.495 191.653 333.548 188.652 331.751 188.663C329.942 188.663 322.856 189.031 320.448 188.364C318.04 187.697 310.644 187.053 309.653 190.135Z" fill="#FCE0CA"/>
<path d="M325.518 190.929L325.541 190.918C325.61 190.918 332.235 190.09 334.85 189.538C335.818 189.331 336.555 189.4 336.981 189.722C337.338 189.998 337.362 190.354 337.362 190.366C337.362 190.458 337.442 190.527 337.546 190.527C337.638 190.527 337.707 190.446 337.707 190.343C337.707 190.32 337.673 189.825 337.189 189.457C336.674 189.059 335.871 188.974 334.781 189.204C332.246 189.733 325.932 190.527 325.518 190.573L319.1 189.825C318.997 189.814 318.916 189.883 318.905 189.975C318.893 190.078 318.962 190.159 319.054 190.17L325.518 190.929Z" fill="#F3C8AE"/>
<path d="M248.44 161.514L269.409 198.14L303.708 187.365C305.92 185.962 308.869 186.79 310.021 189.147L313.351 195.967C314.284 197.899 313.697 200.222 311.934 201.463L270.895 219.081C268.026 221.105 264.305 221.45 261.114 219.989L231.412 207.328L248.44 161.514Z" fill="#FF8C7A"/>
<path d="M172.516 227.142L163.149 150.98L199.522 142.85L222.426 146.104L248.441 161.514L231.413 227.614L172.516 227.142Z" fill="#FF8C7A"/>
<path d="M202.989 141.125L212.275 151.084L219.499 142.275L202.989 141.125Z" fill="#FCE0CA"/>
<path d="M199.521 142.85L203.105 139.377L212.275 151.084L207.437 156.304L199.521 142.85Z" fill="white"/>
<path d="M235.456 211.939C235.744 204.177 245.526 162.812 245.526 162.812" stroke="black" stroke-width="0.831" stroke-miterlimit="10" stroke-linecap="round"/>
<path d="M222.426 146.103L219.499 142.273L212.275 151.082L215.663 157.315L222.426 146.103Z" fill="white"/>
<path d="M172.516 233.719L205.04 232.316" stroke="#253244" stroke-width="0.831" stroke-miterlimit="10" stroke-linecap="round"/>
<path d="M210.086 163.721L203.035 221.805" stroke="black" stroke-width="0.831" stroke-miterlimit="10" stroke-linecap="round"/>
<path d="M167.297 155.072C167.297 155.072 171.456 185.305 168.172 198.138" stroke="black" stroke-width="0.831" stroke-miterlimit="10" stroke-linecap="round"/>
<path d="M159.037 207.937C159.037 207.937 156.168 204.81 155.949 196.76" stroke="black" stroke-width="0.831" stroke-miterlimit="10" stroke-linecap="round"/>
<path d="M213.911 122.001C214.061 123.427 213.013 124.715 211.572 124.853C210.132 125.002 208.853 123.956 208.704 122.518C208.554 121.092 209.602 119.804 211.042 119.655C212.483 119.517 213.761 120.563 213.911 122.001Z" fill="#F4D5C1"/>
<path d="M225.594 120.815C225.744 122.241 224.695 123.529 223.255 123.679C221.815 123.817 220.536 122.77 220.386 121.333C220.248 119.907 221.296 118.619 222.725 118.481C224.165 118.332 225.456 119.378 225.594 120.815Z" fill="#F4D5C1"/>
<path d="M221.354 126.865C221.112 128.602 219.695 130.028 217.886 130.212C216.054 130.396 214.395 129.292 213.819 127.636L221.354 126.865Z" fill="white"/>
<path d="M214.268 117.827C214.268 120.644 211.987 122.932 209.164 122.932C206.33 122.932 204.049 120.644 204.049 117.827C204.049 115.009 206.33 112.721 209.164 112.721C211.987 112.721 214.268 115.009 214.268 117.827Z" stroke="white" stroke-width="0.831" stroke-miterlimit="10" stroke-linecap="round"/>
<path d="M227.426 115.559C227.426 118.25 225.237 120.435 222.541 120.435C219.845 120.435 217.656 118.25 217.656 115.559C217.656 112.869 219.845 110.684 222.541 110.684C225.237 110.684 227.426 112.869 227.426 115.559Z" stroke="white" stroke-width="0.831" stroke-miterlimit="10" stroke-linecap="round"/>
<path d="M214.269 117.205C214.269 117.205 215.236 115.664 217.783 116.699" stroke="white" stroke-width="0.831" stroke-miterlimit="10" stroke-linecap="round"/>
<path d="M204.049 118.584H201.457" stroke="white" stroke-width="0.831" stroke-miterlimit="10" stroke-linecap="round"/>
<path d="M172.447 233.271C172.447 233.271 168.818 238.365 165.869 242.505C162.908 246.657 169.855 246.622 172.228 244.196C173.427 242.988 177.92 239.941 178.542 237.054C178.945 235.226 174.256 230.741 172.447 233.271Z" fill="#FCE0CA"/>
<path d="M173.864 235.133C173.864 235.133 178.922 234.857 181.33 235.409C182.632 235.708 186.146 239.929 186.756 240.722C187.367 241.516 186.134 243.609 183.91 241.32C182.851 240.228 180.627 237.732 180.627 237.732L172.781 238.491C172.781 238.491 170.373 236.329 173.864 235.133Z" fill="#FCE0CA"/>
<path d="M173.484 232.604C173.484 232.604 179.187 230.661 181.134 230.925C182.183 231.075 185.363 235.065 185.881 235.651C186.4 236.249 185.455 237.997 183.611 236.33C182.724 235.548 180.881 233.72 180.881 233.72L173.945 235.996C173.945 235.996 170.708 233.8 173.484 232.604Z" fill="#FCE0CA"/>
<path d="M172.401 236.904C172.401 236.904 177.977 237.353 180.017 238.353C181.111 238.894 182.874 243.471 183.3 244.322C183.715 245.173 182.309 246.817 180.696 244.276C179.924 243.068 178.358 240.343 178.358 240.343L170.984 239.998C170.984 239.998 169.141 237.272 172.401 236.904Z" fill="#FCE0CA"/>
<path d="M170.811 237.158C170.811 237.158 176.03 239.09 177.839 240.148C178.818 240.712 180.166 245.058 180.512 245.875C180.846 246.691 179.452 248.117 178.127 245.668C177.482 244.495 176.203 241.873 176.203 241.873L170.903 240.252C170.903 240.252 167.793 237.285 170.811 237.158Z" fill="#FCE0CA"/>
<path d="M176.732 241.424C177.02 241.378 177.447 240.941 177.539 240.814" stroke="#F3C8AE" stroke-width="0.4155" stroke-linecap="round" stroke-linejoin="round"/>
<path d="M180.789 232.58C180.915 232.316 180.823 231.718 180.766 231.568" stroke="#F3C8AE" stroke-width="0.4155" stroke-linecap="round" stroke-linejoin="round"/>
<path d="M178.898 239.768C179.163 239.653 179.475 239.124 179.532 238.975" stroke="#F3C8AE" stroke-width="0.4155" stroke-linecap="round" stroke-linejoin="round"/>
<path d="M180.996 237.066C181.203 236.859 181.284 236.261 181.284 236.1" stroke="#F3C8AE" stroke-width="0.4155" stroke-linecap="round" stroke-linejoin="round"/>
<path d="M180.017 246.726C179.718 246.496 179.487 245.99 179.602 245.726C179.718 245.473 180.098 245.277 180.098 245.277" stroke="#F3C8AE" stroke-width="0.4155" stroke-linecap="round" stroke-linejoin="round"/>
<path d="M182.955 245.242C182.633 245.058 182.333 244.575 182.414 244.299C182.494 244.035 182.851 243.805 182.851 243.805" stroke="#F3C8AE" stroke-width="0.4155" stroke-linecap="round" stroke-linejoin="round"/>
<path d="M186.607 241.7C186.25 241.573 185.87 241.159 185.893 240.883C185.916 240.596 186.227 240.297 186.227 240.297" stroke="#F3C8AE" stroke-width="0.4155" stroke-linecap="round" stroke-linejoin="round"/>
<path d="M185.777 236.156C185.42 236.041 185.039 235.627 185.063 235.34C185.078 235.233 185.116 235.133 185.178 235.041" stroke="#F3C8AE" stroke-width="0.4155" stroke-linecap="round" stroke-linejoin="round"/>
<path d="M387.617 188.444C393.838 191.894 401.465 190.779 407.076 186.397C408.551 185.24 410.083 184.389 411.673 183.844L419.081 228.532L302.821 247.736C295.816 248.898 289.133 244.126 287.97 237.134L268.718 121.079L315.309 113.386C314.872 110.71 313.773 108.146 312.014 105.693C308.639 100.932 307.901 94.6991 310.148 89.3058C313.097 82.222 319.549 76.7712 327.695 75.4257C334.896 74.2298 341.889 76.5182 346.924 81.0606C352.212 85.8329 353.606 93.3997 351.267 100.104C350.353 102.711 350.096 105.198 350.495 107.567L397.721 99.7705L405.785 148.368C403.819 148.429 401.799 148.146 399.725 147.517C394.126 145.861 387.974 147.172 383.584 151.036C377.812 156.107 374.724 163.95 376.072 172.08C376.671 175.668 378.077 178.946 380.07 181.717C382.075 184.5 384.656 186.788 387.617 188.444Z" fill="#8DAEF3"/>
<path d="M643.63 398.971L651.695 464.726H643.63L635.899 398.971H643.63Z" fill="#FCE0CA"/>
<path d="M578.074 399.073L575.666 465.277L583.696 464.587L585.782 398.418L578.074 399.073Z" fill="#FCE0CA"/>
<path d="M549.72 465.679L570.447 459.4H584.33V468.543H550.412C548.822 468.543 548.303 466.392 549.72 465.679Z" fill="#262F40"/>
<path d="M676.799 465.679L656.072 459.4H642.189V468.543H676.108C677.709 468.543 678.216 466.392 676.799 465.679Z" fill="#262F40"/>
<path d="M589.71 453.501L571.553 454.962L584.526 234.801L620.068 232.248L589.71 453.501Z" fill="#262F40"/>
<path d="M642.374 234.8L602.741 234.156L635.312 451.58L655.289 453.19L642.374 234.8Z" fill="#262F40"/>
<path d="M642.789 240.459L637.386 249.705L638.999 272.693L645.163 276.453" stroke="#37495E" stroke-width="0.831" stroke-miterlimit="10" stroke-linecap="round"/>
<path d="M582.855 277.177L589.48 273.336V250.682L583.743 246.91" stroke="#37495E" stroke-width="0.831" stroke-miterlimit="10" stroke-linecap="round"/>
<path d="M612.431 296.462L602.741 284.238" stroke="#37495E" stroke-width="0.831" stroke-miterlimit="10" stroke-linecap="round"/>
<path d="M611.992 234.801L615.218 282.95" stroke="#37495E" stroke-width="0.831" stroke-miterlimit="10" stroke-linecap="round"/>
<path d="M599.873 127.244L595.852 152.992L613.191 152.647L613.237 130.177L599.873 127.244Z" fill="#FCE0CA"/>
<path opacity="0.1" d="M613.26 131.488C613.26 131.488 611.555 146.139 597.257 144.621L597.96 138.986L613.26 131.488Z" fill="#21202B"/>
<path d="M642.167 236.767L642.259 230.269L584.065 229.959L584.768 235.996L609.573 237.008L642.167 236.767Z" fill="#2534A5"/>
<path d="M522.611 198.336C522.242 197.91 521.54 198.152 521.125 198.543C520.123 199.486 519.835 201.015 520.065 202.384C520.284 203.752 520.929 205.006 521.528 206.259C521.712 206.639 521.528 207.467 521.689 207.858C521.021 208.433 520.71 208.571 520.042 209.146C517.377 208.586 514.708 208.026 512.035 207.467C509.73 206.041 507.426 204.611 505.122 203.177C504.765 202.947 504.327 202.717 503.924 202.878C503.486 203.051 503.348 203.66 503.52 204.097C503.705 204.546 504.097 204.868 504.465 205.155C505.149 205.692 505.832 206.221 506.516 206.742C505.859 206.098 505.03 206.627 504.868 207.294C504.753 207.777 504.926 208.295 505.214 208.697C505.502 209.1 505.905 209.41 506.297 209.709C507.05 210.299 507.806 210.89 508.567 211.48C508.014 211.296 507.587 211.147 507.587 211.147C507.369 211.066 507.115 211.181 506.977 211.377C506.85 211.572 506.827 211.814 506.873 212.044C506.977 212.618 507.438 213.055 507.899 213.435C509.02 214.34 510.249 215.064 511.585 215.608C513.029 215.923 514.473 216.241 515.917 216.563C515.042 217.034 513.982 217.184 512.968 217.23C511.666 217.299 510.33 217.253 509.12 217.736C508.797 217.862 508.463 218.069 508.417 218.414C508.359 218.794 508.751 219.127 509.131 219.173C509.523 219.231 509.903 219.093 510.283 219.001C511.85 218.598 513.625 219.265 515.238 219.058C515.998 218.959 516.735 218.782 517.45 218.529C519.047 218.207 520.649 217.885 522.254 217.563C523.521 217.31 524.823 217.046 525.975 216.448C527.139 215.85 528.153 214.861 528.487 213.596C528.879 212.078 528.222 210.48 527.358 209.169C526.77 208.272 526.079 207.444 525.514 206.547C525.284 205.684 524.846 204.833 524.408 204.051C523.59 202.614 522.669 201.096 522.772 199.451C522.795 199.06 522.865 198.623 522.611 198.336Z" fill="#FCE0CA"/>
<path d="M517.3 211.399C514.903 211.192 512.484 210.87 510.191 210.099C509.926 210.007 509.673 209.927 509.442 209.754C509.227 209.593 509.02 209.421 508.82 209.237C508.306 208.769 507.802 208.29 507.311 207.799C506.988 207.5 506.481 206.431 506.654 206.615C507.368 207.343 508.098 208.052 508.843 208.742C509.066 208.949 509.293 209.149 509.523 209.34C509.592 209.394 509.665 209.448 509.742 209.501C509.773 209.524 509.807 209.547 509.846 209.57C509.915 209.605 509.811 209.559 509.949 209.605C511.055 209.996 512.184 210.295 513.336 210.502C514.65 210.739 515.975 210.912 517.311 211.019C517.553 211.031 517.542 211.422 517.3 211.399Z" fill="#FCE0CA"/>
<path d="M515.997 214.595C514.461 214.227 512.917 213.878 511.366 213.548C511.136 213.502 510.951 213.353 510.744 213.215C510.298 212.916 509.849 212.609 509.396 212.295C509.085 212.076 508.463 211.168 508.658 211.317C509.357 211.808 510.06 212.295 510.767 212.778C510.928 212.885 511.089 212.992 511.251 213.1C511.289 213.123 511.328 213.146 511.366 213.169C511.328 213.153 511.339 213.153 511.401 213.169C511.938 213.276 512.472 213.391 513.002 213.514C514.039 213.744 515.072 213.981 516.101 214.227C516.343 214.284 516.239 214.652 515.997 214.595Z" fill="#FCE0CA"/>
<path d="M521.689 207.857C521.689 207.857 521.931 209.755 522.427 210.548C522.922 211.342 524.385 212.791 524.385 212.791" stroke="#F3C8AE" stroke-width="0.4155" stroke-linecap="round" stroke-linejoin="round"/>
<path d="M506.285 206.479C506.285 206.479 508.705 209.158 510.594 209.641C512.484 210.124 517.081 210.756 517.081 210.756" stroke="#F3C8AE" stroke-width="0.4155" stroke-linecap="round" stroke-linejoin="round"/>
<path d="M508.336 211.215C508.336 211.215 510.467 212.767 511.17 212.905C511.884 213.055 515.214 213.814 515.214 213.814" stroke="#F3C8AE" stroke-width="0.4155" stroke-linecap="round" stroke-linejoin="round"/>
<path d="M519.593 211.596C519.662 211.768 522.15 212.918 522.254 213.597C522.358 214.275 522.519 214.781 522.519 214.781" stroke="#F3C8AE" stroke-width="0.4155" stroke-linecap="round" stroke-linejoin="round"/>
<path d="M568.051 164.652L561.323 205.775L532.07 204.464C529.536 203.924 527.093 205.718 526.851 208.294L526.125 215.757C525.929 217.861 527.277 219.816 529.34 220.357L567.187 225.658C570.539 226.555 574.111 225.589 576.554 223.128L599.654 201.175L568.051 164.652Z" fill="#6B82F7"/>
<path d="M642.259 230.27L651.407 163.285C652.04 158.673 649.068 154.349 644.529 153.268L616.693 146.645L594.031 149.565L568.12 164.446L584.065 229.96L642.259 230.27Z" fill="#6B82F7"/>
<path d="M613.294 144.896L603.985 154.625L596.969 145.816L613.294 144.896Z" fill="#FCE0CA"/>
<path d="M616.693 146.645L613.214 143.172L603.985 154.626L608.709 159.835L616.693 146.645Z" fill="white"/>
<path d="M580.286 214.424C580.102 206.754 570.988 165.758 570.988 165.758" stroke="black" stroke-width="0.831" stroke-miterlimit="10" stroke-linecap="round"/>
<path d="M594.031 149.565L596.969 145.816L603.986 154.625L600.564 160.72L594.031 149.565Z" fill="white"/>
<path d="M642.167 236.768L610.058 234.951" stroke="#253244" stroke-width="0.831" stroke-miterlimit="10" stroke-linecap="round"/>
<path d="M605.99 167.125L612.177 224.589" stroke="black" stroke-width="0.831" stroke-miterlimit="10" stroke-linecap="round"/>
<path d="M552.025 161.455L566.184 278.223L523.222 283.421C522.938 281.021 523.302 278.549 524.316 276.003C526.955 269.403 525.895 261.778 520.814 256.787C518.406 254.407 515.479 252.579 512.242 251.452C509.005 250.313 505.479 249.888 501.85 250.325C493.658 251.314 486.976 256.477 483.716 263.434C481.238 268.713 481.699 274.98 484.868 279.879C486.511 282.401 487.498 285.008 487.829 287.698L436.375 293.92L430.442 245.012C428.544 245.502 426.686 246.338 424.865 247.519C419.957 250.693 413.69 251.141 408.39 248.669C401.431 245.426 396.247 238.756 395.256 230.58C394.818 226.957 395.244 223.427 396.385 220.207C397.525 216.976 399.357 214.055 401.742 211.64C406.742 206.58 414.369 205.51 420.983 208.144C422.726 208.842 424.439 209.229 426.121 209.305L420.66 164.342L537.646 150.209C544.697 149.358 551.172 154.418 552.025 161.455Z" fill="#FF8C7A"/>
<path d="M551.137 203.683C550.699 203.338 550.054 203.717 549.732 204.166C548.925 205.304 548.96 206.857 549.444 208.156C549.939 209.444 550.815 210.548 551.656 211.652C551.917 211.997 552.17 212.35 552.416 212.71C551.871 213.4 551.325 214.09 550.78 214.78C548.053 214.765 545.327 214.749 542.6 214.734C540.058 213.783 537.515 212.836 534.973 211.893C534.57 211.744 534.097 211.606 533.74 211.836C533.337 212.1 533.326 212.71 533.591 213.112C533.844 213.515 534.293 213.745 534.72 213.963C535.488 214.354 536.26 214.738 537.035 215.113C536.275 214.607 535.572 215.297 535.538 215.976C535.526 216.47 535.791 216.942 536.16 217.287C536.517 217.62 536.966 217.85 537.416 218.069C538.276 218.49 539.136 218.916 539.996 219.345C539.42 219.276 538.971 219.207 538.971 219.207C538.74 219.184 538.51 219.345 538.418 219.564C538.337 219.771 538.36 220.024 538.441 220.231C538.66 220.783 539.201 221.116 539.72 221.392C541.01 222.059 542.366 222.527 543.787 222.795C545.261 222.818 546.736 222.845 548.211 222.876C547.451 223.508 546.437 223.865 545.457 224.106C544.202 224.428 542.865 224.658 541.782 225.371C541.494 225.555 541.206 225.831 541.229 226.176C541.252 226.556 541.69 226.809 542.082 226.786C542.473 226.751 542.819 226.544 543.176 226.372C544.639 225.67 546.506 225.981 548.038 225.452C548.768 225.199 549.455 224.88 550.1 224.497C551.606 223.861 553.111 223.228 554.617 222.6C555.815 222.094 557.036 221.576 558.05 220.76C559.064 219.943 559.859 218.77 559.939 217.471C560.032 215.907 559.064 214.469 557.946 213.354C557.197 212.595 556.356 211.916 555.619 211.158C555.227 210.353 554.628 209.605 554.041 208.927C552.958 207.673 551.748 206.374 551.517 204.741C551.471 204.35 551.448 203.913 551.137 203.683Z" fill="#FCE0CA"/>
<path d="M548.533 217.529C546.137 217.805 543.717 217.966 541.309 217.667C541.033 217.633 540.768 217.61 540.515 217.483C540.269 217.368 540.027 217.238 539.789 217.092C539.197 216.739 538.61 216.375 538.026 216C537.657 215.758 536.943 214.815 537.15 214.953C537.995 215.528 538.855 216.084 539.731 216.621C539.985 216.774 540.242 216.92 540.503 217.058C540.587 217.104 540.672 217.142 540.756 217.173C540.795 217.196 540.829 217.211 540.86 217.219C540.952 217.242 540.837 217.219 540.975 217.242C542.135 217.403 543.303 217.472 544.478 217.449C545.814 217.418 547.147 217.322 548.476 217.161C548.718 217.127 548.775 217.506 548.533 217.529Z" fill="#FCE0CA"/>
<path d="M547.9 220.922C546.318 220.876 544.736 220.841 543.153 220.818C542.911 220.818 542.704 220.715 542.485 220.623C541.978 220.416 541.475 220.201 540.976 219.979C540.63 219.829 539.835 219.07 540.054 219.174C540.838 219.511 541.625 219.848 542.416 220.186C542.593 220.262 542.769 220.335 542.946 220.404C542.992 220.42 543.038 220.435 543.084 220.45C543.046 220.443 543.057 220.439 543.119 220.439C543.664 220.439 544.209 220.45 544.755 220.473C545.815 220.489 546.875 220.512 547.935 220.542C548.177 220.554 548.142 220.933 547.9 220.922Z" fill="#FCE0CA"/>
<path d="M533.706 212.41C533.706 212.41 535.019 212.824 534.939 213.169C534.87 213.514 534.651 213.779 534.651 213.779" stroke="#F3C8AE" stroke-width="0.4155" stroke-linecap="round" stroke-linejoin="round"/>
<path d="M538.637 219.908C538.637 219.908 539.616 220.092 539.754 220.414C539.939 220.851 539.708 221.173 539.708 221.173" stroke="#F3C8AE" stroke-width="0.4155" stroke-linecap="round" stroke-linejoin="round"/>
<path d="M541.621 226.026C541.621 226.026 542.07 225.739 542.243 225.808C542.474 225.911 542.508 226.118 542.508 226.118" stroke="#F3C8AE" stroke-width="0.4155" stroke-linecap="round" stroke-linejoin="round"/>
<path d="M536.021 216.148C536.021 216.148 537.312 216.62 537.22 216.965C537.128 217.31 536.897 217.551 536.897 217.551" stroke="#F3C8AE" stroke-width="0.4155" stroke-linecap="round" stroke-linejoin="round"/>
<path d="M537.035 215.113C537.035 215.113 539.939 217.252 541.897 217.356C543.844 217.448 548.476 217.16 548.476 217.16" stroke="#F3C8AE" stroke-width="0.4155" stroke-linecap="round" stroke-linejoin="round"/>
<path d="M539.996 219.346C539.996 219.346 542.393 220.438 543.118 220.438C543.844 220.45 547.254 220.519 547.254 220.519" stroke="#F3C8AE" stroke-width="0.4155" stroke-linecap="round" stroke-linejoin="round"/>
<path d="M550.284 215.688C549.986 216.274 550.181 216.941 550.181 216.941" stroke="#F3C8AE" stroke-width="0.4155" stroke-linecap="round" stroke-linejoin="round"/>
<path d="M549.074 218.414C548.776 218.989 548.971 219.668 548.971 219.668" stroke="#F3C8AE" stroke-width="0.4155" stroke-linecap="round" stroke-linejoin="round"/>
<path d="M548.245 221.301C548.245 221.301 548.061 221.761 548.199 221.933" stroke="#F3C8AE" stroke-width="0.4155" stroke-linecap="round" stroke-linejoin="round"/>
<path d="M549.282 223.209C549.271 223.335 549.686 223.68 549.686 223.68" stroke="#F3C8AE" stroke-width="0.4155" stroke-linecap="round" stroke-linejoin="round"/>
<path d="M642.835 159.133L644.414 189.331C644.782 196.484 641.176 203.257 635.036 206.948L604.885 225.072L554.698 224.899L556.53 209.536L596.566 205.971L642.835 159.133Z" fill="#6B82F7"/>
<path d="M636.072 164.561L596.566 205.971L556.956 209.49C556.703 209.513 556.507 209.708 556.484 209.95L554.767 224.324C554.732 224.635 554.974 224.911 555.285 224.911L604.884 225.072L630.277 209.812" stroke="black" stroke-width="0.831" stroke-miterlimit="10" stroke-linecap="round"/>
<path d="M590.298 116.987C590.298 116.987 587.913 114.951 586.531 116.285C585.068 117.7 585.275 122.587 590.022 123.231C590.022 123.231 591.024 120.713 590.298 116.987Z" fill="#FCE0CA"/>
<path d="M596.37 99.0814C599.25 97.207 602.707 96.287 605.99 96.103C603.962 100.645 603.317 105.878 602.545 110.731C598.271 110.397 594.008 109.914 589.734 109.569C590.644 105.245 592.579 101.542 596.37 99.0814ZM589.734 109.569C594.008 109.914 598.271 110.397 602.545 110.731C601.001 120.459 597.568 130.602 598.881 140.469C594.757 139.882 592.683 136.306 591.554 133.868C588.777 126.52 588.178 117.067 589.734 109.569ZM605.99 96.103C611.67 95.7925 616.878 97.6784 620.173 102.462C622.88 106.395 623.168 110.915 622.581 114.847C616.175 112.524 609.297 111.409 602.545 110.731C603.317 105.878 603.962 100.645 605.99 96.103ZM602.545 110.731C609.297 111.409 616.175 112.524 622.581 114.847C621.763 120.31 618.698 124.185 618.698 124.185C617.626 126.14 616.636 128.636 615.564 130.602C609.988 140.308 603.363 141.101 598.881 140.469C597.568 130.602 601.001 120.459 602.545 110.731Z" fill="url(#paint1_linear_1018_23152)"/>
<path d="M592.292 106.005C592.292 106.005 589.792 112.847 588.94 116.539C588.94 116.539 588.894 106.109 590.691 103.487C592.488 100.876 592.292 106.005 592.292 106.005Z" fill="#282422"/>
<g opacity="0.25">
<path d="M595.206 101.669H595.195C595.188 101.623 595.191 101.623 595.206 101.669Z" fill="white"/>
</g>
<path d="M592.465 110.179C591.313 109.432 590.218 108.546 589.481 107.385C588.755 106.223 588.444 104.74 588.916 103.464C589.4 102.176 590.771 101.198 592.131 101.44C590.99 100.37 590.886 98.4842 591.647 97.1157C592.407 95.7473 593.847 94.8733 595.357 94.4478C596.854 94.0338 598.444 94.0223 600.011 94.0108C601.786 93.0563 603.928 93.1943 605.945 93.3553C607.104 93.4473 608.264 93.5393 609.424 93.6313C611.532 93.8038 613.687 93.9878 615.565 94.9538C616.567 95.4713 617.443 96.1842 618.318 96.8972C619.793 98.1085 621.268 99.316 622.743 100.52C623.872 101.451 625.047 102.429 625.68 103.74C626.579 105.637 626.21 107.856 625.83 109.915C624.897 114.929 623.872 120.127 620.807 124.197C616.821 125.405 615.922 118.275 616.821 114.377C615.208 116.079 611.786 114.871 611.694 111.03C610.737 112.353 609.194 111.927 607.558 112.077C605.933 112.226 604.251 111.628 603.076 110.49C601.417 112.422 598.087 110.881 596.002 109.409C594.285 108.788 593.997 111.157 592.465 110.179Z" fill="#282422"/>
<path d="M616.106 122.968C616.106 122.968 616.659 117.931 621.567 120.507C623.514 121.519 622.788 127.211 616.947 127.246C616.947 127.246 615.011 126.51 616.106 122.968Z" fill="#FCE0CA"/>
<path d="M604.147 131.798C604.147 131.798 599.758 133.753 596.394 131.637" stroke="black" stroke-width="0.519375" stroke-linecap="round" stroke-linejoin="round"/>
<path d="M617.35 118.437L603.375 117.092L604.216 121.853L615.415 123.129L617.35 118.437Z" stroke="white" stroke-width="0.519375" stroke-linecap="round" stroke-linejoin="round"/>
<path d="M600.23 116.585L588.087 115.412L588.87 119.851L599.332 121.047L600.23 116.585Z" stroke="white" stroke-width="0.519375" stroke-linecap="round" stroke-linejoin="round"/>
<path d="M599.758 118.874C599.758 118.874 602.085 117.149 603.756 119.231" stroke="white" stroke-width="0.519375" stroke-linecap="round" stroke-linejoin="round"/>
<path fill-rule="evenodd" clip-rule="evenodd" d="M469.603 364.505V356.306C469.603 355.432 470.305 354.73 471.181 354.73H475.893C476.63 354.73 477.276 354.224 477.437 353.5C478.243 349.682 479.718 346.106 481.723 342.92C482.103 342.311 482.011 341.517 481.504 341L478.094 337.515C477.495 336.906 477.495 335.928 478.094 335.307L483.739 329.546C484.361 328.914 485.387 328.914 486.009 329.546L489.315 332.927C489.834 333.468 490.675 333.571 491.297 333.157C494.396 331.122 497.864 329.638 501.562 328.81C502.288 328.649 502.784 328.005 502.784 327.269V322.382C502.784 321.508 503.498 320.795 504.374 320.795H512.3C513.176 320.795 513.89 321.508 513.89 322.382V327.269C513.89 328.005 514.385 328.649 515.1 328.81C518.81 329.638 522.277 331.122 525.377 333.157C525.999 333.571 526.828 333.468 527.358 332.927L530.665 329.546C531.287 328.914 532.312 328.914 532.935 329.546L538.568 335.307C539.179 335.928 539.179 336.906 538.568 337.515L535.17 341C534.663 341.517 534.571 342.311 534.951 342.92C536.955 346.106 538.43 349.682 539.237 353.5C539.398 354.224 540.043 354.73 540.78 354.73H545.493C546.368 354.73 547.071 355.432 547.071 356.306V364.505C547.071 365.379 546.368 366.081 545.493 366.081H540.78C540.043 366.081 539.398 366.587 539.237 367.311C538.43 371.129 536.955 374.705 534.951 377.891C534.571 378.5 534.663 379.294 535.17 379.811L538.568 383.296C539.179 383.905 539.179 384.894 538.568 385.503L532.935 391.265C532.312 391.909 531.287 391.909 530.665 391.265L527.358 387.884C526.828 387.343 525.999 387.251 525.377 387.654C522.277 389.689 518.81 391.173 515.1 392.001C514.385 392.162 513.89 392.806 513.89 393.542V398.429C513.89 399.303 513.176 400.016 512.3 400.016H504.374C503.498 400.016 502.784 399.303 502.784 398.429V393.542C502.784 392.806 502.288 392.162 501.562 392.001C497.864 391.173 494.396 389.689 491.297 387.654C490.675 387.251 489.834 387.343 489.315 387.884L486.009 391.265C485.387 391.909 484.361 391.909 483.739 391.265L478.094 385.503C477.495 384.894 477.495 383.905 478.094 383.296L481.504 379.811C482.011 379.294 482.103 378.5 481.723 377.891C479.718 374.705 478.243 371.129 477.437 367.311C477.276 366.587 476.63 366.081 475.893 366.081H471.181C470.305 366.081 469.603 365.379 469.603 364.505ZM508.337 379.547C518.683 379.547 527.059 370.979 527.059 360.411C527.059 349.832 518.683 341.264 508.337 341.264C497.991 341.264 489.615 349.832 489.615 360.411C489.615 370.979 497.991 379.547 508.337 379.547Z" fill="#C9DBFA"/>
<path fill-rule="evenodd" clip-rule="evenodd" d="M350.093 291.287V286.836C350.093 286.365 350.473 285.985 350.945 285.985H353.503C353.906 285.985 354.252 285.709 354.344 285.318C354.782 283.237 355.577 281.305 356.671 279.58C356.879 279.246 356.821 278.809 356.545 278.533L354.701 276.647C354.379 276.314 354.379 275.773 354.701 275.44L357.754 272.312C358.1 271.967 358.653 271.967 358.987 272.312L360.784 274.152C361.072 274.44 361.522 274.497 361.867 274.279C363.538 273.175 365.427 272.37 367.432 271.921C367.824 271.829 368.089 271.484 368.089 271.082V268.437C368.089 267.954 368.481 267.574 368.953 267.574H373.262C373.734 267.574 374.114 267.954 374.114 268.437V271.082C374.114 271.484 374.391 271.829 374.783 271.921C376.787 272.37 378.665 273.175 380.347 274.279C380.693 274.497 381.142 274.44 381.43 274.152L383.216 272.312C383.562 271.967 384.115 271.967 384.449 272.312L387.514 275.44C387.836 275.773 387.836 276.314 387.514 276.647L385.659 278.533C385.394 278.809 385.336 279.246 385.543 279.58C386.626 281.305 387.433 283.237 387.871 285.318C387.951 285.709 388.309 285.985 388.712 285.985H391.258C391.73 285.985 392.122 286.365 392.122 286.836V291.287C392.122 291.758 391.73 292.137 391.258 292.137H388.712C388.309 292.137 387.951 292.413 387.871 292.804C387.433 294.874 386.626 296.818 385.543 298.543C385.336 298.876 385.394 299.302 385.659 299.589L387.514 301.475C387.836 301.809 387.836 302.338 387.514 302.671L384.449 305.799C384.115 306.144 383.562 306.144 383.216 305.799L381.43 303.971C381.142 303.672 380.693 303.626 380.347 303.844C378.665 304.948 376.787 305.753 374.783 306.202C374.391 306.282 374.114 306.639 374.114 307.03V309.686C374.114 310.157 373.734 310.548 373.262 310.548H368.953C368.481 310.548 368.089 310.157 368.089 309.686V307.03C368.089 306.639 367.824 306.282 367.432 306.202C365.427 305.753 363.538 304.948 361.867 303.844C361.522 303.626 361.072 303.672 360.784 303.971L358.987 305.799C358.653 306.144 358.1 306.144 357.754 305.799L354.701 302.671C354.379 302.338 354.379 301.809 354.701 301.475L356.545 299.589C356.821 299.313 356.879 298.876 356.671 298.543C355.577 296.818 354.782 294.874 354.344 292.804C354.252 292.413 353.906 292.137 353.503 292.137H350.945C350.473 292.137 350.093 291.758 350.093 291.287ZM371.107 299.451C376.718 299.451 381.269 294.794 381.269 289.056C381.269 283.329 376.718 278.671 371.107 278.671C365.497 278.671 360.946 283.329 360.946 289.056C360.946 294.794 365.497 299.451 371.107 299.451Z" fill="#C9DBFA"/>
<path d="M711.698 231.476C711.698 232.787 710.638 233.845 709.325 233.845C708.011 233.845 706.951 232.787 706.951 231.476C706.951 230.165 708.011 229.096 709.325 229.096C710.638 229.096 711.698 230.165 711.698 231.476Z" fill="#586DF0"/>
<path d="M739.648 231.476C739.648 232.787 738.576 233.845 737.263 233.845C735.95 233.845 734.89 232.787 734.89 231.476C734.89 230.165 735.95 229.096 737.263 229.096C738.576 229.096 739.648 230.165 739.648 231.476Z" fill="#586DF0"/>
<path d="M767.587 231.476C767.587 232.787 766.527 233.845 765.213 233.845C763.9 233.845 762.84 232.787 762.84 231.476C762.84 230.165 763.9 229.096 765.213 229.096C766.527 229.096 767.587 230.165 767.587 231.476Z" fill="#586DF0"/>
<path d="M711.698 253.98C711.698 255.291 710.638 256.361 709.325 256.361C708.011 256.361 706.951 255.291 706.951 253.98C706.951 252.669 708.011 251.611 709.325 251.611C710.638 251.611 711.698 252.669 711.698 253.98Z" fill="#586DF0"/>
<path d="M739.648 253.98C739.648 255.291 738.576 256.361 737.263 256.361C735.95 256.361 734.89 255.291 734.89 253.98C734.89 252.669 735.95 251.611 737.263 251.611C738.576 251.611 739.648 252.669 739.648 253.98Z" fill="#586DF0"/>
<path d="M767.587 253.98C767.587 255.291 766.527 256.361 765.213 256.361C763.9 256.361 762.84 255.291 762.84 253.98C762.84 252.669 763.9 251.611 765.213 251.611C766.527 251.611 767.587 252.669 767.587 253.98Z" fill="#586DF0"/>
<path d="M437.366 65.9273C437.366 67.2383 436.306 68.2962 434.992 68.2962C433.679 68.2962 432.607 67.2383 432.607 65.9273C432.607 64.6163 433.679 63.5469 434.992 63.5469C436.306 63.5469 437.366 64.6163 437.366 65.9273Z" fill="#586DF0"/>
<path d="M465.316 65.9273C465.316 67.2383 464.244 68.2962 462.931 68.2962C461.618 68.2962 460.558 67.2383 460.558 65.9273C460.558 64.6163 461.618 63.5469 462.931 63.5469C464.244 63.5469 465.316 64.6163 465.316 65.9273Z" fill="#586DF0"/>
<path d="M493.255 65.9273C493.255 67.2383 492.195 68.2962 490.882 68.2962C489.569 68.2962 488.497 67.2383 488.497 65.9273C488.497 64.6163 489.569 63.5469 490.882 63.5469C492.195 63.5469 493.255 64.6163 493.255 65.9273Z" fill="#586DF0"/>
<path d="M437.366 88.4314C437.366 89.7424 436.306 90.8119 434.992 90.8119C433.679 90.8119 432.607 89.7424 432.607 88.4314C432.607 87.1205 433.679 86.0625 434.992 86.0625C436.306 86.0625 437.366 87.1205 437.366 88.4314Z" fill="#586DF0"/>
<path d="M465.316 88.4314C465.316 89.7424 464.244 90.8119 462.931 90.8119C461.618 90.8119 460.558 89.7424 460.558 88.4314C460.558 87.1205 461.618 86.0625 462.931 86.0625C464.244 86.0625 465.316 87.1205 465.316 88.4314Z" fill="#586DF0"/>
<path d="M493.255 88.4314C493.255 89.7424 492.195 90.8119 490.882 90.8119C489.569 90.8119 488.497 89.7424 488.497 88.4314C488.497 87.1205 489.569 86.0625 490.882 86.0625C492.195 86.0625 493.255 87.1205 493.255 88.4314Z" fill="#586DF0"/>
<path d="M41.7622 231.109C41.7622 232.42 40.6907 233.478 39.3773 233.478C38.0639 233.478 37.0039 232.42 37.0039 231.109C37.0039 229.798 38.0639 228.729 39.3773 228.729C40.6907 228.729 41.7622 229.798 41.7622 231.109Z" fill="#586DF0"/>
<path d="M69.7016 231.109C69.7016 232.42 68.6417 233.478 67.3282 233.478C66.0148 233.478 64.9434 232.42 64.9434 231.109C64.9434 229.798 66.0148 228.729 67.3282 228.729C68.6417 228.729 69.7016 229.798 69.7016 231.109Z" fill="#586DF0"/>
<path d="M97.6518 231.109C97.6518 232.42 96.5803 233.478 95.2669 233.478C93.9535 233.478 92.8936 232.42 92.8936 231.109C92.8936 229.798 93.9535 228.729 95.2669 228.729C96.5803 228.729 97.6518 229.798 97.6518 231.109Z" fill="#586DF0"/>
<path d="M41.7622 253.613C41.7622 254.924 40.6907 255.994 39.3773 255.994C38.0639 255.994 37.0039 254.924 37.0039 253.613C37.0039 252.302 38.0639 251.244 39.3773 251.244C40.6907 251.244 41.7622 252.302 41.7622 253.613Z" fill="#586DF0"/>
<path d="M69.7016 253.613C69.7016 254.924 68.6417 255.994 67.3282 255.994C66.0148 255.994 64.9434 254.924 64.9434 253.613C64.9434 252.302 66.0148 251.244 67.3282 251.244C68.6417 251.244 69.7016 252.302 69.7016 253.613Z" fill="#586DF0"/>
<path d="M97.6518 253.613C97.6518 254.924 96.5803 255.994 95.2669 255.994C93.9535 255.994 92.8936 254.924 92.8936 253.613C92.8936 252.302 93.9535 251.244 95.2669 251.244C96.5803 251.244 97.6518 252.302 97.6518 253.613Z" fill="#586DF0"/>
<defs>
<linearGradient id="paint0_linear_1018_23152" x1="220.201" y1="98.3975" x2="221.321" y2="98.3975" gradientUnits="userSpaceOnUse">
<stop stop-color="#FCE0CA"/>
<stop offset="1" stop-color="#FCE0CA"/>
</linearGradient>
<linearGradient id="paint1_linear_1018_23152" x1="596.841" y1="99.3068" x2="597.959" y2="99.3068" gradientUnits="userSpaceOnUse">
<stop stop-color="#FCE0CA"/>
<stop offset="1" stop-color="#FCE0CA"/>
</linearGradient>
</defs>
</svg>
