<svg width="30" height="30" viewBox="0 0 30 30" fill="none" xmlns="http://www.w3.org/2000/svg">
<g clip-path="url(#clip0_821_11195)">
<path d="M10.556 5.77832H7.77826C7.04155 5.77832 6.33501 6.07097 5.81408 6.5919C5.29315 7.11283 5.00049 7.81936 5.00049 8.55606V25.2225C5.00049 25.9592 5.29315 26.6658 5.81408 27.1867C6.33501 27.7076 7.04155 28.0003 7.77826 28.0003H21.6671C22.4038 28.0003 23.1104 27.7076 23.6313 27.1867C24.1522 26.6658 24.4449 25.9592 24.4449 25.2225V8.55606C24.4449 7.81936 24.1522 7.11283 23.6313 6.5919C23.1104 6.07097 22.4038 5.77832 21.6671 5.77832H18.8893" stroke="#17AD87" stroke-width="2" stroke-linecap="round" stroke-linejoin="round"/>
<path d="M10.5535 5.77774C10.5535 5.04104 10.8462 4.33451 11.3671 3.81358C11.8881 3.29265 12.5946 3 13.3313 3H16.1091C16.8458 3 17.5523 3.29265 18.0733 3.81358C18.5942 4.33451 18.8868 5.04104 18.8868 5.77774C18.8868 6.51445 18.5942 7.22098 18.0733 7.7419C17.5523 8.26283 16.8458 8.55549 16.1091 8.55549H13.3313C12.5946 8.55549 11.8881 8.26283 11.3671 7.7419C10.8462 7.22098 10.5535 6.51445 10.5535 5.77774Z" stroke="#17AD87" stroke-width="2" stroke-linecap="round" stroke-linejoin="round"/>
<path d="M17.5031 14.1113H14.0308C13.4783 14.1113 12.9484 14.3308 12.5577 14.7215C12.167 15.1122 11.9475 15.6421 11.9475 16.1946C11.9475 16.7472 12.167 17.2771 12.5577 17.6678C12.9484 18.0585 13.4783 18.2779 14.0308 18.2779H15.4197C15.9723 18.2779 16.5022 18.4974 16.8929 18.8881C17.2836 19.2788 17.5031 19.8087 17.5031 20.3613C17.5031 20.9138 17.2836 21.4437 16.8929 21.8344C16.5022 22.2251 15.9723 22.4446 15.4197 22.4446H11.9475" stroke="#17AD87" stroke-width="2" stroke-linecap="round" stroke-linejoin="round"/>
<path d="M14.7249 22.4438V23.8327M14.7249 12.7217V14.1106" stroke="#17AD87" stroke-width="2" stroke-linecap="round" stroke-linejoin="round"/>
</g>
<defs>
<clipPath id="clip0_821_11195">
<rect width="30" height="30" fill="white"/>
</clipPath>
</defs>
</svg>
