<svg width="30" height="30" viewBox="0 0 30 30" fill="none" xmlns="http://www.w3.org/2000/svg">
<g clip-path="url(#clip0_1187_34735)">
<path d="M10.5555 5.77832H7.77777C7.04106 5.77832 6.33452 6.07097 5.81359 6.5919C5.29266 7.11283 5 7.81936 5 8.55606V25.2225C5 25.9592 5.29266 26.6658 5.81359 27.1867C6.33452 27.7076 7.04106 28.0003 7.77777 28.0003H21.6666C22.4033 28.0003 23.1099 27.7076 23.6308 27.1867C24.1517 26.6658 24.4444 25.9592 24.4444 25.2225V8.55606C24.4444 7.81936 24.1517 7.11283 23.6308 6.5919C23.1099 6.07097 22.4033 5.77832 21.6666 5.77832H18.8889" stroke="#F2C200" stroke-width="2" stroke-linecap="round" stroke-linejoin="round"/>
<path d="M10.5527 5.77774C10.5527 5.04104 10.8454 4.33451 11.3663 3.81358C11.8873 3.29265 12.5938 3 13.3305 3H16.1083C16.845 3 17.5515 3.29265 18.0725 3.81358C18.5934 4.33451 18.886 5.04104 18.886 5.77774C18.886 6.51445 18.5934 7.22098 18.0725 7.7419C17.5515 8.26283 16.845 8.55549 16.1083 8.55549H13.3305C12.5938 8.55549 11.8873 8.26283 11.3663 7.7419C10.8454 7.22098 10.5527 6.51445 10.5527 5.77774Z" stroke="#F2C200" stroke-width="2" stroke-linecap="round" stroke-linejoin="round"/>
<path d="M17.5028 14.1113H14.0306C13.4781 14.1113 12.9482 14.3308 12.5575 14.7215C12.1668 15.1122 11.9473 15.6421 11.9473 16.1946C11.9473 16.7472 12.1668 17.2771 12.5575 17.6678C12.9482 18.0585 13.4781 18.2779 14.0306 18.2779H15.4195C15.972 18.2779 16.5019 18.4974 16.8926 18.8881C17.2833 19.2788 17.5028 19.8087 17.5028 20.3613C17.5028 20.9138 17.2833 21.4437 16.8926 21.8344C16.5019 22.2251 15.972 22.4446 15.4195 22.4446H11.9473" stroke="#F2C200" stroke-width="2" stroke-linecap="round" stroke-linejoin="round"/>
<path d="M14.7246 22.4438V23.8327M14.7246 12.7217V14.1106" stroke="#F2C200" stroke-width="2" stroke-linecap="round" stroke-linejoin="round"/>
</g>
<defs>
<clipPath id="clip0_1187_34735">
<rect width="30" height="30" fill="white"/>
</clipPath>
</defs>
</svg>
