<svg width="30" height="25" viewBox="0 0 30 25" fill="none" xmlns="http://www.w3.org/2000/svg">
<path d="M28.6562 23.4392H4.3416C2.49607 23.4392 1 21.9431 1 20.0976V1.72266" stroke="#17AD87" stroke-width="2" stroke-miterlimit="10" stroke-linecap="round" stroke-linejoin="round"/>
<path d="M12.0627 23.4383H5.24219V19.7005C5.24219 18.0613 6.57104 16.7324 8.21031 16.7324H12.0627V23.4383Z" stroke="#17AD87" stroke-width="2" stroke-miterlimit="10" stroke-linecap="round" stroke-linejoin="round"/>
<path d="M19.469 23.4383H12.0625V13.8412C12.0625 12.202 13.3913 10.873 15.0306 10.873H19.469V23.4383Z" stroke="#17AD87" stroke-width="2" stroke-miterlimit="10" stroke-linecap="round" stroke-linejoin="round"/>
<path d="M16.236 1.39648L4.89062 9.40941" stroke="#17AD87" stroke-width="2" stroke-miterlimit="10" stroke-linecap="round" stroke-linejoin="round"/>
<path d="M13.252 1L16.5838 1.15023L15.6113 4.34061" stroke="#17AD87" stroke-width="2" stroke-miterlimit="10" stroke-linecap="round" stroke-linejoin="round"/>
<path d="M26.8753 17.5789V7.9818C26.8753 6.34258 25.5464 5.01367 23.9072 5.01367H22.4369C20.7977 5.01367 19.4688 6.34252 19.4688 7.9818V23.4383H24.1244" stroke="#17AD87" stroke-width="2" stroke-miterlimit="10" stroke-linecap="round" stroke-linejoin="round"/>
</svg>
