<svg width="30" height="30" viewBox="0 0 30 30" fill="none" xmlns="http://www.w3.org/2000/svg">
<path d="M2.5 8.75L8.0125 3.2375C8.24507 3.00354 8.52165 2.81792 8.82629 2.69135C9.13093 2.56477 9.45761 2.49974 9.7875 2.5H20.2125C20.5424 2.49974 20.8691 2.56477 21.1737 2.69135C21.4784 2.81792 21.7549 3.00354 21.9875 3.2375L27.5 8.75" stroke="#BC4923" stroke-width="2" stroke-linecap="round" stroke-linejoin="round"/>
<path d="M5 15V25C5 25.663 5.26339 26.2989 5.73223 26.7678C6.20107 27.2366 6.83696 27.5 7.5 27.5H22.5C23.163 27.5 23.7989 27.2366 24.2678 26.7678C24.7366 26.2989 25 25.663 25 25V15" stroke="#BC4923" stroke-width="2" stroke-linecap="round" stroke-linejoin="round"/>
<path d="M18.75 27.5V22.5C18.75 21.837 18.4866 21.2011 18.0178 20.7322C17.5489 20.2634 16.913 20 16.25 20H13.75C13.087 20 12.4511 20.2634 11.9822 20.7322C11.5134 21.2011 11.25 21.837 11.25 22.5V27.5" stroke="#BC4923" stroke-width="2" stroke-linecap="round" stroke-linejoin="round"/>
<path d="M2.5 8.75H27.5" stroke="#BC4923" stroke-width="2" stroke-linecap="round" stroke-linejoin="round"/>
<path d="M27.5 8.75V12.5C27.5 13.163 27.2366 13.7989 26.7678 14.2678C26.2989 14.7366 25.663 15 25 15C24.2697 14.9598 23.5722 14.6834 23.0125 14.2125C22.8634 14.1047 22.684 14.0467 22.5 14.0467C22.316 14.0467 22.1367 14.1047 21.9875 14.2125C21.4278 14.6834 20.7303 14.9598 20 15C19.2697 14.9598 18.5722 14.6834 18.0125 14.2125C17.8634 14.1047 17.684 14.0467 17.5 14.0467C17.316 14.0467 17.1367 14.1047 16.9875 14.2125C16.4278 14.6834 15.7303 14.9598 15 15C14.2697 14.9598 13.5722 14.6834 13.0125 14.2125C12.8634 14.1047 12.684 14.0467 12.5 14.0467C12.316 14.0467 12.1367 14.1047 11.9875 14.2125C11.4278 14.6834 10.7303 14.9598 10 15C9.26967 14.9598 8.57216 14.6834 8.0125 14.2125C7.86335 14.1047 7.68402 14.0467 7.5 14.0467C7.31598 14.0467 7.13665 14.1047 6.9875 14.2125C6.42784 14.6834 5.73033 14.9598 5 15C4.33696 15 3.70107 14.7366 3.23223 14.2678C2.76339 13.7989 2.5 13.163 2.5 12.5V8.75" stroke="#BC4923" stroke-width="2" stroke-linecap="round" stroke-linejoin="round"/>
</svg>
