<svg width="795" height="320" viewBox="0 0 795 320" fill="none" xmlns="http://www.w3.org/2000/svg">
<g clip-path="url(#clip0_1067_3427)">
<g filter="url(#filter0_d_1067_3427)">
<path d="M0 20C0 8.9543 8.9543 0 20 0H775C786.046 0 795 8.9543 795 20V300C795 311.046 786.046 320 775 320H20C8.95429 320 0 311.046 0 300V20Z" fill="#EBF0FF"/>
</g>
<path d="M241.408 109.103C259.81 109.103 277.42 111.511 293.662 115.897V115.875C293.662 65.1338 351.439 24 422.71 24C482.427 24 532.663 52.881 547.383 92.093C624.634 100.013 684 147.325 684 204.515C684 265.251 617.051 314.851 532.83 317.957V318.673H253.09C249.235 318.888 245.341 319 241.408 319C237.477 319 233.582 318.888 229.728 318.673H229.68V318.67C153.753 314.414 94 269.202 94 214.052C94 156.091 159.996 109.103 241.408 109.103Z" fill="white"/>
<path fill-rule="evenodd" clip-rule="evenodd" d="M229.469 153.477L235.425 150.33C237.037 149.477 239.038 150.094 239.887 151.706L241.536 154.816C242.222 156.118 243.686 156.81 245.125 156.493C247.897 155.878 250.702 155.621 253.482 155.713C254.954 155.755 256.267 154.801 256.702 153.395L257.739 150.035C258.276 148.289 260.126 147.313 261.871 147.851L268.309 149.834C270.053 150.371 271.03 152.221 270.493 153.965L269.455 157.324C269.022 158.731 269.571 160.261 270.813 161.051C273.154 162.546 275.329 164.332 277.272 166.397C278.284 167.469 279.889 167.721 281.19 167.034L284.297 165.389C285.912 164.54 287.913 165.157 288.766 166.764L291.912 172.718C292.767 174.33 292.149 176.329 290.534 177.18L287.427 178.82C286.124 179.506 285.425 180.979 285.746 182.413C286.361 185.181 286.612 187.984 286.53 190.76C286.483 192.233 287.437 193.547 288.848 193.984L292.208 195.016C293.952 195.554 294.932 197.401 294.395 199.148L292.407 205.576C291.87 207.317 290.022 208.296 288.278 207.758L284.915 206.718C283.508 206.288 281.976 206.834 281.183 208.08C279.687 210.418 277.901 212.594 275.833 214.533C274.76 215.545 274.512 217.147 275.197 218.448L276.84 221.553C277.691 223.167 277.075 225.161 275.462 226.015L269.506 229.16C267.892 230.013 265.893 229.397 265.042 227.785L263.4 224.678C262.71 223.38 261.243 222.679 259.807 223.003C257.034 223.611 254.229 223.866 251.451 223.784C249.98 223.736 248.662 224.692 248.227 226.099L247.192 229.457C246.653 231.199 244.804 232.18 243.06 231.641L236.624 229.654C234.878 229.122 233.901 227.273 234.438 225.53L235.475 222.172C235.91 220.765 235.365 219.233 234.119 218.442C231.777 216.947 229.603 215.16 227.657 213.092C226.65 212.022 225.042 211.774 223.743 212.46L220.632 214.102C219.019 214.952 217.019 214.339 216.17 212.725L213.019 206.773C212.169 205.161 212.782 203.163 214.397 202.313L217.504 200.667C218.809 199.981 219.505 198.517 219.188 197.081C218.574 194.31 218.318 191.507 218.404 188.731C218.449 187.261 217.493 185.948 216.084 185.512L212.723 184.477C210.981 183.938 209.998 182.091 210.537 180.348L212.522 173.914C213.061 172.172 214.912 171.2 216.655 171.738L220.017 172.768C221.423 173.206 222.954 172.656 223.748 171.416C225.243 169.074 227.031 166.902 229.101 164.954C230.172 163.951 230.424 162.343 229.737 161.044L228.094 157.938C227.239 156.326 227.854 154.328 229.469 153.477ZM237.975 200.9C242.614 207.015 250.873 209.556 258.154 207.119C270.176 203.086 274.623 188.687 266.961 178.592C262.319 172.476 254.059 169.931 246.777 172.372C234.754 176.401 230.312 190.804 237.975 200.9Z" fill="#D9E3F9"/>
<path fill-rule="evenodd" clip-rule="evenodd" d="M172.348 34.9228L174.33 33.8749C174.866 33.5906 175.532 33.7961 175.815 34.3329L176.363 35.3685C176.592 35.802 177.079 36.0327 177.557 35.9271C178.48 35.7221 179.413 35.6366 180.338 35.6674C180.828 35.6813 181.265 35.3635 181.409 34.8954L181.755 33.7766C181.933 33.1951 182.549 32.87 183.129 33.0493L185.271 33.7095C185.852 33.8883 186.177 34.5044 185.998 35.0853L185.653 36.2036C185.509 36.6722 185.691 37.1817 186.105 37.4447C186.883 37.9424 187.607 38.5373 188.254 39.2249C188.59 39.5819 189.124 39.6657 189.557 39.4372L190.591 38.8892C191.129 38.6066 191.794 38.8122 192.078 39.3473L193.125 41.3297C193.409 41.8665 193.204 42.5323 192.666 42.8155L191.632 43.3618C191.199 43.5902 190.967 44.0807 191.073 44.5582C191.278 45.4799 191.362 46.4133 191.334 47.3377C191.318 47.8282 191.636 48.2655 192.106 48.4113L193.223 48.7548C193.804 48.9341 194.13 49.5491 193.951 50.1306L193.29 52.2711C193.111 52.8509 192.496 53.1771 191.916 52.9978L190.797 52.6515C190.329 52.5085 189.819 52.69 189.555 53.1051C189.057 53.8837 188.463 54.6082 187.775 55.2539C187.418 55.5907 187.335 56.1242 187.563 56.5576L188.11 57.5916C188.393 58.1289 188.188 58.7931 187.651 59.0774L185.67 60.1247C185.133 60.4085 184.468 60.2035 184.184 59.6667L183.638 58.6322C183.409 58.1999 182.92 57.9664 182.443 58.0742C181.52 58.2769 180.587 58.3618 179.662 58.3345C179.173 58.3183 178.734 58.6367 178.59 59.1053L178.245 60.2236C178.066 60.8034 177.451 61.1301 176.87 60.9508L174.729 60.2889C174.148 60.1119 173.823 59.4963 174.002 58.9159L174.347 57.7977C174.491 57.329 174.31 56.819 173.895 56.5554C173.116 56.0577 172.393 55.4628 171.745 54.7741C171.41 54.4177 170.875 54.335 170.443 54.5635L169.408 55.1104C168.871 55.3936 168.206 55.1891 167.923 54.6518L166.875 52.6699C166.592 52.1331 166.796 51.4679 167.333 51.1847L168.367 50.6367C168.801 50.4082 169.033 49.9206 168.927 49.4425C168.723 48.5197 168.638 47.5863 168.667 46.6619C168.682 46.1725 168.363 45.7352 167.895 45.5899L166.776 45.2453C166.197 45.066 165.87 44.451 166.049 43.8706L166.709 41.7279C166.889 41.1481 167.505 40.8241 168.085 41.0034L169.203 41.3464C169.671 41.4922 170.18 41.309 170.445 40.8962C170.942 40.1164 171.537 39.3931 172.226 38.7446C172.582 38.4105 172.666 37.8749 172.438 37.4425L171.891 36.408C171.606 35.8712 171.811 35.206 172.348 34.9228ZM175.178 50.7143C176.722 52.7504 179.47 53.5966 181.893 52.785C185.893 51.4422 187.372 46.6473 184.823 43.2858C183.278 41.2492 180.53 40.4019 178.107 41.2146C174.107 42.5563 172.629 47.3523 175.178 50.7143Z" fill="#D9E3F9"/>
<path fill-rule="evenodd" clip-rule="evenodd" d="M704.494 252.755L705.273 252.344C705.483 252.232 705.745 252.313 705.856 252.524L706.071 252.93C706.161 253.101 706.352 253.191 706.54 253.15C706.903 253.069 707.269 253.036 707.633 253.048C707.825 253.053 707.997 252.929 708.054 252.745L708.189 252.305C708.26 252.077 708.501 251.949 708.729 252.019L709.571 252.279C709.799 252.349 709.927 252.591 709.856 252.819L709.721 253.259C709.664 253.443 709.736 253.643 709.898 253.746C710.204 253.942 710.489 254.175 710.742 254.446C710.875 254.586 711.085 254.619 711.255 254.529L711.661 254.314C711.872 254.203 712.134 254.283 712.245 254.494L712.656 255.272C712.768 255.483 712.687 255.745 712.476 255.856L712.07 256.071C711.9 256.16 711.808 256.353 711.85 256.541C711.931 256.903 711.963 257.27 711.953 257.633C711.947 257.825 712.071 257.997 712.256 258.054L712.695 258.189C712.923 258.26 713.051 258.501 712.981 258.73L712.721 259.571C712.651 259.799 712.409 259.927 712.181 259.856L711.742 259.72C711.558 259.664 711.357 259.735 711.254 259.898C711.058 260.204 710.825 260.489 710.554 260.743C710.414 260.875 710.382 261.084 710.471 261.255L710.686 261.661C710.797 261.872 710.717 262.133 710.506 262.245L709.727 262.656C709.516 262.768 709.255 262.687 709.144 262.476L708.929 262.07C708.839 261.9 708.647 261.808 708.46 261.851C708.097 261.93 707.73 261.964 707.367 261.953C707.175 261.946 707.003 262.072 706.946 262.256L706.811 262.695C706.74 262.923 706.499 263.051 706.271 262.981L705.429 262.721C705.201 262.651 705.073 262.409 705.143 262.181L705.279 261.742C705.336 261.558 705.265 261.357 705.102 261.254C704.796 261.058 704.511 260.825 704.257 260.554C704.125 260.414 703.915 260.382 703.745 260.471L703.339 260.686C703.128 260.797 702.867 260.717 702.756 260.506L702.344 259.727C702.233 259.517 702.313 259.255 702.524 259.144L702.93 258.929C703.1 258.839 703.192 258.647 703.15 258.46C703.07 258.097 703.036 257.73 703.048 257.367C703.054 257.175 702.928 257.003 702.744 256.946L702.305 256.811C702.077 256.74 701.949 256.499 702.019 256.271L702.279 255.429C702.349 255.201 702.591 255.074 702.819 255.144L703.258 255.279C703.442 255.336 703.642 255.264 703.746 255.102C703.942 254.796 704.175 254.512 704.446 254.257C704.586 254.126 704.619 253.915 704.529 253.745L704.314 253.339C704.203 253.128 704.283 252.867 704.494 252.755ZM705.606 258.959C706.212 259.759 707.292 260.092 708.244 259.773C709.815 259.245 710.396 257.361 709.395 256.041C708.788 255.241 707.708 254.908 706.756 255.227C705.185 255.754 704.604 257.638 705.606 258.959Z" fill="#D9E3F9"/>
<path d="M332.978 64.4707C362.608 64.4707 392.26 64.4707 421.889 64.4707C451.519 64.4707 481.148 64.4707 510.8 64.4707C514.673 64.4707 518.445 67.6176 519.157 71.4875C526.557 111.708 533.984 151.929 541.385 192.121C548.787 232.313 556.214 272.535 563.612 312.726C564.326 316.595 561.702 319.743 557.829 319.743C528.177 319.743 498.546 319.743 468.918 319.743C439.289 319.743 409.636 319.743 380.007 319.743C376.159 319.743 372.412 316.595 371.701 312.726C364.301 272.535 356.874 232.313 349.472 192.121C342.07 151.929 334.669 111.708 327.269 71.4875C326.557 67.6176 329.132 64.4707 332.978 64.4707Z" fill="#C6D4FF"/>
<path d="M335.209 71.082C364.593 71.082 393.976 71.082 423.359 71.082C452.743 71.082 482.151 71.082 511.56 71.082C518.962 111.215 526.35 151.381 533.738 191.484C541.128 231.592 548.516 271.725 555.918 311.829C526.509 311.829 497.077 311.829 467.692 311.829C438.309 311.829 408.926 311.829 379.542 311.829C372.165 271.725 364.775 231.589 357.387 191.484C349.999 151.376 342.585 111.215 335.209 71.082Z" fill="white"/>
<path fill-rule="evenodd" clip-rule="evenodd" d="M372.76 68.4608C371.746 62.937 374.21 56.8395 385.926 56.8395C389.588 56.8395 393.247 56.8395 396.929 56.8395C396.818 56.2607 396.706 55.6552 396.595 55.0513C395.947 51.5538 398.29 48.6871 401.772 48.6871C403.312 48.6871 404.851 48.6871 406.414 48.6871C406.414 48.6871 406.392 48.6619 406.392 48.6351C406.145 47.3199 405.902 45.9797 405.655 44.6394C404.473 38.2231 408.779 32.9375 415.206 32.9375C421.655 32.9375 427.905 38.2231 429.087 44.6394C429.334 45.9797 429.577 47.3199 429.824 48.6351C429.824 48.6619 429.824 48.6871 429.824 48.6871C431.364 48.6871 432.903 48.6871 434.466 48.6871C437.97 48.6871 441.362 51.5538 442.009 55.0513C442.121 55.6552 442.232 56.2607 442.343 56.8395C445.981 56.8395 449.619 56.8395 453.235 56.8395C461.38 56.8395 469.403 60.9375 470.774 68.4608C471.009 69.7457 471.243 71.0374 471.49 72.3257C463.433 72.3257 455.377 72.3257 447.342 72.3257C439.308 72.3257 431.251 72.3257 423.218 72.3257C422.727 72.3257 422.236 72.3257 421.744 72.3257C413.688 72.3257 405.633 72.3257 397.599 72.3257C389.564 72.3257 381.531 72.3257 373.475 72.3257C373.228 71.0374 372.996 69.7457 372.76 68.4608ZM412.305 42.2993C412.785 44.8759 415.229 46.9526 417.794 46.9526C420.361 46.9526 422.058 44.8759 421.588 42.2993C421.12 39.7211 418.644 37.6444 416.077 37.6444C413.51 37.6444 411.826 39.7211 412.305 42.2993Z" fill="#AEC2FD"/>
<path d="M372.312 162.727C385.987 162.727 399.711 162.727 413.411 162.727C427.085 162.727 440.809 162.727 454.509 162.727C455.636 162.727 456.764 163.651 456.959 164.776C457.18 165.932 456.396 166.856 455.268 166.856C441.569 166.856 427.846 166.856 414.17 166.856C400.472 166.856 386.748 166.856 373.072 166.856C371.921 166.856 370.843 165.932 370.621 164.776C370.402 163.651 371.16 162.727 372.312 162.727Z" fill="#A0B8FF"/>
<path d="M379.445 201.332C402.627 201.332 425.836 201.332 449.02 201.332C472.202 201.332 495.411 201.332 518.618 201.332C519.746 201.332 520.873 202.256 521.069 203.41C521.289 204.536 520.505 205.489 519.378 205.489C496.169 205.489 472.962 205.489 449.778 205.489C426.595 205.489 403.387 205.489 380.204 205.489C379.052 205.489 377.949 204.536 377.729 203.41C377.533 202.256 378.292 201.332 379.445 201.332Z" fill="#A0B8FF"/>
<path d="M381.454 212.246C404.636 212.246 427.845 212.246 451.029 212.246C474.211 212.246 497.42 212.246 520.627 212.246C521.755 212.246 522.882 213.199 523.078 214.326C523.3 215.48 522.514 216.404 521.388 216.404C498.179 216.404 474.971 216.404 451.788 216.404C428.604 216.404 405.397 216.404 382.213 216.404C381.061 216.404 379.958 215.48 379.738 214.326C379.542 213.199 380.301 212.246 381.454 212.246Z" fill="#A0B8FF"/>
<path d="M395.299 287.434C405.765 287.434 416.228 287.434 426.669 287.434C437.132 287.434 447.623 287.434 458.087 287.434C459.238 287.434 460.341 288.356 460.538 289.512C460.758 290.666 459.999 291.59 458.845 291.59C448.382 291.59 437.893 291.59 427.429 291.59C416.989 291.59 406.523 291.59 396.06 291.59C394.908 291.59 393.805 290.666 393.585 289.512C393.389 288.356 394.148 287.434 395.299 287.434Z" fill="#A0B8FF"/>
<path d="M384.517 228.879C395.937 228.879 407.357 228.879 418.779 228.879C419.905 228.879 421.033 229.803 421.228 230.957C421.449 232.085 420.689 233.037 419.563 233.037C408.117 233.037 396.698 233.037 385.277 233.037C384.126 233.037 383.023 232.085 382.801 230.957C382.606 229.803 383.365 228.879 384.517 228.879Z" fill="#A0B8FF"/>
<path d="M386.526 239.82C403.829 239.82 421.179 239.82 438.481 239.82C455.784 239.82 473.11 239.82 490.435 239.82C491.588 239.82 492.69 240.743 492.886 241.899C493.108 243.024 492.347 243.949 491.196 243.949C473.869 243.949 456.542 243.949 439.241 243.949C421.94 243.949 404.588 243.949 387.287 243.949C386.135 243.949 385.032 243.024 384.812 241.899C384.616 240.743 385.375 239.82 386.526 239.82Z" fill="#A0B8FF"/>
<path d="M388.535 250.734C405.839 250.734 423.189 250.734 440.49 250.734C457.793 250.734 475.12 250.734 492.444 250.734C493.598 250.734 494.699 251.687 494.895 252.813C495.117 253.968 494.356 254.893 493.205 254.893C475.878 254.893 458.552 254.893 441.25 254.893C423.949 254.893 406.597 254.893 389.296 254.893C388.144 254.893 387.041 253.968 386.821 252.813C386.625 251.687 387.384 250.734 388.535 250.734Z" fill="#A0B8FF"/>
<path d="M375.033 177.482C398.217 177.482 421.449 177.482 444.633 177.482C467.815 177.482 491.024 177.482 514.231 177.482C515.359 177.482 516.462 178.407 516.682 179.561C516.879 180.688 516.118 181.641 514.992 181.641C491.783 181.641 468.576 181.641 445.392 181.641C422.208 181.641 399.001 181.641 375.817 181.641C374.665 181.641 373.537 180.688 373.343 179.561C373.121 178.407 373.881 177.482 375.033 177.482Z" fill="#A0B8FF"/>
<path d="M377.068 188.426C400.25 188.426 423.459 188.426 446.643 188.426C469.825 188.426 493.034 188.426 516.241 188.426C517.369 188.426 518.495 189.348 518.692 190.504C518.912 191.63 518.128 192.554 517.001 192.554C493.792 192.554 470.585 192.554 447.401 192.554C424.218 192.554 401.01 192.554 377.827 192.554C376.675 192.554 375.572 191.63 375.352 190.504C375.156 189.348 375.915 188.426 377.068 188.426Z" fill="#A0B8FF"/>
<path d="M467.375 166.858C481.956 166.858 496.537 166.858 511.119 166.858C507.884 149.303 504.649 131.748 501.414 114.191C486.834 114.191 472.252 114.191 457.694 114.191C460.929 131.748 464.164 149.302 467.375 166.858Z" fill="#C6D4FF"/>
<path d="M376.014 89.7637C393.021 89.7637 410.028 89.7637 427.036 89.7637C444.044 89.7637 461.077 89.7637 478.109 89.7637C478.794 93.4306 479.456 97.069 480.119 100.707C463.111 100.707 446.053 100.707 429.071 100.707C412.063 100.707 395.031 100.707 378.023 100.707C377.362 97.069 376.7 93.4306 376.014 89.7637Z" fill="#C6D4FF"/>
<path d="M573.613 312.097L573.074 306.41L578.783 306.548L578.728 313.058L573.613 312.097Z" fill="#F8A98E"/>
<path d="M573.332 311.615C572.224 315.562 569.088 317.282 571.141 319.742H581.592C581.61 319.694 581.627 319.643 581.644 319.59C581.744 319.253 582.231 319.112 581.906 317.877C581.3 315.587 579.52 312.066 578.909 311.885C577.695 311.526 575.973 312.538 573.332 311.615Z" fill="#355298"/>
<path d="M570.475 317.826L570.473 317.829L570.46 318.259C570.49 318.87 570.735 319.41 571.254 319.742H581.592C582.393 318.985 582.055 318.303 581.906 317.876L570.475 317.826Z" fill="#1D3975"/>
<path d="M556.11 233.295L562.226 258.118L565.346 272.896L572.278 308.889C572.278 308.889 573.744 309.559 576.089 309.423C578.432 309.287 579.616 308.941 579.616 308.941C579.668 298.313 579.618 284.816 578.466 271.253C577.501 259.886 579.802 250.37 579.104 237.834C578.899 234.131 576.238 227.067 576.292 227.201L556.11 233.295Z" fill="#1D3975"/>
<path d="M548.381 312.094L548.403 306.215L554.11 306.351L553.496 313.055L548.381 312.094Z" fill="#F8A98E"/>
<path d="M548.003 310.838C545.171 314.193 539.076 314.911 536.526 315.749C534.461 316.431 533.467 318.717 535.07 319.743H554.609C554.626 319.697 554.643 319.646 554.66 319.591C554.95 318.625 555.709 311.734 553.678 311.886C552.415 311.982 550.825 312.291 548.003 310.838Z" fill="#355298"/>
<path d="M534.291 317.826V317.829L534.277 318.259C534.308 318.87 534.553 319.41 535.07 319.742H554.609C554.626 319.695 554.642 319.644 554.659 319.589C554.716 319.4 554.854 318.42 554.923 317.876L534.291 317.826Z" fill="#1D3975"/>
<path d="M547.901 231.961L547.278 241.39C545.432 260.428 546.239 284.897 547.837 308.871C547.837 308.871 550.577 309.461 552.921 309.325C555.266 309.189 554.838 308.919 554.838 308.919L560.324 269.736C560.324 269.736 561.565 260.813 564.469 253.859C566.566 248.838 569.137 247.39 568.758 241.555C568.365 235.512 568.874 230.831 568.041 228.742C567.209 226.654 563.054 227.493 563.054 227.493L547.901 231.961Z" fill="#1D3975"/>
<path d="M559.096 278.508L560.323 269.733C560.323 269.733 561 264.87 562.523 259.526V259.524L561.361 251.211L558.947 272.065L559.096 278.508Z" fill="#1D3975"/>
<path d="M556.578 205.493C553.244 212.807 551.995 220.771 542.45 222.192C535.698 222.38 521.826 216.364 522.739 214.038C523.731 211.507 520.191 209.502 524.071 209.576C529.228 209.561 541.85 210.866 543.014 210.784C544.115 210.706 548.381 194.422 555.148 191.968C555.952 191.451 558.927 201.96 556.578 205.493Z" fill="#355298"/>
<path d="M522.737 209.359C522.274 208.635 520.402 205.788 519.65 205.474C519.266 205.313 519.245 205.461 519.185 205.676C519.133 205.865 519.193 206.303 519.329 206.566C519.616 207.117 519.606 208.244 519.808 208.522C516.512 209.836 512.215 207.573 511.897 209.416C512.054 209.76 513.615 211.312 513.91 211.817C514.854 213.424 515.49 214.113 522.539 214.447C522.873 214.464 523.755 214.684 524.116 214.697C524.436 214.152 524.93 212.375 524.428 210.576L522.737 209.359Z" fill="#F7AAAC"/>
<path d="M592.888 248.225C592.888 248.225 592.756 245.028 593.682 244.647C594.611 244.268 598.135 244.61 598.135 244.61C598.135 244.61 599.102 244.839 599.182 246.036C599.261 247.236 599.261 248.225 599.261 248.225H598.069C598.069 248.225 598.161 246.456 597.95 246.207C597.737 245.961 594.431 246.122 594.431 246.122C594.431 246.122 593.981 246.132 593.961 247.036C593.941 247.939 593.961 248.225 593.961 248.225H592.888Z" fill="#CE5600"/>
<path d="M587.162 247.678L606.06 248.142L606.107 276.634H587.162V247.678Z" fill="#F49123"/>
<path d="M605.573 248.143H605.805L606.06 250.634L606.107 276.634H587.162V267.848C597.609 281.749 604.371 260.314 605.573 248.143Z" fill="#EF7E05"/>
<path d="M588.37 205.52C592.9 216.568 595.287 228.325 596.702 240.089C596.845 241.275 595.868 242.667 594.4 243.452C593.467 243.952 592.858 243.962 591.134 242.447C588.516 239.297 586.582 227.676 583.734 223.026C578.113 213.849 572.699 204.946 575.686 199.065C575.827 198.238 587.474 201.907 588.37 205.52Z" fill="#1D3975"/>
<path d="M581.068 216.855C579.981 223.214 579.098 233.997 579.696 244.828C566.649 247.067 554.192 246.359 546.399 243.88C546.764 235.276 544.22 193.994 556.981 191.26C565.613 188.843 577.19 189.606 581.971 194.318L582.013 194.357C585.666 197.777 590.182 209.056 592.307 217.227C596.766 234.362 584.803 224.9 581.068 216.855Z" fill="#355298"/>
<path d="M560.332 190.427C558.766 197.531 558.22 221.52 558.387 229.446C558.69 228.849 571.976 195.822 573.099 190.338C569.456 189.303 564.346 189.443 560.332 190.427Z" fill="white"/>
<path d="M557.857 215.953L558.386 229.446L564.284 217.04L564.638 199.457L566.02 197.523L564.536 195.891L562.702 196.875L563.313 199.101C561.5 203.929 559.064 212.192 557.857 215.953Z" fill="#F49123"/>
<path d="M581.068 216.855C580.051 223.322 579.456 236.714 579.696 244.828C576.277 236.354 578.091 214.171 578.754 210.756C579.374 212.834 580.156 214.948 581.068 216.855Z" fill="#1D3975"/>
<path d="M559.38 183.956C560.298 185.781 561.584 187.188 563.016 187.874L562.967 190.525L562.581 190.854C561.068 192.472 562.705 195.797 564.428 195.695C568.782 195.909 572.126 192.341 570.817 190.404L570.25 189.772L570.124 186.017C570.349 186.006 571.984 185.076 572.471 184.927C572.956 184.776 573.671 183.84 573.72 182.85C573.767 181.861 572.237 182.181 572.237 182.181C574.091 179.647 576.189 177.577 573.468 175.294C570.746 173.012 564.495 171.68 564.495 171.68L560.731 170.377C561.209 171.674 560.57 176.001 559.603 178.705C558.737 181.129 558.149 181.505 559.38 183.956Z" fill="#F7AAAC"/>
<path d="M568.35 186.539C567.116 188.654 565.674 190.847 562.968 190.525L563.016 187.873C564.222 188.067 565.4 187.972 568.35 186.539Z" fill="#E16E73"/>
<path d="M561.391 175.986C564.52 177.588 568.123 175.687 569.945 177.831C570.846 178.893 570.757 180.424 569.745 182.788C569.448 183.486 569.05 183.997 570.228 183.452C570.769 183.202 571.659 182.853 571.962 183.098C572.639 183.645 572.298 184.794 571.758 185.163C571.518 185.328 571.061 185.574 571.061 185.574C575.268 184.777 577.022 180.985 576.963 177.93C576.943 176.895 576.826 175.974 576.631 175.155C576.718 174.873 576.763 174.575 576.764 174.261C576.764 172.936 575.918 171.817 574.761 171.465C574.546 170.08 573.399 169.023 572.018 169.023C571.602 169.023 571.207 169.118 570.853 169.291L570.713 169.254C570.208 168.387 569.261 167.803 568.175 167.803C567.415 167.803 566.721 168.09 566.201 168.56C565.434 167.518 564.275 166.855 562.978 166.855C560.668 166.855 558.796 168.957 558.796 171.552C558.796 173.176 559.53 174.607 560.644 175.451C560.868 175.649 561.117 175.827 561.391 175.986Z" fill="#355298"/>
<path d="M591.937 242.156C592.405 244.053 592.499 244.915 592.873 246.782C592.964 247.23 593.839 247.591 594.52 247.947L598.066 247.859C598.286 247.583 598.569 247.323 598.653 246.974C599.108 246.427 598.843 244.889 598.658 244.362C598.689 244.333 598.492 244.033 598.22 243.647C597.742 242.968 597.03 242.023 596.897 241.834C596.585 241.383 596.14 241.025 596.097 240.46C594.618 240.4 592.803 241.232 591.937 242.156Z" fill="#F7AAAC"/>
<path d="M592.561 244.727C593.281 244.727 594.002 244.727 594.721 244.727C595.653 245.017 595.29 246.09 594.721 246.03H593.969V247.83H592.561V244.727Z" fill="#CE5600"/>
<path d="M558.386 229.443V229.445L554.747 199.709L557.695 197.221L555.828 195.012L557.659 191.077C558.413 191.09 559.439 190.587 560.332 190.426C558.766 197.53 558.22 221.517 558.386 229.443Z" fill="#1D3975"/>
<path d="M558.386 229.446L576.346 201.877L574.254 198.636L576.685 197.069L575.815 191.041C575.199 190.863 573.834 190.469 573.092 190.373C571.924 195.949 558.697 228.83 558.386 229.446Z" fill="#1D3975"/>
<path d="M581.747 247.68H587.162V276.634H581.747V247.68Z" fill="#FCA700"/>
<path fill-rule="evenodd" clip-rule="evenodd" d="M474.54 302.044C477.339 297.018 480.398 292.167 483.431 287.262C480.436 286.663 477.319 286.2 474.557 285.266C473.449 284.892 473.254 283.39 474.974 282.961C479.196 281.904 483.453 281.243 487.734 280.175C488.381 279.078 489.019 277.971 489.648 276.855C490.601 275.164 496.918 263.266 498.219 262.936C500.491 262.359 499.554 266.678 499.492 267.622C499.259 271.231 498.946 274.354 498.725 277.472C501.552 276.76 504.354 275.978 507.07 274.997C508.493 274.483 509.074 275.81 508.099 277.466C507.8 277.972 507.045 279.155 506.684 280.081C508.376 279.158 510.746 275.577 512.143 278.788C513.619 282.183 515.596 278.343 517.508 278.002C519.275 277.687 521.867 278.888 523.186 277.82C523.223 277.378 523.361 276.902 523.633 276.377C524.299 275.101 524.731 274.944 525.988 275.597C526.262 276.456 526.303 276.245 526.079 277.241C525.958 277.776 525.775 278.226 525.541 278.605C526.03 279.702 527.863 280.728 527.905 283.248C530.475 282.828 532.941 282.028 534.553 280.207C534.926 279.708 535.632 279.608 536.129 279.982C536.626 280.354 536.727 281.06 536.354 281.557C534.15 284.053 531.002 285.007 527.467 285.549C524.353 292.89 503.976 299.583 505.213 291.88C506.098 286.371 517.636 284.264 521.877 283.852C523.043 283.738 524.348 283.661 525.682 283.528C525.617 282.218 524.537 281.203 523.817 280.036C522.088 280.745 519.743 280.443 517.826 280.282C514.952 282.615 512.054 283.684 510.265 280.079C509.101 281.052 508.151 282.228 506.539 282.516C503.231 283.11 504.172 280.22 505.262 278.013C503.476 278.534 501.035 279.173 498.577 279.796C498.428 282.587 498.379 285.465 498.552 288.77C498.604 289.795 499.111 295.45 496.136 293.942C495.003 293.368 493.059 290.853 490.764 289.597C489.268 288.777 487.563 288.218 485.76 287.775C482.614 292.866 479.431 297.892 476.53 303.099C476.238 303.647 475.556 303.857 475.007 303.565C474.456 303.273 474.248 302.592 474.54 302.044ZM524.752 285.898C520.416 286.376 515.734 286.68 511.597 288.636C511.183 288.832 506.031 291.799 507.718 292.826C510.585 294.569 520.784 289.535 523.218 287.453C523.878 286.89 524.378 286.375 524.752 285.898ZM490.793 279.396C492.663 278.933 494.546 278.494 496.427 278.039C496.635 274.737 496.947 271.496 497.187 268.059C495.238 271.286 493.218 275.109 491.612 277.959C491.341 278.44 491.068 278.919 490.793 279.396ZM484.689 285.222C485.174 284.433 485.658 283.64 486.139 282.844C483.973 283.308 481.742 283.711 479.612 284.157C481.291 284.506 483.012 284.838 484.689 285.222ZM496.299 280.368C493.123 281.158 490.269 281.846 489.196 282.124C488.463 283.355 487.723 284.579 486.977 285.796C489.268 286.43 491.389 287.233 493.094 288.406C494.472 289.352 495.458 290.473 496.395 291.321C496.423 290.491 496.331 289.441 496.302 288.903C496.144 285.885 496.175 283.085 496.299 280.368Z" fill="#A0B8FF"/>
<path d="M366.428 195.062C348.025 195.062 329.607 195.062 311.19 195.062C292.77 195.062 274.352 195.062 255.95 195.062C252.315 195.062 248.862 198.038 248.285 201.673C242.385 238.834 263.303 275.986 257.4 313.145C256.823 316.78 259.316 319.744 262.95 319.744C281.353 319.744 299.771 319.744 318.188 319.744C336.606 319.744 355.024 319.744 373.426 319.744C377.063 319.744 381.407 316.813 381.107 313.145L371.993 201.673C371.694 198.005 370.062 195.062 366.428 195.062Z" fill="#AEC2FD"/>
<path d="M366.663 192.811C347.804 192.811 330.398 192.811 311.539 192.811C292.68 192.811 273.821 192.811 254.963 192.811C252.057 192.811 249.322 195.199 248.864 198.093C247.922 204.019 246.979 209.945 246.035 215.87C266.642 215.87 287.266 215.87 307.874 215.87C328.496 215.87 352.516 215.87 373.155 215.87C372.631 209.478 372.176 204.465 371.672 198.093C371.441 195.159 369.567 192.811 366.663 192.811Z" fill="#DA1540"/>
<path d="M359.902 195.062C341.5 195.062 323.082 195.062 304.664 195.062C286.246 195.062 267.829 195.062 249.426 195.062C245.791 195.062 242.34 198.037 241.761 201.673C238.798 220.259 235.851 238.851 232.893 257.423C229.934 275.998 226.979 294.572 224.028 313.145C223.45 316.78 225.928 319.744 229.563 319.744C247.965 319.744 266.383 319.744 284.801 319.744C303.219 319.744 321.636 319.744 340.039 319.744C343.675 319.744 347.127 316.78 347.704 313.145C350.657 294.571 353.612 275.997 356.571 257.423C359.529 238.849 362.503 220.261 365.454 201.673C366.031 198.038 363.537 195.062 359.902 195.062Z" fill="white"/>
<path d="M361.591 192.811C342.732 192.811 323.873 192.811 305.014 192.811C286.155 192.811 267.297 192.811 248.437 192.811C245.533 192.811 242.798 195.199 242.338 198.093C241.397 204.019 240.454 209.945 239.51 215.87C260.118 215.87 280.74 215.87 301.349 215.87C321.972 215.87 342.579 215.87 363.203 215.87C364.146 209.946 365.093 204.019 366.032 198.093C366.492 195.186 364.496 192.811 361.591 192.811Z" fill="#F6597B"/>
<path d="M350.125 224.047C344.29 224.047 338.468 224.047 332.646 224.047C331.99 224.047 331.353 224.587 331.246 225.256C330.316 231.087 329.389 236.903 328.459 242.72C328.353 243.378 328.824 243.931 329.48 243.931C335.302 243.931 341.124 243.931 346.959 243.931C347.617 243.931 348.255 243.378 348.361 242.72C349.291 236.903 350.218 231.087 351.148 225.256C351.254 224.587 350.783 224.047 350.125 224.047Z" fill="#F6597B"/>
<path d="M322.053 224.047C316.218 224.047 310.396 224.047 304.574 224.047C303.917 224.047 303.281 224.587 303.174 225.256C302.244 231.087 301.317 236.903 300.387 242.72C300.281 243.378 300.751 243.931 301.408 243.931C307.23 243.931 313.052 243.931 318.887 243.931C319.558 243.931 320.183 243.378 320.289 242.72C321.219 236.903 322.145 231.087 323.075 225.256C323.181 224.587 322.725 224.047 322.053 224.047Z" fill="#AEC2FD"/>
<path d="M293.981 224.047C288.145 224.047 282.323 224.047 276.502 224.047C275.845 224.047 275.209 224.587 275.101 225.256C274.173 231.087 273.245 236.903 272.315 242.72C272.209 243.378 272.679 243.931 273.335 243.931C279.157 243.931 284.979 243.931 290.815 243.931C291.486 243.931 292.111 243.378 292.216 242.72C293.146 236.903 294.073 231.087 295.003 225.256C295.109 224.587 294.652 224.047 293.981 224.047Z" fill="#AEC2FD"/>
<path d="M265.908 224.047C260.087 224.047 254.266 224.047 248.444 224.047C247.772 224.047 247.136 224.584 247.029 225.256C246.1 231.085 245.174 236.905 244.257 242.72C244.153 243.378 244.606 243.931 245.278 243.931C251.1 243.931 256.921 243.931 262.742 243.931C263.413 243.931 264.038 243.378 264.144 242.72C265.074 236.903 266 231.087 266.93 225.256C267.036 224.587 266.58 224.047 265.908 224.047Z" fill="#AEC2FD"/>
<path d="M345.662 252.092C339.825 252.092 334.004 252.092 328.182 252.092C327.526 252.092 326.888 252.632 326.781 253.303C325.852 259.134 324.926 264.949 323.994 270.767C323.89 271.424 324.36 271.965 325.016 271.965C330.838 271.965 336.659 271.965 342.496 271.965C343.152 271.965 343.792 271.424 343.896 270.767C344.827 264.949 345.754 259.134 346.682 253.303C346.79 252.632 346.318 252.092 345.662 252.092Z" fill="#F6597B"/>
<path d="M341.196 280.137C335.361 280.137 329.539 280.137 323.717 280.137C323.06 280.137 322.421 280.677 322.317 281.334C321.385 287.165 320.458 292.981 319.53 298.798C319.422 299.468 319.894 300.008 320.551 300.008C326.373 300.008 332.195 300.008 338.03 300.008C338.688 300.008 339.324 299.468 339.432 298.798C340.36 292.981 341.287 287.165 342.218 281.334C342.323 280.677 341.854 280.137 341.196 280.137Z" fill="#F6597B"/>
<path d="M313.123 280.137C307.287 280.137 301.465 280.137 295.644 280.137C294.987 280.137 294.348 280.677 294.243 281.334C293.312 287.165 292.385 292.981 291.457 298.798C291.349 299.468 291.821 300.008 292.477 300.008C298.299 300.008 304.121 300.008 309.957 300.008C310.628 300.008 311.251 299.468 311.358 298.798C312.287 292.981 313.213 287.165 314.145 281.334C314.249 280.677 313.794 280.137 313.123 280.137Z" fill="#AEC2FD"/>
<path d="M289.516 252.092C283.679 252.092 277.859 252.092 272.037 252.092C271.381 252.092 270.743 252.632 270.635 253.303C269.707 259.134 268.78 264.949 267.848 270.767C267.744 271.424 268.214 271.965 268.871 271.965C274.693 271.965 280.513 271.965 286.35 271.965C287.022 271.965 287.646 271.424 287.75 270.767C288.682 264.949 289.609 259.134 290.537 253.303C290.644 252.632 290.188 252.092 289.516 252.092Z" fill="#AEC2FD"/>
<path d="M285.051 280.137C279.215 280.137 273.393 280.137 267.571 280.137C266.915 280.137 266.275 280.677 266.171 281.334C265.239 287.165 264.313 292.981 263.384 298.798C263.277 299.468 263.749 300.008 264.405 300.008C270.227 300.008 276.049 300.008 281.884 300.008C282.556 300.008 283.179 299.468 283.286 298.798C284.215 292.981 285.141 287.165 286.073 281.334C286.177 280.677 285.722 280.137 285.051 280.137Z" fill="#AEC2FD"/>
<path d="M261.445 252.092C255.623 252.092 249.801 252.092 243.979 252.092C243.309 252.092 242.671 252.63 242.564 253.303C241.635 259.132 240.71 264.949 239.792 270.767C239.688 271.424 240.143 271.965 240.813 271.965C246.635 271.965 252.457 271.965 258.279 271.965C258.95 271.965 259.575 271.424 259.679 270.767C260.611 264.949 261.537 259.134 262.466 253.303C262.573 252.632 262.116 252.092 261.445 252.092Z" fill="#AEC2FD"/>
<path d="M256.979 280.137C251.158 280.137 245.337 280.137 239.515 280.137C238.843 280.137 238.219 280.677 238.115 281.334C237.183 287.165 236.243 292.981 235.328 298.798C235.222 299.468 235.677 300.008 236.348 300.008C242.17 300.008 247.992 300.008 253.813 300.008C254.484 300.008 255.107 299.468 255.214 298.798C256.143 292.981 257.069 287.165 258.001 281.334C258.105 280.677 257.65 280.137 256.979 280.137Z" fill="#AEC2FD"/>
<path d="M340.724 199.727C338.533 199.727 336.465 201.503 336.116 203.69C335.767 205.879 337.272 207.642 339.462 207.642C341.652 207.642 343.69 205.879 344.04 203.69C344.389 201.503 342.915 199.727 340.724 199.727Z" fill="#DA1540"/>
<path d="M348.071 182.566C345.471 182.566 342.931 183.923 340.923 186.104C339.036 188.162 337.607 191.002 337.12 194.102C336.618 197.189 337.151 200.029 338.383 202.087C339.493 203.952 341.196 205.214 343.295 205.529C343.676 204.98 343.956 204.212 344.04 203.69C344.124 203.17 344.116 202.951 344.086 202.607C344.071 202.622 344.086 202.622 344.101 202.622C342.793 202.374 341.744 201.552 340.998 200.317C340.055 198.752 339.66 196.545 340.055 194.102C340.436 191.646 341.546 189.439 342.976 187.874C344.314 186.406 345.973 185.502 347.599 185.502C349.226 185.502 350.581 186.406 351.462 187.874C352.223 189.164 352.634 190.878 352.542 192.812C353.515 192.812 354.489 192.812 355.478 192.812C355.676 190.221 355.142 187.874 354.063 186.104C352.755 183.923 350.656 182.566 348.071 182.566Z" fill="#2A4589"/>
<path d="M321.134 199.727C318.945 199.727 316.892 201.503 316.541 203.69C316.192 205.879 317.683 207.642 319.873 207.642C322.062 207.642 324.109 205.879 324.45 203.69C324.792 201.503 323.325 199.727 321.134 199.727Z" fill="#DA1540"/>
<path d="M301.547 199.727C299.349 199.727 297.303 201.503 296.954 203.69C296.603 205.879 298.087 207.642 300.284 207.642C302.482 207.642 304.535 205.879 304.877 203.69C305.22 201.503 303.744 199.727 301.547 199.727Z" fill="#DA1540"/>
<path d="M281.972 199.727C279.783 199.727 277.722 201.503 277.379 203.69C277.037 205.879 278.521 207.642 280.71 207.642C282.901 207.642 284.954 205.879 285.303 203.69C285.654 201.503 284.163 199.727 281.972 199.727Z" fill="#DA1540"/>
<path d="M262.384 199.727C260.194 199.727 258.132 201.503 257.791 203.69C257.449 205.879 258.931 207.642 261.122 207.642C263.311 207.642 265.373 205.879 265.715 203.69C266.056 201.503 264.574 199.727 262.384 199.727Z" fill="#DA1540"/>
<path d="M328.481 182.564C325.881 182.564 323.341 183.922 321.348 186.102C319.448 188.16 318.032 191 317.545 194.1C317.044 197.187 317.561 200.027 318.808 202.085C319.919 203.95 321.622 205.212 323.705 205.527C324.101 204.979 324.368 204.21 324.45 203.689C324.534 203.169 324.527 202.949 324.497 202.605C324.482 202.62 324.497 202.62 324.512 202.62C323.22 202.372 322.154 201.55 321.425 200.315C320.467 198.75 320.07 196.543 320.467 194.1C320.846 191.644 321.957 189.437 323.401 187.872C324.739 186.404 326.383 185.5 328.009 185.5C329.653 185.5 331.006 186.404 331.872 187.872C332.648 189.162 333.044 190.876 332.953 192.81C333.925 192.81 334.914 192.81 335.903 192.81C336.086 190.219 335.569 187.872 334.489 186.102C333.181 183.922 331.066 182.564 328.481 182.564Z" fill="#2A4589"/>
<path d="M308.908 182.566C306.306 182.566 303.766 183.923 301.76 186.104C299.873 188.162 298.444 191.002 297.957 194.102C297.455 197.189 297.988 200.029 299.22 202.087C300.345 203.952 302.033 205.214 304.132 205.529C304.511 204.98 304.793 204.212 304.877 203.69C304.961 203.17 304.953 202.951 304.907 202.607C304.907 202.622 304.907 202.622 304.923 202.622C303.63 202.374 302.581 201.552 301.835 200.317C300.877 198.752 300.497 196.545 300.892 194.102C301.273 191.646 302.367 189.439 303.813 187.874C305.151 186.406 306.808 185.502 308.436 185.502C310.063 185.502 311.416 186.406 312.299 187.874C313.075 189.164 313.469 190.878 313.378 192.812C314.352 192.812 315.326 192.812 316.315 192.812C316.511 190.221 315.979 187.874 314.899 186.104C313.592 183.923 311.493 182.566 308.908 182.566Z" fill="#2A4589"/>
<path d="M289.319 182.564C286.718 182.564 284.194 183.922 282.186 186.102C280.285 188.16 278.855 191 278.368 194.1C277.866 197.187 278.398 200.027 279.646 202.085C280.771 203.95 282.459 205.212 284.558 205.527C284.924 204.979 285.219 204.21 285.303 203.689C285.387 203.169 285.364 202.949 285.333 202.605C285.333 202.62 285.349 202.62 285.349 202.62C284.056 202.372 282.992 201.55 282.261 200.315C281.304 198.75 280.908 196.543 281.304 194.1C281.684 191.644 282.793 189.437 284.239 187.872C285.577 186.404 287.22 185.5 288.847 185.5C290.474 185.5 291.844 186.404 292.71 187.872C293.486 189.162 293.882 190.876 293.789 192.81C294.763 192.81 295.752 192.81 296.741 192.81C296.924 190.219 296.391 187.872 295.325 186.102C294.003 183.922 291.904 182.564 289.319 182.564Z" fill="#2A4589"/>
<path d="M269.744 182.564C267.143 182.564 264.604 183.922 262.596 186.102C260.71 188.16 259.28 191 258.793 194.1C258.293 197.187 258.825 200.027 260.056 202.085C261.182 203.95 262.869 205.212 264.969 205.527C265.349 204.979 265.631 204.21 265.715 203.689C265.797 203.169 265.79 202.949 265.745 202.605C265.745 202.62 265.76 202.62 265.775 202.62C264.483 202.372 263.403 201.55 262.673 200.315C261.714 198.75 261.333 196.543 261.729 194.1C262.109 191.644 263.205 189.437 264.649 187.872C265.988 186.404 267.63 185.5 269.274 185.5C270.901 185.5 272.254 186.404 273.137 187.872C273.912 189.162 274.307 190.876 274.216 192.81C275.19 192.81 276.162 192.81 277.151 192.81C277.349 190.219 276.817 187.872 275.737 186.102C274.429 183.922 272.329 182.564 269.744 182.564Z" fill="#2A4589"/>
<path d="M317.59 252.092C311.752 252.092 305.932 252.092 300.11 252.092C299.454 252.092 298.816 252.632 298.708 253.303C297.78 259.134 296.853 264.949 295.922 270.767C295.818 271.424 296.288 271.965 296.944 271.965C302.766 271.965 308.586 271.965 314.423 271.965C315.095 271.965 315.719 271.424 315.823 270.767C316.755 264.949 317.682 259.134 318.61 253.303C318.718 252.632 318.261 252.092 317.59 252.092Z" fill="#AEC2FD"/>
<path d="M393.266 276.49C400.985 276.49 408.705 276.49 416.425 276.49C417.553 276.49 418.704 277.443 418.899 278.569C419.121 279.724 418.337 280.649 417.209 280.649C409.49 280.649 401.77 280.649 394.05 280.649C392.898 280.649 391.796 279.724 391.576 278.569C391.379 277.443 392.115 276.49 393.266 276.49Z" fill="#A0B8FF"/>
<path d="M358.677 313.205H412.359V319.131H358.677V313.205Z" fill="#FDA600"/>
<path d="M365.479 319.131H358.677V313.205H365.479V319.131Z" fill="#FDA600"/>
<path d="M365.741 313.205H372.889V319.131H365.741V313.205Z" fill="#FFD115"/>
<path d="M372.89 313.205H397.116V319.131H372.89V313.205Z" fill="#FCA700"/>
<path d="M397.116 313.205H407.524V319.131H397.116V313.205Z" fill="#EC830E"/>
<path d="M361.299 319.131H409.817V319.696H361.299V319.131Z" fill="#DF641E"/>
<path d="M358.751 300.221H412.433V306.147H358.751V300.221Z" fill="#FDA600"/>
<path d="M365.553 306.147H358.751V300.221H365.553V306.147Z" fill="#FDA600"/>
<path d="M365.553 300.221H372.437V306.147H365.553V300.221Z" fill="#FFD115"/>
<path d="M372.438 300.221H397.188V306.147H372.438V300.221Z" fill="#FCA700"/>
<path d="M397.188 300.221H407.598V306.147H397.188V300.221Z" fill="#EC830E"/>
<path d="M361.371 306.148H409.891V306.714H361.371V306.148Z" fill="#DF641E"/>
<path d="M358.677 306.715H414.419V312.641H358.677V306.715Z" fill="#FDA600"/>
<path d="M365.741 312.641H358.677V306.715H365.741V312.641Z" fill="#FDA600"/>
<path d="M365.741 306.715H372.889V312.641H365.741V306.715Z" fill="#FFD115"/>
<path d="M372.89 306.715H398.59V312.641H372.89V306.715Z" fill="#FCA700"/>
<path d="M397.116 306.715H409.398V312.641H397.116V306.715Z" fill="#EC830E"/>
<path d="M361.4 312.641H411.778V313.206H361.4V312.641Z" fill="#DF641E"/>
<path d="M382.625 313.205H436.306V319.131H382.625V313.205Z" fill="#FDA600"/>
<path d="M389.427 319.131H382.625V313.205H389.427V319.131Z" fill="#FDA600"/>
<path d="M389.688 313.205H396.837V319.131H389.688V313.205Z" fill="#FFD115"/>
<path d="M396.837 313.205H421.063V319.131H396.837V313.205Z" fill="#FCA700"/>
<path d="M421.063 313.205H431.471V319.131H421.063V313.205Z" fill="#EC830E"/>
<path d="M385.245 319.131H433.765V319.696H385.245V319.131Z" fill="#DF641E"/>
<path d="M382.698 300.221H436.38V306.147H382.698V300.221Z" fill="#FDA600"/>
<path d="M389.501 306.147H382.698V300.221H389.501V306.147Z" fill="#FDA600"/>
<path d="M389.501 300.221H396.384V306.147H389.501V300.221Z" fill="#FFD115"/>
<path d="M396.383 300.221H421.135V306.147H396.383V300.221Z" fill="#FCA700"/>
<path d="M421.135 300.221H431.544V306.147H421.135V300.221Z" fill="#EC830E"/>
<path d="M385.319 306.148H433.837V306.714H385.319V306.148Z" fill="#DF641E"/>
<path d="M382.625 306.715H438.365V312.641H382.625V306.715Z" fill="#FDA600"/>
<path d="M389.689 312.641H382.625V306.715H389.689V312.641Z" fill="#FDA600"/>
<path d="M389.688 306.715H396.837V312.641H389.688V306.715Z" fill="#FFD115"/>
<path d="M396.837 306.715H422.537V312.641H396.837V306.715Z" fill="#FCA700"/>
<path d="M421.063 306.715H433.343V312.641H421.063V306.715Z" fill="#EC830E"/>
<path d="M385.346 312.641H435.725V313.206H385.346V312.641Z" fill="#DF641E"/>
<path d="M382.744 293.729H436.426V299.655H382.744V293.729Z" fill="#FDA600"/>
<path d="M389.546 299.655H382.744V293.729H389.546V299.655Z" fill="#FDA600"/>
<path d="M389.546 293.729H396.431V299.655H389.546V293.729Z" fill="#FFD115"/>
<path d="M396.431 293.729H421.182V299.655H396.431V293.729Z" fill="#FCA700"/>
<path d="M421.182 293.729H431.59V299.655H421.182V293.729Z" fill="#EC830E"/>
<path d="M385.364 299.656H433.883V300.222H385.364V299.656Z" fill="#DF641E"/>
<path d="M382.744 287.238H436.426V293.165H382.744V287.238Z" fill="#FDA600"/>
<path d="M389.546 293.165H382.744V287.238H389.546V293.165Z" fill="#FDA600"/>
<path d="M389.546 287.238H396.431V293.165H389.546V287.238Z" fill="#FFD115"/>
<path d="M396.431 287.238H421.182V293.165H396.431V287.238Z" fill="#FCA700"/>
<path d="M421.182 287.238H431.59V293.165H421.182V287.238Z" fill="#EC830E"/>
<path d="M385.364 293.164H433.883V293.729H385.364V293.164Z" fill="#DF641E"/>
<path d="M382.744 280.746H436.426V286.673H382.744V280.746Z" fill="#FDA600"/>
<path d="M389.546 286.673H382.744V280.746H389.546V286.673Z" fill="#FDA600"/>
<path d="M389.546 280.746H396.431V286.673H389.546V280.746Z" fill="#FFD115"/>
<path d="M396.431 280.746H421.182V286.673H396.431V280.746Z" fill="#FCA700"/>
<path d="M421.182 280.746H431.59V286.673H421.182V280.746Z" fill="#EC830E"/>
<path d="M385.364 286.672H433.883V287.237H385.364V286.672Z" fill="#DF641E"/>
<path d="M382.744 274.254H436.426V280.18H382.744V274.254Z" fill="#FDA600"/>
<path d="M389.546 280.18H382.744V274.254H389.546V280.18Z" fill="#FDA600"/>
<path d="M389.546 274.254H396.431V280.18H389.546V274.254Z" fill="#FFD115"/>
<path d="M396.431 274.254H421.182V280.18H396.431V274.254Z" fill="#FCA700"/>
<path d="M421.182 274.254H431.59V280.18H421.182V274.254Z" fill="#EC830E"/>
<path d="M385.364 280.18H433.883V280.745H385.364V280.18Z" fill="#DF641E"/>
<path d="M446.584 286.339C442.315 272.465 427.599 264.675 413.714 268.941C399.829 273.207 392.034 287.911 396.302 301.785C400.571 315.66 415.287 323.448 429.172 319.184C443.057 314.918 450.853 300.214 446.584 286.339Z" fill="#FFCE70"/>
<path d="M441.955 287.76C438.472 276.44 426.465 270.086 415.137 273.565C403.809 277.046 397.448 289.043 400.931 300.363C404.413 311.682 416.421 318.038 427.75 314.557C439.078 311.078 445.437 299.079 441.955 287.76Z" fill="#FCA700"/>
<path d="M441.955 287.76C438.472 276.44 426.465 270.086 415.137 273.565C403.809 277.046 397.448 289.043 400.931 300.363C404.413 311.682 416.421 318.038 427.75 314.557C439.078 311.078 445.437 299.079 441.955 287.76Z" stroke="#FCA700" stroke-width="0.303268" stroke-miterlimit="10"/>
<path d="M438.939 290.739C435.865 280.748 425.265 275.137 415.265 278.21C409.421 280.005 405.075 284.37 403.085 289.682C404.544 283.298 409.28 277.846 415.995 275.785C425.994 272.711 436.594 278.323 439.667 288.313C440.945 292.465 440.722 296.721 439.308 300.497C440.022 297.372 439.949 294.023 438.939 290.739Z" fill="#FFCE70"/>
<path d="M414.782 290.363C414.714 290.81 414.701 291.316 414.724 291.796L414.704 291.855C414.778 291.964 414.914 292.789 414.99 293.009C415.116 293.378 415.351 293.73 415.44 294.018C415.507 294.065 415.884 294.594 415.978 294.703C416.2 294.961 416.353 295.042 416.618 295.297C416.877 295.468 417.107 295.659 417.421 295.859C418.26 296.392 419.183 296.82 420.145 297.162C421.384 297.603 423.071 298.195 423.707 299.019C424.601 300.175 423.968 301.842 422.131 302.109C421.08 302.261 419.467 302.176 418.394 301.918C418.053 301.835 417.708 301.706 417.368 301.624C417.063 301.49 415.905 301.074 415.753 300.93L415.458 300.856C415.441 300.992 415.424 301.104 415.341 301.216C415.374 301.388 415.245 301.856 415.171 302C415.151 302.136 414.787 303.711 414.664 303.885C414.676 304.036 414.62 304.445 414.619 304.672C414.698 304.722 414.632 304.674 414.713 304.734L414.867 304.878C415.011 304.887 415.554 305.093 415.663 305.179L417.498 305.704L418.351 305.878L419.64 306.044C419.762 306.031 419.767 306.022 419.903 306.047C419.907 306.047 419.989 306.073 420.001 306.076C420.09 306.113 420.044 306.094 420.073 306.121L420.123 306.254C420.16 306.487 420.071 308.678 420.142 309.147L423.343 309.146C423.409 308.174 423.375 307.042 423.382 306.068C423.383 305.722 423.452 305.801 423.783 305.724C424.678 305.512 425.076 305.257 425.586 305.122C425.682 305.033 426.289 304.742 426.479 304.617C426.629 304.518 426.763 304.435 426.902 304.323C427.057 304.197 427.141 304.098 427.282 304.045C427.355 303.902 427.978 303.332 428.463 302.481C429.135 301.305 428.962 300.827 429.145 300.416V299.083C429.066 298.883 429.081 298.544 429.036 298.309C428.749 296.85 427.59 295.59 426.375 294.834C424.24 293.507 419.986 292.725 419.754 290.9C419.621 289.85 420.53 289.253 421.384 289.05C422.378 288.813 423.645 288.904 424.606 289.114C425.297 289.265 427.209 289.952 427.263 289.954C427.416 289.761 427.376 289.541 427.508 289.39C427.502 289.174 427.604 288.855 427.676 288.662C427.753 288.204 428.213 286.671 428.16 286.29C427.8 286.046 427.606 286.076 427.423 285.923L427.397 285.938C427.191 285.893 426.471 285.737 426.341 285.613C426.143 285.655 425.331 285.432 425.039 285.383C424.755 285.338 423.84 285.299 423.687 285.209C423.348 285.009 423.577 283.145 423.498 282.354H420.288C420.244 282.941 420.38 285.11 420.187 285.438C419.92 285.732 415.71 285.997 414.782 290.363Z" fill="#FFCE70"/>
<path d="M329.035 113.373H425.666C436.905 113.373 446.102 122.562 446.102 133.793C446.102 145.023 436.905 154.211 425.666 154.211H329.035C317.795 154.211 308.601 145.023 308.601 133.793C308.601 122.562 317.795 113.373 329.035 113.373Z" fill="#8C9EF3"/>
<path fill-rule="evenodd" clip-rule="evenodd" d="M389.042 133.453L383.353 126.16C383.261 126.039 383.238 125.903 383.284 125.752C383.329 125.601 383.428 125.526 383.58 125.526H387.931C388.082 125.526 388.241 125.571 388.408 125.662C388.574 125.752 388.702 125.858 388.792 125.979L391.626 130.124C391.717 130.244 391.822 130.305 391.943 130.305C392.064 130.305 392.17 130.244 392.261 130.124C392.744 129.445 393.224 128.746 393.699 128.028C394.176 127.312 394.641 126.621 395.094 125.957C395.185 125.836 395.313 125.734 395.479 125.652C395.646 125.568 395.805 125.526 395.956 125.526H400.285C400.466 125.526 400.572 125.601 400.602 125.752C400.633 125.903 400.602 126.039 400.512 126.16L394.868 133.453C394.777 133.574 394.732 133.718 394.732 133.884C394.732 134.05 394.777 134.193 394.868 134.314L400.398 141.426C400.488 141.547 400.507 141.687 400.455 141.846C400.402 142.003 400.3 142.082 400.149 142.082H395.841C395.69 142.082 395.532 142.037 395.366 141.946C395.2 141.856 395.071 141.75 394.98 141.629L392.261 137.667C392.17 137.545 392.064 137.485 391.943 137.486C391.822 137.485 391.717 137.545 391.626 137.667L388.906 141.629C388.815 141.75 388.686 141.856 388.52 141.946C388.354 142.037 388.195 142.082 388.044 142.082H383.738C383.586 142.082 383.489 142.003 383.444 141.846C383.398 141.687 383.42 141.547 383.511 141.426L389.042 134.314C389.133 134.193 389.178 134.05 389.178 133.884C389.178 133.718 389.133 133.574 389.042 133.453ZM372.018 126.024C372.079 125.889 372.181 125.772 372.325 125.673C372.469 125.575 372.623 125.526 372.789 125.526H375.963C376.114 125.526 376.261 125.575 376.405 125.673C376.548 125.772 376.65 125.889 376.71 126.024L383.33 141.426C383.39 141.562 383.379 141.705 383.296 141.856C383.212 142.007 383.049 142.082 382.808 142.082H378.933C378.766 142.082 378.611 142.033 378.468 141.936C378.325 141.838 378.215 141.72 378.139 141.584L377.526 140.225C377.451 140.09 377.342 139.973 377.199 139.875C377.054 139.776 376.907 139.727 376.756 139.727H371.973C371.807 139.727 371.653 139.776 371.509 139.875C371.365 139.973 371.263 140.09 371.202 140.225L370.568 141.584C370.507 141.72 370.405 141.838 370.262 141.936C370.119 142.033 369.972 142.082 369.821 142.082H365.921C365.846 142.082 365.767 142.067 365.684 142.037C365.6 142.007 365.532 141.961 365.479 141.901C365.427 141.841 365.393 141.765 365.377 141.675C365.362 141.584 365.385 141.478 365.446 141.357L372.018 126.024ZM373.354 135.877H375.372C375.523 135.877 375.633 135.828 375.701 135.73C375.77 135.631 375.766 135.514 375.69 135.379C375.538 135.001 375.357 134.559 375.146 134.054C374.934 133.548 374.738 133.076 374.556 132.638C374.496 132.503 374.428 132.435 374.353 132.435C374.277 132.435 374.209 132.503 374.148 132.638L373.015 135.379C372.955 135.514 372.955 135.631 373.015 135.73C373.076 135.828 373.189 135.877 373.354 135.877ZM366.601 129.671H363.426C363.275 129.671 363.147 129.724 363.042 129.83C362.935 129.935 362.882 130.063 362.882 130.214V141.539C362.882 141.69 362.834 141.818 362.736 141.924C362.638 142.03 362.505 142.082 362.338 142.082H358.939C358.788 142.082 358.66 142.03 358.554 141.924C358.448 141.818 358.395 141.69 358.395 141.539V130.214C358.395 130.063 358.346 129.935 358.247 129.83C358.149 129.724 358.017 129.671 357.851 129.671H354.633C354.482 129.671 354.353 129.618 354.247 129.513C354.141 129.407 354.089 129.278 354.089 129.127V126.047C354.089 125.896 354.141 125.768 354.247 125.662C354.353 125.556 354.482 125.504 354.633 125.504H366.601C366.766 125.504 366.898 125.556 366.997 125.662C367.095 125.768 367.145 125.896 367.145 126.047V129.127C367.145 129.278 367.095 129.407 366.997 129.513C366.898 129.618 366.766 129.671 366.601 129.671Z" fill="white"/>
<path d="M309.859 251.133C303.812 251.133 298.156 256.036 297.196 262.07C296.236 268.105 300.337 272.993 306.376 272.993C312.416 272.993 318.095 268.105 319.055 262.07C320.016 256.036 315.906 251.133 309.859 251.133Z" fill="#1D3A7D"/>
<path d="M308.003 251.133C301.956 251.133 296.284 256.036 295.324 262.07C294.363 268.105 298.481 272.993 304.52 272.993C310.558 272.993 316.239 268.105 317.2 262.07C318.16 256.036 314.05 251.133 308.003 251.133Z" fill="#7183D5"/>
<path d="M304.228 263.7C306.751 261.659 309.274 259.619 311.796 257.578C312.577 256.962 313.619 256.991 314.14 257.667C314.662 258.341 314.449 259.384 313.685 260.015C310.656 262.452 307.646 264.89 304.651 267.312C304.635 267.327 304.635 267.327 304.635 267.327C303.837 267.929 302.812 267.855 302.323 267.164C301.428 265.932 300.532 264.699 299.637 263.465C299.165 262.776 299.394 261.718 300.174 261.13C300.972 260.528 301.997 260.589 302.486 261.278C303.072 262.085 303.658 262.893 304.228 263.7Z" fill="white"/>
<circle cx="698.5" cy="85.5" r="2.5" fill="#FFCE70"/>
<circle cx="26" cy="275" r="2" fill="#FFCE70"/>
</g>
<defs>
<filter id="filter0_d_1067_3427" x="-10" y="-8" width="815" height="340" filterUnits="userSpaceOnUse" color-interpolation-filters="sRGB">
<feFlood flood-opacity="0" result="BackgroundImageFix"/>
<feColorMatrix in="SourceAlpha" type="matrix" values="0 0 0 0 0 0 0 0 0 0 0 0 0 0 0 0 0 0 127 0" result="hardAlpha"/>
<feOffset dy="2"/>
<feGaussianBlur stdDeviation="5"/>
<feComposite in2="hardAlpha" operator="out"/>
<feColorMatrix type="matrix" values="0 0 0 0 0.117647 0 0 0 0 0.533333 0 0 0 0 0.898039 0 0 0 0.05 0"/>
<feBlend mode="normal" in2="BackgroundImageFix" result="effect1_dropShadow_1067_3427"/>
<feBlend mode="normal" in="SourceGraphic" in2="effect1_dropShadow_1067_3427" result="shape"/>
</filter>
<clipPath id="clip0_1067_3427">
<rect width="795" height="320" fill="white"/>
</clipPath>
</defs>
</svg>
