<svg width="30" height="30" viewBox="0 0 30 30" fill="none" xmlns="http://www.w3.org/2000/svg">
<g clip-path="url(#clip0_1_347)">
<path d="M24.938 13.8886C25.1955 16.1904 24.6459 18.5103 23.3831 20.4519C22.1203 22.3936 20.2227 23.8367 18.0142 24.5349C15.8058 25.2331 13.4235 25.1429 11.2741 24.2799C9.12467 23.4169 7.34148 21.8346 6.22901 19.8031C5.11653 17.7715 4.74375 15.4168 5.17433 13.141C5.6049 10.8652 6.81212 8.80944 8.58985 7.32473C10.3676 5.84001 12.6056 5.01845 14.9217 5.00031C17.2378 4.98217 19.4884 5.76858 21.2891 7.22527L18.3392 9.88304C17.2819 9.19332 16.0369 8.84795 14.7754 8.89438C13.5139 8.94081 12.2978 9.37677 11.294 10.1423C10.2903 10.9079 9.54833 11.9655 9.17001 13.1699C8.79168 14.3742 8.79561 15.6662 9.18123 16.8682C9.56686 18.0702 10.3153 19.1233 11.3236 19.8828C12.332 20.6422 13.5508 21.0708 14.8125 21.1096C16.0743 21.1484 17.3171 20.7954 18.3702 20.0993C19.4232 19.4032 20.2349 18.398 20.6936 17.2219H16.1103V13.8886H24.938Z" stroke="#666666" stroke-width="1.8" stroke-linecap="round" stroke-linejoin="round"/>
</g>
<defs>
<clipPath id="clip0_1_347">
<rect width="30" height="30" fill="white"/>
</clipPath>
</defs>
</svg>
