<svg width="21" height="21" viewBox="0 0 21 21" fill="none" xmlns="http://www.w3.org/2000/svg">
<path d="M19.6125 9.21315C19.8548 11.3796 19.3375 13.5631 18.1489 15.3906C16.9604 17.2181 15.1744 18.5764 13.0958 19.2335C11.0172 19.8906 8.7749 19.8058 6.75187 18.9935C4.72884 18.1813 3.0505 16.692 2.00343 14.7799C0.95636 12.8678 0.605499 10.6515 1.01076 8.50953C1.41601 6.36753 2.55226 4.43262 4.22547 3.03521C5.89868 1.63779 8.00509 0.86453 10.185 0.847457C12.365 0.830384 14.4832 1.57056 16.1781 2.9416L13.4016 5.44311C12.4064 4.79394 11.2347 4.46887 10.0474 4.51257C8.86004 4.55627 7.71537 4.9666 6.77067 5.68716C5.82597 6.40773 5.12759 7.40317 4.77151 8.5367C4.41543 9.67023 4.41913 10.8862 4.78208 12.0176C5.14504 13.1489 5.84944 14.1401 6.7985 14.8549C7.74756 15.5697 8.8947 15.9731 10.0823 16.0096C11.2699 16.0461 12.4396 15.7139 13.4308 15.0587C14.4219 14.4035 15.1858 13.4574 15.6176 12.3505H11.3037V9.21315H19.6125Z" stroke="#1E88E5" stroke-width="1.69417" stroke-linecap="round" stroke-linejoin="round"/>
</svg>
