<svg width="1920" height="747" viewBox="0 0 1920 747" fill="none" xmlns="http://www.w3.org/2000/svg">
<g clip-path="url(#clip0_1019_7086)">
<rect width="1920" height="747" fill="url(#paint0_linear_1019_7086)"/>
<g filter="url(#filter0_f_1019_7086)">
<path d="M1605.33 -0.000732422C1605.33 -130.343 1710.99 -236.006 1841.33 -236.006C1971.67 -236.006 2077.34 -130.343 2077.34 -0.000732422C2077.34 130.341 1971.67 236.004 1841.33 236.004C1710.99 236.004 1605.33 130.341 1605.33 -0.000732422Z" fill="#1E88E5" fill-opacity="0.05"/>
</g>
<g clip-path="url(#clip1_1019_7086)">
<rect width="1920" height="747" fill="#F7FCFF"/>
<g filter="url(#filter1_f_1019_7086)">
<path d="M1605.33 -0.000732422C1605.33 -130.343 1710.99 -236.006 1841.33 -236.006C1971.67 -236.006 2077.34 -130.343 2077.34 -0.000732422C2077.34 130.341 1971.67 236.004 1841.33 236.004C1710.99 236.004 1605.33 130.341 1605.33 -0.000732422Z" fill="#1E88E5" fill-opacity="0.05"/>
</g>
<g filter="url(#filter2_f_1019_7086)">
<path d="M-118 560C-118 478.262 -51.7381 412 30 412C111.738 412 178 478.262 178 560C178 641.738 111.738 708 30 708C-51.7381 708 -118 641.738 -118 560Z" fill="#1E88E5" fill-opacity="0.08"/>
</g>
<path fill-rule="evenodd" clip-rule="evenodd" d="M663.417 614.524H658.704C658.579 614.524 658.465 614.459 658.403 614.351L656.045 610.269C655.985 610.162 655.985 610.03 656.045 609.922L658.403 605.837C658.465 605.73 658.579 605.664 658.704 605.664H663.417C663.543 605.664 663.656 605.73 663.719 605.837L666.077 609.922C666.136 610.03 666.136 610.162 666.077 610.269L663.719 614.351C663.656 614.459 663.543 614.524 663.417 614.524ZM658.902 613.831H663.22L665.377 610.096L663.22 606.357H658.902L656.744 610.096L658.902 613.831Z" fill="#99D0FF"/>
<path fill-rule="evenodd" clip-rule="evenodd" d="M670.497 610.359H665.785C665.659 610.359 665.545 610.294 665.483 610.186L663.125 606.104C663.065 605.996 663.065 605.865 663.125 605.757L665.483 601.675C665.545 601.568 665.659 601.502 665.785 601.502H670.497C670.623 601.502 670.736 601.568 670.799 601.675L673.157 605.757C673.217 605.865 673.217 605.996 673.157 606.104L670.799 610.186C670.736 610.294 670.623 610.359 670.497 610.359ZM665.982 609.669H670.3L672.458 605.931L670.3 602.195H665.982L663.824 605.931L665.982 609.669Z" fill="#99D0FF"/>
<path fill-rule="evenodd" clip-rule="evenodd" d="M671.829 620.271H667.117C666.991 620.271 666.877 620.206 666.815 620.098L664.457 616.016C664.397 615.909 664.397 615.777 664.457 615.669L666.815 611.584C666.877 611.48 666.991 611.414 667.117 611.414H671.829C671.955 611.414 672.068 611.48 672.131 611.584L674.489 615.669C674.549 615.777 674.549 615.909 674.489 616.016L672.131 620.098C672.068 620.206 671.955 620.271 671.829 620.271ZM667.314 619.578H671.632L673.79 615.843L671.632 612.104H667.314L665.156 615.843L667.314 619.578Z" fill="#99D0FF"/>
<path d="M670.497 602.195C670.431 602.195 670.367 602.175 670.305 602.135C670.147 602.031 670.105 601.816 670.21 601.657L671.874 599.156C671.979 598.995 672.194 598.953 672.352 599.057C672.514 599.165 672.556 599.38 672.451 599.538L670.787 602.04C670.721 602.138 670.61 602.195 670.497 602.195Z" fill="#99D0FF"/>
<path d="M656.669 617.35C656.598 617.35 656.53 617.328 656.466 617.284C656.314 617.174 656.278 616.958 656.389 616.803L658.424 613.976C658.534 613.824 658.749 613.788 658.905 613.898C659.06 614.012 659.096 614.227 658.985 614.382L656.95 617.206C656.882 617.302 656.777 617.35 656.669 617.35Z" fill="#99D0FF"/>
<path d="M658.705 606.357C658.615 606.357 658.529 606.324 658.46 606.259L656.428 604.257C656.29 604.122 656.29 603.904 656.425 603.766C656.556 603.632 656.777 603.629 656.912 603.763L658.947 605.766C659.081 605.9 659.084 606.118 658.95 606.253C658.881 606.321 658.791 606.357 658.705 606.357Z" fill="#99D0FF"/>
<path d="M666.555 608.967C666.436 608.967 666.319 608.904 666.256 608.796L664.424 605.686C664.326 605.521 664.38 605.309 664.544 605.213C664.711 605.115 664.923 605.169 665.019 605.333L666.851 608.444C666.95 608.608 666.893 608.82 666.728 608.919C666.673 608.951 666.615 608.967 666.555 608.967Z" fill="#99D0FF"/>
<path d="M672.717 615.962C672.597 615.962 672.484 615.899 672.418 615.791L670.754 612.958C670.655 612.794 670.712 612.582 670.876 612.486C671.041 612.387 671.253 612.444 671.348 612.609L673.016 615.439C673.111 615.603 673.058 615.815 672.893 615.914C672.836 615.946 672.777 615.962 672.717 615.962Z" fill="#99D0FF"/>
<path fill-rule="evenodd" clip-rule="evenodd" d="M444.395 661.652C442.706 661.652 441.332 660.278 441.332 658.586V657.815C441.332 656.456 440.83 655.132 439.886 653.99C438.947 652.861 438.475 651.426 438.55 649.956C438.702 646.989 441.15 644.559 444.117 644.419C445.734 644.344 447.267 644.918 448.435 646.032C449.604 647.147 450.246 648.65 450.246 650.267C450.246 651.656 449.75 653.004 448.845 654.062C447.951 655.105 447.458 656.378 447.458 657.645V658.586C447.458 660.278 446.083 661.652 444.395 661.652ZM444.398 645.052C444.314 645.052 444.231 645.054 444.147 645.058C441.502 645.181 439.324 647.347 439.189 649.989C439.12 651.301 439.542 652.577 440.376 653.581C441.404 654.824 441.968 656.327 441.968 657.815V658.586C441.968 659.925 443.059 661.013 444.395 661.013C445.734 661.013 446.821 659.925 446.821 658.586V657.645C446.821 656.226 447.368 654.806 448.36 653.647C449.164 652.705 449.61 651.504 449.61 650.267C449.61 648.826 449.036 647.488 447.996 646.492C447.016 645.557 445.746 645.052 444.398 645.052Z" fill="#99D0FF"/>
<path d="M444.715 643.085H444.075V639H444.715V643.085Z" fill="#99D0FF"/>
<path d="M449.726 645.479L449.274 645.027L452.161 642.141L452.612 642.592L449.726 645.479Z" fill="#99D0FF"/>
<path d="M455.658 650.715H451.576V650.078H455.658V650.715Z" fill="#99D0FF"/>
<path d="M439.027 645.387L436.138 642.5L436.589 642.049L439.479 644.936L439.027 645.387Z" fill="#99D0FF"/>
<path d="M437.082 650.584H433V649.947H437.082V650.584Z" fill="#99D0FF"/>
<path d="M446.702 657.106H442.025V656.467H446.702V657.106Z" fill="#99D0FF"/>
<path d="M446.435 659.016H442.222V658.377H446.435V659.016Z" fill="#99D0FF"/>
<path fill-rule="evenodd" clip-rule="evenodd" d="M872.426 678.757H867.708C867.582 678.757 867.468 678.686 867.406 678.57L865.045 674.164C864.985 674.048 864.985 673.906 865.045 673.79L867.406 669.38C867.468 669.264 867.582 669.193 867.708 669.193H872.426C872.552 669.193 872.665 669.264 872.728 669.38L875.089 673.79C875.149 673.906 875.149 674.048 875.089 674.164L872.728 678.57C872.665 678.686 872.552 678.757 872.426 678.757ZM867.905 678.008H872.229L874.389 673.977L872.229 669.942H867.905L865.745 673.977L867.905 678.008Z" fill="#99D0FF"/>
<path fill-rule="evenodd" clip-rule="evenodd" d="M879.514 674.261H874.796C874.67 674.261 874.556 674.19 874.493 674.074L872.133 669.668C872.073 669.552 872.073 669.41 872.133 669.294L874.493 664.888C874.556 664.772 874.67 664.701 874.796 664.701H879.514C879.64 664.701 879.753 664.772 879.816 664.888L882.177 669.294C882.237 669.41 882.237 669.552 882.177 669.668L879.816 674.074C879.753 674.19 879.64 674.261 879.514 674.261ZM874.993 673.516H879.317L881.477 669.481L879.317 665.449H874.993L872.833 669.481L874.993 673.516Z" fill="#99D0FF"/>
<path fill-rule="evenodd" clip-rule="evenodd" d="M880.849 684.959H876.131C876.005 684.959 875.891 684.888 875.828 684.771L873.468 680.366C873.408 680.249 873.408 680.108 873.468 679.991L875.828 675.582C875.891 675.469 876.005 675.398 876.131 675.398H880.849C880.975 675.398 881.088 675.469 881.151 675.582L883.512 679.991C883.572 680.108 883.572 680.249 883.512 680.366L881.151 684.771C881.088 684.888 880.975 684.959 880.849 684.959ZM876.328 684.21H880.651L882.812 680.178L880.651 676.144H876.328L874.168 680.178L876.328 684.21Z" fill="#99D0FF"/>
<path d="M879.515 665.449C879.449 665.449 879.385 665.427 879.323 665.384C879.165 665.271 879.123 665.039 879.227 664.868L880.894 662.168C880.999 661.994 881.214 661.949 881.373 662.062C881.534 662.178 881.576 662.41 881.471 662.581L879.805 665.281C879.739 665.387 879.628 665.449 879.515 665.449Z" fill="#99D0FF"/>
<path d="M865.67 681.805C865.598 681.805 865.53 681.781 865.466 681.734C865.314 681.614 865.278 681.382 865.389 681.214L867.426 678.163C867.537 677.999 867.752 677.96 867.908 678.079C868.063 678.202 868.099 678.434 867.989 678.602L865.951 681.65C865.882 681.753 865.778 681.805 865.67 681.805Z" fill="#99D0FF"/>
<path d="M867.708 669.942C867.618 669.942 867.531 669.907 867.462 669.836L865.428 667.675C865.29 667.529 865.29 667.294 865.425 667.146C865.556 667 865.778 666.997 865.913 667.142L867.95 669.303C868.085 669.449 868.088 669.684 867.953 669.829C867.884 669.903 867.794 669.942 867.708 669.942Z" fill="#99D0FF"/>
<path d="M875.568 672.757C875.449 672.757 875.332 672.689 875.269 672.573L873.435 669.215C873.336 669.038 873.39 668.809 873.555 668.706C873.722 668.599 873.935 668.657 874.031 668.835L875.865 672.192C875.963 672.37 875.907 672.599 875.742 672.705C875.686 672.74 875.628 672.757 875.568 672.757Z" fill="#99D0FF"/>
<path d="M881.737 680.307C881.617 680.307 881.504 680.24 881.438 680.124L879.771 677.066C879.673 676.889 879.729 676.66 879.894 676.556C880.059 676.45 880.271 676.511 880.367 676.689L882.036 679.743C882.132 679.92 882.078 680.149 881.914 680.256C881.856 680.29 881.797 680.307 881.737 680.307Z" fill="#99D0FF"/>
<path fill-rule="evenodd" clip-rule="evenodd" d="M407.426 146.757H402.708C402.582 146.757 402.468 146.686 402.406 146.57L400.045 142.164C399.985 142.048 399.985 141.906 400.045 141.79L402.406 137.38C402.468 137.264 402.582 137.193 402.708 137.193H407.426C407.552 137.193 407.665 137.264 407.728 137.38L410.089 141.79C410.149 141.906 410.149 142.048 410.089 142.164L407.728 146.57C407.665 146.686 407.552 146.757 407.426 146.757ZM402.905 146.008H407.229L409.389 141.977L407.229 137.942H402.905L400.745 141.977L402.905 146.008Z" fill="#99D0FF"/>
<path fill-rule="evenodd" clip-rule="evenodd" d="M414.514 142.261H409.796C409.67 142.261 409.556 142.19 409.493 142.074L407.133 137.668C407.073 137.552 407.073 137.41 407.133 137.294L409.493 132.888C409.556 132.772 409.67 132.701 409.796 132.701H414.514C414.64 132.701 414.753 132.772 414.816 132.888L417.177 137.294C417.237 137.41 417.237 137.552 417.177 137.668L414.816 142.074C414.753 142.19 414.64 142.261 414.514 142.261ZM409.993 141.516H414.317L416.477 137.481L414.317 133.449H409.993L407.833 137.481L409.993 141.516Z" fill="#99D0FF"/>
<path fill-rule="evenodd" clip-rule="evenodd" d="M415.849 152.959H411.131C411.005 152.959 410.891 152.888 410.828 152.771L408.468 148.366C408.408 148.249 408.408 148.108 408.468 147.991L410.828 143.582C410.891 143.469 411.005 143.398 411.131 143.398H415.849C415.975 143.398 416.088 143.469 416.151 143.582L418.512 147.991C418.572 148.108 418.572 148.249 418.512 148.366L416.151 152.771C416.088 152.888 415.975 152.959 415.849 152.959ZM411.328 152.21H415.651L417.812 148.178L415.651 144.144H411.328L409.168 148.178L411.328 152.21Z" fill="#99D0FF"/>
<path d="M414.515 133.449C414.449 133.449 414.385 133.427 414.323 133.384C414.165 133.271 414.123 133.039 414.227 132.868L415.894 130.168C415.999 129.994 416.214 129.949 416.373 130.062C416.534 130.178 416.576 130.41 416.471 130.581L414.805 133.281C414.739 133.387 414.628 133.449 414.515 133.449Z" fill="#99D0FF"/>
<path d="M400.67 149.805C400.598 149.805 400.53 149.781 400.466 149.734C400.314 149.614 400.278 149.382 400.389 149.214L402.426 146.163C402.537 145.999 402.752 145.96 402.908 146.079C403.063 146.202 403.099 146.434 402.989 146.602L400.951 149.65C400.882 149.753 400.778 149.805 400.67 149.805Z" fill="#99D0FF"/>
<path d="M402.708 137.942C402.618 137.942 402.531 137.907 402.462 137.836L400.428 135.675C400.29 135.529 400.29 135.294 400.425 135.146C400.556 135 400.778 134.997 400.913 135.142L402.95 137.303C403.085 137.449 403.088 137.684 402.953 137.829C402.884 137.903 402.794 137.942 402.708 137.942Z" fill="#99D0FF"/>
<path d="M410.568 140.757C410.449 140.757 410.332 140.689 410.269 140.573L408.435 137.215C408.336 137.038 408.39 136.809 408.555 136.706C408.722 136.599 408.935 136.657 409.031 136.835L410.865 140.192C410.963 140.37 410.907 140.599 410.742 140.705C410.686 140.74 410.628 140.757 410.568 140.757Z" fill="#99D0FF"/>
<path d="M416.737 148.307C416.617 148.307 416.504 148.24 416.438 148.124L414.771 145.066C414.673 144.889 414.729 144.66 414.894 144.556C415.059 144.45 415.271 144.511 415.367 144.689L417.036 147.743C417.132 147.92 417.078 148.149 416.914 148.256C416.856 148.29 416.797 148.307 416.737 148.307Z" fill="#99D0FF"/>
<path fill-rule="evenodd" clip-rule="evenodd" d="M727.426 94.7567H722.708C722.582 94.7567 722.468 94.6857 722.406 94.5696L720.045 90.1637C719.985 90.0476 719.985 89.9057 720.045 89.7896L722.406 85.3804C722.468 85.2643 722.582 85.1934 722.708 85.1934H727.426C727.552 85.1934 727.665 85.2643 727.728 85.3804L730.089 89.7896C730.149 89.9057 730.149 90.0476 730.089 90.1637L727.728 94.5696C727.665 94.6857 727.552 94.7567 727.426 94.7567ZM722.905 94.0084H727.229L729.389 89.9766L727.229 85.9417H722.905L720.745 89.9766L722.905 94.0084Z" fill="#99D0FF"/>
<path fill-rule="evenodd" clip-rule="evenodd" d="M734.514 90.2613H729.796C729.67 90.2613 729.556 90.1903 729.493 90.0742L727.133 85.6683C727.073 85.5522 727.073 85.4103 727.133 85.2941L729.493 80.8883C729.556 80.7721 729.67 80.7012 729.796 80.7012H734.514C734.64 80.7012 734.753 80.7721 734.816 80.8883L737.177 85.2941C737.237 85.4103 737.237 85.5522 737.177 85.6683L734.816 90.0742C734.753 90.1903 734.64 90.2613 734.514 90.2613ZM729.993 89.5162H734.317L736.477 85.4812L734.317 81.4495H729.993L727.833 85.4812L729.993 89.5162Z" fill="#99D0FF"/>
<path fill-rule="evenodd" clip-rule="evenodd" d="M735.849 100.959H731.131C731.005 100.959 730.891 100.888 730.828 100.771L728.468 96.3656C728.408 96.2494 728.408 96.1075 728.468 95.9914L730.828 91.5823C730.891 91.4694 731.005 91.3984 731.131 91.3984H735.849C735.975 91.3984 736.088 91.4694 736.151 91.5823L738.512 95.9914C738.572 96.1075 738.572 96.2494 738.512 96.3656L736.151 100.771C736.088 100.888 735.975 100.959 735.849 100.959ZM731.328 100.21H735.651L737.812 96.1785L735.651 92.1435H731.328L729.168 96.1785L731.328 100.21Z" fill="#99D0FF"/>
<path d="M734.515 81.4485C734.449 81.4485 734.385 81.427 734.323 81.384C734.165 81.2711 734.123 81.0389 734.227 80.868L735.894 78.1683C735.999 77.9941 736.214 77.949 736.373 78.0619C736.534 78.178 736.576 78.4102 736.471 78.5812L734.805 81.2808C734.739 81.3873 734.628 81.4485 734.515 81.4485Z" fill="#99D0FF"/>
<path d="M720.67 97.8046C720.598 97.8046 720.53 97.7809 720.466 97.7336C720.314 97.6142 720.278 97.382 720.389 97.2143L722.426 94.1631C722.537 93.9986 722.752 93.9599 722.908 94.0792C723.063 94.2018 723.099 94.434 722.989 94.6017L720.951 97.6497C720.882 97.7529 720.778 97.8046 720.67 97.8046Z" fill="#99D0FF"/>
<path d="M722.708 85.9421C722.618 85.9421 722.531 85.9066 722.462 85.8356L720.428 83.6746C720.29 83.5295 720.29 83.294 720.425 83.1456C720.556 83.0005 720.778 82.9973 720.913 83.1424L722.95 85.3034C723.085 85.4486 723.088 85.684 722.953 85.8292C722.884 85.9034 722.794 85.9421 722.708 85.9421Z" fill="#99D0FF"/>
<path d="M730.568 88.7567C730.449 88.7567 730.332 88.689 730.269 88.5729L728.435 85.2152C728.336 85.0379 728.39 84.8089 728.555 84.7056C728.722 84.5992 728.935 84.6573 729.031 84.8347L730.865 88.1923C730.963 88.3697 730.907 88.5987 730.742 88.7051C730.686 88.7395 730.628 88.7567 730.568 88.7567Z" fill="#99D0FF"/>
<path d="M736.737 96.3075C736.617 96.3075 736.504 96.2398 736.438 96.1236L734.771 93.066C734.673 92.8886 734.729 92.6596 734.894 92.5563C735.059 92.4499 735.271 92.5112 735.367 92.6886L737.036 95.7431C737.132 95.9204 737.078 96.1494 736.914 96.2559C736.856 96.2903 736.797 96.3075 736.737 96.3075Z" fill="#99D0FF"/>
</g>
</g>
<defs>
<filter id="filter0_f_1019_7086" x="1447.99" y="-393.343" width="786.683" height="786.683" filterUnits="userSpaceOnUse" color-interpolation-filters="sRGB">
<feFlood flood-opacity="0" result="BackgroundImageFix"/>
<feBlend mode="normal" in="SourceGraphic" in2="BackgroundImageFix" result="shape"/>
<feGaussianBlur stdDeviation="78.6684" result="effect1_foregroundBlur_1019_7086"/>
</filter>
<filter id="filter1_f_1019_7086" x="1447.99" y="-393.343" width="786.683" height="786.683" filterUnits="userSpaceOnUse" color-interpolation-filters="sRGB">
<feFlood flood-opacity="0" result="BackgroundImageFix"/>
<feBlend mode="normal" in="SourceGraphic" in2="BackgroundImageFix" result="shape"/>
<feGaussianBlur stdDeviation="78.6684" result="effect1_foregroundBlur_1019_7086"/>
</filter>
<filter id="filter2_f_1019_7086" x="-275.337" y="254.663" width="610.673" height="610.673" filterUnits="userSpaceOnUse" color-interpolation-filters="sRGB">
<feFlood flood-opacity="0" result="BackgroundImageFix"/>
<feBlend mode="normal" in="SourceGraphic" in2="BackgroundImageFix" result="shape"/>
<feGaussianBlur stdDeviation="78.6684" result="effect1_foregroundBlur_1019_7086"/>
</filter>
<linearGradient id="paint0_linear_1019_7086" x1="0" y1="0" x2="504.842" y2="1297.59" gradientUnits="userSpaceOnUse">
<stop stop-color="white"/>
<stop offset="0.125" stop-color="#FCFDFE"/>
<stop offset="0.25" stop-color="#F9FBFD"/>
<stop offset="0.375" stop-color="#F7FAFC"/>
<stop offset="0.5" stop-color="#F4F8FB"/>
<stop offset="0.625" stop-color="#F7FAFC"/>
<stop offset="0.75" stop-color="#F9FBFD"/>
<stop offset="0.875" stop-color="#FCFDFE"/>
<stop offset="1" stop-color="white"/>
</linearGradient>
<clipPath id="clip0_1019_7086">
<rect width="1920" height="747" fill="white"/>
</clipPath>
<clipPath id="clip1_1019_7086">
<rect width="1920" height="747" fill="white"/>
</clipPath>
</defs>
</svg>
