<svg width="50" height="50" viewBox="0 0 50 50" fill="none" xmlns="http://www.w3.org/2000/svg">
<path d="M40.9731 26.6323C40.9731 36.8756 33.8028 41.9972 25.2804 44.9678C24.8341 45.119 24.3493 45.1118 23.9078 44.9473C15.3649 41.9972 8.19458 36.8756 8.19458 26.6323V12.2917C8.19458 11.7484 8.41042 11.2273 8.79462 10.8431C9.17882 10.4589 9.6999 10.2431 10.2432 10.2431C14.3405 10.2431 19.4622 7.78469 23.0268 4.67074C23.4609 4.29993 24.013 4.09619 24.5838 4.09619C25.1547 4.09619 25.7068 4.29993 26.1408 4.67074C29.7259 7.80518 34.8271 10.2431 38.9244 10.2431C39.4677 10.2431 39.9888 10.4589 40.373 10.8431C40.7572 11.2273 40.9731 11.7484 40.9731 12.2917V26.6323Z" stroke="#1E88E5" stroke-width="4.09731" stroke-linecap="round" stroke-linejoin="round"/>
<path d="M18.438 24.5841L22.5353 28.6814L30.7299 20.4868" stroke="#1E88E5" stroke-width="4.09731" stroke-linecap="round" stroke-linejoin="round"/>
</svg>
