<svg width="680" height="411" viewBox="0 0 680 411" fill="none" xmlns="http://www.w3.org/2000/svg">
<path d="M397.986 319.748C397.986 351.809 371.975 377.82 339.914 377.82C307.824 377.82 281.813 351.809 281.813 319.748C281.813 287.686 307.824 261.676 339.914 261.676C371.975 261.676 397.986 287.686 397.986 319.748Z" fill="#E6E6E6"/>
<path fill-rule="evenodd" clip-rule="evenodd" d="M407.163 319.748C407.163 356.915 377.051 387.026 339.914 387.026C302.748 387.026 272.637 356.915 272.637 319.748C272.637 282.582 302.748 252.471 339.914 252.471C377.051 252.471 407.163 282.582 407.163 319.748ZM294.432 274.294C282.301 286.425 275.619 302.57 275.619 319.748C275.619 336.926 282.301 353.072 294.432 365.202C306.591 377.333 322.736 384.044 339.914 384.044C357.063 384.044 373.209 377.333 385.368 365.202C397.498 353.072 404.18 336.926 404.18 319.748C404.18 302.57 397.498 286.425 385.368 274.294C373.209 262.164 357.063 255.453 339.914 255.453C322.736 255.453 306.591 262.164 294.432 274.294Z" fill="#E6E6E6"/>
<path d="M272.722 313.984C275.905 313.984 278.458 316.565 278.458 319.749C278.458 322.932 275.905 325.513 272.722 325.513C269.539 325.513 266.958 322.932 266.958 319.749C266.958 316.565 269.539 313.984 272.722 313.984Z" fill="#1E88E5"/>
<path d="M272.722 321.24H145.193V318.258H272.722V321.24Z" fill="#1E88E5"/>
<path d="M182.503 319.252C182.503 369.639 141.638 410.504 91.2517 410.504C40.8654 410.504 0 369.639 0 319.252C0 268.866 40.8654 228 91.2517 228C141.638 228 182.503 268.866 182.503 319.252Z" fill="#1E88E5"/>
<path d="M296.009 268.242C298.245 270.479 298.245 274.15 296.009 276.387C293.772 278.623 290.101 278.623 287.864 276.387C285.599 274.15 285.599 270.479 287.864 268.242C290.101 265.977 293.772 265.977 296.009 268.242Z" fill="#F2C200"/>
<path d="M290.875 273.376L200.713 183.214L202.806 181.092L292.997 271.254L290.875 273.376Z" fill="#F2C200"/>
<path d="M252.503 141.281C252.503 191.667 211.638 232.533 161.252 232.533C110.837 232.533 70 191.667 70 141.281C70 90.8656 110.837 50 161.252 50C211.638 50 252.503 90.8656 252.503 141.281Z" fill="#F2C200"/>
<path d="M345.649 252.471C345.649 255.654 343.068 258.235 339.914 258.235C336.73 258.235 334.149 255.654 334.149 252.471C334.149 249.288 336.73 246.707 339.914 246.707C343.068 246.707 345.649 249.288 345.649 252.471Z" fill="#B007ED"/>
<path d="M341.405 252.469H338.394V124.969H341.405V252.469Z" fill="#B007ED"/>
<path d="M431.532 93.2521C431.532 143.639 390.667 184.504 340.28 184.504C289.865 184.504 249 143.639 249 93.2521C249 42.8369 289.865 2 340.28 2C390.667 2 431.532 42.8369 431.532 93.2521Z" fill="#B007ED"/>
<path d="M383.991 268.242C381.754 270.479 381.754 274.15 383.991 276.387C386.228 278.623 389.899 278.623 392.136 276.387C394.401 274.15 394.401 270.479 392.136 268.242C389.899 265.977 386.228 265.977 383.991 268.242Z" fill="#BC4923"/>
<path d="M389.124 273.376L387.002 271.254L477.193 181.092L479.286 183.214L389.124 273.376Z" fill="#BC4923"/>
<path d="M427 147.253C427 197.64 467.865 238.506 518.252 238.506C568.667 238.506 609.503 197.64 609.503 147.253C609.503 96.8382 568.667 55.9727 518.252 55.9727C467.865 55.9727 427 96.8382 427 147.253Z" fill="#BC4923"/>
<path d="M407.277 313.984C404.093 313.984 401.541 316.565 401.541 319.749C401.541 322.932 404.093 325.513 407.277 325.513C410.46 325.513 413.041 322.932 413.041 319.749C413.041 316.565 410.46 313.984 407.277 313.984Z" fill="#17AD87"/>
<path d="M534.806 321.24H407.277V318.258H534.806V321.24Z" fill="#17AD87"/>
<path d="M497 319.748C497 370.135 537.865 411 588.252 411C638.638 411 679.503 370.135 679.503 319.748C679.503 269.362 638.638 228.496 588.252 228.496C537.865 228.496 497 269.362 497 319.748Z" fill="#17AD87"/>
</svg>
