<svg width="40" height="40" viewBox="0 0 40 40" fill="none" xmlns="http://www.w3.org/2000/svg">
<path d="M3.33325 11.6666L10.6833 4.31659C10.9933 4.00464 11.3621 3.75715 11.7683 3.58838C12.1745 3.41961 12.6101 3.3329 13.0499 3.33325H26.9499C27.3898 3.3329 27.8253 3.41961 28.2315 3.58838C28.6377 3.75715 29.0065 4.00464 29.3166 4.31659L36.6666 11.6666" stroke="#1E88E5" stroke-width="3.27785" stroke-linecap="round" stroke-linejoin="round"/>
<path d="M6.66699 20V33.3333C6.66699 34.2174 7.01818 35.0652 7.6433 35.6904C8.26842 36.3155 9.11627 36.6667 10.0003 36.6667H30.0003C30.8844 36.6667 31.7322 36.3155 32.3573 35.6904C32.9825 35.0652 33.3337 34.2174 33.3337 33.3333V20" stroke="#1E88E5" stroke-width="3.27785" stroke-linecap="round" stroke-linejoin="round"/>
<path d="M25.0002 36.6667V30.0001C25.0002 29.116 24.6491 28.2682 24.0239 27.6431C23.3988 27.0179 22.551 26.6667 21.6669 26.6667H18.3336C17.4495 26.6667 16.6017 27.0179 15.9766 27.6431C15.3514 28.2682 15.0002 29.116 15.0002 30.0001V36.6667" stroke="#1E88E5" stroke-width="3.27785" stroke-linecap="round" stroke-linejoin="round"/>
<path d="M3.33325 11.6667H36.6666" stroke="#1E88E5" stroke-width="3.27785" stroke-linecap="round" stroke-linejoin="round"/>
<path d="M36.6666 11.6667V16.6667C36.6666 17.5508 36.3154 18.3986 35.6903 19.0238C35.0652 19.6489 34.2173 20.0001 33.3333 20.0001C32.3595 19.9465 31.4295 19.578 30.6833 18.9501C30.4844 18.8064 30.2453 18.729 29.9999 18.729C29.7546 18.729 29.5155 18.8064 29.3166 18.9501C28.5704 19.578 27.6404 19.9465 26.6666 20.0001C25.6928 19.9465 24.7628 19.578 24.0166 18.9501C23.8177 18.8064 23.5786 18.729 23.3333 18.729C23.0879 18.729 22.8488 18.8064 22.6499 18.9501C21.9037 19.578 20.9737 19.9465 19.9999 20.0001C19.0261 19.9465 18.0961 19.578 17.3499 18.9501C17.1511 18.8064 16.9119 18.729 16.6666 18.729C16.4212 18.729 16.1821 18.8064 15.9833 18.9501C15.237 19.578 14.307 19.9465 13.3333 20.0001C12.3595 19.9465 11.4295 19.578 10.6833 18.9501C10.4844 18.8064 10.2453 18.729 9.99992 18.729C9.75456 18.729 9.51545 18.8064 9.31659 18.9501C8.57037 19.578 7.64036 19.9465 6.66659 20.0001C5.78253 20.0001 4.93468 19.6489 4.30956 19.0238C3.68444 18.3986 3.33325 17.5508 3.33325 16.6667V11.6667" stroke="#1E88E5" stroke-width="3.27785" stroke-linecap="round" stroke-linejoin="round"/>
</svg>
