<svg width="40" height="40" viewBox="0 0 40 40" fill="none" xmlns="http://www.w3.org/2000/svg">
<path d="M5 36.6667H25" stroke="#1E88E5" stroke-width="3.27785" stroke-linecap="round" stroke-linejoin="round"/>
<path d="M6.66699 15H23.3337" stroke="#1E88E5" stroke-width="3.27785" stroke-linecap="round" stroke-linejoin="round"/>
<path d="M23.3337 36.6666V6.66659C23.3337 5.78253 22.9825 4.93468 22.3573 4.30956C21.7322 3.68444 20.8844 3.33325 20.0003 3.33325H10.0003C9.11627 3.33325 8.26842 3.68444 7.6433 4.30956C7.01818 4.93468 6.66699 5.78253 6.66699 6.66659V36.6666" stroke="#1E88E5" stroke-width="3.27785" stroke-linecap="round" stroke-linejoin="round"/>
<path d="M23.3333 21.6666H26.6666C27.5506 21.6666 28.3985 22.0178 29.0236 22.6429C29.6487 23.268 29.9999 24.1159 29.9999 24.9999V28.3333C29.9999 29.2173 30.3511 30.0652 30.9762 30.6903C31.6014 31.3154 32.4492 31.6666 33.3333 31.6666C34.2173 31.6666 35.0652 31.3154 35.6903 30.6903C36.3154 30.0652 36.6666 29.2173 36.6666 28.3333V16.3833C36.6669 15.9434 36.5802 15.5078 36.4115 15.1016C36.2427 14.6955 35.9952 14.3267 35.6833 14.0166L29.9999 8.33325" stroke="#1E88E5" stroke-width="3.27785" stroke-linecap="round" stroke-linejoin="round"/>
</svg>
