<svg width="40" height="40" viewBox="0 0 40 40" fill="none" xmlns="http://www.w3.org/2000/svg">
<path d="M16.6671 36.6668V25.7168" stroke="#1E88E5" stroke-width="3.27785" stroke-linecap="round" stroke-linejoin="round"/>
<path d="M20.0002 18.3333H20.0166" stroke="#1E88E5" stroke-width="3.27785" stroke-linecap="round" stroke-linejoin="round"/>
<path d="M20.0002 11.6667H20.0166" stroke="#1E88E5" stroke-width="3.27785" stroke-linecap="round" stroke-linejoin="round"/>
<path d="M23.3334 25.7168V36.6668" stroke="#1E88E5" stroke-width="3.27785" stroke-linecap="round" stroke-linejoin="round"/>
<path d="M25.0002 26.6667C23.5578 25.5848 21.8033 25 20.0002 25C18.1972 25 16.4427 25.5848 15.0002 26.6667" stroke="#1E88E5" stroke-width="3.27785" stroke-linecap="round" stroke-linejoin="round"/>
<path d="M26.6671 18.3333H26.6835" stroke="#1E88E5" stroke-width="3.27785" stroke-linecap="round" stroke-linejoin="round"/>
<path d="M26.6671 11.6667H26.6835" stroke="#1E88E5" stroke-width="3.27785" stroke-linecap="round" stroke-linejoin="round"/>
<path d="M13.3334 18.3333H13.3498" stroke="#1E88E5" stroke-width="3.27785" stroke-linecap="round" stroke-linejoin="round"/>
<path d="M13.3334 11.6667H13.3498" stroke="#1E88E5" stroke-width="3.27785" stroke-linecap="round" stroke-linejoin="round"/>
<path d="M30.0004 3.33325H10.0004C8.1595 3.33325 6.66711 4.82564 6.66711 6.66659V33.3333C6.66711 35.1742 8.1595 36.6666 10.0004 36.6666H30.0004C31.8414 36.6666 33.3338 35.1742 33.3338 33.3333V6.66659C33.3338 4.82564 31.8414 3.33325 30.0004 3.33325Z" stroke="#1E88E5" stroke-width="3.27785" stroke-linecap="round" stroke-linejoin="round"/>
</svg>
