<svg width="40" height="40" viewBox="0 0 40 40" fill="none" xmlns="http://www.w3.org/2000/svg">
<path d="M26.6664 3.33325L22.8331 7.16659C21.917 8.10123 21.4038 9.35782 21.4038 10.6666C21.4038 11.9753 21.917 13.2319 22.8331 14.1666L25.8331 17.1666C26.7677 18.0827 28.0243 18.5959 29.3331 18.5959C30.6419 18.5959 31.8985 18.0827 32.8331 17.1666L36.6664 13.3333" stroke="#1E88E5" stroke-width="3.27785" stroke-linecap="round" stroke-linejoin="round"/>
<path d="M25.0002 25L5.50019 5.5C4.83499 6.15176 4.30653 6.9297 3.94577 7.78825C3.585 8.64681 3.39917 9.56872 3.39917 10.5C3.39917 11.4313 3.585 12.3532 3.94577 13.2117C4.30653 14.0703 4.83499 14.8482 5.50019 15.5L17.6669 27.6667C18.8335 28.8333 21.0002 28.8333 22.3335 27.6667L25.0002 25ZM25.0002 25L36.6669 36.6667" stroke="#1E88E5" stroke-width="3.27785" stroke-linecap="round" stroke-linejoin="round"/>
<path d="M3.49976 36.3333L14.1664 25.8333" stroke="#1E88E5" stroke-width="3.27785" stroke-linecap="round" stroke-linejoin="round"/>
<path d="M31.6667 8.33325L20 19.9999" stroke="#1E88E5" stroke-width="3.27785" stroke-linecap="round" stroke-linejoin="round"/>
</svg>
