<svg width="40" height="40" viewBox="0 0 40 40" fill="none" xmlns="http://www.w3.org/2000/svg">
<path d="M30.0003 6.66675H10.0003C8.15938 6.66675 6.66699 8.15913 6.66699 10.0001V30.0001C6.66699 31.841 8.15938 33.3334 10.0003 33.3334H30.0003C31.8413 33.3334 33.3337 31.841 33.3337 30.0001V10.0001C33.3337 8.15913 31.8413 6.66675 30.0003 6.66675Z" stroke="#1E88E5" stroke-width="3.27785" stroke-linecap="round" stroke-linejoin="round"/>
<path d="M23.3336 15H16.6669C15.7464 15 15.0002 15.7462 15.0002 16.6667V23.3333C15.0002 24.2538 15.7464 25 16.6669 25H23.3336C24.2541 25 25.0002 24.2538 25.0002 23.3333V16.6667C25.0002 15.7462 24.2541 15 23.3336 15Z" stroke="#1E88E5" stroke-width="3.27785" stroke-linecap="round" stroke-linejoin="round"/>
<path d="M25.0002 3.33325V6.66659" stroke="#1E88E5" stroke-width="3.27785" stroke-linecap="round" stroke-linejoin="round"/>
<path d="M25.0002 33.3333V36.6666" stroke="#1E88E5" stroke-width="3.27785" stroke-linecap="round" stroke-linejoin="round"/>
<path d="M3.33325 25H6.66659" stroke="#1E88E5" stroke-width="3.27785" stroke-linecap="round" stroke-linejoin="round"/>
<path d="M3.33325 15H6.66659" stroke="#1E88E5" stroke-width="3.27785" stroke-linecap="round" stroke-linejoin="round"/>
<path d="M33.3333 25H36.6666" stroke="#1E88E5" stroke-width="3.27785" stroke-linecap="round" stroke-linejoin="round"/>
<path d="M33.3333 15H36.6666" stroke="#1E88E5" stroke-width="3.27785" stroke-linecap="round" stroke-linejoin="round"/>
<path d="M15.0002 3.33325V6.66659" stroke="#1E88E5" stroke-width="3.27785" stroke-linecap="round" stroke-linejoin="round"/>
<path d="M15.0002 33.3333V36.6666" stroke="#1E88E5" stroke-width="3.27785" stroke-linecap="round" stroke-linejoin="round"/>
</svg>
