<svg width="40" height="40" viewBox="0 0 40 40" fill="none" xmlns="http://www.w3.org/2000/svg">
<path d="M18.3334 3.33325V6.66659" stroke="#1E88E5" stroke-width="3.27785" stroke-linecap="round" stroke-linejoin="round"/>
<path d="M8.33337 3.33325V6.66659" stroke="#1E88E5" stroke-width="3.27785" stroke-linecap="round" stroke-linejoin="round"/>
<path d="M8.33337 5H6.66671C5.78265 5 4.93481 5.35119 4.30968 5.97631C3.68456 6.60143 3.33337 7.44928 3.33337 8.33333V15C3.33337 17.6522 4.38694 20.1957 6.26231 22.0711C8.13767 23.9464 10.6812 25 13.3334 25C15.9855 25 18.5291 23.9464 20.4044 22.0711C22.2798 20.1957 23.3334 17.6522 23.3334 15V8.33333C23.3334 7.44928 22.9822 6.60143 22.3571 5.97631C21.7319 5.35119 20.8841 5 20 5H18.3334" stroke="#1E88E5" stroke-width="3.27785" stroke-linecap="round" stroke-linejoin="round"/>
<path d="M13.3334 25C13.3334 27.6522 14.3869 30.1957 16.2623 32.0711C18.1377 33.9464 20.6812 35 23.3334 35C25.9855 35 28.5291 33.9464 30.4044 32.0711C32.2798 30.1957 33.3334 27.6522 33.3334 25V20" stroke="#1E88E5" stroke-width="3.27785" stroke-linecap="round" stroke-linejoin="round"/>
<path d="M33.3336 19.9999C35.1745 19.9999 36.6669 18.5075 36.6669 16.6666C36.6669 14.8256 35.1745 13.3333 33.3336 13.3333C31.4926 13.3333 30.0002 14.8256 30.0002 16.6666C30.0002 18.5075 31.4926 19.9999 33.3336 19.9999Z" stroke="#1E88E5" stroke-width="3.27785" stroke-linecap="round" stroke-linejoin="round"/>
</svg>
