<svg width="28" height="28" viewBox="0 0 28 28" fill="none" xmlns="http://www.w3.org/2000/svg">
<mask id="mask0_856_23479" style="mask-type:luminance" maskUnits="userSpaceOnUse" x="5" y="5" width="18" height="18">
<path d="M5 5H23V23H5V5Z" fill="white"/>
</mask>
<g mask="url(#mask0_856_23479)">
<path d="M22.2971 14C22.2954 14.7399 22.287 15.4798 22.2769 16.2197C22.2647 17.1124 22.2509 18.0054 22.027 18.8828C21.7923 19.8028 21.3293 20.5963 20.6089 21.1837C19.8498 21.8027 18.9323 22.1281 17.942 22.1883C16.6286 22.2682 15.3146 22.2998 14.0006 22.2967C12.6866 22.2998 11.3726 22.2682 10.0592 22.1883C9.06894 22.1281 8.15143 21.8027 7.39234 21.1837C6.67199 20.5963 6.20898 19.8028 5.97421 18.8828C5.75033 18.0054 5.73655 17.1124 5.72435 16.2197C5.71423 15.4798 5.70582 14.7399 5.7041 14C5.70582 13.2601 5.71423 12.5202 5.72435 11.7803C5.73655 10.8877 5.75033 9.99462 5.97421 9.11726C6.20898 8.19722 6.67199 7.40374 7.39234 6.81632C8.15143 6.19729 9.06894 5.87191 10.0592 5.81169C11.3726 5.73182 12.6866 5.70025 14.0006 5.70334C15.3146 5.70025 16.6286 5.73182 17.942 5.81169C18.9323 5.87191 19.8498 6.19729 20.6089 6.81632C21.3293 7.40374 21.7923 8.19722 22.027 9.11726C22.2509 9.99462 22.2647 10.8877 22.2769 11.7803C22.287 12.5202 22.2954 13.2601 22.2971 14Z" stroke="#1E88E5" stroke-width="1.68" stroke-miterlimit="10"/>
<path d="M17.6563 14C17.6563 16.0387 16.0036 17.6914 13.9648 17.6914C11.9261 17.6914 10.2734 16.0387 10.2734 14C10.2734 11.9613 11.9261 10.3086 13.9648 10.3086C16.0036 10.3086 17.6563 11.9613 17.6563 14Z" stroke="#1E88E5" stroke-width="1.68" stroke-miterlimit="10"/>
<path d="M18.8516 9.46875C18.9701 9.46875 19.0664 9.37246 19.0664 9.25391C19.0664 9.13536 18.9701 9.03906 18.8516 9.03906C18.733 9.03906 18.6367 9.13536 18.6367 9.25391C18.6367 9.37246 18.733 9.46875 18.8516 9.46875Z" fill="#1E88E5" stroke="#1E88E5" stroke-width="1.68"/>
</g>
</svg>
