<svg width="30" height="30" viewBox="0 0 30 30" fill="none" xmlns="http://www.w3.org/2000/svg">
<g clip-path="url(#clip0_832_3937)">
<path d="M8.75 20.625L2.5 16.875L8.75 13.125L15 16.875V23.75L8.75 27.5V20.625Z" stroke="#F2C200" stroke-width="2" stroke-linecap="round" stroke-linejoin="round"/>
<path d="M2.5 16.875V23.75L8.75 27.5" stroke="#F2C200" stroke-width="2" stroke-linecap="round" stroke-linejoin="round"/>
<path d="M8.75 20.6811L15 16.8936" stroke="#F2C200" stroke-width="2" stroke-linecap="round" stroke-linejoin="round"/>
<path d="M21.25 20.625L15 16.875L21.25 13.125L27.5 16.875V23.75L21.25 27.5V20.625Z" stroke="#F2C200" stroke-width="2" stroke-linecap="round" stroke-linejoin="round"/>
<path d="M15 23.75L21.25 27.5" stroke="#F2C200" stroke-width="2" stroke-linecap="round" stroke-linejoin="round"/>
<path d="M21.25 20.625L27.5 16.875" stroke="#F2C200" stroke-width="2" stroke-linecap="round" stroke-linejoin="round"/>
<path d="M15 16.875V10L8.75 6.25L15 2.5L21.25 6.25V13.125" stroke="#F2C200" stroke-width="2" stroke-linecap="round" stroke-linejoin="round"/>
<path d="M8.75 6.28711V13.1059" stroke="#F2C200" stroke-width="2" stroke-linecap="round" stroke-linejoin="round"/>
<path d="M15 10L21.25 6.25" stroke="#F2C200" stroke-width="2" stroke-linecap="round" stroke-linejoin="round"/>
</g>
<defs>
<clipPath id="clip0_832_3937">
<rect width="30" height="30" fill="white"/>
</clipPath>
</defs>
</svg>
