<svg width="28" height="28" viewBox="0 0 28 28" fill="none" xmlns="http://www.w3.org/2000/svg">
<path d="M4.66699 7.00033C4.66699 6.38149 4.91282 5.78799 5.35041 5.35041C5.78799 4.91282 6.38149 4.66699 7.00033 4.66699H21.0003C21.6192 4.66699 22.2127 4.91282 22.6502 5.35041C23.0878 5.78799 23.3337 6.38149 23.3337 7.00033V21.0003C23.3337 21.6192 23.0878 22.2127 22.6502 22.6502C22.2127 23.0878 21.6192 23.3337 21.0003 23.3337H7.00033C6.38149 23.3337 5.78799 23.0878 5.35041 22.6502C4.91282 22.2127 4.66699 21.6192 4.66699 21.0003V7.00033Z" stroke="#1E88E5" stroke-width="1.68" stroke-linecap="round" stroke-linejoin="round"/>
<path d="M9.33203 12.8335V18.6668" stroke="#1E88E5" stroke-width="1.68" stroke-linecap="round" stroke-linejoin="round"/>
<path d="M9.33203 9.3335V9.34451" stroke="#1E88E5" stroke-width="1.68" stroke-linecap="round" stroke-linejoin="round"/>
<path d="M14 18.6668V12.8335" stroke="#1E88E5" stroke-width="1.68" stroke-linecap="round" stroke-linejoin="round"/>
<path d="M18.6667 18.6668V15.1668C18.6667 14.548 18.4208 13.9545 17.9832 13.5169C17.5457 13.0793 16.9522 12.8335 16.3333 12.8335C15.7145 12.8335 15.121 13.0793 14.6834 13.5169C14.2458 13.9545 14 14.548 14 15.1668" stroke="#1E88E5" stroke-width="1.68" stroke-linecap="round" stroke-linejoin="round"/>
</svg>
