<svg width="40" height="40" viewBox="0 0 40 40" fill="none" xmlns="http://www.w3.org/2000/svg">
<g clip-path="url(#clip0_1018_14323)">
<path d="M20 40C31.0457 40 40 31.0457 40 20C40 8.95431 31.0457 0 20 0C8.95431 0 0 8.95431 0 20C0 31.0457 8.95431 40 20 40Z" fill="#0B69C7"/>
<path d="M38.4762 27.6712C37.0455 31.115 34.6804 34.0903 31.6481 36.261C28.6157 38.4317 25.0369 39.7113 21.3157 39.9554L11.3604 30.0001L13.7104 17.4896L10.6841 14.4738L14.5209 10.6133L22.3472 18.4396L22.8183 17.9685L28.3262 17.5238L38.4762 27.6712Z" fill="url(#paint0_linear_1018_14323)"/>
<path d="M15.5261 12.7289C15.5267 13.2694 15.3668 13.7979 15.0669 14.2475C14.7669 14.6971 14.3404 15.0477 13.8411 15.2547C13.3419 15.4618 12.7924 15.5161 12.2623 15.4108C11.7322 15.3055 11.2452 15.0453 10.8631 14.6631C10.4809 14.2809 10.2207 13.794 10.1153 13.2638C10.01 12.7337 10.0643 12.1843 10.2714 11.685C10.4785 11.1858 10.829 10.7592 11.2786 10.4593C11.7282 10.1593 12.2567 9.99948 12.7972 10C13.5207 10.0007 14.2145 10.2884 14.7261 10.8001C15.2377 11.3117 15.5255 12.0054 15.5261 12.7289Z" fill="white"/>
<path d="M14.2341 16.5977H11.3604C10.9869 16.5977 10.6841 16.9005 10.6841 17.274V29.324C10.6841 29.6975 10.9869 30.0003 11.3604 30.0003H14.2341C14.6076 30.0003 14.9104 29.6975 14.9104 29.324V17.274C14.9104 16.9005 14.6076 16.5977 14.2341 16.5977Z" fill="white"/>
<path d="M29.934 23.5451V29.3793C29.934 29.5441 29.8686 29.702 29.7521 29.8185C29.6357 29.935 29.4777 30.0004 29.313 30.0004H26.2288C26.0641 30.0004 25.9061 29.935 25.7896 29.8185C25.6732 29.702 25.6077 29.5441 25.6077 29.3793V23.7267C25.6077 22.882 25.8525 20.0425 23.4025 20.0425C21.5025 20.0425 21.1156 21.9951 21.034 22.8714V29.3925C21.0306 29.554 20.9644 29.7078 20.8494 29.8213C20.7345 29.9348 20.5798 29.9991 20.4183 30.0004H17.434C17.3524 30.0007 17.2715 29.9849 17.196 29.9538C17.1205 29.9227 17.0519 29.877 16.9941 29.8193C16.9364 29.7615 16.8906 29.6929 16.8596 29.6174C16.8285 29.5419 16.8126 29.461 16.813 29.3793V17.2214C16.8126 17.1397 16.8285 17.0586 16.8595 16.983C16.8906 16.9073 16.9363 16.8385 16.994 16.7806C17.0517 16.7226 17.1202 16.6767 17.1958 16.6453C17.2713 16.6139 17.3523 16.5978 17.434 16.5978H20.4183C20.501 16.5964 20.5833 16.6115 20.6602 16.6422C20.7371 16.6729 20.8071 16.7186 20.8661 16.7767C20.9251 16.8347 20.972 16.904 21.004 16.9803C21.036 17.0567 21.0525 17.1386 21.0525 17.2214V18.2741C21.7577 17.2214 22.8051 16.4004 25.034 16.4004C29.963 16.3978 29.934 21.0109 29.934 23.5451Z" fill="white"/>
</g>
<defs>
<linearGradient id="paint0_linear_1018_14323" x1="13.7183" y1="18.5185" x2="32.2157" y2="35.5475" gradientUnits="userSpaceOnUse">
<stop stop-color="#084A8C"/>
<stop offset="0.19" stop-color="#084A8C" stop-opacity="0.84"/>
<stop offset="0.6" stop-color="#084A8C" stop-opacity="0.42"/>
<stop offset="0.97" stop-color="#084A8C" stop-opacity="0"/>
</linearGradient>
<clipPath id="clip0_1018_14323">
<rect width="40" height="40" fill="white"/>
</clipPath>
</defs>
</svg>
