<svg width="30" height="30" viewBox="0 0 30 30" fill="none" xmlns="http://www.w3.org/2000/svg">
<path d="M5.54492 26.7627H17.1598C18.0995 26.7627 19.0102 26.4375 19.7373 25.8423L27.5856 19.4178C28.3907 18.7599 28.5183 17.5801 27.8787 16.766C27.2188 15.926 25.9728 15.815 25.1456 16.4909L19.4519 21.1427" stroke="#1E88E5" stroke-width="1.75781" stroke-miterlimit="10" stroke-linecap="round" stroke-linejoin="round"/>
<path d="M11.5205 22.13H17.7289C18.7811 22.13 19.6341 21.277 19.6341 20.2248C19.6341 19.1727 18.7811 18.3197 17.7289 18.3197H14.3807C13.4251 18.3197 12.4733 18.1752 11.5671 17.8718C10.9774 17.6744 10.1475 17.4863 9.12601 17.4863C6.97547 17.4863 5.42969 18.3197 5.42969 18.3197" stroke="#1E88E5" stroke-width="1.75781" stroke-miterlimit="10" stroke-linecap="round" stroke-linejoin="round"/>
<path d="M0.878906 18.3195L0.878906 29H5.43103L5.43103 18.3195H0.878906Z" stroke="#1E88E5" stroke-width="1.75781" stroke-miterlimit="10" stroke-linecap="round" stroke-linejoin="round"/>
<path d="M19.9484 16.098C22.9117 13.1347 22.9117 8.33017 19.9484 5.36685C16.985 2.40353 12.1805 2.40353 9.21717 5.36685C6.25383 8.33017 6.25383 13.1347 9.21717 16.098C12.1805 19.0613 16.985 19.0613 19.9484 16.098Z" stroke="#1E88E5" stroke-width="1.75781" stroke-miterlimit="10" stroke-linecap="round" stroke-linejoin="round"/>
<path d="M15.9527 7.91417C15.5511 7.67831 14.5837 7.24749 13.8369 7.55737C12.8364 7.9725 12.6563 9.10371 13.3719 9.82588C13.817 10.275 14.3066 10.3554 15.1204 10.6643C16.1374 11.0503 16.5042 11.9329 16.2648 12.7474C16.0606 13.4417 15.3917 13.9466 14.4957 13.9466C13.9451 13.9466 13.3359 13.7661 12.832 13.4269" stroke="#1E88E5" stroke-width="1.75781" stroke-miterlimit="10" stroke-linecap="round" stroke-linejoin="round"/>
<path d="M14.582 14.0449V14.8911" stroke="#1E88E5" stroke-width="1.75781" stroke-miterlimit="10" stroke-linecap="round" stroke-linejoin="round"/>
<path d="M14.582 6.57031V7.37385" stroke="#1E88E5" stroke-width="1.75781" stroke-miterlimit="10" stroke-linecap="round" stroke-linejoin="round"/>
</svg>
