<svg width="30" height="30" viewBox="0 0 30 30" fill="none" xmlns="http://www.w3.org/2000/svg">
<g clip-path="url(#clip0_1113_6288)">
<path d="M5.66602 26.7627H17.2809C18.2206 26.7627 19.1313 26.4375 19.8584 25.8423L27.7066 19.4178C28.5118 18.7599 28.6394 17.5801 27.9998 16.766C27.3398 15.926 26.0939 15.815 25.2667 16.4909L19.573 21.1427" stroke="#B007ED" stroke-width="1.75781" stroke-miterlimit="10" stroke-linecap="round" stroke-linejoin="round"/>
<path d="M11.6426 22.13H17.851C18.9032 22.13 19.7561 21.277 19.7561 20.2248C19.7561 19.1727 18.9032 18.3197 17.851 18.3197H14.5028C13.5472 18.3197 12.5954 18.1752 11.6892 17.8718C11.0994 17.6744 10.2696 17.4863 9.24808 17.4863C7.09754 17.4863 5.55176 18.3197 5.55176 18.3197" stroke="#B007ED" stroke-width="1.75781" stroke-miterlimit="10" stroke-linecap="round" stroke-linejoin="round"/>
<path d="M1 18.3195L1 29H5.55212L5.55212 18.3195H1Z" stroke="#B007ED" stroke-width="1.75781" stroke-miterlimit="10" stroke-linecap="round" stroke-linejoin="round"/>
<path d="M20.0685 16.098C23.0318 13.1347 23.0318 8.33017 20.0685 5.36685C17.1052 2.40353 12.3006 2.40353 9.33729 5.36685C6.37394 8.33017 6.37394 13.1347 9.33729 16.098C12.3006 19.0613 17.1052 19.0613 20.0685 16.098Z" stroke="#B007ED" stroke-width="1.75781" stroke-miterlimit="10" stroke-linecap="round" stroke-linejoin="round"/>
<path d="M16.0738 7.91417C15.6721 7.67831 14.7048 7.24749 13.958 7.55737C12.9574 7.9725 12.7774 9.10371 13.493 9.82588C13.938 10.275 14.4277 10.3554 15.2415 10.6643C16.2585 11.0503 16.6253 11.9329 16.3858 12.7474C16.1817 13.4417 15.5128 13.9466 14.6168 13.9466C14.0661 13.9466 13.457 13.7661 12.9531 13.4269" stroke="#B007ED" stroke-width="1.75781" stroke-miterlimit="10" stroke-linecap="round" stroke-linejoin="round"/>
<path d="M14.7021 14.0449V14.8911" stroke="#B007ED" stroke-width="1.75781" stroke-miterlimit="10" stroke-linecap="round" stroke-linejoin="round"/>
<path d="M14.7021 6.57031V7.37385" stroke="#B007ED" stroke-width="1.75781" stroke-miterlimit="10" stroke-linecap="round" stroke-linejoin="round"/>
</g>
<defs>
<clipPath id="clip0_1113_6288">
<rect width="30" height="30" fill="white"/>
</clipPath>
</defs>
</svg>
