<svg width="30" height="30" viewBox="0 0 30 30" fill="none" xmlns="http://www.w3.org/2000/svg">
<path d="M24.9998 12.5C24.9998 18.7413 18.0761 25.2412 15.7511 27.2487C15.5345 27.4116 15.2708 27.4997 14.9998 27.4997C14.7288 27.4997 14.4652 27.4116 14.2486 27.2487C11.9236 25.2412 4.99982 18.7413 4.99982 12.5C4.99982 9.84784 6.05339 7.3043 7.92875 5.42893C9.80411 3.55357 12.3477 2.5 14.9998 2.5C17.652 2.5 20.1955 3.55357 22.0709 5.42893C23.9462 7.3043 24.9998 9.84784 24.9998 12.5Z" stroke="#00CFD9" stroke-width="2.45839" stroke-linecap="round" stroke-linejoin="round"/>
<path d="M14.9998 16.25C17.0709 16.25 18.7498 14.5711 18.7498 12.5C18.7498 10.4289 17.0709 8.75 14.9998 8.75C12.9287 8.75 11.2498 10.4289 11.2498 12.5C11.2498 14.5711 12.9287 16.25 14.9998 16.25Z" stroke="#00CFD9" stroke-width="2.45839" stroke-linecap="round" stroke-linejoin="round"/>
</svg>
