<svg width="30" height="30" viewBox="0 0 30 30" fill="none" xmlns="http://www.w3.org/2000/svg">
<path d="M18.7502 2.5H7.50024C6.8372 2.5 6.20132 2.76339 5.73248 3.23223C5.26364 3.70107 5.00024 4.33696 5.00024 5V25C5.00024 25.663 5.26364 26.2989 5.73248 26.7678C6.20132 27.2366 6.8372 27.5 7.50024 27.5H22.5002C23.1633 27.5 23.7992 27.2366 24.268 26.7678C24.7369 26.2989 25.0002 25.663 25.0002 25V8.75L18.7502 2.5Z" stroke="#1E88E5" stroke-width="2" stroke-linecap="round" stroke-linejoin="round"/>
<path d="M17.5002 2.5V7.5C17.5002 8.16304 17.7636 8.79893 18.2325 9.26777C18.7013 9.73661 19.3372 10 20.0002 10H25.0002" stroke="#1E88E5" stroke-width="2" stroke-linecap="round" stroke-linejoin="round"/>
<path d="M12.5002 11.25H10.0002" stroke="#1E88E5" stroke-width="2" stroke-linecap="round" stroke-linejoin="round"/>
<path d="M20.0002 16.25H10.0002" stroke="#1E88E5" stroke-width="2" stroke-linecap="round" stroke-linejoin="round"/>
<path d="M20.0002 21.25H10.0002" stroke="#1E88E5" stroke-width="2" stroke-linecap="round" stroke-linejoin="round"/>
</svg>
