<svg width="30" height="30" viewBox="0 0 30 30" fill="none" xmlns="http://www.w3.org/2000/svg">
<g clip-path="url(#clip0_1_104)">
<path d="M10.6087 26.25H19.3912C20.1789 26.25 20.9555 26.0638 21.6576 25.7068C22.3597 25.3497 22.9675 24.8318 23.4315 24.1953C23.8955 23.5587 24.2026 22.8216 24.3276 22.0439C24.4527 21.2662 24.3923 20.4699 24.1512 19.72L22.0187 13.0875C21.6138 11.8278 20.8195 10.729 19.7503 9.94953C18.681 9.17005 17.392 8.75004 16.0687 8.75H13.9312C12.608 8.75004 11.3189 9.17005 10.2497 9.94953C9.18041 10.729 8.38614 11.8278 7.98123 13.0875L5.84873 19.72C5.60769 20.4699 5.54725 21.2662 5.67231 22.0439C5.79738 22.8216 6.10442 23.5587 6.56842 24.1953C7.03242 24.8318 7.64024 25.3497 8.34236 25.7068C9.04448 26.0638 9.82103 26.25 10.6087 26.25Z" stroke="#1E88E5" stroke-width="2" stroke-linecap="round" stroke-linejoin="round"/>
<path d="M18.75 3.75C17.9167 7.08333 16.6667 8.75 15 8.75C13.3333 8.75 12.0833 7.08333 11.25 3.75H18.75Z" stroke="#1E88E5" stroke-width="2" stroke-linecap="round" stroke-linejoin="round"/>
<path d="M17.5 13.75H14.375C13.8777 13.75 13.4008 13.9475 13.0492 14.2992C12.6975 14.6508 12.5 15.1277 12.5 15.625C12.5 16.1223 12.6975 16.5992 13.0492 16.9508C13.4008 17.3025 13.8777 17.5 14.375 17.5H15.625C16.1223 17.5 16.5992 17.6975 16.9508 18.0492C17.3025 18.4008 17.5 18.8777 17.5 19.375C17.5 19.8723 17.3025 20.3492 16.9508 20.7008C16.5992 21.0525 16.1223 21.25 15.625 21.25H12.5" stroke="#1E88E5" stroke-width="2" stroke-linecap="round" stroke-linejoin="round"/>
<path d="M15 12.5V13.75" stroke="#1E88E5" stroke-width="2" stroke-linecap="round" stroke-linejoin="round"/>
<path d="M15 21.25V22.5" stroke="#1E88E5" stroke-width="2" stroke-linecap="round" stroke-linejoin="round"/>
</g>
<defs>
<clipPath id="clip0_1_104">
<rect width="30" height="30" fill="white"/>
</clipPath>
</defs>
</svg>
