<svg width="30" height="30" viewBox="0 0 30 30" fill="none" xmlns="http://www.w3.org/2000/svg">
<g clip-path="url(#clip0_1019_11346)">
<path d="M24.3746 15.7146L14.9996 24.9996L5.62464 15.7146C5.00628 15.1129 4.5192 14.3896 4.19408 13.5904C3.86896 12.7912 3.71285 11.9333 3.73557 11.0708C3.75829 10.2083 3.95935 9.35978 4.32609 8.57878C4.69283 7.79778 5.21731 7.10118 5.8665 6.53284C6.51569 5.96449 7.27553 5.53672 8.09816 5.27646C8.92079 5.0162 9.7884 4.92909 10.6464 5.02061C11.5043 5.11213 12.334 5.38031 13.0832 5.80824C13.8325 6.23618 14.485 6.81461 14.9996 7.50711C15.5166 6.81964 16.1698 6.24626 16.9185 5.82287C17.6672 5.39947 18.4953 5.13517 19.3508 5.04651C20.2064 4.95785 21.071 5.04673 21.8906 5.3076C22.7102 5.56847 23.4672 5.9957 24.1141 6.56256C24.761 7.12943 25.2839 7.82372 25.6502 8.60198C26.0164 9.38024 26.2181 10.2257 26.2425 11.0855C26.267 11.9453 26.1137 12.8009 25.7923 13.5987C25.4709 14.3965 24.9883 15.1194 24.3746 15.7221" stroke="#1E88E5" stroke-width="2" stroke-linecap="round" stroke-linejoin="round"/>
<path d="M14.9998 7.5L10.8836 11.6163C10.6492 11.8507 10.5176 12.1685 10.5176 12.5C10.5176 12.8315 10.6492 13.1493 10.8836 13.3837L11.5623 14.0625C12.4248 14.925 13.8248 14.925 14.6873 14.0625L15.9373 12.8125C16.6832 12.0666 17.6949 11.6475 18.7498 11.6475C19.8047 11.6475 20.8164 12.0666 21.5623 12.8125L24.3748 15.625" stroke="#1E88E5" stroke-width="2" stroke-linecap="round" stroke-linejoin="round"/>
<path d="M15.625 19.375L18.125 21.875" stroke="#1E88E5" stroke-width="2" stroke-linecap="round" stroke-linejoin="round"/>
<path d="M18.75 16.25L21.25 18.75" stroke="#1E88E5" stroke-width="2" stroke-linecap="round" stroke-linejoin="round"/>
</g>
<defs>
<clipPath id="clip0_1019_11346">
<rect width="30" height="30" fill="white"/>
</clipPath>
</defs>
</svg>
