<svg width="30" height="30" viewBox="0 0 30 30" fill="none" xmlns="http://www.w3.org/2000/svg">
<g clip-path="url(#clip0_821_11175)">
<path d="M8.13791 7.63816C8.13791 9.03403 8.69242 10.3727 9.67945 11.3598C10.6665 12.3468 12.0052 12.9013 13.4011 12.9013C14.7969 12.9013 16.1356 12.3468 17.1227 11.3598C18.1097 10.3727 18.6642 9.03403 18.6642 7.63816C18.6642 6.24228 18.1097 4.90358 17.1227 3.91654C16.1356 2.92951 14.7969 2.375 13.4011 2.375C12.0052 2.375 10.6665 2.92951 9.67945 3.91654C8.69242 4.90358 8.13791 6.24228 8.13791 7.63816Z" stroke="#BC4923" stroke-width="2" stroke-linecap="round" stroke-linejoin="round"/>
<path d="M5.50635 26.0588V23.4272C5.50635 22.0313 6.06086 20.6926 7.04789 19.7056C8.03492 18.7186 9.37363 18.1641 10.7695 18.1641H14.7169" stroke="#BC4923" stroke-width="2" stroke-linecap="round" stroke-linejoin="round"/>
<path d="M25.2431 18.1641H21.9537C21.4302 18.1641 20.9282 18.372 20.5581 18.7421C20.1879 19.1123 19.98 19.6143 19.98 20.1377C19.98 20.6612 20.1879 21.1632 20.5581 21.5334C20.9282 21.9035 21.4302 22.1114 21.9537 22.1114H23.2695C23.7929 22.1114 24.2949 22.3194 24.6651 22.6895C25.0352 23.0596 25.2431 23.5617 25.2431 24.0851C25.2431 24.6086 25.0352 25.1106 24.6651 25.4807C24.2949 25.8509 23.7929 26.0588 23.2695 26.0588H19.98" stroke="#BC4923" stroke-width="2.10526" stroke-linecap="round" stroke-linejoin="round"/>
<path d="M22.6116 26.0592V27.3749M22.6116 16.8486V18.1644" stroke="#BC4923" stroke-width="2" stroke-linecap="round" stroke-linejoin="round"/>
</g>
<defs>
<clipPath id="clip0_821_11175">
<rect width="30" height="30" fill="white"/>
</clipPath>
</defs>
</svg>
