<svg width="30" height="30" viewBox="0 0 30 30" fill="none" xmlns="http://www.w3.org/2000/svg">
<mask id="mask0_1113_6276" style="mask-type:luminance" maskUnits="userSpaceOnUse" x="1" y="1" width="28" height="28">
<path d="M1 1H29V29H1V1Z" fill="white"/>
</mask>
<g mask="url(#mask0_1113_6276)">
<path d="M18.0753 12.3641H20.7112L23.3472 17.6359L19.8326 24.6651V28.1797H13.6821V25.5437C13.6821 25.5437 13.2375 24.6542 12.7133 23.6059C11.7174 21.6148 12.108 19.2102 13.6821 17.6361V17.6359V11.9248C13.6821 11.3421 13.9136 10.7835 14.3253 10.3715C14.7373 9.95956 15.2962 9.72812 15.8787 9.72812C16.4612 9.72812 17.02 9.95956 17.4321 10.3715C17.8438 10.7835 18.0753 11.3421 18.0753 11.9248V15.8787L18.9539 16.7573" stroke="#BC4923" stroke-width="2" stroke-miterlimit="10" stroke-linecap="round" stroke-linejoin="round"/>
<path d="M13.6815 17.6367H8.40967C7.43919 17.6367 6.65234 16.8499 6.65234 15.8794V3.57842C6.65234 2.60788 7.43919 1.82109 8.40967 1.82109H16.3174C16.7836 1.82109 17.2304 2.00621 17.5599 2.33581C17.8898 2.6653 18.0748 3.11227 18.0748 3.57842V12.3648" stroke="#BC4923" stroke-width="2" stroke-miterlimit="10" stroke-linecap="round" stroke-linejoin="round"/>
</g>
</svg>
