<svg width="30" height="30" viewBox="0 0 30 30" fill="none" xmlns="http://www.w3.org/2000/svg">
<g clip-path="url(#clip0_1019_13158)">
<mask id="mask0_1019_13158" style="mask-type:luminance" maskUnits="userSpaceOnUse" x="0" y="0" width="30" height="31">
<path d="M0 0.00244331H30V30.0024H0V0.00244331Z" fill="white"/>
</mask>
<g mask="url(#mask0_1019_13158)">
<path d="M18.9902 15.0029C18.9902 18.1283 17.4076 20.8834 15 22.5105C13.5539 23.4879 11.8107 24.0586 9.93457 24.0586C4.93359 24.0586 0.878906 20.0045 0.878906 15.0029C0.878906 10.0014 4.93359 5.94727 9.93457 5.94727C11.8107 5.94727 13.5539 6.51797 15 7.49531C17.4076 9.12246 18.9902 11.8775 18.9902 15.0029Z" stroke="#BC4923" stroke-width="2" stroke-miterlimit="10" stroke-linecap="round" stroke-linejoin="round"/>
<path d="M29.1211 15.0029C29.1211 20.0045 25.0664 24.0586 20.0654 24.0586C18.1893 24.0586 16.4461 23.4879 15 22.5105C17.4076 20.8834 18.9902 18.1283 18.9902 15.0029C18.9902 11.8775 17.4076 9.12246 15 7.49531C16.4461 6.51797 18.1893 5.94727 20.0654 5.94727C25.0664 5.94727 29.1211 10.0014 29.1211 15.0029Z" stroke="#BC4923" stroke-width="2" stroke-miterlimit="10" stroke-linecap="round" stroke-linejoin="round"/>
<path d="M13.0879 15.0023H24.4335L22.6195 16.8164" stroke="#BC4923" stroke-width="2" stroke-miterlimit="10" stroke-linecap="round" stroke-linejoin="round"/>
<path d="M24.4332 15.0029L22.6191 13.1889" stroke="#BC4923" stroke-width="2" stroke-miterlimit="10" stroke-linecap="round" stroke-linejoin="round"/>
</g>
</g>
<defs>
<clipPath id="clip0_1019_13158">
<rect width="30" height="30" fill="white"/>
</clipPath>
</defs>
</svg>
