<svg width="30" height="30" viewBox="0 0 30 30" fill="none" xmlns="http://www.w3.org/2000/svg">
<path d="M8.75391 7.7833V5.38523C8.75391 4.4308 9.53481 3.6499 10.4892 3.6499H19.513C20.4675 3.6499 21.2483 4.4308 21.2483 5.38523V7.7833" stroke="#17AD87" stroke-width="2" stroke-miterlimit="22.9256" stroke-linecap="round" stroke-linejoin="round"/>
<path d="M26.9017 15.5386V24.7344C26.9017 25.6228 26.1745 26.35 25.286 26.35H4.71331C3.82486 26.35 3.09766 25.623 3.09766 24.7344V15.5924" stroke="#17AD87" stroke-width="2" stroke-miterlimit="22.9256" stroke-linecap="round" stroke-linejoin="round"/>
<path d="M12.8464 18.2579C7.1491 17.9321 2.02148 16.303 2.02148 13.3704V9.54681C2.02148 8.65696 2.74724 7.93115 3.63714 7.93115H26.3641C27.2539 7.93115 27.9797 8.65701 27.9797 9.54681V13.3704C27.9797 16.3213 22.7873 17.9525 17.0471 18.2639" stroke="#17AD87" stroke-width="2" stroke-miterlimit="22.9256" stroke-linecap="round" stroke-linejoin="round"/>
<path fill-rule="evenodd" clip-rule="evenodd" d="M13.0078 16.6558H16.9931V18.5138C16.9931 19.5357 16.157 20.3718 15.1351 20.3718H14.8658C13.8439 20.3718 13.0078 19.5357 13.0078 18.5138V16.6558Z" stroke="#17AD87" stroke-width="2" stroke-miterlimit="22.9256" stroke-linecap="round" stroke-linejoin="round"/>
</svg>
