<svg width="100" height="100" viewBox="0 0 100 100" fill="none" xmlns="http://www.w3.org/2000/svg">
<path fill-rule="evenodd" clip-rule="evenodd" d="M27.0859 73.3164H37.0857V78.4021C37.0857 80.0699 35.7211 81.4344 34.0535 81.4344H30.1182C28.4506 81.4344 27.0859 80.0701 27.0859 78.4021V73.3164Z" fill="#B1B1B5"/>
<path fill-rule="evenodd" clip-rule="evenodd" d="M23.9768 65.9922H40.1959V72.3359C40.1959 74.0039 38.8314 75.3682 37.1639 75.3682H27.0092C25.341 75.3682 23.9766 74.0039 23.9766 72.3359L23.9768 65.9922Z" fill="#D1D1D6"/>
<path fill-rule="evenodd" clip-rule="evenodd" d="M36.6639 65.0719V72.3361C36.6639 73.9949 35.3088 75.3684 33.6318 75.3684H37.1639C38.8314 75.3684 40.1959 74.0041 40.1959 72.3361V65.0703C39.0422 65.108 37.8248 65.0719 36.6639 65.0719Z" fill="#B1B1B5"/>
<path fill-rule="evenodd" clip-rule="evenodd" d="M20.9443 60.2109H43.2281V66.2721C43.2281 67.9398 41.8637 69.3043 40.1961 69.3043H23.9766C22.309 69.3043 20.9443 67.94 20.9443 66.2721V60.2109Z" fill="#ECEFF1"/>
<path fill-rule="evenodd" clip-rule="evenodd" d="M39.6961 63.2402V65.9937V66.2728C39.6961 67.9406 38.3318 69.3051 36.6641 69.3051H40.1961C40.2299 69.3051 40.2637 69.3045 40.2971 69.3035C41.9186 69.2496 43.2281 67.907 43.2281 66.2728L43.2283 63.2402H39.6961Z" fill="#D1D1D6"/>
<path fill-rule="evenodd" clip-rule="evenodd" d="M32.0859 19.5586C42.3916 19.5586 50.7461 27.9131 50.7461 38.2188C50.7461 48.5822 44.1258 47.9629 43.2279 63.2389H20.9439C20.0461 47.9629 13.4258 48.5824 13.4258 38.2188C13.4258 27.9131 21.7803 19.5586 32.0859 19.5586Z" fill="#FFE177"/>
<path fill-rule="evenodd" clip-rule="evenodd" d="M30.3203 19.6412C39.7977 20.5309 47.2145 28.5088 47.2145 38.2188C47.2145 47.8451 41.5025 47.9955 39.9703 60.2104C39.8529 61.1459 39.7602 62.1521 39.6963 63.2389H43.2283C44.1262 47.9629 50.7465 48.5824 50.7465 38.2188C50.7465 27.9131 42.392 19.5586 32.0863 19.5586C31.4908 19.5586 30.9016 19.5865 30.3203 19.6412Z" fill="#FFD064"/>
<path fill-rule="evenodd" clip-rule="evenodd" d="M27.3016 63.2391V44.2545H24.5277C22.9039 44.2545 21.4287 43.5912 20.3605 42.523C19.2922 41.4547 18.6289 39.9797 18.6289 38.3559C18.6289 36.732 19.292 35.2568 20.3605 34.1887C21.4289 33.1203 22.9041 32.457 24.5277 32.457C26.1514 32.457 27.6268 33.1203 28.6949 34.1887C29.7633 35.257 30.4266 36.7322 30.4266 38.3559V41.1297H33.7465V38.3559C33.7465 36.732 34.4098 35.2568 35.4781 34.1887C36.5465 33.1203 38.0217 32.457 39.6453 32.457C41.2691 32.457 42.7443 33.1203 43.8125 34.1887C44.8809 35.257 45.5441 36.7322 45.5441 38.3559C45.5441 39.9797 44.8811 41.4549 43.8125 42.523C42.7441 43.5914 41.2689 44.2545 39.6453 44.2545H36.8715V63.2391H33.7465V44.2545H30.4266V63.2391H27.3016ZM27.3016 41.1295V38.3557C27.3016 37.5945 26.9891 36.9014 26.4855 36.3979C25.982 35.8943 25.2889 35.5818 24.5277 35.5818C23.7666 35.5818 23.0734 35.8943 22.5699 36.3979C22.0664 36.9014 21.7539 37.5945 21.7539 38.3557C21.7539 39.1168 22.0664 39.81 22.5699 40.3135C23.0734 40.817 23.7666 41.1295 24.5277 41.1295H27.3016ZM36.8715 41.1295H39.6453C40.4064 41.1295 41.0996 40.817 41.6031 40.3135C42.1066 39.81 42.4191 39.1168 42.4191 38.3557C42.4191 37.5945 42.1066 36.9014 41.6031 36.3979C41.0996 35.8943 40.4064 35.5818 39.6453 35.5818C38.8842 35.5818 38.191 35.8943 37.6875 36.3979C37.184 36.9014 36.8715 37.5945 36.8715 38.3557V41.1295Z" fill="#FFC338"/>
<path fill-rule="evenodd" clip-rule="evenodd" d="M33.649 13.251C33.649 14.1139 32.9494 14.8135 32.0865 14.8135C31.2236 14.8135 30.524 14.1139 30.524 13.251V8.85547C30.524 7.99258 31.2236 7.29297 32.0865 7.29297C32.9494 7.29297 33.649 7.99258 33.649 8.85547V13.251ZM57.2449 28.6742C56.5 29.1057 55.5463 28.8516 55.1148 28.1066C54.6834 27.3617 54.9375 26.408 55.6824 25.9766L59.489 23.7787C60.234 23.3473 61.1877 23.6014 61.6191 24.3463C62.0506 25.0912 61.7965 26.0449 61.0515 26.4764L57.2449 28.6742ZM47.5096 17.8035C47.0781 18.5484 46.1244 18.8025 45.3795 18.3711C44.6346 17.9396 44.3805 16.9859 44.8119 16.241L47.0097 12.4344C47.4412 11.6895 48.3949 11.4354 49.1398 11.8668C49.8848 12.2982 50.1388 13.252 49.7074 13.9969L47.5096 17.8035ZM8.48436 25.9764C9.22928 26.4045 9.48612 27.3555 9.05819 28.1004C8.63006 28.8453 7.67908 29.1021 6.93416 28.6742L3.12752 26.4766C2.3826 26.0484 2.12576 25.0975 2.55369 24.3525C2.98182 23.6076 3.93279 23.3508 4.67772 23.7787L8.48436 25.9764ZM19.3611 16.2408C19.7926 16.9857 19.5385 17.9395 18.7935 18.3709C18.0486 18.8023 17.0949 18.5482 16.6635 17.8033L14.4656 13.9969C14.0342 13.252 14.2883 12.2982 15.0332 11.8668C15.7781 11.4354 16.7318 11.6895 17.1633 12.4344L19.3611 16.2408Z" fill="#FFE177"/>
<path fill-rule="evenodd" clip-rule="evenodd" d="M75.6912 67.6738C74.7223 69.0559 73.5826 70.3096 72.3027 71.4041L81.5162 80.4355L85.0238 76.8207L75.6912 67.6738Z" fill="#A79BA7"/>
<path fill-rule="evenodd" clip-rule="evenodd" d="M75.7539 67.6113C75.5728 68.2057 75.235 68.6572 74.751 68.9562L83.9035 78.0488L85.0244 76.8207L75.7539 67.6113Z" fill="#837683"/>
<path fill-rule="evenodd" clip-rule="evenodd" d="M93.1842 92.1593L97.1428 88.0796C97.8381 87.3632 97.8205 86.2083 97.1041 85.513L86.1399 74.8736C85.4235 74.1783 84.2684 74.1958 83.5733 74.912L79.6147 78.9917C78.9196 79.7079 78.937 80.8632 79.6534 81.5583L90.6176 92.1976C91.334 92.8929 92.4889 92.8757 93.1842 92.1593Z" fill="#F1BA84"/>
<path fill-rule="evenodd" clip-rule="evenodd" d="M84.5174 74.8735L95.4816 85.513C96.1979 86.2083 96.2156 87.363 95.5203 88.0796L91.5617 92.1593C91.4154 92.3101 91.2488 92.4298 91.0701 92.5187C91.7586 92.8609 92.6215 92.7388 93.1838 92.1593L97.1424 88.0796C97.8377 87.363 97.8201 86.2083 97.1037 85.513L86.1395 74.8735C85.574 74.3247 84.7348 74.22 84.0645 74.5527C84.2273 74.6335 84.3805 74.7405 84.5174 74.8735Z" fill="#E3A76F"/>
<path d="M74.8329 71.7389C82.6288 63.9429 82.6288 51.3032 74.8329 43.5072C67.0369 35.7113 54.3971 35.7113 46.6012 43.5072C38.8052 51.3032 38.8052 63.9429 46.6012 71.7389C54.3971 79.5348 67.0369 79.5348 74.8329 71.7389Z" fill="#8AC9FE"/>
<path fill-rule="evenodd" clip-rule="evenodd" d="M60.7301 37.6582C71.7568 37.6582 80.6959 46.5973 80.6959 57.624C80.6959 68.6508 71.7568 77.5898 60.7301 77.5898C60.4051 77.5898 60.082 77.5814 59.7607 77.566C70.3373 77.0604 78.7574 68.3258 78.7574 57.624C78.7574 46.9223 70.3373 38.1877 59.7607 37.682C60.082 37.6666 60.4051 37.6582 60.7301 37.6582Z" fill="#60B7FF"/>
<path d="M74.0024 63.1255C77.0349 55.8094 73.5624 47.4202 66.2463 44.3876C58.9302 41.3551 50.541 44.8276 47.5085 52.1437C44.4759 59.4598 47.9484 67.849 55.2645 70.8815C62.5806 73.914 70.9698 70.4415 74.0024 63.1255Z" fill="#ECEFF1"/>
<path fill-rule="evenodd" clip-rule="evenodd" d="M60.7293 43.2871C61.0551 43.2871 61.3781 43.299 61.6986 43.3205C54.2328 43.8191 48.3311 50.0316 48.3311 57.6238C48.3311 65.216 54.2328 71.4285 61.6986 71.9272C61.3783 71.9484 61.0553 71.9605 60.7293 71.9605C52.8113 71.9605 46.3926 65.5418 46.3926 57.624C46.3926 49.7063 52.8115 43.2871 60.7293 43.2871Z" fill="#D1D1D6"/>
<path fill-rule="evenodd" clip-rule="evenodd" d="M58.8461 58.8886L65.8174 51.8478C66.6426 51.0144 67.9889 51.0121 68.82 51.8384C69.6508 52.6646 69.6534 54.0072 68.8291 54.839C66.0022 57.6921 63.1944 60.564 60.3543 63.4041C59.5241 64.2343 58.1774 64.2343 57.3471 63.4041L52.6354 58.6923C51.8051 57.8621 51.8051 56.5154 52.6354 55.6849C53.4657 54.8546 54.8124 54.8546 55.6426 55.6849L58.8461 58.8886Z" fill="#8AC9FE"/>
</svg>
