<svg width="26" height="26" viewBox="0 0 26 26" fill="none" xmlns="http://www.w3.org/2000/svg">
<rect x="9.16602" y="0.5" width="1.47619" height="10.1429" rx="0.738096" fill="#F2C200" stroke="#F2C200"/>
<rect x="0.5" y="10.6426" width="1.47619" height="10.1429" rx="0.738096" transform="rotate(-90 0.5 10.6426)" fill="#F2C200" stroke="#F2C200"/>
<rect x="0.5" y="-0.5" width="1.47619" height="10.1429" rx="0.738096" transform="matrix(1 0 0 -1 8.66602 25)" fill="#F2C200" stroke="#F2C200"/>
<rect x="0.5" y="0.5" width="1.47619" height="10.1429" rx="0.738096" transform="matrix(-4.37114e-08 1 1 4.37114e-08 -2.18557e-08 14.8574)" fill="#F2C200" stroke="#F2C200"/>
<rect x="-0.5" y="0.5" width="1.47619" height="10.1429" rx="0.738096" transform="matrix(-1 0 0 1 16.334 0)" fill="#F2C200" stroke="#F2C200"/>
<rect x="-0.5" y="-0.5" width="1.47619" height="10.1429" rx="0.738096" transform="matrix(4.37114e-08 -1 -1 -4.37114e-08 25 10.1426)" fill="#F2C200" stroke="#F2C200"/>
<rect x="16.834" y="25.5" width="1.47619" height="10.1429" rx="0.738096" transform="rotate(180 16.834 25.5)" fill="#F2C200" stroke="#F2C200"/>
<rect x="25.5" y="15.3574" width="1.47619" height="10.1429" rx="0.738096" transform="rotate(90 25.5 15.3574)" fill="#F2C200" stroke="#F2C200"/>
</svg>
