<svg width="32" height="32" viewBox="0 0 32 32" fill="none" xmlns="http://www.w3.org/2000/svg">
<path d="M8 29.3337V5.33366C8 4.62641 8.28095 3.94814 8.78105 3.44804C9.28115 2.94794 9.95942 2.66699 10.6667 2.66699H21.3333C22.0406 2.66699 22.7189 2.94794 23.219 3.44804C23.719 3.94814 24 4.62641 24 5.33366V29.3337H8Z" stroke="#1E88E5" stroke-width="2" stroke-linecap="round" stroke-linejoin="round"/>
<path d="M8.00033 16H5.33366C4.62641 16 3.94814 16.281 3.44804 16.781C2.94794 17.2811 2.66699 17.9594 2.66699 18.6667V26.6667C2.66699 27.3739 2.94794 28.0522 3.44804 28.5523C3.94814 29.0524 4.62641 29.3333 5.33366 29.3333H8.00033" stroke="#1E88E5" stroke-width="2" stroke-linecap="round" stroke-linejoin="round"/>
<path d="M24 12H26.6667C27.3739 12 28.0522 12.281 28.5523 12.781C29.0524 13.2811 29.3333 13.9594 29.3333 14.6667V26.6667C29.3333 27.3739 29.0524 28.0522 28.5523 28.5523C28.0522 29.0524 27.3739 29.3333 26.6667 29.3333H24" stroke="#1E88E5" stroke-width="2" stroke-linecap="round" stroke-linejoin="round"/>
<path d="M13.333 8H18.6663" stroke="#1E88E5" stroke-width="2" stroke-linecap="round" stroke-linejoin="round"/>
<path d="M13.333 13.334H18.6663" stroke="#1E88E5" stroke-width="2" stroke-linecap="round" stroke-linejoin="round"/>
<path d="M13.333 18.666H18.6663" stroke="#1E88E5" stroke-width="2" stroke-linecap="round" stroke-linejoin="round"/>
<path d="M13.333 24H18.6663" stroke="#1E88E5" stroke-width="2" stroke-linecap="round" stroke-linejoin="round"/>
</svg>
