<svg width="30" height="30" viewBox="0 0 30 30" fill="none" xmlns="http://www.w3.org/2000/svg">
<path d="M18.1373 3.31641V7.912H22.734" stroke="#BC4923" stroke-width="1.67096" stroke-miterlimit="10" stroke-linecap="round" stroke-linejoin="round"/>
<path d="M17.5252 3H4V28H23V7.91206L17.5252 3Z" stroke="#BC4923" stroke-width="1.67096" stroke-miterlimit="10" stroke-linecap="round" stroke-linejoin="round"/>
<path d="M14.4711 15.1612L14.555 14.4158C14.6177 13.8593 14.8691 13.3361 15.2827 12.9584C15.8309 12.458 16.1749 11.7376 16.1749 10.9369C16.1749 9.41233 14.9279 8.17892 13.398 8.20047C11.9465 8.22099 10.7493 9.39426 10.7017 10.8448C10.6745 11.6746 11.0168 12.4249 11.5767 12.944C11.9849 13.3225 12.2538 13.8272 12.3161 14.3803L12.4032 15.1542" stroke="#BC4923" stroke-width="1.44067" stroke-miterlimit="10" stroke-linecap="round" stroke-linejoin="round"/>
<path d="M18.9661 22.0391H7.96613V20.2867C7.96613 19.5976 8.58073 19.0391 9.33891 19.0391H17.5933C18.3515 19.0391 18.9661 19.5976 18.9661 20.2867V22.0391Z" stroke="#BC4923" stroke-width="1.44067" stroke-miterlimit="10" stroke-linecap="round" stroke-linejoin="round"/>
<path d="M18 23V23.9811C18 24.5438 17.447 25 16.7648 25H10.2352C9.55297 25 9 24.5438 9 23.9811V23" stroke="#BC4923" stroke-width="1.44067" stroke-miterlimit="10" stroke-linecap="round" stroke-linejoin="round"/>
<path d="M10 17.9992V17.0185C10 16.456 10.5455 16 11.2185 16L15.7815 16.0008C16.4545 16.0008 17 16.4568 17 17.0193V18" stroke="#BC4923" stroke-width="1.44067" stroke-miterlimit="10" stroke-linecap="round" stroke-linejoin="round"/>
<circle cx="13.4001" cy="10.9011" r="0.600278" fill="#BC4923"/>
</svg>
