<svg width="100" height="100" viewBox="0 0 100 100" fill="none" xmlns="http://www.w3.org/2000/svg">
<path d="M37.4756 73.4395H43.4137V81.0406H37.4756V73.4395Z" fill="#FB545C"/>
<path d="M48.8379 65.0488H53.9654V77.3044H48.8379V65.0488Z" fill="#FDC72E"/>
<path d="M58.9912 67.9199H64.1187V77.304H58.9912V67.9199Z" fill="#4EB1FC"/>
<path d="M69.1436 60.2285H74.2711V77.3038H69.1436V60.2285Z" fill="#A8E304"/>
<path d="M42.1416 70.7402H43.8134V77.3038H42.1416V70.7402Z" fill="#E8333C"/>
<path d="M52.2939 65.0488H53.9658V77.3044H52.2939V65.0488Z" fill="#F9AC00"/>
<path d="M62.4463 67.9199H64.1181V77.304H62.4463V67.9199Z" fill="#2A92FA"/>
<path d="M72.5996 60.2285H74.2715V77.3038H72.5996V60.2285Z" fill="#8BBD00"/>
<path fill-rule="evenodd" clip-rule="evenodd" d="M40.061 66.8209C39.7082 66.8209 39.3594 66.6623 39.127 66.3625C38.7271 65.8462 38.8229 65.104 39.3392 64.7058L48.0568 57.9807C48.3706 57.7393 48.7835 57.6719 49.1574 57.7985L59.0024 61.1429L68.976 53.4495H68.2809C67.6283 53.4495 67.1006 52.9203 67.1006 52.2683C67.1006 51.6163 67.6281 51.0879 68.2809 51.0879H72.4267C72.4706 51.0879 72.5144 51.0896 72.5584 51.0936C72.5584 51.0945 72.5601 51.0945 72.5601 51.0945C72.5821 51.0968 72.604 51.0994 72.6259 51.1026L72.6276 51.1034H72.6293C72.9138 51.1498 73.1821 51.3001 73.373 51.5473C73.5601 51.7895 73.638 52.0814 73.6161 52.3634V52.3651C73.612 52.3951 73.6088 52.4253 73.6039 52.4553C73.599 52.4853 73.5941 52.5147 73.5869 52.5447L72.6902 56.41C72.5429 57.0457 71.909 57.4423 71.2733 57.2936C70.6392 57.1472 70.2425 56.5132 70.3913 55.8776L70.5426 55.2232L59.943 63.3994C59.6291 63.6416 59.2163 63.7099 58.8415 63.5831L48.998 60.2372L40.7811 66.5747C40.5666 66.7421 40.3138 66.8209 40.0608 66.8209H40.061Z" fill="#7986BF"/>
<path fill-rule="evenodd" clip-rule="evenodd" d="M20.0287 22.2096C19.7263 22.2096 19.4247 22.0942 19.1938 21.8633L9.36163 12.0304V18.8792C9.36163 19.5312 8.83324 20.0596 8.18039 20.0596C7.52754 20.0596 7 19.5312 7 18.8792V9.18039C7 8.52839 7.52838 8 8.18039 8H17.88C18.5312 8 19.0604 8.52839 19.0604 9.18039C19.0604 9.8324 18.5312 10.3608 17.88 10.3608H11.0313L20.8633 20.1937C21.3251 20.6554 21.3251 21.4024 20.8633 21.8633C20.6341 22.0942 20.3302 22.2096 20.0287 22.2096ZM78.9725 22.2096C78.6701 22.2096 78.3686 22.0942 78.1377 21.8633C77.6768 21.4024 77.6768 20.6553 78.1377 20.1937L87.9697 10.3608H81.121C80.4698 10.3608 79.9406 9.8324 79.9406 9.18039C79.9406 8.52839 80.4698 8 81.121 8H90.8198C91.4725 8 92.0008 8.52839 92.0008 9.18039V18.8792C92.0008 19.5312 91.4725 20.0596 90.8198 20.0596C90.1671 20.0596 89.6394 19.5312 89.6394 18.8792V12.0304L79.8073 21.8633C79.5756 22.0942 79.2741 22.2096 78.9725 22.2096ZM17.88 93H8.18039C7.52838 93 7 92.4725 7 91.8196V82.12C7 81.4696 7.52838 80.9396 8.18039 80.9396C8.8324 80.9396 9.36163 81.4696 9.36163 82.12V88.9696L19.1937 79.1367C19.6554 78.6766 20.4024 78.6766 20.8633 79.1367C21.3251 79.5976 21.3251 80.3446 20.8633 80.8063L11.0313 90.6392H17.88C18.5312 90.6392 19.0604 91.1684 19.0604 91.8196C19.0604 92.4708 18.5312 93 17.88 93ZM90.8198 93H81.121C80.4698 93 79.9406 92.4725 79.9406 91.8196C79.9406 91.1668 80.4698 90.6392 81.121 90.6392H87.9697L78.1377 80.8063C77.6768 80.3446 77.6768 79.5976 78.1377 79.1367C78.5978 78.6749 79.3449 78.6749 79.8073 79.1367L89.6394 88.9696V82.12C89.6394 81.4696 90.1686 80.9396 90.8198 80.9396C91.4709 80.9396 92.0008 81.4696 92.0008 82.12V91.8196C92.0008 92.4723 91.4725 93 90.8198 93Z" fill="#7986BF"/>
<path fill-rule="evenodd" clip-rule="evenodd" d="M26.7972 85.3865H24.1406C23.4877 85.3865 22.9602 84.8589 22.9602 84.2061C22.9602 83.5532 23.4877 83.0257 24.1406 83.0257H26.7972C27.4475 83.0257 27.9776 83.5549 27.9776 84.2061C27.9776 84.8573 27.4475 85.3865 26.7972 85.3865ZM83.2072 28.9756C82.556 28.9756 82.0268 28.4472 82.0268 27.7954V25.1388C82.0268 24.4868 82.556 23.9586 83.2072 23.9586C83.8584 23.9586 84.3876 24.4869 84.3876 25.1388V27.7954C84.3876 28.4474 83.8601 28.9756 83.2072 28.9756ZM83.2072 38.5882C82.556 38.5882 82.0268 38.0599 82.0268 37.4078V34.7512C82.0268 34.1001 82.556 33.5709 83.2072 33.5709C83.8584 33.5709 84.3876 34.1001 84.3876 34.7512V37.4078C84.3876 38.0599 83.8601 38.5882 83.2072 38.5882ZM83.2072 48.2017C82.556 48.2017 82.0268 47.6733 82.0268 47.0213V44.3647C82.0268 43.7127 82.556 43.1843 83.2072 43.1843C83.8584 43.1843 84.3876 43.7127 84.3876 44.3647V47.0213C84.3876 47.6733 83.8601 48.2017 83.2072 48.2017ZM83.2072 57.8152C82.556 57.8152 82.0268 57.286 82.0268 56.6348V53.979C82.0268 53.3264 82.556 52.7978 83.2072 52.7978C83.8584 52.7978 84.3876 53.3262 84.3876 53.979V56.6348C84.3876 57.286 83.8601 57.8152 83.2072 57.8152ZM83.2072 67.4286C82.556 67.4286 82.0268 66.8994 82.0268 66.2483V63.5917C82.0268 62.939 82.556 62.4113 83.2072 62.4113C83.8584 62.4113 84.3876 62.9388 84.3876 63.5917V66.2483C84.3876 66.8994 83.8601 67.4286 83.2072 67.4286ZM83.2072 77.0421C82.556 77.0421 82.0268 76.512 82.0268 75.8617V73.2051C82.0268 72.5523 82.556 72.0247 83.2072 72.0247C83.8584 72.0247 84.3876 72.5523 84.3876 73.2051V75.8617C84.3876 76.512 83.8601 77.0421 83.2072 77.0421ZM26.7972 17.973H24.1406C23.4877 17.973 22.9602 17.4437 22.9602 16.7926C22.9602 16.1414 23.4877 15.6113 24.1406 15.6113H26.7972C27.4475 15.6113 27.9776 16.1406 27.9776 16.7926C27.9776 17.4446 27.4475 17.973 26.7972 17.973ZM36.4098 17.973H33.7532C33.1012 17.973 32.5728 17.4437 32.5728 16.7926C32.5728 16.1414 33.1012 15.6113 33.7532 15.6113H36.4098C37.061 15.6113 37.5902 16.1406 37.5902 16.7926C37.5902 17.4446 37.061 17.973 36.4098 17.973ZM46.0233 17.973H43.3667C42.7147 17.973 42.1863 17.4437 42.1863 16.7926C42.1863 16.1414 42.7147 15.6113 43.3667 15.6113H46.0233C46.6744 15.6113 47.2037 16.1406 47.2037 16.7926C47.2037 17.4446 46.6744 17.973 46.0233 17.973ZM55.6367 17.973H52.9801C52.3275 17.973 51.7999 17.4437 51.7999 16.7926C51.7999 16.1414 52.3275 15.6113 52.9801 15.6113H55.6367C56.2871 15.6113 56.8171 16.1406 56.8171 16.7926C56.8171 17.4446 56.2871 17.973 55.6367 17.973ZM65.2494 17.973H62.5928C61.9408 17.973 61.4124 17.4437 61.4124 16.7926C61.4124 16.1414 61.9408 15.6113 62.5928 15.6113H65.2494C65.9005 15.6113 66.4298 16.1406 66.4298 16.7926C66.4298 17.4446 65.9005 17.973 65.2494 17.973ZM74.8628 17.973H72.2062C71.5536 17.973 71.0258 17.4437 71.0258 16.7926C71.0258 16.1414 71.5534 15.6113 72.2062 15.6113H74.8628C75.514 15.6113 76.0432 16.1406 76.0432 16.7926C76.0432 17.4446 75.514 17.973 74.8628 17.973ZM15.7937 28.9756C15.141 28.9756 14.6133 28.4464 14.6133 27.7945V25.1388C14.6133 24.4868 15.1408 23.9577 15.7937 23.9577C16.4465 23.9577 16.9747 24.4869 16.9747 25.1388V27.7945C16.9747 28.4465 16.4447 28.9756 15.7937 28.9756ZM15.7937 38.5882C15.141 38.5882 14.6133 38.0599 14.6133 37.4078V34.7512C14.6133 34.1001 15.1408 33.5709 15.7937 33.5709C16.4465 33.5709 16.9747 34.1001 16.9747 34.7512V37.4078C16.9747 38.0599 16.4447 38.5882 15.7937 38.5882ZM15.7937 48.2017C15.141 48.2017 14.6133 47.6733 14.6133 47.0205V44.3647C14.6133 43.7127 15.1408 43.1843 15.7937 43.1843C16.4465 43.1843 16.9747 43.7127 16.9747 44.3647V47.0205C16.9747 47.6732 16.4447 48.2017 15.7937 48.2017ZM15.7937 57.8152C15.141 57.8152 14.6133 57.286 14.6133 56.6348V53.979C14.6133 53.3264 15.1408 52.7971 15.7937 52.7971C16.4465 52.7971 16.9747 53.3264 16.9747 53.979V56.6348C16.9747 57.286 16.4447 57.8152 15.7937 57.8152ZM15.7937 67.4286C15.141 67.4286 14.6133 66.8994 14.6133 66.2483V63.5901C14.6133 62.939 15.1408 62.4098 15.7937 62.4098C16.4465 62.4098 16.9747 62.939 16.9747 63.5901V66.2483C16.9747 66.8994 16.4447 67.4286 15.7937 67.4286ZM15.7937 77.0404C15.141 77.0404 14.6133 76.5121 14.6133 75.8592V73.2034C14.6133 72.5523 15.1408 72.0231 15.7937 72.0231C16.4465 72.0231 16.9747 72.5523 16.9747 73.2034V75.8592C16.9747 76.5119 16.4447 77.0404 15.7937 77.0404ZM36.4098 85.3865H33.7532C33.1012 85.3865 32.5728 84.8589 32.5728 84.2061C32.5728 83.5532 33.1012 83.0257 33.7532 83.0257H36.4098C37.061 83.0257 37.5902 83.5549 37.5902 84.2061C37.5902 84.8573 37.061 85.3865 36.4098 85.3865ZM46.0233 85.3865H43.3667C42.7147 85.3865 42.1863 84.8589 42.1863 84.2061C42.1863 83.5532 42.7147 83.0257 43.3667 83.0257H46.0233C46.6744 83.0257 47.2037 83.5549 47.2037 84.2061C47.2037 84.8573 46.6744 85.3865 46.0233 85.3865ZM55.6367 85.3865H52.9801C52.3275 85.3865 51.7999 84.8589 51.7999 84.2061C51.7999 83.5532 52.3275 83.0257 52.9801 83.0257H55.6367C56.2871 83.0257 56.8171 83.5549 56.8171 84.2061C56.8171 84.8573 56.2871 85.3865 55.6367 85.3865ZM65.2494 85.3865H62.5928C61.9408 85.3865 61.4124 84.8589 61.4124 84.2061C61.4124 83.5532 61.9408 83.0257 62.5928 83.0257H65.2494C65.9005 83.0257 66.4298 83.5549 66.4298 84.2061C66.4298 84.8573 65.9005 85.3865 65.2494 85.3865ZM74.8628 85.3865H72.2047C71.5536 85.3865 71.0243 84.8589 71.0243 84.2061C71.0243 83.5532 71.5536 83.0257 72.2047 83.0257H74.8628C75.514 83.0257 76.0432 83.5549 76.0432 84.2061C76.0432 84.8573 75.514 85.3865 74.8628 85.3865Z" fill="#7986BF"/>
<path fill-rule="evenodd" clip-rule="evenodd" d="M24.7188 45.2139C24.7188 52.752 30.4161 57.6098 37.1146 57.6098C37.1146 50.0335 33.1564 43.4085 24.7188 45.2139Z" fill="#BAED2C"/>
<path fill-rule="evenodd" clip-rule="evenodd" d="M24.7188 45.2129C24.7188 52.7509 30.4161 57.6088 37.1146 57.6088C33.4244 52.3212 29.2924 48.1893 24.7188 45.2129Z" fill="#A0D904"/>
<path fill-rule="evenodd" clip-rule="evenodd" d="M49.5111 45.2139C49.5111 52.752 43.8137 57.6098 37.1152 57.6098C37.1152 50.0335 41.0735 43.4085 49.5111 45.2139Z" fill="#BAED2C"/>
<path fill-rule="evenodd" clip-rule="evenodd" d="M49.5111 45.2129C49.5111 52.7509 43.8137 57.6088 37.1152 57.6088C40.8055 52.3212 44.9375 48.1893 49.5111 45.2129Z" fill="#A0D904"/>
<path fill-rule="evenodd" clip-rule="evenodd" d="M37.1148 62.8552C36.4613 62.8552 35.9336 62.3253 35.9336 61.6742V41.6676C35.9336 41.0156 36.4611 40.4863 37.1148 40.4863C37.7685 40.4863 38.2952 41.0156 38.2952 41.6676V61.6742C38.2952 62.3253 37.7668 62.8552 37.1148 62.8552Z" fill="#8BBD00"/>
<path d="M39.4178 43.1078C44.7196 41.8436 47.9928 36.5209 46.7286 31.2191C45.4645 25.9173 40.1417 22.6442 34.84 23.9083C29.5382 25.1725 26.265 30.4952 27.5292 35.797C28.7933 41.0988 34.1161 44.3719 39.4178 43.1078Z" fill="#F9AC00"/>
<path fill-rule="evenodd" clip-rule="evenodd" d="M36.8068 43.3722C31.5006 43.2092 27.249 38.857 27.249 33.5113C27.249 28.1655 31.5007 23.8133 36.8068 23.6504C42.1131 23.8133 46.3648 28.1654 46.3648 33.5113C46.3648 38.8572 42.1131 43.2092 36.8068 43.3722Z" fill="#FCDB35"/>
<path d="M37.1148 41.3839C41.4622 41.3839 44.9864 37.8597 44.9864 33.5123C44.9864 29.1649 41.4622 25.6406 37.1148 25.6406C32.7674 25.6406 29.2432 29.1649 29.2432 33.5123C29.2432 37.8597 32.7674 41.3839 37.1148 41.3839Z" fill="#F19A00"/>
<path fill-rule="evenodd" clip-rule="evenodd" d="M37.6212 25.6562C41.7326 25.9173 44.9866 29.334 44.9866 33.5114C44.9866 37.6887 41.7326 41.1052 37.6212 41.3663C33.5098 41.1052 30.2559 37.6885 30.2559 33.5114C30.2559 29.3342 33.5098 25.9175 37.6212 25.6562Z" fill="#F9AC00"/>
<path fill-rule="evenodd" clip-rule="evenodd" d="M35.9339 38.7341C34.7515 38.4756 33.6836 37.8623 33.1545 36.8953C32.8408 36.3239 33.0504 35.606 33.622 35.2931C34.1951 34.9801 34.912 35.1899 35.2259 35.7613C35.6087 36.4636 37.4826 36.7627 38.4572 36.2775C38.7711 36.1215 38.8386 35.8653 38.8531 35.763C38.8701 35.6451 38.8588 35.4753 38.7068 35.3354C38.5751 35.2144 38.2434 34.9786 37.4988 34.7673C37.2915 34.7079 37.0589 34.6527 36.811 34.5949C35.9624 34.3942 34.9999 34.1665 34.2659 33.5966C33.5594 33.0489 33.1391 32.3017 33.0806 31.492C33.0213 30.6987 33.3115 29.9271 33.8952 29.3183C34.4457 28.7454 35.1803 28.4185 35.934 28.2627V27.6023C35.934 26.9503 36.4616 26.4219 37.1153 26.4219C37.769 26.4219 38.2957 26.9503 38.2957 27.6023V28.2742C39.4922 28.5312 40.4288 29.1591 40.8993 30.0337C41.2098 30.6068 40.9936 31.3229 40.4205 31.6327C39.8449 31.9415 39.1305 31.727 38.8215 31.1531C38.6647 30.8636 38.1688 30.6232 37.5566 30.5393C36.6608 30.4182 35.8789 30.6621 35.5982 30.9539C35.5333 31.0222 35.4227 31.162 35.4348 31.3197C35.4446 31.4529 35.5429 31.5993 35.7128 31.731C36.042 31.9862 36.7402 32.1513 37.3541 32.2968C37.6158 32.3586 37.8874 32.4228 38.1451 32.496C39.071 32.7595 39.7977 33.1308 40.3073 33.5992C41.004 34.2414 41.3258 35.1509 41.1909 36.0956C41.0511 37.0791 40.4219 37.9376 39.5089 38.3919C39.1441 38.5734 38.7315 38.7037 38.2953 38.783V39.4227C38.2953 40.0747 37.7669 40.6031 37.1149 40.6031C36.4629 40.6031 35.9337 40.0747 35.9337 39.4227V38.7343L35.9339 38.7341Z" fill="#FFEB87"/>
</svg>
