<svg width="760" height="590" viewBox="0 0 760 590" fill="none" xmlns="http://www.w3.org/2000/svg">
<path d="M758.635 503.177C754.015 487.215 654.127 491.933 382.283 474.056C102.065 455.629 6.9575 488.373 7.08118 497.112C7.29639 512.348 235.965 531.032 504.964 532.761C774.834 534.495 761.115 511.744 758.635 503.177Z" fill="#EBF3F9"/>
<path d="M92.5707 493.463H22.2168V399.298L64.1821 384.43L92.5707 493.463Z" fill="#0C68A5"/>
<path d="M92.5702 384.43H64.1816V493.463H92.5702V384.43Z" fill="#1976AF"/>
<path d="M183.908 493.464H113.554V344.782L155.519 329.914L183.908 493.464Z" fill="#0C68A5"/>
<path d="M183.907 329.914H155.519V493.464H183.907V329.914Z" fill="#1976AF"/>
<path d="M275.862 493.464H205.508V265.485L247.473 250.617L275.862 493.464Z" fill="#0C68A5"/>
<path d="M275.861 250.617H247.473V493.464H275.861V250.617Z" fill="#1976AF"/>
<path d="M364.73 493.464H294.376V196.101L336.341 181.232L364.73 493.464Z" fill="#0C68A5"/>
<path d="M364.73 181.232H336.342V493.464H364.73V181.232Z" fill="#1976AF"/>
<path d="M452.981 493.464H382.627V115.151L424.593 100.283L452.981 493.464Z" fill="#0C68A5"/>
<path d="M452.981 100.283H424.593V493.464H452.981V100.283Z" fill="#1976AF"/>
<path d="M625.783 504.519H424.947C418.284 504.519 412.883 498.366 412.883 490.775V171.556C412.883 163.966 423.778 152.812 430.441 152.812L625.783 157.813C632.446 157.813 637.847 163.966 637.847 171.556L642.236 492.017C642.236 499.608 632.446 504.519 625.783 504.519L625.783 504.519Z" fill="#4D4D4D"/>
<path d="M632.026 152.605H429.848C423.556 152.605 418.455 157.698 418.455 163.979V487.937C418.455 494.219 423.556 499.311 429.848 499.311H632.026C638.318 499.311 643.419 494.219 643.419 487.937V163.979C643.419 157.698 638.318 152.605 632.026 152.605Z" fill="#999999"/>
<path d="M493.684 436.044C502.35 436.026 511.017 435.977 519.683 436.008C522.491 436.019 524.989 438.935 525.01 442.253C525.062 450.577 525.064 458.902 525.005 467.226C524.981 470.641 522.509 473.483 519.508 473.5C510.901 473.55 502.293 473.486 493.685 473.466C493.676 472.904 493.315 472.601 493.001 472.324C491.046 470.596 490.442 468.288 490.48 465.451C490.578 458.184 490.576 450.913 490.482 443.646C490.445 440.829 491.307 438.698 493.105 437.005C493.392 436.735 493.659 436.508 493.684 436.044L493.684 436.044ZM504.584 451.687C503.165 451.742 502.074 453.119 502.11 454.808C502.149 456.62 503.314 457.864 504.873 457.756C506.269 457.659 507.395 456.187 507.306 454.574C507.217 452.962 505.965 451.634 504.584 451.687Z" fill="#4D4D4D"/>
<path d="M598.857 290.777C607.699 290.682 616.547 290.29 625.38 290.991C628.024 291.201 630.124 294.043 630.143 297.189C630.196 305.451 630.202 313.715 630.14 321.977C630.114 325.456 627.722 328.367 624.52 328.413C616.084 328.533 607.644 328.394 599.206 328.359C599.142 327.891 598.818 327.706 598.528 327.478C596.466 325.859 595.597 323.62 595.641 320.658C595.736 314.373 595.763 308.082 595.638 301.798C595.555 297.655 595.462 293.644 598.814 290.974C598.849 290.946 598.843 290.844 598.857 290.777ZM609.742 308.599C607.93 308.599 606.118 308.603 604.305 308.596C603.785 308.595 603.401 308.705 603.377 309.481C603.352 310.313 603.677 310.563 604.326 310.561C607.95 310.546 611.574 310.549 615.199 310.563C615.804 310.565 616.244 310.413 616.24 309.565C616.235 308.705 615.771 308.584 615.179 308.589C613.367 308.606 611.555 308.595 609.742 308.599L609.742 308.599ZM609.88 313.108C608.986 313.106 608.53 313.693 608.462 314.616C608.392 315.559 608.824 316.271 609.625 316.364C610.524 316.468 611.062 315.803 611.093 314.763C611.121 313.821 610.664 313.23 609.88 313.108ZM609.942 306.026C610.64 305.932 611.109 305.378 611.117 304.428C611.125 303.352 610.575 302.734 609.691 302.791C608.868 302.844 608.446 303.607 608.482 304.499C608.517 305.384 608.946 306.048 609.942 306.026Z" fill="#4D4D4D"/>
<path d="M441.276 387.688C449.877 387.67 458.477 387.621 467.078 387.653C470.055 387.664 472.535 390.617 472.557 394.18C472.606 402.22 472.605 410.26 472.557 418.3C472.535 422.068 470.073 425.125 466.912 425.148C458.371 425.208 449.829 425.128 441.288 425.104C441.247 424.668 441.109 424.284 440.771 424.075C438.458 422.643 437.77 420.187 437.764 417.329C437.751 410.665 437.631 403.995 437.827 397.339C437.901 394.818 437.717 392.085 439.287 389.821C439.884 388.961 441.004 388.887 441.277 387.688L441.276 387.688ZM452.885 400.175C452.885 405.577 452.878 410.635 452.894 415.694C452.896 416.375 452.62 417.264 453.714 417.297C454.754 417.328 454.635 416.565 454.635 415.797C454.634 409.489 454.642 403.181 454.629 396.873C454.628 396.377 454.841 395.697 454.161 395.513C453.65 395.375 453.244 395.614 452.937 396.094C452.127 397.362 451.34 398.634 450.138 399.472C449.334 400.032 450.068 400.688 450.238 401.251C450.499 402.12 450.948 401.637 451.333 401.355C451.77 401.034 452.199 400.698 452.885 400.175Z" fill="#4D4D4D"/>
<path d="M598.837 387.689C607.451 387.671 616.066 387.621 624.68 387.653C627.704 387.665 630.135 390.587 630.153 394.179C630.192 402.231 630.19 410.284 630.158 418.337C630.142 422.169 627.775 425.125 624.514 425.149C615.959 425.21 607.404 425.128 598.849 425.104C598.815 424.491 598.519 424.026 598.105 423.767C596.062 422.484 595.618 420.386 595.645 417.837C595.718 411.111 595.761 404.381 595.634 397.657C595.563 393.875 595.572 390.302 598.757 388.082C598.825 388.035 598.812 387.824 598.837 387.689L598.837 387.689ZM609.787 408.063C611.949 408.063 614.113 407.99 616.272 408.092C617.463 408.148 617.602 407.489 617.587 406.336C617.573 405.305 617.515 404.672 616.395 404.688C611.955 404.754 607.513 404.759 603.073 404.689C601.868 404.67 601.974 405.472 601.959 406.403C601.943 407.396 601.973 408.135 603.125 408.089C605.343 408.001 607.565 408.063 609.786 408.063H609.787Z" fill="#4D4D4D"/>
<path d="M599.558 339.141C606.823 339.096 614.088 339.047 621.354 339.008C622.64 339.001 623.919 338.994 625.203 339.271C628.221 339.923 630.153 342.532 630.161 346.207C630.177 354.053 630.182 361.9 630.158 369.746C630.147 373.744 627.826 376.771 624.522 376.796C615.965 376.861 607.408 376.776 598.851 376.752C598.722 376.454 598.661 376.017 598.455 375.876C596.129 374.285 595.619 371.785 595.647 368.821C595.718 361.153 595.698 353.483 595.652 345.814C595.639 343.618 596.494 342.042 597.752 340.618C598.292 340.007 599.181 340.016 599.558 339.141V339.141ZM609.766 355.896C609.558 355.535 609.327 355.144 609.105 354.745C608.523 353.704 607.921 352.678 607.374 351.613C606.771 350.439 605.699 350.492 605.072 350.989C604.361 351.552 605.334 352.236 605.617 352.789C606.281 354.092 607.023 355.349 607.818 356.545C608.427 357.464 608.399 358.161 607.796 359.101C606.608 360.95 605.544 362.912 604.333 364.991C608.172 365.872 607.815 361.194 609.881 359.818C610.544 361.025 611.295 362.181 611.849 363.457C612.559 365.089 613.541 365.506 615.14 364.866C614.34 363.437 613.614 362.118 612.869 360.816C611.686 358.748 611.689 356.719 612.876 354.728C613.596 353.519 614.296 352.292 615.093 350.923C611.456 350.179 611.651 354.28 609.766 355.896Z" fill="#4D4D4D"/>
<path d="M441.303 290.779C450.023 290.664 458.752 290.265 467.459 290.982C470.754 291.253 472.57 294.158 472.573 298.114C472.58 305.539 472.575 312.965 472.572 320.391C472.57 325.405 470.481 328.337 466.247 328.415C457.933 328.566 449.614 328.395 441.298 328.359C441.198 327.685 440.812 327.258 440.348 326.944C438.383 325.618 437.808 323.385 437.785 320.973C437.718 314.047 437.667 307.116 437.812 300.193C437.864 297.719 437.878 295.113 439.421 292.954C440.004 292.138 441.308 292.237 441.303 290.78L441.303 290.779ZM455.292 300.984C455.017 301.794 454.824 302.428 454.589 303.041C452.638 308.141 450.687 313.242 448.716 318.332C448.398 319.155 448.182 319.727 449.137 320.271C450.181 320.865 450.312 320.072 450.603 319.316C453.073 312.9 455.534 306.478 458.037 300.08C458.478 298.951 458.627 298.386 457.246 298.422C453.799 298.51 450.349 298.463 446.9 298.442C446.124 298.438 445.554 298.476 445.556 299.723C445.558 300.969 446.122 301.002 446.901 300.995C449.64 300.967 452.378 300.984 455.292 300.984Z" fill="#4D4D4D"/>
<path d="M546.087 436.047C554.754 436.027 563.421 435.971 572.087 436.009C575.182 436.022 577.65 438.904 577.688 442.66C577.771 450.706 577.767 458.755 577.691 466.801C577.655 470.544 575.095 473.494 571.913 473.509C563.422 473.552 554.931 473.489 546.44 473.468C546.435 472.78 545.912 472.609 545.568 472.273C543.707 470.455 542.789 468.297 542.862 465.27C543.034 458.225 542.929 451.171 542.904 444.12C542.9 442.996 543.137 441.953 543.324 440.873C543.685 438.777 545.374 437.817 546.087 436.047ZM556.219 459.93C556.219 460.831 556.251 461.733 556.21 462.631C556.168 463.553 556.373 464.021 557.267 464.013C558.151 464.006 558.356 463.548 558.337 462.621C558.302 460.891 558.374 459.156 558.315 457.427C558.28 456.36 558.562 455.943 559.497 455.988C561.015 456.059 562.54 455.941 564.057 456.022C564.993 456.072 565.077 455.53 565.097 454.643C565.119 453.686 564.765 453.473 564.05 453.492C562.53 453.532 561.008 453.45 559.49 453.523C558.554 453.569 558.272 453.153 558.309 452.084C558.368 450.355 558.297 448.621 558.328 446.89C558.344 445.977 558.161 445.488 557.264 445.491C556.373 445.494 556.191 445.97 556.211 446.888C556.248 448.619 556.175 450.353 556.234 452.082C556.27 453.15 555.993 453.572 555.052 453.525C553.534 453.449 552.011 453.544 550.492 453.492C549.697 453.464 549.332 453.71 549.332 454.753C549.333 455.799 549.709 456.064 550.499 456.014C551.315 455.963 552.136 456.007 552.954 456.006C555.13 456.003 556.219 457.311 556.219 459.931L556.219 459.93Z" fill="#4D4D4D"/>
<path d="M598.841 436.048C607.5 436.024 616.16 435.947 624.82 436.007C627.744 436.027 630.138 439.016 630.154 442.483C630.195 450.662 630.198 458.842 630.148 467.021C630.125 470.575 627.664 473.498 624.645 473.511C616.044 473.548 607.443 473.486 598.842 473.464C598.724 473.159 598.675 472.692 598.478 472.574C596.182 471.196 595.664 468.787 595.668 466.032C595.676 458.349 595.701 450.665 595.65 442.982C595.635 440.893 596.389 439.268 597.416 437.741C597.832 437.122 598.706 437.02 598.841 436.048ZM612.906 458.09C616.126 458.09 619.346 458.09 622.566 458.09C623.202 458.09 623.839 458.258 623.836 457.016C623.832 455.736 623.143 455.99 622.541 455.99C616.101 455.984 609.661 455.987 603.222 455.992C602.606 455.993 601.937 455.777 601.947 457.047C601.958 458.32 602.64 458.083 603.247 458.085C606.467 458.095 609.686 458.09 612.906 458.09L612.906 458.09ZM612.888 453.514C616.106 453.514 619.325 453.52 622.543 453.509C623.141 453.507 623.83 453.775 623.836 452.487C623.842 451.232 623.205 451.417 622.572 451.417C616.135 451.417 609.697 451.415 603.26 451.421C602.653 451.421 601.963 451.177 601.952 452.447C601.942 453.703 602.603 453.512 603.231 453.513C606.45 453.516 609.669 453.514 612.888 453.514Z" fill="#C01E19"/>
<path d="M546.434 387.688C554.985 387.672 563.537 387.625 572.088 387.654C575.175 387.664 577.645 390.507 577.687 394.283C577.775 402.33 577.765 410.381 577.691 418.429C577.656 422.17 575.084 425.145 571.922 425.158C563.43 425.194 554.937 425.129 546.445 425.105C546.336 424.869 546.279 424.539 546.111 424.412C543.56 422.47 542.883 419.556 542.904 416.179C542.947 409.031 542.924 401.883 542.91 394.735C542.909 393.747 543.174 392.857 543.36 391.92C543.778 389.807 545.53 389.208 546.434 387.688ZM563.82 395.25C560.292 395.25 557.149 395.269 554.007 395.237C553.149 395.229 552.535 395.296 552.559 396.632C552.582 397.967 553.304 397.79 554.001 397.79C555.781 397.791 557.561 397.79 559.657 397.79C558.115 400.402 556.796 402.637 555.257 405.244C556.55 405.244 557.463 405.231 558.375 405.248C559.36 405.266 560.237 405.643 560.793 406.644C562.076 408.955 561.443 412.724 559.582 414.077C557.252 415.77 554.239 414.879 552.988 412.128C552.726 411.553 552.628 410.741 551.754 411.35C551.078 411.821 550.671 412.12 551.063 413.234C551.801 415.326 552.972 416.66 554.847 417.141C557.997 417.948 562.141 417.031 563.277 411.823C564.09 408.098 563.018 405.172 559.484 402.429C560.864 400.144 562.244 397.859 563.82 395.25V395.25Z" fill="#4D4D4D"/>
<path d="M441.997 339.143C449.601 339.098 457.205 339.04 464.809 339.022C465.796 339.019 466.793 339.143 467.768 339.332C470.512 339.864 472.53 342.507 472.551 345.8C472.603 353.91 472.619 362.021 472.551 370.131C472.521 373.732 469.962 376.781 466.92 376.799C458.261 376.85 449.602 376.772 440.942 376.745C441.087 375.346 439.846 375.3 439.346 374.506C437.827 372.097 437.881 369.258 437.814 366.57C437.648 359.989 437.785 353.398 437.747 346.811C437.732 344.339 438.544 342.402 440.118 340.864C440.728 340.267 441.369 339.715 441.997 339.143ZM444.96 362.517C447.726 362.517 450.059 362.555 452.389 362.498C453.304 362.476 453.645 362.846 453.591 363.932C453.53 365.177 453.61 366.431 453.568 367.678C453.536 368.617 453.901 368.865 454.624 368.857C455.352 368.848 455.715 368.567 455.666 367.645C455.626 366.884 455.66 366.119 455.661 365.355C455.665 362.62 455.666 362.532 457.941 362.552C459.11 362.562 459.343 362.003 459.247 360.814C459.145 359.552 458.328 359.852 457.794 359.952C455.944 360.299 455.515 359.358 455.622 357.317C455.771 354.482 455.675 351.629 455.647 348.784C455.642 348.231 455.931 347.423 455.15 347.244C454.509 347.097 453.923 347.14 453.465 347.935C450.729 352.681 447.954 357.396 444.96 362.517Z" fill="#4D4D4D"/>
<path d="M493.68 387.69C502.348 387.673 511.016 387.622 519.684 387.661C522.586 387.674 524.971 390.436 524.999 393.864C525.065 402.189 525.058 410.516 525.005 418.841C524.984 422.223 522.472 425.138 519.519 425.153C510.91 425.197 502.3 425.129 493.691 425.105C493.658 424.495 493.339 424.096 492.956 423.76C491.202 422.217 490.43 420.238 490.478 417.575C490.589 411.358 490.635 405.131 490.471 398.917C490.358 394.683 490.377 390.677 493.652 387.891C493.684 387.863 493.672 387.759 493.68 387.69L493.68 387.69ZM502.728 414.831C503.306 414.088 503.58 413.734 503.855 413.381C506.217 410.331 508.998 407.694 510.498 403.798C511.387 401.488 511.171 399.324 509.853 397.386C508.257 395.039 505.987 394.82 503.77 395.395C501.768 395.914 500.405 397.629 500.029 400.103C499.924 400.796 499.423 401.964 500.648 402.264C501.797 402.545 501.956 401.774 502.071 400.649C502.228 399.119 503.118 398.123 504.371 397.883C505.825 397.605 507.337 397.545 508.359 399.199C509.181 400.529 509.092 401.922 508.393 403.288C507.696 404.648 506.984 405.982 506.032 407.141C503.357 410.398 500.729 413.71 498.07 417.015C498.27 417.189 498.354 417.327 498.438 417.327C502.416 417.348 506.393 417.34 510.371 417.382C511.205 417.391 511.651 417.219 511.643 416.038C511.635 414.732 510.986 414.823 510.257 414.827C507.876 414.839 505.494 414.831 502.728 414.831Z" fill="#4D4D4D"/>
<path d="M494.043 339.308C494.855 339.207 495.667 339.02 496.48 339.018C503.688 338.995 510.897 339.001 518.105 339.009C520.412 339.012 522.525 339.586 523.985 341.97C524.735 343.193 525.045 344.549 525.042 346.063C525.022 353.977 525.047 361.892 525.024 369.806C525.012 373.77 522.698 376.772 519.363 376.799C510.809 376.869 502.253 376.773 493.698 376.744C493.683 376.248 493.603 375.841 493.188 375.524C491.269 374.062 490.475 371.957 490.495 369.251C490.549 361.908 490.586 354.563 490.482 347.222C490.432 343.699 491.546 341.119 494.043 339.308ZM498.988 359.833C499.826 358.864 500.444 358.163 501.049 357.448C502.391 355.861 505.116 355.452 506.939 356.572C508.222 357.36 509.276 359.886 509.086 361.715C508.819 364.274 507.497 365.989 505.467 366.408C503.164 366.884 501.65 366.055 500.558 363.694C500.273 363.078 500.128 362.398 499.287 362.974C498.565 363.467 498.315 363.831 498.671 364.885C499.389 367.016 500.643 368.176 502.47 368.775C505.746 369.849 509.553 367.922 510.523 364.577C512.539 357.623 508.819 352.44 502.665 353.628C502.393 353.681 501.906 353.817 501.876 353.734C501.467 352.604 501.836 351.442 501.861 350.29C501.88 349.425 502.458 349.407 503.01 349.408C504.768 349.412 506.526 349.387 508.283 349.413C509.019 349.423 509.505 349.308 509.487 348.194C509.472 347.219 509.226 346.84 508.375 346.857C505.974 346.906 503.571 346.876 501.169 346.877C500.631 346.877 500.107 346.841 500.031 347.751C499.707 351.652 499.36 355.55 498.988 359.833Z" fill="#4D4D4D"/>
<path d="M546.452 290.784C554.882 290.744 563.315 290.584 571.743 290.72C575.439 290.779 577.702 293.936 577.712 298.339C577.73 305.832 577.731 313.324 577.713 320.816C577.703 325.252 575.477 328.353 571.743 328.414C563.314 328.553 554.882 328.393 546.451 328.357C543.179 325.51 542.729 321.522 542.867 317.054C543.062 310.768 542.929 304.468 542.911 298.174C542.904 295.985 543.54 294.183 544.861 292.639C545.389 292.021 546.146 291.667 546.452 290.784ZM560.879 311.83C560.703 313.044 560.602 313.93 560.442 314.801C560.091 316.718 559.054 317.841 557.432 318.04C555.967 318.219 554.606 317.963 554.04 315.957C553.822 315.183 553.44 315.106 552.842 315.554C551.915 316.247 552.22 318.838 553.476 319.597C556.833 321.628 561.354 320.76 562.353 315.69C563.161 311.592 563.422 307.485 562.563 303.352C561.996 300.619 559.469 298.406 557.078 298.523C554.269 298.66 551.942 301.345 551.405 305.07C550.997 307.902 552.856 311.382 555.144 312.579C557.163 313.635 558.894 312.764 560.879 311.83Z" fill="#4D4D4D"/>
<path d="M546.804 339.155C552.83 339.105 558.858 339.008 564.884 339.028C567.51 339.036 570.146 338.72 572.763 339.299C575.591 339.925 577.65 342.457 577.686 345.885C577.77 353.86 577.771 361.837 577.694 369.812C577.656 373.66 575.134 376.76 571.912 376.791C563.424 376.873 554.936 376.773 546.447 376.746C546.396 376.381 546.209 376.156 545.954 375.944C543.649 374.027 542.87 371.319 542.899 368.078C542.958 361.707 543.022 355.331 542.879 348.964C542.786 344.806 543.633 341.382 546.803 339.155L546.804 339.155ZM553.942 355.345C553.633 354.55 553.862 353.816 553.975 353.077C554.278 351.111 555.158 349.768 556.899 349.494C558.461 349.248 559.817 349.628 560.457 351.613C560.732 352.465 561.133 352.335 561.681 351.938C562.559 351.304 562.34 348.951 561.125 348.074C558.097 345.89 553.243 346.529 552.156 351.622C551.263 355.807 550.899 360.04 551.963 364.322C552.776 367.594 555.925 369.602 558.71 368.667C561.682 367.669 562.999 364.582 563.026 361.679C563.053 358.86 561.491 355.721 558.69 354.663C556.896 353.986 555.521 355.153 553.942 355.345Z" fill="#4D4D4D"/>
<path d="M494.048 290.778C502.481 290.742 510.915 290.589 519.346 290.726C522.872 290.784 525.019 293.76 525.031 297.906C525.053 305.677 525.048 313.449 525.029 321.22C525.019 325.382 522.899 328.352 519.348 328.413C510.917 328.556 502.483 328.395 494.051 328.357C493.983 327.927 493.799 327.596 493.473 327.372C491.292 325.873 490.443 323.632 490.486 320.656C490.576 314.495 490.636 308.327 490.472 302.171C490.353 297.709 490.299 293.455 494.048 290.778ZM504.771 298.526C504.302 298.526 503.802 298.399 503.371 298.55C501.977 299.035 500.38 298.944 499.604 301.007C498.794 303.161 498.879 305.275 500.103 306.857C501.105 308.153 500.636 308.602 499.931 309.48C498.183 311.657 497.986 314.473 498.841 317.171C499.874 320.433 504.081 321.203 506.976 320.343C507.839 320.086 508.788 319.912 509.439 318.922C511.676 315.52 511.598 312.244 509.097 309.058C508.575 308.394 508.177 308.013 509.063 307.168C509.804 306.461 510.194 305.263 510.215 304.022C510.277 300.346 509.052 298.53 504.771 298.526Z" fill="#4D4D4D"/>
<path d="M440.931 436.048C449.649 436.028 458.367 435.969 467.085 436.01C470.069 436.025 472.507 438.929 472.543 442.592C472.622 450.771 472.62 458.952 472.545 467.13C472.513 470.562 469.98 473.491 467.087 473.505C458.369 473.545 449.651 473.484 440.933 473.463C440.906 472.294 439.958 471.984 439.442 471.287C437.599 468.799 437.924 465.671 437.829 462.816C437.613 456.325 437.767 449.816 437.753 443.315C437.751 442.396 438.034 441.576 438.185 440.714C438.548 438.643 440.509 437.995 440.931 436.047L440.931 436.048ZM445.812 454.697C445.72 456.821 446.187 458.856 446.617 460.854C446.944 462.374 447.624 463.991 448.812 464.724C452.669 467.102 456.695 465.678 457.862 460.021C458.619 456.348 458.543 452.767 457.813 449.125C457.25 446.318 455.394 444.154 452.919 443.68C450.86 443.287 448.5 444.64 447.324 446.902C446.076 449.301 446.063 452.033 445.812 454.697Z" fill="#4D4D4D"/>
<path d="M530.954 184.365C563.656 184.364 596.358 184.364 629.059 184.364C630.713 184.364 631.541 185.539 631.542 187.889C631.542 205.17 631.543 222.451 631.541 239.732C631.541 241.972 630.753 243.094 629.179 243.098C563.6 243.099 498.021 243.093 432.441 243.139C430.922 243.14 430.319 242.748 430.33 240.249C430.41 222.543 430.404 204.836 430.335 187.13C430.326 184.815 430.81 184.318 432.321 184.32C465.199 184.381 498.077 184.367 530.954 184.365L530.954 184.365ZM431.798 218.535C431.775 225.406 431.749 232.278 431.73 239.149C431.723 241.817 431.732 241.816 433.989 241.816C498.577 241.816 563.165 241.816 627.754 241.816C628.164 241.816 628.578 241.774 628.984 241.824C629.899 241.936 630.21 241.484 630.203 240.4C630.153 233.112 630.144 225.824 630.121 218.535C630.144 211.942 630.094 205.347 630.233 198.757C630.275 196.763 629.712 196.405 628.177 196.406C563.893 196.45 499.608 196.446 435.323 196.448C434.561 196.448 433.796 196.492 433.038 196.427C432.091 196.345 431.698 196.691 431.71 197.923C431.776 204.793 431.776 211.664 431.798 218.535H431.798Z" fill="#404141"/>
<path d="M594.866 272.696C583.443 272.696 572.021 272.668 560.6 272.732C559.16 272.74 558.688 272.295 558.712 270.536C558.796 264.223 558.788 257.907 558.716 251.594C558.697 249.929 559.024 249.324 560.544 249.328C583.505 249.384 606.466 249.379 629.427 249.335C630.788 249.333 631.249 249.739 631.228 251.423C631.147 257.805 631.14 264.191 631.23 270.573C631.256 272.388 630.701 272.736 629.307 272.729C617.826 272.671 606.346 272.697 594.865 272.697L594.866 272.696ZM596.375 251.875C596.263 252.011 596.15 252.147 596.038 252.283C596.04 253.809 596.041 255.334 596.044 256.86C596.038 260.664 596.07 264.468 596.007 268.271C595.984 269.636 596.246 270.254 597.543 270.227C601.687 270.142 605.833 270.142 609.977 270.227C611.27 270.254 611.539 269.646 611.518 268.276C611.458 264.474 611.496 260.669 611.495 256.866C611.499 255.97 611.429 255.064 611.521 254.181C611.702 252.431 611.245 251.765 609.634 251.816C605.217 251.956 600.795 251.871 596.375 251.876L596.375 251.875ZM593.907 260.613C593.911 258.263 593.879 255.912 593.936 253.565C593.965 252.364 593.689 251.823 592.571 251.839C588.313 251.898 584.053 251.898 579.795 251.838C578.678 251.823 578.402 252.36 578.428 253.563C578.486 256.188 578.458 258.815 578.466 261.441C578.458 263.79 578.487 266.141 578.429 268.489C578.399 269.685 578.668 270.235 579.79 270.219C584.048 270.159 588.307 270.159 592.565 270.218C593.684 270.234 593.954 269.69 593.93 268.491C593.877 265.866 593.909 263.239 593.907 260.613ZM576.327 257.282C576.329 256.247 576.252 255.2 576.353 254.178C576.527 252.411 576.061 251.734 574.453 251.817C571.429 251.973 568.395 251.862 565.365 251.862C562.319 251.862 560.824 253.667 560.879 257.275C560.872 260.941 560.902 264.607 560.838 268.27C560.815 269.631 561.074 270.255 562.374 270.227C566.518 270.14 570.665 270.141 574.808 270.226C576.097 270.252 576.374 269.652 576.351 268.277C576.289 264.614 576.328 260.948 576.327 257.282ZM629.078 257.281C629.082 256.245 629.006 255.199 629.107 254.177C629.283 252.409 628.814 251.741 627.207 251.816C623.949 251.969 620.682 251.862 617.418 251.862C614.857 251.862 613.593 253.39 613.624 256.445C613.62 260.387 613.651 264.33 613.591 268.27C613.57 269.634 613.831 270.254 615.128 270.227C619.272 270.141 623.418 270.141 627.562 270.227C628.854 270.253 629.128 269.653 629.104 268.276C629.041 264.612 629.08 260.946 629.078 257.281Z" fill="#1E110E"/>
<path d="M546.804 339.155C543.634 341.382 542.786 344.806 542.879 348.964C543.022 355.331 542.958 361.707 542.9 368.077C542.87 371.319 543.65 374.027 545.955 375.944C546.21 376.156 546.396 376.381 546.448 376.745C545.22 376.777 543.99 376.871 542.763 376.831C539.106 376.712 536.703 373.668 536.655 368.852C536.581 361.427 536.589 353.999 536.654 346.573C536.69 342.376 538.939 339.476 542.43 339.051C543.872 338.876 545.352 338.812 546.804 339.155Z" fill="#303030"/>
<path d="M599.558 339.142C599.181 340.017 598.292 340.008 597.752 340.619C596.494 342.043 595.639 343.618 595.652 345.815C595.698 353.484 595.718 361.154 595.646 368.822C595.619 371.785 596.129 374.286 598.455 375.877C598.66 376.018 598.722 376.454 598.851 376.753C597.564 376.781 596.274 376.885 594.99 376.822C591.889 376.67 589.397 373.82 589.364 370.151C589.292 362.031 589.302 353.909 589.362 345.788C589.387 342.268 591.89 339.302 595.004 339.031C596.512 338.9 598.04 339.095 599.558 339.142Z" fill="#303030"/>
<path d="M494.049 290.778C490.3 293.455 490.354 297.709 490.473 302.17C490.637 308.327 490.577 314.495 490.487 320.656C490.443 323.632 491.293 325.873 493.474 327.372C493.799 327.596 493.984 327.927 494.051 328.357C492.249 328.525 490.442 328.755 488.667 328.141C485.878 327.176 484.233 324.76 484.212 321.314C484.163 313.421 484.168 305.527 484.209 297.633C484.228 293.928 486.791 290.885 490.028 290.672C491.362 290.584 492.708 290.735 494.049 290.778Z" fill="#303030"/>
<path d="M494.043 339.308C491.546 341.119 490.432 343.699 490.482 347.222C490.586 354.563 490.549 361.908 490.495 369.251C490.475 371.958 491.269 374.062 493.188 375.524C493.603 375.841 493.683 376.248 493.698 376.745C492.296 376.771 490.883 376.946 489.495 376.796C486.516 376.475 484.224 373.281 484.206 369.455C484.171 361.764 484.174 354.072 484.205 346.381C484.221 342.649 485.994 340.111 489.055 339.298C490.713 338.858 492.381 338.72 494.043 339.308Z" fill="#303030"/>
<path d="M598.857 290.778C598.844 290.845 598.849 290.946 598.814 290.975C595.461 293.645 595.555 297.656 595.637 301.799C595.763 308.082 595.736 314.374 595.641 320.659C595.597 323.621 596.465 325.86 598.528 327.479C598.818 327.708 599.142 327.892 599.206 328.36C596.341 328.597 593.458 328.996 591.107 326.314C589.943 324.987 589.35 323.392 589.347 321.507C589.335 313.535 589.312 305.563 589.355 297.592C589.375 293.91 591.803 290.961 595.008 290.68C596.282 290.568 597.573 290.737 598.857 290.778Z" fill="#303030"/>
<path d="M546.452 290.785C546.146 291.668 545.389 292.022 544.861 292.64C543.54 294.184 542.904 295.986 542.911 298.175C542.929 304.469 543.062 310.769 542.867 317.055C542.729 321.523 543.178 325.511 546.451 328.358C545.167 328.398 543.873 328.574 542.599 328.457C538.955 328.122 536.695 325.146 536.652 320.486C536.585 313.063 536.586 305.638 536.653 298.215C536.691 293.903 538.998 291.031 542.6 290.683C543.873 290.559 545.167 290.742 546.452 290.785Z" fill="#303030"/>
<path d="M598.841 436.048C598.706 437.02 597.832 437.122 597.416 437.741C596.39 439.268 595.636 440.893 595.65 442.981C595.702 450.664 595.676 458.349 595.668 466.032C595.665 468.787 596.182 471.196 598.478 472.574C598.676 472.692 598.724 473.159 598.842 473.463C597.498 473.484 596.153 473.569 594.811 473.513C591.916 473.393 589.421 470.565 589.389 467.111C589.309 458.869 589.3 450.625 589.372 442.383C589.403 438.923 591.897 436.12 594.81 435.997C596.152 435.941 597.497 436.026 598.841 436.047V436.048Z" fill="#AD1716"/>
<path d="M493.683 436.045C493.659 436.509 493.391 436.736 493.105 437.006C491.307 438.699 490.444 440.83 490.481 443.647C490.575 450.914 490.578 458.185 490.479 465.452C490.441 468.289 491.046 470.597 493.001 472.325C493.314 472.602 493.675 472.905 493.685 473.467C491.661 473.39 489.605 473.996 487.633 472.884C485.376 471.613 484.252 469.422 484.223 466.608C484.14 458.698 484.155 450.785 484.213 442.874C484.243 438.813 486.732 436.027 490.171 435.99C491.342 435.978 492.513 436.025 493.684 436.045H493.683Z" fill="#303030"/>
<path d="M493.679 387.69C493.671 387.758 493.684 387.862 493.651 387.89C490.376 390.676 490.358 394.682 490.47 398.917C490.635 405.13 490.589 411.357 490.477 417.574C490.429 420.237 491.201 422.217 492.956 423.759C493.338 424.095 493.658 424.494 493.69 425.105C491.944 425.133 490.183 425.481 488.465 424.847C485.88 423.894 484.222 421.406 484.207 418.238C484.17 410.328 484.154 402.418 484.212 394.508C484.242 390.478 486.754 387.674 490.167 387.642C491.338 387.632 492.508 387.672 493.679 387.689V387.69Z" fill="#303030"/>
<path d="M546.434 387.689C545.53 389.209 543.777 389.808 543.359 391.92C543.174 392.857 542.908 393.747 542.91 394.735C542.923 401.883 542.947 409.031 542.903 416.179C542.883 419.556 543.559 422.47 546.111 424.412C546.278 424.54 546.335 424.87 546.444 425.105C545.627 425.131 544.805 425.103 543.994 425.194C539.714 425.673 536.655 422.781 536.638 416.636C536.619 409.574 536.58 402.51 536.652 395.448C536.699 390.937 538.74 387.359 543.279 387.636C544.328 387.7 545.382 387.674 546.434 387.689Z" fill="#303030"/>
<path d="M598.837 387.689C598.812 387.824 598.826 388.035 598.758 388.082C595.573 390.302 595.564 393.875 595.635 397.657C595.761 404.381 595.718 411.111 595.646 417.837C595.618 420.385 596.063 422.484 598.105 423.766C598.519 424.027 598.816 424.491 598.849 425.104C597.048 425.13 595.233 425.494 593.46 424.807C590.873 423.806 589.373 421.55 589.356 418.315C589.315 410.281 589.31 402.246 589.357 394.212C589.379 390.592 591.767 387.784 594.805 387.659C596.148 387.604 597.493 387.675 598.837 387.689Z" fill="#303030"/>
<path d="M546.087 436.046C545.374 437.816 543.686 438.777 543.324 440.872C543.137 441.953 542.9 442.995 542.904 444.12C542.928 451.17 543.033 458.225 542.862 465.269C542.789 468.297 543.707 470.454 545.568 472.272C545.912 472.608 546.434 472.779 546.44 473.467C545.096 473.486 543.751 473.548 542.408 473.517C539.092 473.443 536.745 469.799 536.723 465.87C536.689 459.788 536.715 453.703 536.62 447.621C536.589 445.607 536.739 443.616 536.929 441.626C537.199 438.789 539.627 436.115 542.055 436.008C543.397 435.949 544.743 436.028 546.087 436.046Z" fill="#303030"/>
<path d="M441.997 339.144C441.37 339.716 440.728 340.268 440.118 340.864C438.545 342.403 437.733 344.339 437.747 346.812C437.785 353.399 437.649 359.99 437.814 366.571C437.882 369.259 437.827 372.098 439.347 374.507C439.847 375.301 441.088 375.347 440.943 376.746C439.254 376.823 437.558 377.116 435.896 376.471C433.186 375.419 431.771 373.184 431.764 369.806C431.747 361.964 431.749 354.123 431.762 346.281C431.768 342.204 433.974 339.33 437.445 339.028C438.952 338.898 440.479 339.095 441.997 339.144Z" fill="#303030"/>
<path d="M441.302 290.78C441.307 292.237 440.004 292.138 439.42 292.954C437.877 295.114 437.863 297.719 437.811 300.193C437.667 307.116 437.717 314.047 437.784 320.973C437.807 323.385 438.382 325.618 440.347 326.945C440.812 327.258 441.197 327.685 441.297 328.359C439.666 328.531 438.041 328.676 436.418 328.215C433.337 327.34 431.768 325.04 431.761 321.233C431.748 313.46 431.747 305.688 431.763 297.915C431.772 293.804 433.959 290.988 437.449 290.679C438.724 290.565 440.017 290.738 441.302 290.78Z" fill="#303030"/>
<path d="M440.93 436.047C440.509 437.994 438.548 438.643 438.185 440.713C438.033 441.576 437.75 442.396 437.752 443.314C437.767 449.816 437.613 456.324 437.828 462.816C437.923 465.67 437.598 468.798 439.442 471.287C439.958 471.984 440.906 472.293 440.932 473.463C438.747 473.423 436.509 474.066 434.468 472.472C432.717 471.106 431.766 469.263 431.763 466.787C431.75 458.762 431.735 450.737 431.77 442.712C431.786 438.874 434.19 436.066 437.428 435.993C438.595 435.967 439.763 436.027 440.93 436.047H440.93Z" fill="#303030"/>
<path d="M441.277 387.688C441.004 388.887 439.884 388.961 439.287 389.822C437.717 392.085 437.9 394.818 437.826 397.339C437.631 403.996 437.751 410.665 437.764 417.33C437.77 420.187 438.458 422.643 440.771 424.075C441.109 424.284 441.246 424.668 441.288 425.104C439.423 425.14 437.543 425.503 435.715 424.756C433.164 423.714 431.778 421.536 431.768 418.358C431.742 410.374 431.735 402.39 431.77 394.406C431.788 390.426 434.193 387.683 437.585 387.647C438.815 387.634 440.046 387.673 441.276 387.688L441.277 387.688Z" fill="#303030"/>
<path d="M504.584 451.687C505.965 451.634 507.217 452.962 507.306 454.574C507.395 456.187 506.269 457.659 504.873 457.756C503.314 457.864 502.149 456.621 502.11 454.808C502.074 453.119 503.166 451.742 504.584 451.687Z" fill="#F7F7F7"/>
<path d="M609.742 308.598C611.554 308.596 613.366 308.606 615.179 308.59C615.77 308.585 616.235 308.705 616.239 309.565C616.243 310.414 615.803 310.566 615.198 310.563C611.574 310.549 607.95 310.547 604.325 310.561C603.677 310.564 603.351 310.314 603.376 309.482C603.4 308.705 603.784 308.595 604.305 308.597C606.117 308.603 607.929 308.6 609.741 308.598L609.742 308.598Z" fill="#EBEBEB"/>
<path d="M609.881 313.107C610.664 313.23 611.121 313.821 611.093 314.763C611.063 315.803 610.524 316.468 609.626 316.364C608.824 316.271 608.393 315.559 608.462 314.616C608.531 313.693 608.986 313.106 609.881 313.107Z" fill="#F7F7F7"/>
<path d="M609.942 306.026C608.945 306.048 608.516 305.384 608.482 304.499C608.446 303.607 608.868 302.843 609.691 302.791C610.574 302.734 611.125 303.352 611.116 304.427C611.109 305.378 610.64 305.931 609.942 306.026V306.026Z" fill="#F7F7F7"/>
<path d="M452.885 400.176C452.199 400.699 451.769 401.035 451.332 401.356C450.947 401.638 450.499 402.12 450.238 401.252C450.068 400.688 449.334 400.033 450.137 399.473C451.339 398.635 452.127 397.363 452.937 396.095C453.244 395.614 453.65 395.375 454.161 395.514C454.841 395.698 454.628 396.378 454.629 396.874C454.642 403.182 454.634 409.49 454.635 415.797C454.635 416.566 454.753 417.329 453.714 417.298C452.619 417.265 452.896 416.376 452.894 415.695C452.878 410.636 452.885 405.578 452.885 400.176Z" fill="#F7F7F7"/>
<path d="M609.787 408.063C607.567 408.063 605.344 408 603.127 408.089C601.974 408.134 601.945 407.395 601.96 406.403C601.975 405.471 601.869 404.67 603.074 404.688C607.514 404.758 611.956 404.753 616.397 404.688C617.516 404.671 617.574 405.304 617.588 406.336C617.604 407.489 617.464 408.147 616.273 408.091C614.115 407.989 611.95 408.062 609.788 408.062L609.787 408.063Z" fill="#FEFEFE"/>
<path d="M609.767 355.897C611.651 354.281 611.457 350.18 615.094 350.923C614.297 352.293 613.597 353.519 612.877 354.729C611.689 356.724 611.687 358.753 612.87 360.816C613.615 362.119 614.34 363.437 615.141 364.867C613.541 365.507 612.559 365.09 611.85 363.458C611.295 362.182 610.544 361.026 609.882 359.819C607.815 361.195 608.173 365.873 604.334 364.991C605.544 362.913 606.608 360.951 607.796 359.101C608.4 358.161 608.428 357.465 607.818 356.546C607.024 355.349 606.282 354.093 605.617 352.79C605.335 352.236 604.361 351.552 605.073 350.989C605.7 350.493 606.772 350.44 607.374 351.613C607.922 352.679 608.524 353.705 609.105 354.746C609.328 355.144 609.559 355.535 609.767 355.897V355.897Z" fill="#F7F7F7"/>
<path d="M455.292 300.984C452.378 300.984 449.639 300.967 446.901 300.995C446.122 301.003 445.558 300.969 445.556 299.723C445.554 298.476 446.124 298.438 446.899 298.442C450.349 298.462 453.799 298.509 457.246 298.421C458.627 298.386 458.478 298.951 458.037 300.08C455.534 306.478 453.073 312.9 450.603 319.316C450.312 320.072 450.181 320.865 449.137 320.271C448.182 319.727 448.397 319.155 448.716 318.332C450.686 313.242 452.638 308.141 454.589 303.041C454.823 302.428 455.017 301.794 455.292 300.984Z" fill="#F7F7F7"/>
<path d="M556.218 459.93C556.218 457.31 555.13 456.001 552.953 456.005C552.134 456.006 551.314 455.962 550.498 456.013C549.709 456.063 549.332 455.798 549.331 454.751C549.33 453.709 549.696 453.463 550.491 453.491C552.01 453.543 553.534 453.448 555.051 453.524C555.993 453.571 556.27 453.149 556.233 452.081C556.174 450.352 556.247 448.618 556.21 446.887C556.19 445.969 556.372 445.493 557.263 445.49C558.161 445.487 558.344 445.976 558.327 446.889C558.297 448.62 558.367 450.354 558.308 452.083C558.271 453.152 558.553 453.568 559.489 453.522C561.006 453.448 562.529 453.531 564.049 453.491C564.764 453.472 565.118 453.685 565.097 454.641C565.077 455.528 564.993 456.071 564.056 456.021C562.539 455.94 561.014 456.059 559.496 455.986C558.561 455.942 558.279 456.359 558.315 457.426C558.373 459.155 558.301 460.889 558.336 462.62C558.354 463.547 558.15 464.005 557.266 464.012C556.372 464.02 556.168 463.552 556.209 462.63C556.25 461.733 556.218 460.83 556.218 459.929L556.218 459.93Z" fill="#F7F7F7"/>
<path d="M612.907 458.089C609.687 458.089 606.467 458.094 603.248 458.084C602.641 458.082 601.959 458.319 601.948 457.047C601.938 455.776 602.607 455.992 603.223 455.992C609.662 455.986 616.102 455.983 622.542 455.989C623.144 455.99 623.833 455.735 623.837 457.015C623.84 458.258 623.203 458.09 622.567 458.09C619.347 458.089 616.127 458.089 612.907 458.089Z" fill="#EBEBEB"/>
<path d="M612.888 453.514C609.67 453.514 606.451 453.516 603.232 453.513C602.604 453.512 601.943 453.703 601.953 452.448C601.964 451.177 602.654 451.421 603.261 451.421C609.698 451.415 616.136 451.417 622.573 451.417C623.206 451.417 623.843 451.233 623.837 452.487C623.831 453.775 623.142 453.507 622.544 453.51C619.326 453.52 616.107 453.515 612.888 453.515V453.514Z" fill="#EBEBEB"/>
<path d="M563.821 395.249C562.245 397.859 560.865 400.143 559.484 402.429C563.018 405.172 564.09 408.097 563.278 411.822C562.142 417.03 557.998 417.947 554.848 417.14C552.973 416.66 551.801 415.325 551.064 413.233C550.671 412.12 551.078 411.821 551.754 411.35C552.628 410.741 552.726 411.552 552.988 412.128C554.239 414.878 557.252 415.769 559.582 414.076C561.443 412.724 562.076 408.954 560.793 406.644C560.237 405.642 559.36 405.265 558.375 405.247C557.463 405.231 556.551 405.244 555.257 405.244C556.796 402.636 558.115 400.402 559.657 397.79C557.562 397.79 555.781 397.79 554.001 397.79C553.304 397.79 552.583 397.967 552.559 396.632C552.535 395.296 553.15 395.228 554.007 395.237C557.149 395.269 560.292 395.249 563.821 395.249Z" fill="#F7F7F7"/>
<path d="M444.961 362.517C447.955 357.396 450.73 352.681 453.466 347.935C453.924 347.14 454.51 347.097 455.151 347.244C455.932 347.423 455.643 348.231 455.648 348.784C455.676 351.629 455.772 354.483 455.623 357.317C455.516 359.358 455.944 360.298 457.795 359.952C458.329 359.853 459.146 359.553 459.248 360.814C459.344 362.003 459.111 362.562 457.942 362.552C455.667 362.532 455.666 362.62 455.662 365.355C455.66 366.119 455.627 366.884 455.667 367.645C455.716 368.567 455.352 368.848 454.625 368.857C453.902 368.865 453.537 368.617 453.569 367.678C453.612 366.431 453.531 365.177 453.592 363.932C453.645 362.846 453.304 362.476 452.39 362.498C450.06 362.555 447.727 362.517 444.961 362.517ZM453.577 352.184C452.084 354.725 450.865 356.798 449.648 358.873C449.385 359.321 449.198 359.848 449.882 359.872C451.038 359.914 452.324 360.161 453.311 359.654C453.993 359.303 453.527 357.75 453.565 356.737C453.613 355.43 453.577 354.118 453.577 352.184Z" fill="#F7F7F7"/>
<path d="M502.729 414.831C505.495 414.831 507.877 414.839 510.258 414.826C510.987 414.823 511.636 414.731 511.644 416.037C511.651 417.218 511.206 417.391 510.371 417.382C506.394 417.339 502.417 417.348 498.439 417.327C498.354 417.326 498.271 417.189 498.07 417.014C500.729 413.709 503.358 410.398 506.033 407.14C506.984 405.982 507.697 404.647 508.393 403.287C509.092 401.921 509.181 400.528 508.36 399.198C507.337 397.544 505.825 397.604 504.372 397.882C503.119 398.122 502.228 399.119 502.071 400.648C501.956 401.773 501.798 402.544 500.648 402.263C499.424 401.964 499.925 400.795 500.03 400.102C500.405 397.628 501.769 395.913 503.771 395.394C505.988 394.82 508.257 395.038 509.854 397.386C511.172 399.323 511.388 401.488 510.499 403.797C508.999 407.693 506.218 410.33 503.855 413.38C503.581 413.734 503.306 414.087 502.729 414.831V414.831Z" fill="#F7F7F7"/>
<path d="M498.989 359.833C499.361 355.551 499.708 351.652 500.033 347.752C500.108 346.841 500.632 346.878 501.17 346.878C503.572 346.877 505.975 346.907 508.376 346.858C509.227 346.84 509.473 347.219 509.488 348.195C509.505 349.309 509.02 349.424 508.284 349.413C506.527 349.387 504.769 349.412 503.011 349.409C502.459 349.408 501.881 349.426 501.862 350.291C501.837 351.443 501.468 352.605 501.877 353.734C501.907 353.818 502.394 353.681 502.666 353.629C508.82 352.441 512.541 357.623 510.524 364.578C509.554 367.923 505.747 369.85 502.472 368.776C500.644 368.176 499.39 367.017 498.672 364.886C498.316 363.831 498.566 363.468 499.288 362.975C500.13 362.399 500.274 363.078 500.559 363.695C501.651 366.056 503.165 366.884 505.468 366.409C507.498 365.99 508.82 364.275 509.087 361.716C509.277 359.886 508.223 357.36 506.94 356.572C505.117 355.452 502.392 355.862 501.05 357.448C500.445 358.164 499.827 358.865 498.989 359.833Z" fill="#F7F7F7"/>
<path d="M560.88 311.832C558.894 312.765 557.163 313.636 555.144 312.58C552.857 311.384 550.997 307.904 551.405 305.071C551.942 301.347 554.269 298.661 557.078 298.524C559.469 298.407 561.996 300.62 562.564 303.353C563.423 307.486 563.161 311.593 562.353 315.692C561.354 320.761 556.834 321.629 553.476 319.599C552.22 318.839 551.915 316.249 552.842 315.555C553.441 315.108 553.822 315.185 554.041 315.959C554.607 317.964 555.968 318.221 557.432 318.041C559.054 317.842 560.091 316.719 560.442 314.802C560.602 313.931 560.703 313.045 560.88 311.832ZM557.272 310.599C559.155 310.584 560.906 308.452 560.926 306.151C560.95 303.338 559.315 301.071 557.258 301.065C555.266 301.058 553.437 303.354 553.448 305.848C553.458 308.355 555.277 310.614 557.272 310.599Z" fill="#F7F7F7"/>
<path d="M553.942 355.345C555.521 355.153 556.897 353.986 558.69 354.664C561.49 355.721 563.053 358.86 563.026 361.679C562.999 364.583 561.682 367.669 558.71 368.667C555.925 369.602 552.777 367.594 551.963 364.323C550.899 360.041 551.264 355.807 552.157 351.622C553.243 346.529 558.097 345.891 561.125 348.075C562.34 348.951 562.56 351.304 561.681 351.939C561.133 352.335 560.732 352.466 560.457 351.614C559.817 349.628 558.461 349.248 556.899 349.494C555.158 349.768 554.278 351.111 553.975 353.078C553.862 353.816 553.633 354.551 553.942 355.345ZM557.302 366.441C559.235 366.408 560.975 364.189 561.003 361.721C561.031 359.22 559.138 356.841 557.173 356.908C555.268 356.973 553.461 359.192 553.489 361.432C553.523 364.269 555.204 366.478 557.302 366.441ZM553.596 355.751L553.663 355.83L553.683 355.709L553.596 355.751Z" fill="#F7F7F7"/>
<path d="M504.771 298.523C509.052 298.529 510.277 300.345 510.215 304.021C510.195 305.261 509.804 306.459 509.063 307.166C508.177 308.011 508.575 308.393 509.097 309.057C511.599 312.242 511.676 315.518 509.439 318.921C508.789 319.911 507.839 320.084 506.976 320.341C504.081 321.201 499.874 320.431 498.841 317.169C497.987 314.471 498.183 311.656 499.931 309.478C500.636 308.601 501.105 308.151 500.103 306.855C498.88 305.273 498.794 303.159 499.604 301.005C500.38 298.943 501.978 299.034 503.371 298.548C503.802 298.398 504.303 298.525 504.771 298.523ZM504.588 318.096C507.573 318.101 508.852 316.874 508.901 314.11C508.948 311.435 506.96 309.479 504.645 309.393C502.395 309.31 500.429 311.684 500.404 314.2C500.378 316.812 501.751 318.091 504.588 318.096ZM505.103 301.024C504.027 301.065 503.35 301.081 502.653 301.321C501.728 301.641 501.228 302.275 501.178 303.344C501.13 304.365 501.451 305.201 502.283 305.733C503.987 306.82 505.646 306.674 507.286 305.584C508.053 305.074 508.181 304.189 508.129 303.253C508.079 302.347 507.725 301.736 506.956 301.401C506.22 301.08 505.485 300.999 505.103 301.024Z" fill="#F7F7F7"/>
<path d="M445.813 454.698C446.063 452.033 446.077 449.302 447.324 446.903C448.501 444.64 450.861 443.287 452.92 443.681C455.395 444.155 457.251 446.319 457.813 449.126C458.543 452.768 458.62 456.349 457.862 460.022C456.695 465.68 452.669 467.103 448.813 464.725C447.625 463.992 446.945 462.375 446.618 460.855C446.187 458.857 445.72 456.822 445.813 454.698ZM456.399 454.77C456.469 452.943 456.081 451.183 455.677 449.462C455.216 447.499 454.085 446.305 452.258 446.258C450.477 446.213 449.186 447.247 448.608 449.395C447.64 452.997 447.691 456.637 448.65 460.226C449.182 462.216 450.403 463.214 452.209 463.214C454.059 463.213 455.183 462.034 455.66 460.079C456.078 458.362 456.439 456.596 456.399 454.77Z" fill="#F7F7F7"/>
<path d="M630.122 212.969C630.145 221.906 630.154 230.843 630.204 239.78C630.212 241.109 629.9 241.664 628.985 241.526C628.579 241.465 628.165 241.516 627.754 241.516C563.166 241.516 498.578 241.516 433.99 241.516C431.733 241.516 431.724 241.517 431.731 238.247C431.749 229.821 431.776 221.395 431.799 212.969C468.49 212.969 505.181 212.973 541.873 212.95C542.591 212.95 543.416 213.411 544.009 212.343C544.349 212.576 544.69 212.809 545.031 213.042C545.032 213.438 545.034 213.833 545.036 214.229C543.934 214.295 543.948 215.442 543.949 216.585C543.95 219.558 543.957 222.532 543.944 225.505C543.937 226.851 544.176 228.438 543.768 229.468C543.439 230.299 542.271 229.631 541.478 229.747C541.114 229.8 540.818 229.954 540.535 230.305C540.065 230.891 540.1 231.382 540.545 231.957C541.568 233.277 543.957 232.505 544.751 230.114C545.244 232.957 546.641 232.518 547.925 232.493C548.629 232.478 549.308 232.106 549.273 230.995C549.243 230.053 548.599 229.714 547.948 229.743C547.656 229.756 547.357 229.69 547.072 229.759C545.964 230.025 545.697 229.327 545.721 227.785C545.786 223.54 545.731 219.291 545.724 215.044C545.697 213.905 545.913 212.962 546.835 212.997C549.454 213.099 552.06 212.822 554.668 212.55C554.363 213.021 554.493 213.896 553.963 214.16C553.131 214.577 553.067 215.542 553.073 216.629C553.094 220.366 553.074 224.103 553.088 227.84C553.096 230.233 554.585 232.47 556.229 232.498C558.743 232.54 561.258 232.504 563.772 232.508C564.565 232.509 565.502 232.39 565.483 231.022C565.466 229.839 564.581 229.728 563.829 229.736C561.315 229.764 558.797 229.622 556.288 229.785C555.065 229.864 554.901 229.225 554.893 227.668C554.872 223.611 555.15 219.541 554.731 215.496C555.055 214.517 555.66 214.999 556.131 214.991C558.531 214.947 560.935 214.872 563.331 215.019C564.552 215.094 565.337 214.549 565.775 212.92C566.226 213.279 566.384 212.501 566.718 212.405C568.341 212.768 569.964 213.131 571.587 213.494C571.817 214.221 572.154 214.864 572.736 214.841C576.076 214.713 579.431 215.395 582.756 214.459C582.28 218.928 582.616 223.425 582.562 227.908C582.546 229.337 582.279 229.814 581.274 229.777C578.705 229.683 576.133 229.768 573.563 229.733C572.799 229.723 571.948 229.934 571.892 231.04C571.833 232.212 572.668 232.505 573.428 232.502C576.115 232.491 578.803 232.534 581.489 232.484C582.636 232.463 584.418 230.048 584.434 228.443C584.477 224.286 584.471 220.127 584.426 215.969C584.412 214.74 584.199 213.518 582.981 214.152C582.988 213.754 582.996 213.356 583.003 212.958C583.268 212.9 583.533 212.842 583.798 212.784C585.359 213.268 586.884 212.846 588.409 212.4C590.227 215.689 592.77 214.918 595.17 214.942C596.106 214.951 597.065 215.132 597.975 214.904C599.886 214.426 600.192 215.765 600.11 218.124C599.999 221.347 600.092 224.585 600.077 227.815C600.072 229.017 600.24 230.317 601.158 230.266C601.955 230.221 602.037 228.928 602.031 227.837C602.011 224.096 602.014 220.355 602.032 216.614C602.037 215.629 601.97 214.726 601.329 214.176C599.87 212.926 601.513 213.095 601.669 212.586C602.659 213.534 605.062 213.072 605.94 211.764C607.235 214.124 608.779 215.397 610.996 215.042C612.905 214.735 614.855 215.001 616.786 214.966C617.506 214.953 617.977 215.019 617.951 216.417C617.866 220.912 617.875 225.411 617.848 229.908C615.826 229.854 613.803 229.697 611.784 229.782C610.487 229.837 609.137 229.209 607.886 230.218C607.909 229.29 607.984 228.356 607.938 227.435C607.898 226.638 607.554 225.892 606.995 225.887C606.416 225.883 606.169 226.658 606.033 227.456C605.72 229.288 606.471 230.276 607.377 231.159C607.712 232.225 608.304 232.527 609.076 232.516C611.689 232.479 614.303 232.508 616.917 232.498C617.711 232.496 618.443 232.332 618.48 230.822C619.156 230.484 619.972 230.088 619.87 228.874C619.423 223.572 621.271 217.858 618.544 212.966C622.404 212.967 626.263 212.968 630.122 212.969Z" fill="#AFBBBB"/>
<path d="M554.666 212.549C552.059 212.821 549.452 213.098 546.833 212.996C545.912 212.961 545.696 213.904 545.723 215.043C545.494 214.771 545.264 214.5 545.035 214.229C545.033 213.833 545.032 213.438 545.03 213.042C545.277 212.401 545.756 211.987 545.751 211.093C545.727 206.866 545.796 202.636 545.71 198.412C545.68 196.956 545.177 195.88 544.037 197.233C543.91 197.189 543.783 197.145 543.656 197.101C543.603 196.648 543.474 196.337 543.107 196.305C542.103 196.216 539.809 199.003 539.731 200.463C539.705 200.949 539.614 201.605 539.989 201.822C540.418 202.071 540.942 202.086 541.338 201.658C541.893 201.058 542.392 200.35 542.916 199.688C543.21 199.692 543.504 199.696 543.799 199.7C543.869 203.915 543.938 208.129 544.008 212.343C543.416 213.411 542.59 212.95 541.872 212.95C505.181 212.973 468.489 212.969 431.798 212.969C431.776 204.544 431.776 196.118 431.709 187.694C431.697 186.183 432.09 185.759 433.038 185.859C433.796 185.94 434.561 185.885 435.322 185.885C499.607 185.883 563.892 185.887 628.177 185.834C629.711 185.833 630.274 186.271 630.233 188.717C630.093 196.797 630.143 204.884 630.121 212.969C626.261 212.967 622.402 212.966 618.543 212.965C617.944 212.224 617.279 211.916 616.465 211.941C614.07 212.015 611.671 211.866 609.279 212.016C608.147 212.087 607.916 211.547 607.947 210.033C608.019 206.47 608.008 202.902 607.951 199.338C607.93 198.023 608.179 197.592 609.114 197.628C611.567 197.722 614.023 197.638 616.478 197.671C617.328 197.682 618.383 197.689 618.433 196.279C618.485 194.822 617.434 194.688 616.583 194.688C614.128 194.689 611.673 194.656 609.219 194.697C607.594 194.723 606 197.14 605.981 199.574C605.951 203.637 605.951 207.7 605.939 211.763C605.061 213.071 602.658 213.533 601.668 212.585C601.97 211.922 602.034 211.193 602.031 210.407C602.015 206.672 602.015 202.936 602.028 199.201C602.032 198.039 601.951 196.694 601.013 196.748C600.191 196.796 600.174 198.144 600.175 199.197C600.181 202.932 600.135 206.669 600.193 210.403C600.213 211.714 599.979 212.079 599.054 212.041C596.426 211.933 593.792 211.913 591.165 212.044C590.186 212.093 590.034 211.639 590.051 210.383C590.101 206.479 590.061 202.573 590.074 198.667C590.077 197.709 589.831 196.812 589.215 196.71C588.546 196.599 588.216 197.504 588.232 198.422C588.309 203.081 587.985 207.75 588.408 212.399C586.884 212.845 585.359 213.267 583.797 212.783C584.026 212.221 584.419 211.827 584.415 211.039C584.395 206.906 584.417 202.771 584.406 198.637C584.403 197.307 583.826 196.746 582.987 196.613C582.982 195.312 582.401 194.798 581.639 194.787C578.777 194.745 575.915 194.754 573.054 194.799C572.433 194.809 571.797 195.299 571.836 196.252C571.87 197.111 572.428 197.614 573.103 197.611C575.322 197.599 577.543 197.662 579.761 197.587C580.725 197.554 581.753 198.051 582.647 197.088C582.512 202.22 582.515 207.352 582.666 212.483C579.372 211.533 576.044 212.214 572.733 212.085C572.194 212.064 571.822 212.766 571.586 213.492C569.963 213.129 568.341 212.766 566.718 212.403C567.077 207.684 566.818 202.951 566.852 198.226C566.859 197.297 566.707 196.255 565.738 196.999C565.381 195.15 564.502 194.686 563.258 194.766C561.466 194.881 559.663 194.872 557.871 194.736C556.214 194.61 554.685 194.717 553.692 197.027C552.718 198.056 552.969 199.383 553.339 200.655C553.453 201.047 553.779 201.538 554.191 201.212C555.17 200.437 555.046 199.144 554.89 197.854C554.88 197.772 554.848 197.695 554.827 197.615C558.33 197.587 561.833 197.558 565.336 197.529C564.73 202.328 565.079 207.157 565.126 211.976C562.534 211.972 559.941 211.949 557.349 211.975C556.442 211.984 555.492 211.685 554.667 212.548L554.666 212.549Z" fill="#B8C1C0"/>
<path d="M611.496 256.865C611.496 260.668 611.459 264.473 611.518 268.275C611.54 269.645 611.27 270.253 609.977 270.226C605.834 270.141 601.687 270.141 597.543 270.226C596.246 270.253 595.984 269.635 596.007 268.27C596.07 264.468 596.038 260.663 596.043 256.859C601.194 256.861 606.345 256.863 611.496 256.865Z" fill="#3F2424"/>
<path d="M629.077 257.281C629.08 260.946 629.041 264.612 629.104 268.276C629.128 269.653 628.854 270.253 627.562 270.227C623.419 270.141 619.272 270.141 615.128 270.227C613.831 270.254 613.57 269.634 613.591 268.27C613.651 264.33 613.619 260.387 613.623 256.445C614.247 256.586 614.868 256.829 615.494 256.849C620.022 256.997 624.563 256.544 629.077 257.281Z" fill="#3F2424"/>
<path d="M576.327 257.282C576.328 260.947 576.289 264.614 576.351 268.277C576.374 269.652 576.097 270.252 574.808 270.226C570.664 270.142 566.518 270.14 562.374 270.227C561.074 270.254 560.815 269.631 560.838 268.27C560.902 264.606 560.872 260.94 560.879 257.275C566.028 257.278 571.177 257.28 576.327 257.282Z" fill="#3F2424"/>
<path d="M593.907 260.612C593.91 263.238 593.877 265.865 593.93 268.489C593.955 269.689 593.684 270.232 592.566 270.217C588.308 270.158 584.048 270.157 579.79 270.217C578.668 270.233 578.399 269.683 578.429 268.487C578.487 266.139 578.459 263.789 578.466 261.439C579.592 261.591 579.783 260.721 579.96 259.679C580.023 259.305 580.468 258.001 580.857 259.13C581.488 260.959 582.587 260.602 583.697 260.61C585.444 260.623 587.191 260.582 588.938 260.625C589.989 260.651 590.799 260.491 590.775 258.901C590.762 258.055 591.252 257.731 591.935 257.704C592.769 257.672 592.878 258.285 592.859 259.052C592.838 259.918 593.078 260.544 593.907 260.611L593.907 260.612Z" fill="#3F2424"/>
<path d="M593.907 260.613C593.078 260.546 592.838 259.92 592.86 259.054C592.879 258.286 592.769 257.673 591.935 257.706C591.253 257.732 590.762 258.057 590.775 258.903C590.8 260.492 589.989 260.653 588.938 260.627C587.192 260.584 585.444 260.625 583.697 260.612C582.587 260.604 581.488 260.96 580.858 259.132C580.469 258.003 580.023 259.306 579.96 259.681C579.784 260.723 579.592 261.593 578.466 261.441C578.459 258.815 578.486 256.188 578.428 253.563C578.402 252.36 578.678 251.822 579.795 251.838C584.053 251.898 588.313 251.898 592.571 251.839C593.689 251.823 593.965 252.364 593.936 253.565C593.879 255.913 593.912 258.264 593.907 260.613L593.907 260.613Z" fill="#462928"/>
<path d="M576.328 257.283C571.178 257.28 566.028 257.278 560.879 257.276C560.824 253.667 562.319 251.862 565.365 251.862C568.395 251.862 571.429 251.974 574.454 251.817C576.062 251.734 576.528 252.412 576.353 254.179C576.253 255.201 576.33 256.247 576.328 257.283Z" fill="#462928"/>
<path d="M629.078 257.28C624.563 256.544 620.022 256.997 615.495 256.849C614.868 256.829 614.247 256.585 613.624 256.445C613.593 253.39 614.858 251.862 617.418 251.862C620.682 251.862 623.949 251.969 627.207 251.816C628.815 251.741 629.283 252.408 629.107 254.177C629.006 255.199 629.082 256.245 629.078 257.281L629.078 257.28Z" fill="#462928"/>
<path d="M611.495 256.865C606.344 256.863 601.193 256.861 596.043 256.86C596.041 255.334 596.039 253.808 596.037 252.283C596.15 252.147 596.262 252.011 596.375 251.875C600.795 251.87 605.217 251.955 609.633 251.815C611.245 251.764 611.701 252.43 611.52 254.18C611.429 255.063 611.498 255.969 611.495 256.865Z" fill="#462928"/>
<path d="M453.576 352.184C453.576 354.119 453.613 355.43 453.564 356.737C453.527 357.75 453.993 359.303 453.311 359.654C452.324 360.162 451.037 359.914 449.882 359.872C449.197 359.848 449.385 359.321 449.648 358.873C450.865 356.798 452.084 354.725 453.576 352.184H453.576Z" fill="#4D4D4D"/>
<path d="M557.272 310.599C555.276 310.614 553.457 308.355 553.447 305.848C553.437 303.353 555.266 301.058 557.257 301.064C559.315 301.071 560.95 303.338 560.926 306.151C560.906 308.453 559.154 310.584 557.272 310.599Z" fill="#4D4D4D"/>
<path d="M557.302 366.441C555.204 366.477 553.523 364.268 553.489 361.431C553.462 359.191 555.268 356.973 557.173 356.908C559.138 356.84 561.031 359.219 561.003 361.72C560.975 364.188 559.236 366.407 557.302 366.441Z" fill="#4D4D4D"/>
<path d="M553.596 355.752L553.682 355.709L553.662 355.831L553.596 355.752Z" fill="#4D4D4D"/>
<path d="M504.588 318.097C501.751 318.092 500.377 316.814 500.404 314.202C500.429 311.686 502.395 309.312 504.644 309.395C506.96 309.481 508.947 311.436 508.9 314.112C508.852 316.875 507.572 318.102 504.588 318.097Z" fill="#4D4D4D"/>
<path d="M505.103 301.024C505.485 300.999 506.22 301.08 506.956 301.401C507.725 301.736 508.079 302.347 508.129 303.253C508.181 304.189 508.054 305.073 507.286 305.584C505.646 306.674 503.987 306.819 502.283 305.732C501.45 305.201 501.129 304.365 501.178 303.344C501.228 302.275 501.728 301.641 502.653 301.321C503.35 301.08 504.027 301.065 505.103 301.024Z" fill="#4D4D4D"/>
<path d="M456.399 454.77C456.437 456.594 456.076 458.361 455.658 460.077C455.181 462.033 454.057 463.212 452.207 463.213C450.401 463.214 449.18 462.215 448.648 460.225C447.69 456.636 447.638 452.996 448.606 449.394C449.184 447.246 450.476 446.212 452.256 446.257C454.083 446.304 455.215 447.498 455.675 449.46C456.079 451.182 456.467 452.942 456.399 454.77Z" fill="#4D4D4D"/>
<path d="M542.916 207.703C543.148 207.423 543.381 207.143 543.613 206.863L543.734 206.939L543.87 206.93C543.846 207.191 543.823 207.452 543.799 207.713C543.505 207.71 543.21 207.706 542.916 207.703L542.916 207.703Z" fill="#AFBBBB"/>
<path d="M543.87 206.93L543.734 206.939L543.613 206.863C543.628 206.44 543.642 206.017 543.656 205.594C543.784 205.63 543.911 205.665 544.038 205.701C543.982 206.111 543.926 206.52 543.87 206.93Z" fill="#4D4D4D"/>
<path d="M582.649 218.091C582.945 218.042 583.107 218.154 583.034 218.548C582.719 218.62 582.614 218.44 582.649 218.091Z" fill="#AFBBBB"/>
<path d="M582.639 205.641C582.768 205.487 582.897 205.332 583.026 205.178C583.066 205.535 582.91 205.656 582.639 205.641Z" fill="#B8C1C0"/>
<path d="M596 57.1469V144.808L576.031 111.399C372.62 373.173 92.7982 467.584 0 476.944V441.042C93.3587 431.624 359.375 335.129 557.562 87.3311L530.505 57.1465H596L596 57.1469Z" fill="#E52C2C"/>
<path fill-rule="evenodd" clip-rule="evenodd" d="M622.793 273.959C616.864 276.695 618.452 283.866 619.697 286.24C621.459 289.612 623.688 290.088 630.751 288.913C639.74 287.415 661.202 278.956 663.743 277.825C678.662 275.619 685.977 272.685 682.859 261.036C680.376 252.156 671.945 252.83 665.731 253.888C659.443 254.962 630.321 269.688 622.793 273.959Z" fill="#032747"/>
<path fill-rule="evenodd" clip-rule="evenodd" d="M683.291 241.135C695.701 259.049 698.605 325.668 696.976 350.934C692.865 355.193 683.391 355.891 667.375 354.236C669.094 343.738 667.68 330.76 663.98 321.027C657.913 305.064 649.888 279.078 651.449 265.046C652.135 258.861 655.607 256.481 660.476 252.747C663.002 250.808 664.263 250.554 665.109 247.18C668.233 247.369 678.906 243.926 683.29 241.135L683.291 241.135Z" fill="#032747"/>
<path fill-rule="evenodd" clip-rule="evenodd" d="M708.802 360.785C708.701 351.199 704.255 344.665 690.546 336.412L666.55 352.763L665.446 363.329L642.689 402.058C640.681 405.356 639.412 406.487 639.513 410.495C639.712 418.686 647.627 419.836 660.943 420.406C670.935 411.461 683.237 400.124 690.921 391.554C700.549 380.81 708.943 374.894 708.802 360.785Z" fill="#13181A"/>
<path fill-rule="evenodd" clip-rule="evenodd" d="M704.06 345.787C696.991 338.801 702.498 331.277 682.975 335.484L671.052 350.94L670.22 364.535L673.045 385.69L681.838 421.905C682.758 425.697 682.644 427.387 685.642 430.273C691.761 436.158 698.458 431.628 708.723 422.999C709.593 409.635 707.333 389.089 706.763 377.564C706.047 363.121 714.457 356.07 704.061 345.787L704.06 345.787Z" fill="#303030"/>
<path fill-rule="evenodd" clip-rule="evenodd" d="M695.525 493.473C687.37 505.859 684.332 507.544 672.082 509.472C668.26 510.071 667.042 510.921 667.234 514.946C679.042 515.569 689.099 515.254 700.918 514.855C702.582 512.006 706.69 514.623 706.69 514.623L717.162 514.382L717.456 504.508L714.731 494.005L695.525 493.473Z" fill="#1F1C1D"/>
<path fill-rule="evenodd" clip-rule="evenodd" d="M683.817 440.381L694.434 494.886L716.779 497.707L714.548 442.529L706.138 422.302L695.749 415.404C683.158 410.594 681.709 428.307 683.817 440.381Z" fill="#303030"/>
<path fill-rule="evenodd" clip-rule="evenodd" d="M641.191 486.358C633.42 498.99 630.434 500.764 618.249 503.065C614.448 503.781 613.255 504.671 613.569 508.687C625.396 508.947 635.435 508.325 647.237 507.565C648.813 504.669 652.999 507.158 652.999 507.158L663.46 506.596L663.45 496.716L660.404 486.305L641.191 486.358Z" fill="#1F1C1D"/>
<path fill-rule="evenodd" clip-rule="evenodd" d="M635.606 431.811L641.276 487.049L663.278 491.861L666.251 439.333L659.462 415.808L649.735 408.007C637.629 402.085 634.592 419.597 635.605 431.81L635.606 431.811Z" fill="#13181A"/>
<path d="M683.979 255.103C683.664 254.41 682.806 246.915 682.759 245.998C682.581 242.716 683.754 238.695 683.92 238.531C686.826 235.54 690.314 230.898 693.149 226.552C693.149 226.552 693.093 218.767 689.478 216.184C690.363 210.908 682.321 208.929 676.474 206.933C669.202 204.437 665.365 207.605 660.152 217.898C659.828 218.555 660.013 221.505 659.933 221.642C657.647 224.985 655.233 227.278 655.093 228.025C655 228.627 655.81 229.924 657.05 230.519C656.702 232.268 656.718 234.87 656.527 236.183C656.042 239.561 656.82 240.481 657.708 240.975C659.331 241.871 661.305 242.193 663.379 242.359C664.06 244.984 663.987 246.864 663.609 249.826C663.4 251.396 668.123 259.409 668.123 259.409L667.421 263.719C667.421 263.719 686.142 260.06 683.979 255.103Z" fill="#F3B495"/>
<path d="M659.483 241.743C660.484 241.978 662.16 242.337 663.254 242.422C663.777 244.444 663.949 246.482 663.61 248.412C664.091 248.234 665.392 246.237 665.42 246.217C668.49 244.037 669.559 242.565 671.697 239.498C671.841 239.291 673.03 237.93 672.979 237.594C672.562 237.744 669.287 239.851 668.899 239.969C665.894 240.892 665.14 241.344 661.721 241.615C661.167 241.659 660.028 241.652 659.483 241.743Z" fill="#E29776"/>
<path d="M679.514 240.883C678.826 238.641 678.874 233.686 679.623 231.35C679.549 231.112 681.376 228.02 680.361 228.057C678.928 228.111 677.608 228.693 676.316 229.366C675.735 229.669 675.174 230.024 674.609 230.367C674.451 230.463 674.345 230.533 674.211 230.322C673.842 229.742 673.461 229.173 673.122 228.568C672.943 228.248 672.927 227.947 673.059 227.59C673.279 226.995 673.412 226.373 673.485 225.738C673.585 224.877 673.493 224.056 673.208 223.263C672.55 221.425 670.959 217.032 670.813 216.893C670.102 216.219 669.444 215.496 668.963 214.592C668.737 214.167 668.584 213.714 668.571 213.2C668.558 212.632 668.203 212.37 667.788 212.193C667.014 211.861 666.188 211.844 665.366 211.848C664.098 211.856 664.088 212.025 663.3 213.177C663.084 213.494 662.789 212.762 662.602 211.977C661.847 209.556 661.629 208.729 662.317 206.592C662.558 205.844 663.226 203.616 663.626 202.954C664.242 201.935 663.93 203.503 664.495 204.518C664.804 205.073 664.806 205.076 665.311 204.678C666.108 204.049 666.945 203.5 667.835 203.062C667.996 202.982 668.166 202.919 668.337 202.87C668.995 202.683 669.236 202.875 669.291 203.66C670.273 203.103 671.294 202.879 672.454 202.956C671.525 203.734 676.26 204.811 676.893 204.769C679.033 204.628 681.172 204.542 683.292 204.842C688.04 205.669 691.742 208.101 692.454 209.606C692.716 210.161 693.046 210.559 693.516 210.905C694.539 211.657 698.937 216.513 696.017 225.198C695.395 227.153 694.682 229.064 693.729 230.863C692.573 233.047 691.127 234.96 689.382 236.583C687.919 237.945 686.634 239.485 685.474 241.167C684.787 242.164 684.141 243.192 683.536 244.251C683.484 244.342 681.199 242.526 679.514 240.883Z" fill="#1A1A1A"/>
<path d="M690.68 212.734C690.2 212.406 689.77 212.104 689.332 211.814C688.445 211.223 687.478 210.899 686.427 211.034C685.856 211.107 685.293 211.324 684.712 211.336C684.324 211.343 683.929 211.359 683.55 211.295C682.215 211.07 680.865 210.94 679.543 210.611C678.621 210.381 677.645 210.458 676.712 210.251C676.585 210.222 676.455 210.21 676.297 210.185C676.56 209.827 676.916 209.726 677.224 209.567C678.239 209.044 679.215 208.419 680.265 207.993C680.593 207.86 680.935 207.771 681.285 207.721C681.649 207.669 681.666 207.875 681.597 208.173C681.511 208.536 681.301 208.818 681.079 209.091C681.016 209.169 680.954 209.247 680.924 209.42C681.322 209.27 681.72 209.12 682.117 208.969C682.964 208.646 683.809 208.317 684.713 208.321C685.121 208.323 685.542 208.257 685.753 208.76C685.954 209.24 685.746 209.617 685.469 209.997C685.356 210.153 685.058 210.305 685.157 210.463C685.273 210.649 685.513 210.394 685.7 210.348C686.648 210.113 687.554 210.248 688.404 210.674C689.269 211.108 690.013 211.741 690.627 212.55C690.649 212.579 690.651 212.627 690.681 212.734L690.68 212.734Z" fill="#333333"/>
<path d="M671.725 207.988C671.84 207.394 671.67 207.156 671.167 207.185C670.41 207.229 669.677 207.453 668.943 207.675C667.665 208.06 666.433 208.635 665.142 208.959C664.691 209.073 664.257 208.94 663.829 208.843C663.574 208.785 663.495 208.425 663.613 208.146C663.752 207.816 663.995 207.586 664.228 207.358C664.869 206.735 665.613 206.288 666.383 205.756C666.345 206.141 666.083 206.311 665.984 206.574C665.895 206.815 665.636 207.042 665.822 207.311C665.987 207.549 666.248 207.457 666.496 207.417C667.657 207.23 668.779 206.817 669.926 206.555C670.925 206.327 671.918 206.022 672.94 205.957C673.166 205.942 673.407 205.912 673.527 206.113C673.667 206.347 673.424 206.511 673.312 206.692C672.921 207.324 672.31 207.585 671.724 207.987L671.725 207.988Z" fill="#333333"/>
<path d="M676.612 226.539C678.278 224.06 681.97 225.571 681.194 228.078C680.422 230.605 677.043 235.186 675.012 234.242C673 233.293 676.611 226.539 676.611 226.539L676.612 226.539Z" fill="#F3B495"/>
<path fill-rule="evenodd" clip-rule="evenodd" d="M683.291 241.135C686.761 246.143 688.724 245.539 694.491 248.679C696.998 249.629 698.485 250.823 700.326 252.874C707.544 260.912 707.465 276.151 709.528 297.842C710.914 312.379 712.302 322.47 717.691 337.69C711.435 344.172 685.385 344.513 679.39 337.749C674.715 332.46 672.615 325.407 669.607 317.44C648.838 262.465 661.246 265.596 663.609 249.472C666.732 249.661 678.906 243.926 683.291 241.135Z" fill="#D5E7F6"/>
<path fill-rule="evenodd" clip-rule="evenodd" d="M683.291 241.135C686.762 246.143 688.725 245.539 694.491 248.68C696.998 249.63 698.485 250.823 700.327 252.874C707.544 260.912 707.465 276.151 709.529 297.843C710.624 309.339 711.721 318.055 714.798 328.722C715.611 331.543 717.184 340.825 725.26 350.195C722.901 352.638 706.351 362.204 699.754 362.194C687.346 339.412 668.147 299.691 669.257 272.572C669.656 262.881 673.186 252.262 683.291 241.135Z" fill="#05345E"/>
<path fill-rule="evenodd" clip-rule="evenodd" d="M693.187 278.879L707.139 302.641C713.356 311.478 718.293 313.711 721.909 310.459C724.1 308.491 726.276 306.229 724.116 299.737C720.259 289.713 713.05 263.937 704.509 257.653C697.867 252.766 690.638 255.148 688.949 260.099C687.08 265.582 689.417 273.046 693.187 278.879Z" fill="#09477D"/>
<path fill-rule="evenodd" clip-rule="evenodd" d="M706.387 348.785L703.942 357.431C703.673 358.414 702.683 358.921 701.673 358.659L691.931 356.075C690.923 355.812 690.735 353.496 691.105 352.543L693.161 345.256C693.529 344.306 694.479 343.767 695.412 343.354L698.345 335.996C700.614 337.196 704.299 338.609 706.57 339.807L705.408 346.237C706.336 347.126 706.501 348.384 706.387 348.785L706.387 348.785Z" fill="#FFDBA7"/>
<path fill-rule="evenodd" clip-rule="evenodd" d="M700.565 357.317L701.602 352.05C701.869 350.707 703.476 349.772 704.629 350.084C705.781 350.395 704.549 354.112 704.291 355.461L703.764 358.21C703.252 360.887 699.843 360.98 700.565 357.317Z" fill="#FFDBA7"/>
<path fill-rule="evenodd" clip-rule="evenodd" d="M697.074 357.219L698.08 352.186C698.337 350.901 699.991 350.031 701.189 350.343C702.389 350.656 701.163 354.204 700.915 355.49L700.405 358.12C699.911 360.679 696.378 360.719 697.074 357.219Z" fill="#FFDBA7"/>
<path fill-rule="evenodd" clip-rule="evenodd" d="M693.68 356.727L694.564 352.386C694.79 351.278 696.375 350.74 697.54 351.195C698.706 351.651 697.584 354.635 697.365 355.746L696.918 358.017C696.485 360.226 693.067 359.749 693.68 356.727Z" fill="#FFDBA7"/>
<path fill-rule="evenodd" clip-rule="evenodd" d="M690.445 356.411L691.039 352.762C691.19 351.834 692.62 351.37 693.714 351.741C694.807 352.113 693.926 354.624 693.78 355.557L693.483 357.463C693.196 359.321 690.029 358.946 690.445 356.41V356.411Z" fill="#FFDBA7"/>
<path fill-rule="evenodd" clip-rule="evenodd" d="M723.659 308.876C722.424 312.676 722.411 312.713 721.027 315.392L707.024 346.87L694.057 342.242L705.542 302.199C706.947 293.699 727.391 295.481 723.659 308.876Z" fill="#09477D"/>
<path fill-rule="evenodd" clip-rule="evenodd" d="M705.063 363.844H686.62L690.48 346.717L705.063 354.424V363.844Z" fill="#303030"/>
<path d="M613.884 237.154C613.884 237.154 608.624 234.725 608.933 231.01C609.243 227.295 612.781 224.385 613.407 223.516C615.99 219.929 614.616 214.469 615.783 212.059C616.949 209.649 618.568 210.091 618.447 211.071C617.765 216.566 619.053 220.137 618.449 222.52C617.843 224.904 618.082 234.244 618.082 234.244L613.884 237.154Z" fill="#F3B495"/>
<path d="M610.699 234.919C610.699 234.919 608.096 231.67 608.013 229.234C607.928 226.798 610.389 224.708 610.592 222.662C610.793 220.617 611.772 221.466 612.029 221.717C612.287 221.967 612.007 224.48 612.053 225.636C612.098 226.793 614.638 231.754 610.699 234.919Z" fill="#F3B495"/>
<path d="M627.91 258.139L617.92 230.461L611.777 234.877L615.084 258.311L627.91 258.139Z" fill="#F3B495"/>
<path fill-rule="evenodd" clip-rule="evenodd" d="M620.616 234.734L609.5 238.386C613.576 255.248 613.263 269.289 619.977 286.229C622.977 293.801 640.518 286.288 638.046 279.04C633.009 264.245 624.348 251.614 620.616 234.734Z" fill="#032747"/>
</svg>
