<svg width="18" height="18" viewBox="0 0 18 18" fill="none" xmlns="http://www.w3.org/2000/svg">
<path d="M8.64376 1.72126C8.67662 1.65486 8.7274 1.59896 8.79035 1.55988C8.85329 1.5208 8.92591 1.50009 9.00001 1.50009C9.0741 1.50009 9.14672 1.5208 9.20967 1.55988C9.27262 1.59896 9.32339 1.65486 9.35626 1.72126L11.0888 5.23051C11.2029 5.46149 11.3714 5.66132 11.5797 5.81285C11.7881 5.96439 12.0301 6.0631 12.285 6.10051L16.1595 6.66751C16.2329 6.67815 16.3019 6.70912 16.3586 6.75691C16.4154 6.80471 16.4576 6.86742 16.4805 6.93797C16.5035 7.00851 16.5062 7.08407 16.4884 7.15609C16.4707 7.22811 16.4331 7.29373 16.38 7.34551L13.578 10.074C13.3932 10.2541 13.255 10.4764 13.1751 10.7217C13.0953 10.9671 13.0763 11.2282 13.1198 11.4825L13.7813 15.3375C13.7942 15.4109 13.7863 15.4864 13.7584 15.5555C13.7305 15.6246 13.6837 15.6845 13.6234 15.7283C13.5631 15.772 13.4917 15.798 13.4174 15.8032C13.3431 15.8084 13.2688 15.7925 13.203 15.7575L9.73951 13.9365C9.51129 13.8167 9.25739 13.7541 8.99963 13.7541C8.74187 13.7541 8.48797 13.8167 8.25976 13.9365L4.79701 15.7575C4.73126 15.7923 4.65705 15.808 4.58285 15.8027C4.50864 15.7974 4.4374 15.7714 4.37723 15.7277C4.31706 15.6839 4.27038 15.6242 4.2425 15.5552C4.21462 15.4862 4.20665 15.4108 4.21951 15.3375L4.88026 11.4833C4.9239 11.2288 4.90499 10.9676 4.82516 10.722C4.74533 10.4765 4.60696 10.2541 4.42201 10.074L1.62001 7.34626C1.56645 7.29454 1.5285 7.22881 1.51048 7.15657C1.49246 7.08433 1.49508 7.00847 1.51807 6.93765C1.54105 6.86683 1.58346 6.80389 1.64046 6.756C1.69747 6.70811 1.76678 6.67719 1.84051 6.66676L5.71426 6.10051C5.96945 6.06339 6.2118 5.9648 6.42044 5.81325C6.62909 5.6617 6.79778 5.46171 6.91201 5.23051L8.64376 1.72126Z" fill="#1E88E5" stroke="#1E88E5" stroke-width="1.43406" stroke-linecap="round" stroke-linejoin="round"/>
</svg>
