<svg width="18" height="18" viewBox="0 0 18 18" fill="none" xmlns="http://www.w3.org/2000/svg">
<path d="M8.64412 1.72117C8.67699 1.65477 8.72776 1.59887 8.79071 1.55979C8.85366 1.52071 8.92628 1.5 9.00037 1.5C9.07447 1.5 9.14709 1.52071 9.21003 1.55979C9.27298 1.59887 9.32376 1.65477 9.35662 1.72117L11.0891 5.23042C11.2033 5.4614 11.3717 5.66123 11.5801 5.81276C11.7885 5.96429 12.0305 6.063 12.2854 6.10042L16.1599 6.66742C16.2333 6.67806 16.3023 6.70902 16.359 6.75682C16.4157 6.80462 16.4579 6.86733 16.4809 6.93788C16.5038 7.00842 16.5066 7.08398 16.4888 7.156C16.471 7.22802 16.4335 7.29363 16.3804 7.34542L13.5784 10.0739C13.3936 10.254 13.2553 10.4763 13.1755 10.7216C13.0957 10.967 13.0767 11.2281 13.1201 11.4824L13.7816 15.3374C13.7946 15.4108 13.7867 15.4863 13.7587 15.5554C13.7308 15.6245 13.6841 15.6844 13.6238 15.7282C13.5635 15.772 13.4921 15.7979 13.4178 15.8031C13.3434 15.8083 13.2691 15.7924 13.2034 15.7574L9.73987 13.9364C9.51166 13.8166 9.25776 13.754 9 13.754C8.74224 13.754 8.48833 13.8166 8.26012 13.9364L4.79737 15.7574C4.73162 15.7922 4.65742 15.8079 4.58321 15.8026C4.509 15.7973 4.43776 15.7713 4.37759 15.7276C4.31743 15.6838 4.27075 15.6241 4.24287 15.5551C4.21498 15.4861 4.20702 15.4107 4.21987 15.3374L4.88062 11.4832C4.92427 11.2287 4.90536 10.9675 4.82553 10.722C4.74569 10.4764 4.60733 10.254 4.42237 10.0739L1.62037 7.34617C1.56682 7.29444 1.52887 7.22872 1.51085 7.15648C1.49282 7.08423 1.49545 7.00838 1.51843 6.93756C1.54141 6.86674 1.58382 6.8038 1.64083 6.75591C1.69784 6.70801 1.76715 6.67709 1.84087 6.66667L5.71462 6.10042C5.96982 6.06329 6.21216 5.96471 6.42081 5.81316C6.62946 5.66161 6.79815 5.46162 6.91237 5.23042L8.64412 1.72117Z" fill="#1E88E5" stroke="#1E88E5" stroke-width="1.43406" stroke-linecap="round" stroke-linejoin="round"/>
</svg>
