<svg width="815" height="340" viewBox="0 0 815 340" fill="none" xmlns="http://www.w3.org/2000/svg">
<g filter="url(#filter0_d_1019_8075)">
<g clip-path="url(#clip0_1019_8075)">
<g filter="url(#filter1_d_1019_8075)">
<path d="M10 28C10 16.9543 18.9543 8 30 8H785C796.046 8 805 16.9543 805 28V308C805 319.046 796.046 328 785 328H30C18.9543 328 10 319.046 10 308V28Z" fill="#EBF0FF"/>
</g>
<path d="M621.981 324C658.924 292.207 679 252.97 679 212.564C679 112.909 559.138 32 411.5 32C263.864 32 144 112.909 144 212.564C144 252.97 164.078 292.207 201.021 324H621.983H621.981Z" fill="white"/>
<path d="M711 326C711 324.343 709.646 323 707.98 323H119.022C117.354 323 116 324.343 116 326C116 327.655 117.354 329 119.022 329H707.98C709.646 329 711 327.655 711 326Z" fill="#79A1E3"/>
<path d="M601.99 141.519C601.99 139.935 600.703 138.647 599.119 138.647H519.841C518.257 138.647 516.97 139.935 516.97 141.519V171.664C516.97 173.25 518.257 174.536 519.841 174.536H599.119C600.703 174.536 601.99 173.25 601.99 171.664V141.519Z" fill="#F7BA36"/>
<path fill-rule="evenodd" clip-rule="evenodd" d="M594.368 147.175V151.13C594.368 151.598 593.989 151.977 593.52 151.977H554.995C554.527 151.977 554.148 151.598 554.148 151.13V147.175C554.148 146.708 554.527 146.327 554.995 146.327H593.52C593.989 146.327 594.368 146.708 594.368 147.175ZM594.368 157.709V159.115C594.368 159.281 594.233 159.417 594.066 159.417H554.449C554.283 159.417 554.148 159.281 554.148 159.115V157.709C554.148 157.542 554.283 157.407 554.449 157.407H594.066C594.233 157.407 594.368 157.542 594.368 157.709ZM594.368 165.147V166.554C594.368 166.719 594.233 166.854 594.066 166.854H554.449C554.283 166.854 554.148 166.719 554.148 166.554V165.147C554.148 164.981 554.283 164.846 554.449 164.846H594.066C594.233 164.846 594.368 164.981 594.368 165.147ZM545.32 146.64L531.035 166.571H526.131L540.445 146.64H545.32ZM545.607 162.808C545.607 163.929 545.207 164.874 544.408 165.644C543.61 166.414 542.607 166.799 541.4 166.799C540.193 166.799 539.191 166.409 538.392 165.63C537.594 164.851 537.195 163.906 537.195 162.794C537.195 161.681 537.594 160.736 538.392 159.956C539.191 159.176 540.193 158.787 541.4 158.787C542.607 158.787 543.61 159.176 544.408 159.956C545.207 160.736 545.607 161.686 545.607 162.808ZM540.544 163.82C540.763 164.076 541.043 164.204 541.386 164.204C541.728 164.204 542.013 164.076 542.241 163.82C542.47 163.564 542.584 163.226 542.584 162.808C542.584 162.39 542.47 162.043 542.241 161.767C542.013 161.492 541.732 161.354 541.4 161.354C541.067 161.354 540.787 161.492 540.559 161.767C540.331 162.043 540.217 162.39 540.217 162.808C540.217 163.226 540.326 163.564 540.544 163.82ZM534.372 151.145C534.372 152.266 533.972 153.212 533.173 153.982C532.375 154.752 531.373 155.137 530.165 155.137C528.959 155.137 527.956 154.747 527.157 153.968C526.359 153.189 525.96 152.243 525.96 151.131C525.96 150.019 526.359 149.073 527.157 148.293C527.956 147.514 528.959 147.124 530.165 147.124C531.373 147.124 532.375 147.514 533.173 148.293C533.972 149.073 534.372 150.024 534.372 151.145ZM529.309 152.157C529.528 152.414 529.809 152.542 530.151 152.542C530.493 152.542 530.778 152.414 531.006 152.157C531.235 151.901 531.349 151.564 531.349 151.145C531.349 150.727 531.235 150.38 531.006 150.104C530.778 149.829 530.498 149.691 530.165 149.691C529.833 149.691 529.552 149.829 529.324 150.104C529.095 150.38 528.981 150.727 528.981 151.145C528.981 151.564 529.091 151.901 529.309 152.157Z" fill="#8A5705"/>
<path d="M503.193 77.1454C503.193 74.4797 501.029 72.3154 498.363 72.3154H347.022C344.357 72.3154 342.192 74.4797 342.192 77.1454V319.186C342.192 321.853 344.357 324.017 347.022 324.017H498.363C501.029 324.017 503.193 321.853 503.193 319.186V77.1454Z" fill="#AAC2EB"/>
<path d="M496.253 85.6766C496.253 83.2406 494.275 81.2627 491.839 81.2627H353.547C351.111 81.2627 349.133 83.2406 349.133 85.6766V310.656C349.133 313.092 351.111 315.07 353.547 315.07H491.839C494.275 315.07 496.253 313.092 496.253 310.656V85.6766Z" fill="white"/>
<path d="M487.787 100.883C487.787 101.584 487.219 102.152 486.519 102.152H423.961C423.262 102.152 422.693 101.584 422.693 100.883C422.693 100.184 423.262 99.6152 423.961 99.6152H486.519C487.219 99.6152 487.787 100.184 487.787 100.883ZM487.787 111.068C487.787 111.768 487.219 112.336 486.519 112.336H423.961C423.262 112.336 422.693 111.768 422.693 111.068C422.693 110.368 423.262 109.8 423.961 109.8H486.519C487.219 109.8 487.787 110.368 487.787 111.068ZM487.787 121.253C487.787 121.952 487.219 122.521 486.519 122.521H423.961C423.262 122.521 422.693 121.952 422.693 121.253C422.693 120.552 423.262 119.984 423.961 119.984H486.519C487.219 119.984 487.787 120.552 487.787 121.253Z" fill="#8DA7D6"/>
<path d="M487.788 136.15C487.788 134.58 486.513 133.305 484.942 133.305H360.444C358.874 133.305 357.599 134.58 357.599 136.15C357.599 137.72 358.874 138.996 360.444 138.996H484.942C486.513 138.996 487.788 137.72 487.788 136.15Z" fill="#5573BA"/>
<path d="M487.787 145.781C487.787 144.772 486.968 143.953 485.959 143.953H429.586C428.577 143.953 427.758 144.772 427.758 145.781V178.683C427.758 179.692 428.577 180.511 429.586 180.511H485.959C486.968 180.511 487.787 179.692 487.787 178.683V145.781Z" fill="#C9D8F3"/>
<path d="M422.569 145.222C422.569 145.922 422 146.49 421.301 146.49H358.742C358.043 146.49 357.475 145.922 357.475 145.222C357.475 144.523 358.043 143.953 358.742 143.953H421.301C422 143.953 422.569 144.523 422.569 145.222ZM422.32 165.591C422.32 166.292 421.752 166.86 421.053 166.86H358.496C357.795 166.86 357.227 166.292 357.227 165.591C357.227 164.891 357.795 164.323 358.496 164.323H421.053C421.752 164.323 422.32 164.891 422.32 165.591ZM422.569 155.407C422.569 156.107 422 156.675 421.301 156.675H358.742C358.043 156.675 357.475 156.107 357.475 155.407C357.475 154.706 358.043 154.138 358.742 154.138H421.301C422 154.138 422.569 154.706 422.569 155.407ZM422.569 175.776C422.569 176.475 422 177.045 421.301 177.045H358.742C358.043 177.045 357.475 176.475 357.475 175.776C357.475 175.076 358.043 174.508 358.742 174.508H421.301C422 174.508 422.569 175.076 422.569 175.776ZM487.662 185.96C487.662 186.66 487.094 187.228 486.395 187.228H358.866C358.166 187.228 357.598 186.66 357.598 185.96C357.598 185.26 358.166 184.691 358.866 184.691H486.395C487.094 184.691 487.662 185.26 487.662 185.96ZM487.662 196.144C487.662 196.845 487.094 197.413 486.395 197.413H358.866C358.166 197.413 357.598 196.845 357.598 196.144C357.598 195.444 358.166 194.876 358.866 194.876H486.395C487.094 194.876 487.662 195.444 487.662 196.144Z" fill="#8DA7D6"/>
<path fill-rule="evenodd" clip-rule="evenodd" d="M487.78 261.657H357.217C357.006 261.657 356.834 261.485 356.834 261.272V251.657C356.834 251.646 356.834 251.636 356.835 251.625V242.043C356.835 242.031 356.836 242.021 356.837 242.01V232.428C356.837 232.416 356.837 232.405 356.838 232.395V222.812C356.838 222.797 356.839 222.781 356.841 222.766V203.582C356.841 203.369 357.012 203.197 357.224 203.197H487.784C487.997 203.197 488.169 203.369 488.169 203.582V213.151C488.171 213.166 488.172 213.181 488.172 213.197V222.812C488.172 222.827 488.171 222.842 488.169 222.857V232.426C488.169 232.438 488.168 232.449 488.168 232.459V242.042C488.168 242.053 488.167 242.064 488.166 242.074V251.657C488.166 251.668 488.166 251.679 488.165 251.69V261.272C488.165 261.485 487.993 261.657 487.78 261.657ZM357.602 252.041V260.889H400.353V252.041H357.602ZM357.603 242.426V251.274H400.353V242.426H357.603ZM357.604 232.811V241.658H400.356V232.811H357.604ZM357.606 223.196V232.043H400.356V223.196H357.606ZM357.608 213.58V222.428H400.36V213.58H357.608ZM487.4 212.813V203.965H357.608V212.813H487.4ZM487.402 222.428V213.58H444.648V222.428H487.402ZM487.4 232.043V223.196H444.647V232.043H487.4ZM487.398 241.658V232.811H444.644V241.658H487.398ZM487.397 251.274V242.426H444.644V251.274H487.397ZM444.642 260.889H487.396V252.041H444.642V260.889ZM443.874 260.889V252.041H401.122V260.889H443.874ZM443.88 213.582H401.129V222.428H443.88V213.582ZM443.878 232.044V223.197H401.126V232.044H443.878ZM443.877 241.66V232.812H401.126V241.66H443.877ZM443.875 251.275V242.427H401.124V251.275H443.875Z" fill="#5573BA"/>
<path d="M487.787 268.711C487.787 269.41 487.219 269.978 486.519 269.978H358.022C357.322 269.978 356.754 269.41 356.754 268.711C356.754 268.011 357.322 267.441 358.022 267.441H486.519C487.219 267.441 487.787 268.011 487.787 268.711ZM487.787 277.416C487.787 278.117 487.219 278.685 486.519 278.685H358.022C357.322 278.685 356.754 278.117 356.754 277.416C356.754 276.717 357.322 276.148 358.022 276.148H486.519C487.219 276.148 487.787 276.717 487.787 277.416Z" fill="#8DA7D6"/>
<path d="M487.788 286.123C487.788 285.424 487.219 284.855 486.52 284.855H437.547C436.848 284.855 436.279 285.424 436.279 286.123C436.279 286.823 436.848 287.391 437.547 287.391H486.52C487.219 287.391 487.788 286.823 487.788 286.123Z" fill="#5573BA"/>
<path d="M363.661 104.689H357.6V99.6152H375.783V104.689H369.722V122.521H363.661V104.689Z" fill="#5573BA"/>
<path fill-rule="evenodd" clip-rule="evenodd" d="M388.609 117.658H382.196L381.069 122.521H374.866L381.843 99.6152H389.174L396.151 122.521H389.738L388.609 117.658ZM387.13 111.386C386.848 110.281 386.566 109.083 386.283 107.791C386.002 106.498 385.72 105.277 385.438 104.126H385.298C385.039 105.3 384.774 106.528 384.504 107.808C384.234 109.089 383.958 110.281 383.676 111.386L383.288 112.971H387.517L387.13 111.386Z" fill="#5573BA"/>
<path d="M402 110.75L396.151 99.6152H402.916L404.468 103.351C404.726 103.89 404.978 104.472 405.225 105.095C405.472 105.717 405.76 106.404 406.089 107.157H406.229C406.487 106.404 406.734 105.717 406.969 105.095C407.204 104.472 407.427 103.89 407.639 103.351L408.977 99.6152H415.462L409.613 111.033L415.814 122.521H409.048L407.216 118.434C406.934 117.822 406.664 117.211 406.405 116.6C406.147 115.989 405.877 115.332 405.595 114.627H405.453C405.195 115.332 404.949 115.989 404.713 116.6C404.479 117.212 404.232 117.823 403.974 118.434L402.282 122.521H395.799L402 110.75Z" fill="#5573BA"/>
<path d="M450.727 73.019C450.727 69.8573 448.16 67.29 444.998 67.29H400.388C397.226 67.29 394.659 69.8573 394.659 73.019V80.6577C394.659 83.8195 397.226 86.3867 400.388 86.3867H444.998C448.16 86.3867 450.727 83.8195 450.727 80.6577V73.019Z" fill="#5573BA"/>
<path d="M387.979 72.3154H391.819V81.932C391.819 85.435 394.659 88.2752 398.162 88.2752H447.225C450.728 88.2752 453.569 85.435 453.569 81.932V72.3154H457.409V81.932C457.409 87.5573 452.849 92.1155 447.225 92.1155H398.162C392.538 92.1155 387.979 87.5573 387.979 81.932V72.3154Z" fill="#5573BA"/>
<path d="M576.905 188.192H584.288C586.225 188.192 587.795 189.763 587.795 191.701V320.508C587.795 322.445 586.225 324.016 584.288 324.016H576.905L579.74 321.181V191.701L576.905 188.192Z" fill="#1D59B4"/>
<path d="M579.741 191.027C579.741 189.463 578.47 188.192 576.906 188.192H488.072C486.506 188.192 485.235 189.463 485.235 191.027V321.181C485.235 322.746 486.506 324.016 488.072 324.016H576.906C578.47 324.016 579.741 322.746 579.741 321.181V191.027Z" fill="#4795FA"/>
<path fill-rule="evenodd" clip-rule="evenodd" d="M485.235 230.401L539.232 188.192H576.904C578.47 188.192 579.741 189.463 579.741 191.029V191.61L485.235 265.481V230.401ZM485.235 201.397L502.128 188.194H517.677L485.235 213.552V201.397ZM485.235 288.404L579.741 214.535V226.69L485.235 300.559V288.404ZM486.805 323.718L579.741 251.076V263.231L501.975 324.016H488.07C487.616 324.016 487.187 323.91 486.805 323.718ZM530.961 324.016L579.741 285.888V313.697L566.54 324.016H530.961Z" fill="#57A0FF"/>
<path d="M573.929 196.934C573.929 195.762 572.977 194.812 571.807 194.812H493.17C491.998 194.812 491.047 195.762 491.047 196.934V219.221C491.047 220.393 491.998 221.343 493.17 221.343H571.807C572.977 221.343 573.929 220.393 573.929 219.221V196.934Z" fill="#E2F3FE"/>
<path d="M530.618 213.533H535.419C535.805 214.011 536.229 214.562 536.615 215.039C536.67 215.095 536.707 215.131 536.707 215.168C536.707 215.223 536.651 215.26 536.523 215.26H529.441C529.312 215.095 529.183 214.948 529.055 214.782C529 214.727 528.926 214.672 528.926 214.58V214.562L530.618 213.533ZM529.477 207.977L530.838 208.934L530.618 213.218L528.925 214.138L529.219 208.547C529.275 208.363 529.422 208.161 529.477 207.977ZM530.912 200.895L537.516 200.987L535.842 202.64H531.151L529.679 201.722L530.912 200.895ZM531.224 206.947H535.511L536.707 207.884L535.529 208.692H530.967C530.581 208.343 530.139 208.068 529.753 207.755L531.224 206.947ZM537.718 201.207C537.755 201.299 537.81 201.411 537.81 201.503C537.718 203.323 537.607 205.07 537.515 206.89L536.872 207.57L535.842 206.798L536.062 202.862L537.718 201.207ZM541.673 200.895L548.277 200.987L546.603 202.64H541.912L540.441 201.722L541.673 200.895ZM547.559 208.085L548.184 208.784L547.835 214.081L547.504 214.56L546.29 213.108L546.511 208.931L547.559 208.085ZM548.479 201.207C548.516 201.299 548.571 201.409 548.571 201.501C548.48 203.322 548.369 205.069 548.277 206.889L547.633 207.57L546.603 206.797L546.823 202.862L548.479 201.207ZM552.14 213.533H556.941C557.327 214.011 557.751 214.56 558.137 215.038C558.192 215.093 558.229 215.13 558.229 215.167C558.229 215.222 558.174 215.259 558.045 215.259H550.963C550.834 215.093 550.705 214.946 550.576 214.781C550.52 214.726 550.447 214.671 550.447 214.579V214.56L552.14 213.533ZM552.434 200.895L559.038 200.987L557.364 202.64H552.673L551.202 201.722L552.434 200.895ZM552.746 206.947H557.033L558.229 207.884L557.051 208.692H552.489C552.103 208.343 551.662 208.068 551.275 207.755L552.746 206.947ZM558.32 208.085L558.945 208.783L558.596 214.081L558.265 214.559L557.051 213.106L557.272 208.931L558.32 208.085ZM559.241 201.206C559.277 201.298 559.332 201.408 559.332 201.5C559.241 203.32 559.13 205.067 559.038 206.888L558.394 207.569L557.364 206.796L557.584 202.861L559.241 201.206ZM562.901 213.53H567.702C568.088 214.008 568.512 214.559 568.898 215.037C568.953 215.092 568.99 215.129 568.99 215.165C568.99 215.221 568.935 215.257 568.806 215.257H561.724C561.595 215.092 561.466 214.945 561.338 214.78C561.283 214.725 561.208 214.669 561.208 214.578V214.559L562.901 213.53ZM561.761 207.976L563.122 208.931L562.901 213.216L561.208 214.135L561.503 208.545C561.558 208.362 561.705 208.159 561.761 207.976ZM563.195 200.894L569.799 200.985L568.125 202.638H563.434L561.963 201.72L563.195 200.894ZM563.507 206.945H567.794L568.99 207.883L567.812 208.691H563.25C562.864 208.342 562.422 208.066 562.036 207.754L563.507 206.945ZM570.002 201.206C570.038 201.298 570.093 201.408 570.093 201.5C570.002 203.32 569.891 205.067 569.798 206.888L569.155 207.569L568.125 206.796L568.345 202.861L570.002 201.206Z" fill="#1D59B4"/>
<path d="M509.464 231.531V246.632C509.464 247.547 508.721 248.29 507.806 248.29H492.705C491.79 248.29 491.047 247.547 491.047 246.632V231.531C491.047 230.616 491.79 229.873 492.705 229.873H507.806C508.721 229.873 509.464 230.616 509.464 231.531ZM530.952 231.531V246.632C530.952 247.547 530.209 248.29 529.294 248.29H514.192C513.278 248.29 512.535 247.547 512.535 246.632V231.531C512.535 230.616 513.278 229.873 514.192 229.873H529.294C530.209 229.873 530.952 230.616 530.952 231.531ZM552.44 231.531V246.632C552.44 247.547 551.697 248.29 550.782 248.29H535.68C534.766 248.29 534.023 247.547 534.023 246.632V231.531C534.023 230.616 534.766 229.873 535.68 229.873H550.782C551.697 229.873 552.44 230.616 552.44 231.531ZM573.929 231.531V246.632C573.929 247.547 573.186 248.29 572.271 248.29H557.168C556.254 248.29 555.512 247.547 555.512 246.632V231.531C555.512 230.616 556.254 229.873 557.168 229.873H572.271C573.186 229.873 573.929 230.616 573.929 231.531ZM509.464 252.738V267.839C509.464 268.754 508.721 269.497 507.806 269.497H492.705C491.79 269.497 491.047 268.754 491.047 267.839V252.738C491.047 251.823 491.79 251.08 492.705 251.08H507.806C508.721 251.08 509.464 251.823 509.464 252.738ZM530.952 252.738V267.839C530.952 268.754 530.209 269.497 529.294 269.497H514.192C513.278 269.497 512.535 268.754 512.535 267.839V252.738C512.535 251.823 513.278 251.08 514.192 251.08H529.294C530.209 251.08 530.952 251.823 530.952 252.738ZM552.44 252.738V267.839C552.44 268.754 551.697 269.497 550.782 269.497H535.68C534.766 269.497 534.023 268.754 534.023 267.839V252.738C534.023 251.823 534.766 251.08 535.68 251.08H550.782C551.697 251.08 552.44 251.823 552.44 252.738ZM573.929 252.738V267.839C573.929 268.754 573.186 269.497 572.271 269.497H557.168C556.254 269.497 555.512 268.754 555.512 267.839V252.738C555.512 251.823 556.254 251.08 557.168 251.08H572.271C573.186 251.08 573.929 251.823 573.929 252.738ZM509.464 273.945V289.048C509.464 289.962 508.721 290.704 507.806 290.704H492.705C491.79 290.704 491.047 289.962 491.047 289.048V273.945C491.047 273.03 491.79 272.287 492.705 272.287H507.806C508.721 272.287 509.464 273.03 509.464 273.945ZM530.952 273.945V289.048C530.952 289.962 530.209 290.704 529.294 290.704H514.192C513.278 290.704 512.535 289.962 512.535 289.048V273.945C512.535 273.03 513.278 272.287 514.192 272.287H529.294C530.209 272.287 530.952 273.03 530.952 273.945ZM552.44 273.945V289.048C552.44 289.962 551.697 290.704 550.782 290.704H535.68C534.766 290.704 534.023 289.962 534.023 289.048V273.945C534.023 273.03 534.766 272.287 535.68 272.287H550.782C551.697 272.287 552.44 273.03 552.44 273.945ZM509.464 295.152V310.255C509.464 311.17 508.721 311.912 507.806 311.912H492.705C491.79 311.912 491.047 311.17 491.047 310.255V295.152C491.047 294.237 491.79 293.496 492.705 293.496H507.806C508.721 293.496 509.464 294.237 509.464 295.152ZM530.952 295.152V310.255C530.952 311.17 530.209 311.912 529.294 311.912H514.192C513.278 311.912 512.535 311.17 512.535 310.255V295.152C512.535 294.237 513.278 293.496 514.192 293.496H529.294C530.209 293.496 530.952 294.237 530.952 295.152ZM552.44 295.152V310.255C552.44 311.17 551.697 311.912 550.782 311.912H535.68C534.766 311.912 534.023 311.17 534.023 310.255V295.152C534.023 294.237 534.766 293.496 535.68 293.496H550.782C551.697 293.496 552.44 294.237 552.44 295.152ZM573.928 273.945V310.255C573.928 311.17 573.186 311.912 572.271 311.912H557.168C556.254 311.912 555.512 311.17 555.512 310.255V273.945C555.512 273.03 556.254 272.287 557.168 272.287H572.271C573.186 272.287 573.928 273.03 573.928 273.945Z" fill="#1D59B4"/>
<path d="M326.005 193.225L328.872 302.465H297.757L292.948 228.424L286.459 302.465H253.562L259.044 193.225H326.005Z" fill="#0C2F73"/>
<path d="M302.508 302.463H297.757L292.948 228.423L294.742 216.468L302.508 302.463ZM326.269 203.255C316.803 205.321 300.278 204.08 300.278 204.08V199.347H293.626L292.692 204.08C283.931 206.504 265.694 204.103 258.553 203.011L259.044 193.223H326.005L326.269 203.255Z" fill="#06225B"/>
<path d="M286.954 296.816L286.459 302.465H253.561L253.844 296.816H260.359L267.945 193.225H268.459C268.459 193.231 268.458 193.237 268.457 193.244L260.872 296.816H286.954ZM328.724 296.816L328.872 302.465H297.757L297.39 296.816H321.756L317.119 193.236C317.119 193.233 317.119 193.229 317.119 193.225H317.631L322.269 296.804C322.269 296.809 322.269 296.813 322.269 296.816H328.724Z" fill="#CBDDFF"/>
<path d="M293.2 228.462C293.179 228.601 293.049 228.698 292.909 228.677C292.769 228.656 292.672 228.526 292.693 228.386L295.755 207.99C295.776 207.85 295.908 207.753 296.047 207.774C296.187 207.795 296.283 207.927 296.262 208.066L293.2 228.462Z" fill="#6494F0"/>
<path d="M302.508 302.463H297.757L297.39 296.814H302.029L302.508 302.463Z" fill="#6494F0"/>
<path d="M256.279 302.465L256.007 305.57C265.084 306.607 274.215 306.956 283.486 305.57L283.757 302.465H256.279Z" fill="#FCB0C8"/>
<path d="M263.287 305.538C263.287 305.538 264.344 300.79 260.39 300.427C256.886 300.107 256.032 304.966 256.032 304.966C256.032 304.966 253.827 309.735 248.366 309.735L252.819 313.29C257.837 312.82 262.563 309.317 263.287 305.538Z" fill="#567FD2"/>
<path d="M256.071 312.561L248.995 309.714C249.439 309.682 249.86 309.621 250.258 309.532L256.937 312.22C256.653 312.342 256.364 312.456 256.071 312.561ZM258.98 311.128L251.763 309.037C252.057 308.907 252.334 308.765 252.594 308.612L259.659 310.658C259.439 310.821 259.213 310.977 258.98 311.128ZM261.302 309.192L253.983 307.597C254.181 307.419 254.365 307.24 254.534 307.062L261.776 308.641C261.627 308.828 261.469 309.012 261.302 309.192ZM262.8 307.012L255.323 306.117C255.485 305.894 255.619 305.69 255.726 305.52L263.053 306.398C262.98 306.604 262.895 306.809 262.8 307.012Z" fill="#0B2E75"/>
<path d="M263.287 305.537C270.378 306.006 277.181 305.964 283.69 304.918C284.843 310.433 284.915 315.208 283.487 321.882H249.578L249.909 313.634C257.225 313.065 260.871 310.61 263.287 305.537Z" fill="#0B2E75"/>
<path d="M284.377 309.252C284.775 313.134 284.532 317 283.487 321.882H249.578L249.856 314.955L252.043 313.399C252.667 313.308 253.261 313.199 253.824 313.073C256.003 315.246 256.466 319.404 256.466 319.404C256.466 319.404 278.518 319.649 280.723 318.731C282.928 317.811 284.377 309.252 284.377 309.252Z" fill="#08245E"/>
<path d="M270.95 321.882C270.913 318.626 272.293 316.309 274.302 314.862C272.4 313.986 268.455 311.466 269.105 305.799C269.448 305.807 269.79 305.812 270.131 305.816C270.131 305.838 270.13 305.859 270.127 305.88C269.43 311.769 274.338 313.83 275.378 314.199C278.171 312.735 281.761 312.651 284.539 313.805C284.529 314.144 284.514 314.485 284.494 314.83C284.41 314.839 284.326 314.826 284.242 314.792C279.481 312.743 271.888 314.741 271.975 321.875C271.975 321.878 271.975 321.88 271.975 321.882H270.95Z" fill="#567FD2"/>
<path d="M264.85 312.19C266.266 312.188 267.414 313.338 267.414 314.754C267.414 316.171 266.266 317.319 264.85 317.319C263.434 317.319 262.285 316.171 262.285 314.754C262.285 313.338 263.434 312.188 264.85 312.188V312.19Z" fill="#567FD2"/>
<path d="M283.487 321.755L282.44 323.889H238.061L237.194 321.755H283.487Z" fill="#567FD2"/>
<path d="M253.555 321.883C255.319 317.793 254.263 309.136 245.163 309.254C237.059 309.359 234.911 318.968 237.293 321.883H253.555Z" fill="#567FD2"/>
<path d="M253.222 313.55C252.975 315.917 251.178 318.286 247.177 319.657C243.324 320.978 237.908 320.078 236.384 318.969C236.231 315.016 238.942 309.334 245.163 309.253C249.459 309.198 251.963 311.098 253.222 313.55Z" fill="#98BAFF"/>
<path d="M327.2 302.465L327.47 305.57C318.394 306.607 309.262 306.956 299.992 305.57L299.722 302.465H327.2Z" fill="#FCB0C8"/>
<path d="M320.192 305.538C320.192 305.538 319.134 300.79 323.089 300.427C326.594 300.107 327.446 304.966 327.446 304.966C327.446 304.966 329.651 309.735 335.112 309.735L330.659 313.29C325.643 312.82 320.915 309.317 320.192 305.538Z" fill="#567FD2"/>
<path d="M327.408 312.561L334.484 309.714C334.04 309.682 333.619 309.621 333.221 309.532L326.542 312.22C326.826 312.342 327.115 312.456 327.408 312.561ZM324.498 311.128L331.716 309.037C331.422 308.907 331.145 308.765 330.885 308.612L323.82 310.658C324.039 310.821 324.266 310.977 324.498 311.128ZM322.177 309.192L329.496 307.597C329.298 307.419 329.114 307.24 328.945 307.062L321.703 308.641C321.852 308.828 322.01 309.012 322.177 309.192ZM320.679 307.012L328.156 306.117C327.994 305.894 327.86 305.69 327.755 305.52L320.426 306.398C320.499 306.604 320.584 306.809 320.679 307.012Z" fill="#0B2E75"/>
<path d="M320.192 305.538C313.101 306.007 306.298 305.965 299.79 304.919C298.636 310.434 298.564 315.209 299.992 321.883H333.901L333.57 313.635C326.254 313.066 322.608 310.611 320.192 305.538Z" fill="#0B2E75"/>
<path d="M299.102 309.253C298.704 313.135 298.947 317.001 299.991 321.883H333.901L333.622 314.956L331.435 313.4C330.812 313.309 330.218 313.2 329.655 313.074C327.476 315.247 327.013 319.405 327.013 319.405C327.013 319.405 304.96 319.65 302.755 318.732C300.55 317.812 299.102 309.253 299.102 309.253Z" fill="#08245E"/>
<path d="M312.527 321.882C312.565 318.626 311.184 316.309 309.175 314.862C311.078 313.986 315.023 311.466 314.372 305.799C314.03 305.807 313.689 305.812 313.347 305.816C313.347 305.838 313.349 305.859 313.351 305.88C314.047 311.769 309.139 313.83 308.099 314.199C305.307 312.735 301.716 312.651 298.938 313.805C298.948 314.144 298.963 314.485 298.983 314.83C299.068 314.839 299.152 314.826 299.235 314.792C303.996 312.743 311.59 314.741 311.503 321.875C311.503 321.878 311.503 321.88 311.503 321.882H312.527Z" fill="#567FD2"/>
<path d="M318.628 312.19C320.045 312.188 321.194 313.338 321.194 314.754C321.194 316.171 320.045 317.319 318.628 317.319C317.212 317.319 316.062 316.171 316.062 314.754C316.062 313.338 317.212 312.188 318.628 312.188V312.19Z" fill="#567FD2"/>
<path d="M299.993 321.756L301.041 323.89H345.42L346.286 321.756H299.993Z" fill="#567FD2"/>
<path d="M329.924 321.883C328.16 317.793 329.214 309.136 338.315 309.254C346.419 309.359 348.568 318.968 346.186 321.883H329.924Z" fill="#567FD2"/>
<path d="M330.256 313.551C330.503 315.918 332.301 318.287 336.302 319.658C340.155 320.979 345.571 320.079 347.095 318.97C347.249 315.017 344.537 309.335 338.316 309.254C334.019 309.199 331.516 311.099 330.256 313.551Z" fill="#98BAFF"/>
<path d="M302.99 112.943L303.779 124.973C298.436 127.346 293.094 126.561 287.751 124.973L290.253 104.508C293.262 108.7 297.097 111.972 302.99 112.943Z" fill="#FCB0C8"/>
<path d="M289.361 111.796L290.252 104.508C293.262 108.7 297.097 111.972 302.99 112.943L303.513 120.91C296.044 121.044 290.977 114.292 289.361 111.796Z" fill="#A31844"/>
<path d="M285.774 105.948C286.712 108.333 287.664 109.564 289.532 110.664L290.285 105.229L285.774 105.948Z" fill="#061D5D"/>
<path d="M320.532 88.1035C320.532 88.1035 319.564 94.6134 316.543 97.161L316.396 88.1035H320.532Z" fill="#021445"/>
<path d="M290.696 101.705C289.588 98.8068 286.634 97.6505 284.538 100.142C281.994 103.166 285.488 107.872 289.267 105.913C289.267 105.913 291.569 111.604 295.472 114.079C300.656 117.368 304.474 116.81 306.383 116.708C308.11 116.615 310.039 115.885 311.707 114.827C313.439 113.73 314.889 112.278 315.537 110.821C317.069 107.381 316.396 88.1035 316.396 88.1035H290.696V101.705Z" fill="#FDAFC8"/>
<path d="M316.462 90.5054C315.065 90.5815 311.411 90.6944 308.687 90.0079C308.687 90.0079 310.584 93.2944 305.972 93.3167C302.751 93.3324 295.053 92.0475 295.053 92.0475C295.053 92.0475 295.413 105.812 292.624 111.484C290.475 108.897 289.268 105.913 289.268 105.913C285.488 107.872 281.994 103.166 284.538 100.142C286.634 97.6505 289.588 98.8068 290.696 101.705V88.1035H316.396C316.396 88.1035 316.428 89.0262 316.462 90.5054Z" fill="#E582A2"/>
<path d="M298.283 97.357C298.283 97.357 300.861 95.9618 304.018 96.0747C305.545 96.4553 305.656 93.9629 304.018 93.7621C301.888 93.4996 298.803 94.4826 297.554 95.2937C296.073 96.2545 296.728 98.0355 298.283 97.357Z" fill="#0D2B72"/>
<path d="M302.426 99.207C303.233 99.207 303.888 100.147 303.888 101.306C303.888 102.466 303.233 103.406 302.426 103.406C301.619 103.406 300.964 102.466 300.964 101.306C300.964 100.147 301.619 99.207 302.426 99.207Z" fill="#04194B"/>
<path d="M314.389 97.357C314.389 97.357 311.811 95.9618 308.654 96.0747C307.127 96.4553 307.016 93.9629 308.654 93.7621C310.784 93.4996 313.869 94.4826 315.118 95.2937C316.599 96.2545 315.944 98.0355 314.389 97.357Z" fill="#0D2B72"/>
<path d="M311.001 99.1709C311.808 99.1709 312.463 100.111 312.463 101.27C312.463 102.428 311.808 103.37 311.001 103.37C310.194 103.37 309.539 102.428 309.539 101.27C309.539 100.111 310.194 99.1709 311.001 99.1709Z" fill="#04194B"/>
<path d="M306.66 101.923C306.576 101.691 306.698 101.433 306.931 101.351C307.164 101.267 307.42 101.389 307.504 101.621L309.671 107.672C309.716 107.794 309.704 107.93 309.64 108.043C309.486 108.316 309.18 108.575 308.788 108.768C308.271 109.02 307.605 109.164 307.053 109.129C306.806 109.111 306.618 108.899 306.635 108.652C306.651 108.405 306.865 108.218 307.112 108.233C307.52 108.261 308.012 108.149 308.394 107.962C308.529 107.896 308.653 107.824 308.745 107.741L306.66 101.923Z" fill="#B22F52"/>
<path d="M300.57 110.88C300.452 110.663 300.531 110.39 300.748 110.272C300.966 110.153 301.237 110.233 301.357 110.449C301.357 110.449 302.649 112.7 306.532 111.989C306.775 111.946 307.008 112.107 307.053 112.35C307.097 112.593 306.936 112.826 306.693 112.871C302.064 113.718 300.57 110.88 300.57 110.88Z" fill="#B72222"/>
<path d="M287.791 102.318C287.751 102.295 287.71 102.275 287.667 102.257C287.222 102.068 286.635 102.104 285.916 102.458C285.757 102.537 285.565 102.471 285.487 102.313C285.409 102.154 285.475 101.962 285.632 101.883C286.569 101.423 287.337 101.421 287.917 101.667C288.066 101.731 288.203 101.81 288.329 101.906C288.34 101.914 288.35 101.922 288.361 101.931C288.961 102.4 289.278 103.204 289.261 104.024C289.259 104.201 289.113 104.342 288.936 104.338C288.759 104.335 288.618 104.189 288.622 104.012C288.63 103.57 288.521 103.128 288.291 102.785C288.105 103.189 287.727 103.685 286.982 103.847C286.81 103.884 286.639 103.773 286.602 103.601C286.564 103.428 286.674 103.258 286.846 103.221C287.476 103.086 287.71 102.589 287.791 102.316V102.318Z" fill="#720E3C"/>
<path d="M290.696 101.705C290.696 101.705 291.172 104.291 292.335 103.996C293.982 103.577 294.146 93.8553 293.688 90.6712C293.688 90.6712 302.637 93.3408 306.119 92.5703C310.365 91.6319 307.192 89.3088 306.119 88.8166C306.119 88.8166 313.862 90.6646 319.211 88.8166C323.287 87.4083 323.581 81.0966 318.085 82.5718C318.085 82.5718 323.125 80.1017 323.381 75.8703C323.659 71.2333 317.481 70.4288 313.549 72.0274C313.549 72.0274 315.96 68.8144 313.08 67.267C310.758 66.0201 304.386 67.7395 301.223 72.0274C301.223 72.0274 302.743 68.5178 298.745 67.9941C293.902 67.3575 284.892 72.2387 285.116 78.1606C285.116 78.1606 280.536 80.1149 280.2 85.9804C280.013 89.2537 283.927 101.146 283.927 101.146C283.927 101.146 285.278 98.4765 287.353 98.7849C289.92 99.1682 290.696 101.705 290.696 101.705Z" fill="#0D2B72"/>
<path fill-rule="evenodd" clip-rule="evenodd" d="M289.262 72.2228C285.99 74.7427 286.069 78.7773 286.069 78.7773C280.259 81.3786 281.201 91.8391 281.201 91.8391C280.588 89.4097 280.134 87.147 280.201 85.9802C280.536 80.1147 285.116 78.1604 285.116 78.1604C284.893 72.2385 293.902 67.3574 298.746 67.9939C301.667 68.3772 301.643 70.3525 301.417 71.3893C299.404 68.2551 292.533 69.7041 289.262 72.2228ZM304.319 69.1397L302.714 70.384C303.218 69.9259 303.757 69.5112 304.319 69.1397ZM314.333 70.4522C314.333 70.4522 313.125 68.3037 310.055 68.0399C306.699 67.7498 304.319 69.1397 304.319 69.1397C307.511 67.0306 311.382 66.3546 313.08 67.2668C314.63 68.1002 314.647 69.4154 314.333 70.4522ZM321.636 79.7997C321.636 79.7997 324.135 75.9883 321.047 73.4788C317.747 70.8 314.581 71.6741 314.346 71.745C318.262 70.5506 323.641 71.5363 323.38 75.8701C323.286 77.432 322.54 78.7537 321.636 79.7997ZM320.31 81.0873L321.636 79.7997C321.212 80.2906 320.753 80.7211 320.31 81.0873ZM321.986 86.1587C322.321 82.8919 318.965 82.3932 318.965 82.3932C321.879 82.0139 322.741 84.1887 321.986 86.1587Z" fill="#4465B2"/>
<path d="M282.892 97.8464C283.985 97.3975 289.146 95.5784 291.655 100.062C291.655 100.062 292.99 93.3538 292.336 88.7076C292.336 88.7076 303.213 92.9876 307.468 92.1174C307.14 92.2893 306.699 92.4429 306.12 92.5702C302.638 93.3406 293.688 90.671 293.688 90.671C294.146 93.8551 293.982 103.577 292.336 103.995C291.172 104.291 290.697 101.705 290.697 101.705C290.697 101.705 289.92 99.1681 287.354 98.7848C285.279 98.4764 283.928 101.146 283.928 101.146C283.928 101.146 283.478 99.7797 282.892 97.8464ZM308.249 90.8915C307.295 89.9085 305.088 88.0277 301.793 87.5303C301.793 87.5303 314.156 89.1289 321.147 87.5303C320.654 88.0828 320.005 88.5422 319.211 88.8165C313.862 90.6645 306.12 88.8165 306.12 88.8165C306.742 89.1013 308.069 90.0017 308.249 90.8915Z" fill="#061D5D"/>
<path d="M288.458 119.188C288.458 119.188 293.699 125.915 298.049 125.915C301.817 125.915 303.452 119.985 303.452 119.985L305.824 120.383L306.618 196.099H285.488L285.499 119.417L288.458 119.188Z" fill="#234E9A"/>
<path d="M292.896 196.099H285.488V119.356C286.713 119.277 287.734 119.235 288.477 119.214C288.609 119.381 289.415 120.387 290.595 121.57C291.734 126.717 291.851 136.016 291.851 136.016C291.851 136.016 292.345 132.211 292.64 129.937C292.762 128.987 293.572 128.277 294.53 128.277H301.33C301.33 128.277 301.355 128.12 301.352 127.853C301.344 126.452 301.337 125.207 301.33 124.142C302.502 122.738 303.161 120.907 303.375 120.242C304.061 120.333 304.892 120.452 305.825 120.596L306.618 196.099H301.39C301.499 189.294 301.52 177.766 301.502 165.713C301.486 166.181 294.396 165.709 294.396 165.709C294.396 165.709 293.295 168.4 292.855 169.121C293.109 180.026 293.158 190.08 292.896 196.099Z" fill="#1B3F7E"/>
<path d="M303.452 119.987C303.452 119.987 318.653 121.83 324.743 126.235C332.438 131.799 339.595 155.562 339.595 155.562L360.112 147.686L369.807 167.818C369.807 167.818 346.903 180.746 338.123 180.901C328.767 181.066 327.78 172.706 327.78 172.706L329.404 198.669C319.64 200.114 313.216 200.595 303.452 199.93C303.911 186.292 303.452 119.987 303.452 119.987ZM288.458 119.19C290.501 125.557 291.545 187.989 290.155 199.921C284.124 201.477 262.294 200.588 254.428 198.758L256.683 181.184C256.683 181.184 249.163 179.559 245.36 171.178C239.765 158.844 251.679 131.701 259.714 126.186C269.967 119.147 288.458 119.19 288.458 119.19Z" fill="#F7BA36"/>
<path d="M288.786 120.729C288.786 120.729 272.725 120.212 261.488 127.321C254.433 131.783 247.327 146.399 247.327 146.399C250.608 137.273 255.656 128.97 259.713 126.185C269.967 119.145 288.458 119.188 288.458 119.188C288.571 119.539 288.68 120.059 288.786 120.729ZM303.463 121.521C303.457 120.527 303.453 119.986 303.453 119.986C303.453 119.986 318.654 121.829 324.744 126.233C332.439 131.798 339.596 155.56 339.596 155.56C339.596 155.56 330.592 130.921 323.189 127.321C313.984 122.845 303.463 121.521 303.463 121.521Z" fill="#FDD986"/>
<path d="M340.069 155.38C340.035 155.447 339.982 155.503 339.911 155.542L334.03 158.782C333.845 158.884 333.61 158.816 333.509 158.631C333.406 158.444 333.473 158.211 333.66 158.108L339.405 154.945C339.529 155.344 339.595 155.561 339.595 155.561L340.069 155.38Z" fill="#513200"/>
<path d="M290.137 140.888C290.473 149.898 290.692 160.469 290.764 170.257C278.753 180.481 265.927 186.297 256.137 185.43L256.683 181.184L267.303 140.888L265.537 150.949L281.573 141.418L282.879 143.783C285.108 142.463 287.405 141.267 290.137 140.888ZM338.122 180.9C328.767 181.066 327.779 172.705 327.779 172.705L329.403 198.669C329.403 198.669 327.323 179.852 326.357 171.179C325.448 162.995 323.613 146.631 323.613 146.631C323.613 146.631 329.705 167.347 333.46 171.179C336.354 174.13 339.969 176.477 344.094 176.477C348.567 176.477 350.044 158.03 351.146 151.127L360.112 147.685L369.807 167.817C369.807 167.817 357.374 174.835 347.316 178.592C342.705 179.958 339.183 180.882 338.122 180.9ZM303.651 166.3C303.632 152.618 303.559 138.17 303.508 129.12H319.712C320.41 129.12 320.872 129.687 320.742 130.385L314.754 165.035C314.624 165.733 313.952 166.3 313.253 166.3H303.651Z" fill="#E39714"/>
<path d="M303.644 162.211C303.643 161.649 303.642 161.088 303.64 160.526L309.592 141.114L306.064 136.316C305.951 136.162 305.968 135.948 306.105 135.815L310.327 131.686L307.014 120.522C307.285 120.568 307.567 120.617 307.86 120.669L311.129 131.688C311.17 131.825 311.132 131.973 311.029 132.073L306.881 136.13L310.326 140.814C310.398 140.912 310.419 141.038 310.384 141.154L304.01 161.94C303.96 162.105 303.808 162.211 303.644 162.211ZM290.674 162.211C290.517 162.214 290.368 162.118 290.309 161.962L282.122 140.125C282.076 140.003 282.094 139.866 282.172 139.763L285.617 135.078L281.468 131.02C281.366 130.92 281.328 130.773 281.369 130.637L284.722 119.332C284.999 119.315 285.264 119.299 285.515 119.285C285.517 119.329 285.512 119.373 285.499 119.416L282.17 130.633L286.393 134.762C286.529 134.896 286.546 135.11 286.433 135.265L282.913 140.05L290.65 160.685C290.659 161.194 290.667 161.703 290.674 162.211Z" fill="white"/>
<path d="M295.915 129.12H294.755C294.057 129.12 293.385 129.687 293.255 130.385L287.267 162.628C287.137 163.326 287.598 163.893 288.296 163.893H289.456C288.758 163.893 288.297 163.326 288.427 162.628L294.415 130.385C294.545 129.687 295.217 129.12 295.915 129.12Z" fill="#627ECD"/>
<path d="M319.712 130.385C319.842 129.687 319.38 129.12 318.682 129.12H295.915C295.217 129.12 294.545 129.687 294.415 130.385L288.426 162.629C288.296 163.326 288.758 163.893 289.456 163.893H312.223C312.921 163.893 313.593 163.326 313.723 162.629L319.712 130.385Z" fill="#E0EBFF"/>
<path d="M291.88 144.038C294.241 143.842 299.089 143.486 300.675 143.732C302.746 144.053 304.389 147.016 302.702 147.991C305.394 148.411 305.549 151.349 303.651 152.506C305.406 153.837 305.329 157.791 302.046 158.635C300.533 159.025 293.506 160.478 293.506 160.478V162.429L301.353 163.893H291.752L289.187 158.538L291.88 144.038Z" fill="#ABC8F8"/>
<path d="M282.651 144.895C282.651 144.895 287.458 141.091 291.261 141.464L290.56 144.895C290.56 144.895 298.609 143.823 300.735 144.152C302.806 144.474 303.732 147.071 302.046 148.046C304.738 148.466 304.874 151.368 302.975 152.524C304.73 153.855 304.554 156.434 301.272 157.278C298.473 157.998 290.211 159.677 290.211 159.677L282.651 144.895Z" fill="#FCB0C8"/>
<path d="M303.505 156.035C303.053 156.561 302.32 157.009 301.272 157.278C298.473 157.997 290.211 159.678 290.211 159.678L282.651 144.896C282.651 144.896 283.402 144.301 284.547 143.604C284.547 143.604 290.516 156.87 291.945 157.278C293.374 157.686 303.505 156.035 303.505 156.035Z" fill="#EE86A7"/>
<path d="M302.835 148.267L292.307 149.638C292.133 149.662 291.971 149.537 291.949 149.363C291.926 149.187 292.05 149.027 292.225 149.004L302.517 147.663C302.392 147.808 302.235 147.936 302.046 148.046C302.339 148.094 302.602 148.167 302.835 148.267ZM303.289 152.795L292.991 154.592C292.818 154.622 292.651 154.505 292.621 154.33C292.591 154.157 292.708 153.991 292.881 153.96L303.506 152.108C303.352 152.264 303.175 152.403 302.975 152.526C303.088 152.611 303.193 152.7 303.289 152.795Z" fill="#BB345F"/>
<path d="M255.385 181.075C253.065 180.723 248.186 177.404 245.362 171.177C242.01 163.786 246.518 151.074 251.138 140.887H267.306L264.105 152.524L281.419 142.488C281.419 142.488 291.552 161.936 292.937 165.413C280.23 177 267.636 182.112 257.162 181.183C257.162 181.183 256.473 181.197 255.385 181.075Z" fill="#F7BA36"/>
<path d="M264.488 151.509C264.647 151.42 264.847 151.476 264.936 151.634C265.024 151.793 264.967 151.992 264.81 152.081L255.049 157.564C254.89 157.653 254.691 157.596 254.601 157.439C254.513 157.281 254.569 157.081 254.727 156.993L264.488 151.509Z" fill="#6C4300"/>
<path d="M316.988 132.287C317.017 132.131 316.914 132.005 316.758 132.005H311.669C311.513 132.005 311.364 132.131 311.335 132.287L309.996 139.493C309.967 139.649 310.07 139.775 310.226 139.775H315.314C315.47 139.775 315.62 139.649 315.649 139.493L316.988 132.287Z" fill="#627ECD"/>
<path d="M315.705 133.968C315.721 133.886 315.718 133.817 315.699 133.817H315.09C315.071 133.817 315.044 133.886 315.028 133.968L314.314 137.811C314.298 137.894 314.301 137.962 314.319 137.962H314.93C314.948 137.962 314.976 137.894 314.991 137.811L315.705 133.968Z" fill="#BAD2FF"/>
<path d="M313.306 133.297C313.955 133.297 314.385 133.825 314.265 134.474C314.144 135.124 313.52 135.651 312.87 135.651C312.22 135.651 311.79 135.124 311.911 134.474C312.031 133.825 312.656 133.297 313.306 133.297ZM312.781 136.131C313.43 136.131 313.86 136.658 313.74 137.308C313.619 137.958 312.993 138.485 312.344 138.485C311.694 138.485 311.265 137.958 311.386 137.308C311.506 136.658 312.131 136.131 312.781 136.131Z" fill="white"/>
<path d="M327.878 174.267C327.821 174.22 327.782 174.153 327.769 174.075L323.298 146.682C323.269 146.508 323.388 146.342 323.562 146.315C323.737 146.286 323.901 146.404 323.93 146.579L328.401 173.972C328.426 174.129 328.332 174.28 328.183 174.327C327.859 173.373 327.78 172.704 327.78 172.704L327.878 174.267Z" fill="#513200"/>
<path d="M366.037 92.1045L355.509 113.074L355.212 116.206L372.15 117.808L372.446 114.677L366.037 92.1045Z" fill="#FFF5DA"/>
<path d="M363.979 117.035V113.876L366.038 92.1045L372.448 114.677L372.272 116.531L369.042 117.514L363.979 117.035Z" fill="#FFEBBA"/>
<path d="M354.128 316.082L353.93 318.177C353.771 319.861 352.95 321.412 351.646 322.49C350.343 323.568 348.666 324.085 346.982 323.925L341.28 323.385C339.597 323.226 338.045 322.405 336.968 321.101C335.89 319.798 335.374 318.121 335.533 316.437L335.731 314.342L354.128 316.082ZM363.979 113.876L345.003 314.446L336.533 313.644L355.509 113.074C358.007 114.695 360.859 114.84 363.979 113.876Z" fill="#F7BA36"/>
<path d="M337.825 300.003L355.51 113.074C356.669 113.826 357.904 114.259 359.207 114.413C358.219 125.237 342.633 295.971 342.099 298.804C341.706 300.889 337.825 300.002 337.825 300.002V300.003Z" fill="#FFD884"/>
<path d="M363.838 96.4869C363.838 96.4869 364.25 98.8835 367.854 98.5002L366.039 92.1045L363.838 96.4869Z" fill="#714400"/>
<path d="M348.183 323.924C348.183 323.924 352.67 320.067 351.645 318.581C350.646 317.13 336.222 316.496 335.53 316.466C335.531 316.456 335.532 316.446 335.533 316.437L335.731 314.342L354.128 316.082L353.93 318.177C353.77 319.861 352.948 321.412 351.646 322.49C350.654 323.31 349.445 323.805 348.183 323.924ZM363.977 113.876C366.61 115.531 369.441 115.629 372.446 114.678L353.471 315.248L345.002 314.446L363.977 113.876Z" fill="#DA8506"/>
<path d="M369.473 146.106L369.057 150.507L369.435 146.112C369.448 146.11 369.46 146.108 369.473 146.106ZM369.057 150.507L353.989 309.776L345.639 307.716L346.182 301.974H353.989C353.989 301.974 365.318 165.151 365.247 165.13C363.546 164.636 362.75 161.126 364.23 160.486C363.032 160.709 361.685 160.874 361.142 159.37C360.806 158.44 360.377 156.512 363.512 155.909C360.63 156.26 360.197 152.461 363.105 151.519C366.086 150.552 369.057 150.509 369.057 150.509V150.507Z" fill="#B46505"/>
<path d="M356.257 304.408L360.408 260.527C360.498 259.589 361.922 258.956 363.591 259.114L358.085 317.305L355.064 317.019L355.07 316.942L334.638 315.087L335.823 302.553L356.257 304.408Z" fill="#975C05"/>
<path d="M337.737 315.368L334.637 315.087L335.823 302.553L339.072 302.848L337.737 315.368ZM355.071 316.941L356.23 304.405L356.257 304.408L360.409 260.527C360.497 259.589 361.922 258.956 363.59 259.114L358.086 317.305L355.063 317.019L355.071 316.941Z" fill="#774504"/>
<path d="M373.355 160.812C373.355 160.812 371.373 164.948 368.875 165.835L365.456 158.764L373.355 160.812Z" fill="#EE86A7"/>
<path d="M369.434 146.112L369.056 150.509C369.056 150.509 366.491 150.746 363.512 151.712C360.602 152.656 361.346 156.125 364.23 155.774C361.093 156.375 361.193 158.323 361.529 159.255C362.071 160.759 364.112 160.226 365.311 160.003C363.829 160.644 364 162.927 365.701 163.421C367.695 164.001 372.275 162.544 372.728 161.669C373.573 160.982 373.751 159.745 373.375 158.26C373.926 156.864 373.564 155.258 373.127 153.829C373.585 151.986 372.735 150.242 372.131 149.833C373.751 149.365 373.479 146.386 372.131 146.112C371.397 145.963 370.523 145.978 369.434 146.112Z" fill="#FCB0C8"/>
<path d="M364.366 160.18L373.435 158.101C373.417 158.155 373.397 158.208 373.376 158.26C373.418 158.427 373.453 158.589 373.481 158.749L364.472 160.813C364.634 160.468 364.913 160.176 365.312 160.005C365.033 160.056 364.707 160.124 364.366 160.18ZM373.25 154.238L362.479 156.415C362.901 156.146 363.471 155.921 364.231 155.776C363.75 155.833 363.33 155.786 362.976 155.662L373.179 153.6C373.164 153.676 373.148 153.752 373.129 153.829C373.17 153.964 373.211 154.1 373.25 154.238ZM372.489 150.198L368.316 150.605C368.306 150.605 368.296 150.606 368.286 150.606C368.773 150.535 369.057 150.509 369.057 150.509L369.11 149.884L372.612 149.543C372.629 149.541 372.645 149.541 372.662 149.541C372.515 149.673 372.339 149.774 372.132 149.833C372.246 149.91 372.368 150.035 372.489 150.198Z" fill="#BB345F"/>
<circle cx="708.5" cy="93.5" r="2.5" fill="#FFCE70"/>
<circle cx="36" cy="283" r="2" fill="#FFCE70"/>
<path fill-rule="evenodd" clip-rule="evenodd" d="M206.348 73.9228L208.33 72.8749C208.866 72.5906 209.532 72.7961 209.815 73.3329L210.363 74.3685C210.592 74.802 211.079 75.0327 211.557 74.9271C212.48 74.7221 213.413 74.6366 214.338 74.6674C214.828 74.6813 215.265 74.3635 215.409 73.8954L215.755 72.7766C215.933 72.1951 216.549 71.87 217.129 72.0493L219.271 72.7095C219.852 72.8883 220.177 73.5044 219.998 74.0853L219.653 75.2036C219.509 75.6722 219.691 76.1817 220.105 76.4447C220.883 76.9424 221.607 77.5373 222.254 78.2249C222.59 78.5819 223.124 78.6657 223.557 78.4372L224.591 77.8892C225.129 77.6066 225.794 77.8122 226.078 78.3473L227.125 80.3297C227.409 80.8665 227.204 81.5323 226.666 81.8155L225.632 82.3618C225.199 82.5902 224.967 83.0807 225.073 83.5582C225.278 84.4799 225.362 85.4133 225.334 86.3377C225.318 86.8282 225.636 87.2655 226.106 87.4113L227.223 87.7548C227.804 87.9341 228.13 88.5491 227.951 89.1306L227.29 91.2711C227.111 91.8509 226.496 92.1771 225.916 91.9978L224.797 91.6515C224.329 91.5085 223.819 91.69 223.555 92.1051C223.057 92.8837 222.463 93.6082 221.775 94.2539C221.418 94.5907 221.335 95.1242 221.563 95.5576L222.11 96.5916C222.393 97.1289 222.188 97.7931 221.651 98.0774L219.67 99.1247C219.133 99.4085 218.468 99.2035 218.184 98.6667L217.638 97.6322C217.409 97.1999 216.92 96.9664 216.443 97.0742C215.52 97.2769 214.587 97.3618 213.662 97.3345C213.173 97.3183 212.734 97.6367 212.59 98.1053L212.245 99.2236C212.066 99.8034 211.451 100.13 210.87 99.9508L208.729 99.2889C208.148 99.1119 207.823 98.4963 208.002 97.9159L208.347 96.7977C208.491 96.329 208.31 95.819 207.895 95.5554C207.116 95.0577 206.393 94.4628 205.745 93.7741C205.41 93.4177 204.875 93.335 204.443 93.5635L203.408 94.1104C202.871 94.3936 202.206 94.1891 201.923 93.6518L200.875 91.6699C200.592 91.1331 200.796 90.4679 201.333 90.1847L202.367 89.6367C202.801 89.4082 203.033 88.9206 202.927 88.4425C202.723 87.5197 202.638 86.5863 202.667 85.6619C202.682 85.1725 202.363 84.7352 201.895 84.5899L200.776 84.2453C200.197 84.066 199.87 83.451 200.049 82.8706L200.709 80.7279C200.889 80.1481 201.505 79.8241 202.085 80.0034L203.203 80.3464C203.671 80.4922 204.18 80.309 204.445 79.8962C204.942 79.1164 205.537 78.3931 206.226 77.7446C206.582 77.4105 206.666 76.8749 206.438 76.4425L205.891 75.408C205.606 74.8712 205.811 74.206 206.348 73.9228ZM209.178 89.7143C210.722 91.7504 213.47 92.5966 215.893 91.785C219.893 90.4422 221.372 85.6473 218.823 82.2858C217.278 80.2492 214.53 79.4019 212.107 80.2146C208.107 81.5563 206.629 86.3523 209.178 89.7143Z" fill="#D9E3F9"/>
<path fill-rule="evenodd" clip-rule="evenodd" d="M714.494 260.755L715.273 260.344C715.483 260.232 715.745 260.313 715.856 260.524L716.071 260.93C716.161 261.101 716.352 261.191 716.54 261.15C716.903 261.069 717.269 261.036 717.633 261.048C717.825 261.053 717.997 260.929 718.054 260.745L718.189 260.305C718.26 260.077 718.501 259.949 718.729 260.019L719.571 260.279C719.799 260.349 719.927 260.591 719.856 260.819L719.721 261.259C719.664 261.443 719.736 261.643 719.898 261.746C720.204 261.942 720.489 262.175 720.742 262.446C720.875 262.586 721.085 262.619 721.255 262.529L721.661 262.314C721.872 262.203 722.134 262.283 722.245 262.494L722.656 263.272C722.768 263.483 722.687 263.745 722.476 263.856L722.07 264.071C721.9 264.16 721.808 264.353 721.85 264.541C721.931 264.903 721.963 265.27 721.953 265.633C721.947 265.825 722.071 265.997 722.256 266.054L722.695 266.189C722.923 266.26 723.051 266.501 722.981 266.73L722.721 267.571C722.651 267.799 722.409 267.927 722.181 267.856L721.742 267.72C721.558 267.664 721.357 267.735 721.254 267.898C721.058 268.204 720.825 268.489 720.554 268.743C720.414 268.875 720.382 269.084 720.471 269.255L720.686 269.661C720.797 269.872 720.717 270.133 720.506 270.245L719.727 270.656C719.516 270.768 719.255 270.687 719.144 270.476L718.929 270.07C718.839 269.9 718.647 269.808 718.46 269.851C718.097 269.93 717.73 269.964 717.367 269.953C717.175 269.946 717.003 270.072 716.946 270.256L716.811 270.695C716.74 270.923 716.499 271.051 716.271 270.981L715.429 270.721C715.201 270.651 715.073 270.409 715.143 270.181L715.279 269.742C715.336 269.558 715.265 269.357 715.102 269.254C714.796 269.058 714.511 268.825 714.257 268.554C714.125 268.414 713.915 268.382 713.745 268.471L713.339 268.686C713.128 268.797 712.867 268.717 712.756 268.506L712.344 267.727C712.233 267.517 712.313 267.255 712.524 267.144L712.93 266.929C713.1 266.839 713.192 266.647 713.15 266.46C713.07 266.097 713.036 265.73 713.048 265.367C713.054 265.175 712.928 265.003 712.744 264.946L712.305 264.811C712.077 264.74 711.949 264.499 712.019 264.271L712.279 263.429C712.349 263.201 712.591 263.074 712.819 263.144L713.258 263.279C713.442 263.336 713.642 263.264 713.746 263.102C713.942 262.796 714.175 262.512 714.446 262.257C714.586 262.126 714.619 261.915 714.529 261.745L714.314 261.339C714.203 261.128 714.283 260.867 714.494 260.755ZM715.606 266.959C716.212 267.759 717.292 268.092 718.244 267.773C719.815 267.245 720.396 265.361 719.395 264.041C718.788 263.241 717.708 262.908 716.756 263.227C715.185 263.754 714.604 265.638 715.606 266.959Z" fill="#D9E3F9"/>
<circle cx="36" cy="283" r="2" fill="#94C4FC"/>
</g>
</g>
<defs>
<filter id="filter0_d_1019_8075" x="0" y="0" width="815" height="340" filterUnits="userSpaceOnUse" color-interpolation-filters="sRGB">
<feFlood flood-opacity="0" result="BackgroundImageFix"/>
<feColorMatrix in="SourceAlpha" type="matrix" values="0 0 0 0 0 0 0 0 0 0 0 0 0 0 0 0 0 0 127 0" result="hardAlpha"/>
<feOffset dy="2"/>
<feGaussianBlur stdDeviation="5"/>
<feComposite in2="hardAlpha" operator="out"/>
<feColorMatrix type="matrix" values="0 0 0 0 0.117647 0 0 0 0 0.533333 0 0 0 0 0.898039 0 0 0 0.05 0"/>
<feBlend mode="normal" in2="BackgroundImageFix" result="effect1_dropShadow_1019_8075"/>
<feBlend mode="normal" in="SourceGraphic" in2="effect1_dropShadow_1019_8075" result="shape"/>
</filter>
<filter id="filter1_d_1019_8075" x="0" y="0" width="815" height="340" filterUnits="userSpaceOnUse" color-interpolation-filters="sRGB">
<feFlood flood-opacity="0" result="BackgroundImageFix"/>
<feColorMatrix in="SourceAlpha" type="matrix" values="0 0 0 0 0 0 0 0 0 0 0 0 0 0 0 0 0 0 127 0" result="hardAlpha"/>
<feOffset dy="2"/>
<feGaussianBlur stdDeviation="5"/>
<feComposite in2="hardAlpha" operator="out"/>
<feColorMatrix type="matrix" values="0 0 0 0 0.117647 0 0 0 0 0.533333 0 0 0 0 0.898039 0 0 0 0.05 0"/>
<feBlend mode="normal" in2="BackgroundImageFix" result="effect1_dropShadow_1019_8075"/>
<feBlend mode="normal" in="SourceGraphic" in2="effect1_dropShadow_1019_8075" result="shape"/>
</filter>
<clipPath id="clip0_1019_8075">
<rect width="795" height="320" fill="white" transform="translate(10 8)"/>
</clipPath>
</defs>
</svg>
