<svg width="30" height="30" viewBox="0 0 30 30" fill="none" xmlns="http://www.w3.org/2000/svg">
<g clip-path="url(#clip0_1113_6248)">
<path d="M5.66602 26.7627H17.2809C18.2206 26.7627 19.1313 26.4375 19.8584 25.8423L27.7066 19.4178C28.5118 18.7599 28.6394 17.5801 27.9998 16.766C27.3398 15.926 26.0939 15.815 25.2667 16.4909L19.573 21.1427" stroke="#1E88E5" stroke-width="1.75781" stroke-miterlimit="10" stroke-linecap="round" stroke-linejoin="round"/>
<path d="M11.6426 22.13H17.851C18.9032 22.13 19.7561 21.277 19.7561 20.2248C19.7561 19.1727 18.9032 18.3197 17.851 18.3197H14.5028C13.5472 18.3197 12.5954 18.1752 11.6892 17.8718C11.0994 17.6744 10.2696 17.4863 9.24808 17.4863C7.09754 17.4863 5.55176 18.3197 5.55176 18.3197" stroke="#1E88E5" stroke-width="1.75781" stroke-miterlimit="10" stroke-linecap="round" stroke-linejoin="round"/>
<path d="M1 18.3195L1 29H5.55212L5.55212 18.3195H1Z" stroke="#1E88E5" stroke-width="1.75781" stroke-miterlimit="10" stroke-linecap="round" stroke-linejoin="round"/>
<path d="M20.9941 7.65106C20.9941 11.3247 18.084 14.3027 14.4941 14.3027C10.9043 14.3027 7.99414 11.3247 7.99414 7.65106C7.99414 3.97745 10.9043 0.999377 14.4941 0.999377C18.084 0.999377 20.9941 3.97745 20.9941 7.65106Z" stroke="#1E88E5" stroke-width="2" stroke-miterlimit="10" stroke-linecap="round" stroke-linejoin="round"/>
<path d="M9.25329 7.65039H8.0625" stroke="#1E88E5" stroke-width="2" stroke-miterlimit="10" stroke-linecap="round" stroke-linejoin="round"/>
<path d="M20.9847 7.65039H19.7939" stroke="#1E88E5" stroke-width="2" stroke-miterlimit="10" stroke-linecap="round" stroke-linejoin="round"/>
<path d="M14.4932 12.9416V14.1602" stroke="#1E88E5" stroke-width="2" stroke-miterlimit="10" stroke-linecap="round" stroke-linejoin="round"/>
<path d="M14.4932 1.00017V2.21875" stroke="#1E88E5" stroke-width="2" stroke-miterlimit="10" stroke-linecap="round" stroke-linejoin="round"/>
<path d="M15.9625 7.63867H14.4932" stroke="#1E88E5" stroke-width="1.5" stroke-miterlimit="10" stroke-linecap="round" stroke-linejoin="round"/>
<path d="M14.4932 6.14734V7.65039" stroke="#1E88E5" stroke-width="1.5" stroke-miterlimit="10" stroke-linecap="round" stroke-linejoin="round"/>
</g>
<defs>
<clipPath id="clip0_1113_6248">
<rect width="30" height="30" fill="white"/>
</clipPath>
</defs>
</svg>
