<svg width="30" height="30" viewBox="0 0 30 30" fill="none" xmlns="http://www.w3.org/2000/svg">
<path d="M14.7251 21.4502C20.0961 21.4502 24.4502 17.0961 24.4502 11.7251C24.4502 6.35408 20.0961 2 14.7251 2C9.35408 2 5 6.35408 5 11.7251C5 17.0961 9.35408 21.4502 14.7251 21.4502Z" stroke="#BC4923" stroke-width="2" stroke-miterlimit="10"/>
<path d="M17.6385 12.6713L20.2129 9.94185L16.5259 9.24683L14.7256 5.95508L12.9253 9.24683L9.23828 9.94185L11.8126 12.6713L11.3342 16.3926L14.7256 14.7877L18.1169 16.3926L17.6385 12.6713Z" stroke="#BC4923" stroke-width="2" stroke-miterlimit="10"/>
<path d="M7.72461 18.4746V24.4746C8.83856 24.4746 9.87167 24.0848 10.7246 23.4187" stroke="#BC4923" stroke-width="1.8" stroke-miterlimit="10"/>
<path d="M21.7246 18.4746V24.4746C20.6107 24.4746 19.5776 24.0848 18.7246 23.4187" stroke="#BC4923" stroke-width="1.8" stroke-miterlimit="10"/>
<path d="M10.7246 21.4749V27.4746C12.2925 27.4746 13.7086 26.8847 14.7246 25.9337C15.7407 26.8847 17.1567 27.4746 18.7246 27.4746V21.4746" stroke="#BC4923" stroke-width="1.8" stroke-miterlimit="10"/>
</svg>
