<svg width="32" height="32" viewBox="0 0 32 32" fill="none" xmlns="http://www.w3.org/2000/svg">
<path d="M23.9999 5.33203H7.99992C6.52716 5.33203 5.33325 6.52594 5.33325 7.9987V23.9987C5.33325 25.4715 6.52716 26.6654 7.99992 26.6654H23.9999C25.4727 26.6654 26.6666 25.4715 26.6666 23.9987V7.9987C26.6666 6.52594 25.4727 5.33203 23.9999 5.33203Z" stroke="#F2C200" stroke-width="2" stroke-linecap="round" stroke-linejoin="round"/>
<path d="M18.6667 12H13.3333C12.597 12 12 12.597 12 13.3333V18.6667C12 19.403 12.597 20 13.3333 20H18.6667C19.403 20 20 19.403 20 18.6667V13.3333C20 12.597 19.403 12 18.6667 12Z" stroke="#F2C200" stroke-width="2" stroke-linecap="round" stroke-linejoin="round"/>
<path d="M20 2.66797V5.33464" stroke="#F2C200" stroke-width="2" stroke-linecap="round" stroke-linejoin="round"/>
<path d="M20 26.668V29.3346" stroke="#F2C200" stroke-width="2" stroke-linecap="round" stroke-linejoin="round"/>
<path d="M2.66675 20H5.33341" stroke="#F2C200" stroke-width="2" stroke-linecap="round" stroke-linejoin="round"/>
<path d="M2.66675 12H5.33341" stroke="#F2C200" stroke-width="2" stroke-linecap="round" stroke-linejoin="round"/>
<path d="M26.6667 20H29.3334" stroke="#F2C200" stroke-width="2" stroke-linecap="round" stroke-linejoin="round"/>
<path d="M26.6667 12H29.3334" stroke="#F2C200" stroke-width="2" stroke-linecap="round" stroke-linejoin="round"/>
<path d="M12 2.66797V5.33464" stroke="#F2C200" stroke-width="2" stroke-linecap="round" stroke-linejoin="round"/>
<path d="M12 26.668V29.3346" stroke="#F2C200" stroke-width="2" stroke-linecap="round" stroke-linejoin="round"/>
</svg>
