<svg width="32" height="32" viewBox="0 0 32 32" fill="none" xmlns="http://www.w3.org/2000/svg">
<path d="M16 10.668C22.6274 10.668 28 8.87711 28 6.66797C28 4.45883 22.6274 2.66797 16 2.66797C9.37258 2.66797 4 4.45883 4 6.66797C4 8.87711 9.37258 10.668 16 10.668Z" stroke="#17AD87" stroke-width="2" stroke-linecap="round" stroke-linejoin="round"/>
<path d="M4 6.66797V25.3346C4 26.3955 5.26428 27.4129 7.51472 28.1631C9.76516 28.9132 12.8174 29.3346 16 29.3346C19.1826 29.3346 22.2348 28.9132 24.4853 28.1631C26.7357 27.4129 28 26.3955 28 25.3346V6.66797" stroke="#17AD87" stroke-width="2" stroke-linecap="round" stroke-linejoin="round"/>
<path d="M4 16C4 17.0609 5.26428 18.0783 7.51472 18.8284C9.76516 19.5786 12.8174 20 16 20C19.1826 20 22.2348 19.5786 24.4853 18.8284C26.7357 18.0783 28 17.0609 28 16" stroke="#17AD87" stroke-width="2" stroke-linecap="round" stroke-linejoin="round"/>
</svg>
