<svg width="32" height="32" viewBox="0 0 32 32" fill="none" xmlns="http://www.w3.org/2000/svg">
<path d="M16.0001 29.3346C23.3639 29.3346 29.3334 23.3651 29.3334 16.0013C29.3334 8.63751 23.3639 2.66797 16.0001 2.66797C8.63628 2.66797 2.66675 8.63751 2.66675 16.0013C2.66675 23.3651 8.63628 29.3346 16.0001 29.3346Z" stroke="#1E88E5" stroke-width="2" stroke-linecap="round" stroke-linejoin="round"/>
<path d="M16 24C20.4183 24 24 20.4183 24 16C24 11.5817 20.4183 8 16 8C11.5817 8 8 11.5817 8 16C8 20.4183 11.5817 24 16 24Z" stroke="#1E88E5" stroke-width="2" stroke-linecap="round" stroke-linejoin="round"/>
<path d="M15.9999 18.6654C17.4727 18.6654 18.6666 17.4715 18.6666 15.9987C18.6666 14.5259 17.4727 13.332 15.9999 13.332C14.5272 13.332 13.3333 14.5259 13.3333 15.9987C13.3333 17.4715 14.5272 18.6654 15.9999 18.6654Z" stroke="#1E88E5" stroke-width="2" stroke-linecap="round" stroke-linejoin="round"/>
</svg>
