<svg width="23" height="21" viewBox="0 0 23 21" fill="none" xmlns="http://www.w3.org/2000/svg">
<path d="M0.84668 5.55319C0.84668 4.30508 1.28299 3.10808 2.05964 2.22553C2.83628 1.34298 3.88964 0.847168 4.98798 0.847168H17.4119C18.5102 0.847168 19.5636 1.34298 20.3402 2.22553C21.1169 3.10808 21.5532 4.30508 21.5532 5.55319V14.9652C21.5532 16.2134 21.1169 17.4103 20.3402 18.2929C19.5636 19.1755 18.5102 19.6713 17.4119 19.6713H4.98798C3.88964 19.6713 2.83628 19.1755 2.05964 18.2929C1.28299 17.4103 0.84668 16.2134 0.84668 14.9652V5.55319Z" stroke="#1E88E5" stroke-width="1.69417" stroke-linecap="round" stroke-linejoin="round"/>
<path d="M8.84766 6.72949L14.7302 10.259L8.84766 13.7885V6.72949Z" stroke="#1E88E5" stroke-width="1.69417" stroke-linecap="round" stroke-linejoin="round"/>
</svg>
