<svg width="1886" height="1267" viewBox="0 0 1886 1267" fill="none" xmlns="http://www.w3.org/2000/svg">
<g clip-path="url(#clip0_1018_11368)">
<rect width="1886" height="1266.82" fill="url(#paint0_linear_1018_11368)"/>
<g clip-path="url(#clip1_1018_11368)">
<g filter="url(#filter0_f_1018_11368)">
<path d="M1698.78 -241.919C1802.39 -315.323 1945.88 -290.836 2019.29 -187.225V-187.225C2092.69 -83.6151 2068.2 59.8827 1964.59 133.286V133.286C1860.98 206.69 1717.48 182.202 1644.08 78.5921V78.5921C1570.68 -25.0181 1595.16 -168.516 1698.78 -241.919V-241.919Z" fill="url(#paint1_linear_1018_11368)" fill-opacity="0.6"/>
</g>
<g filter="url(#filter1_f_1018_11368)">
<path d="M1310.21 1306.7C1269.22 1230.41 1297.83 1135.33 1374.12 1094.33V1094.33C1450.41 1053.34 1545.49 1081.95 1586.49 1158.24V1158.24C1627.49 1234.53 1598.88 1329.61 1522.58 1370.61V1370.61C1446.29 1411.61 1351.21 1382.99 1310.21 1306.7V1306.7Z" fill="url(#paint2_linear_1018_11368)" fill-opacity="0.74"/>
</g>
<g filter="url(#filter2_f_1018_11368)">
<path d="M2083.11 850.914C2047.5 784.662 2072.35 702.094 2138.6 666.491V666.491C2204.85 630.889 2287.42 655.735 2323.02 721.986V721.986C2358.63 788.238 2333.78 870.806 2267.53 906.409V906.409C2201.28 942.011 2118.71 917.165 2083.11 850.914V850.914Z" fill="#FFFAB6" fill-opacity="0.15"/>
</g>
<g filter="url(#filter3_f_1018_11368)">
<path d="M-46.8111 307.377C-82.4134 241.125 -57.5675 158.557 8.68388 122.954V122.954C74.9352 87.352 157.504 112.198 193.106 178.449V178.449C228.709 244.701 203.863 327.269 137.611 362.872V362.872C71.3599 398.474 -11.2088 373.628 -46.8111 307.377V307.377Z" fill="#FFFAB6" fill-opacity="0.15"/>
</g>
<g filter="url(#filter4_f_1018_11368)">
<path d="M874.679 35.754C829.894 -47.5861 861.148 -151.452 944.488 -196.238V-196.238C1027.83 -241.023 1131.69 -209.769 1176.48 -126.429V-126.429C1221.27 -43.0885 1190.01 60.7777 1106.67 105.563V105.563C1023.33 150.349 919.465 119.094 874.679 35.754V35.754Z" fill="url(#paint3_linear_1018_11368)" fill-opacity="0.7"/>
</g>
</g>
</g>
<defs>
<filter id="filter0_f_1018_11368" x="1328.57" y="-557.433" width="1006.23" height="1006.23" filterUnits="userSpaceOnUse" color-interpolation-filters="sRGB">
<feFlood flood-opacity="0" result="BackgroundImageFix"/>
<feBlend mode="normal" in="SourceGraphic" in2="BackgroundImageFix" result="shape"/>
<feGaussianBlur stdDeviation="91.3025" result="effect1_foregroundBlur_1018_11368"/>
</filter>
<filter id="filter1_f_1018_11368" x="1053.38" y="837.497" width="789.949" height="789.948" filterUnits="userSpaceOnUse" color-interpolation-filters="sRGB">
<feFlood flood-opacity="0" result="BackgroundImageFix"/>
<feBlend mode="normal" in="SourceGraphic" in2="BackgroundImageFix" result="shape"/>
<feGaussianBlur stdDeviation="91.3025" result="effect1_foregroundBlur_1018_11368"/>
</filter>
<filter id="filter2_f_1018_11368" x="1836.04" y="419.422" width="734.055" height="734.056" filterUnits="userSpaceOnUse" color-interpolation-filters="sRGB">
<feFlood flood-opacity="0" result="BackgroundImageFix"/>
<feBlend mode="normal" in="SourceGraphic" in2="BackgroundImageFix" result="shape"/>
<feGaussianBlur stdDeviation="91.3025" result="effect1_foregroundBlur_1018_11368"/>
</filter>
<filter id="filter3_f_1018_11368" x="-293.88" y="-124.115" width="734.055" height="734.056" filterUnits="userSpaceOnUse" color-interpolation-filters="sRGB">
<feFlood flood-opacity="0" result="BackgroundImageFix"/>
<feBlend mode="normal" in="SourceGraphic" in2="BackgroundImageFix" result="shape"/>
<feGaussianBlur stdDeviation="91.3025" result="effect1_foregroundBlur_1018_11368"/>
</filter>
<filter id="filter4_f_1018_11368" x="610.983" y="-459.933" width="829.194" height="829.193" filterUnits="userSpaceOnUse" color-interpolation-filters="sRGB">
<feFlood flood-opacity="0" result="BackgroundImageFix"/>
<feBlend mode="normal" in="SourceGraphic" in2="BackgroundImageFix" result="shape"/>
<feGaussianBlur stdDeviation="91.3025" result="effect1_foregroundBlur_1018_11368"/>
</filter>
<linearGradient id="paint0_linear_1018_11368" x1="-212.323" y1="-143.526" x2="1092.12" y2="1799.73" gradientUnits="userSpaceOnUse">
<stop stop-color="#DBEBFF"/>
<stop offset="0.281406" stop-color="white"/>
<stop offset="0.522863" stop-color="#FAF5FF"/>
<stop offset="1" stop-color="#FDF2F8"/>
</linearGradient>
<linearGradient id="paint1_linear_1018_11368" x1="1886.38" y1="-374.828" x2="1776.99" y2="266.195" gradientUnits="userSpaceOnUse">
<stop stop-color="#51A2FF" stop-opacity="0.1"/>
<stop offset="1" stop-color="white"/>
</linearGradient>
<linearGradient id="paint2_linear_1018_11368" x1="1235.98" y1="1168.57" x2="1660.72" y2="1296.38" gradientUnits="userSpaceOnUse">
<stop stop-color="#C27AFF" stop-opacity="0.2"/>
<stop offset="1" stop-color="#FB64B6" stop-opacity="0.2"/>
</linearGradient>
<linearGradient id="paint3_linear_1018_11368" x1="793.588" y1="-115.146" x2="1257.57" y2="24.4719" gradientUnits="userSpaceOnUse">
<stop stop-color="#C27AFF" stop-opacity="0.2"/>
<stop offset="1" stop-color="#FB64B6" stop-opacity="0.2"/>
</linearGradient>
<clipPath id="clip0_1018_11368">
<rect width="1886" height="1266.82" fill="white"/>
</clipPath>
<clipPath id="clip1_1018_11368">
<rect width="1886" height="1266.82" fill="white"/>
</clipPath>
</defs>
</svg>
