<svg width="745" height="295" viewBox="0 0 745 295" fill="none" xmlns="http://www.w3.org/2000/svg">
<g clip-path="url(#clip0_1019_11224)">
<rect width="745" height="295" fill="url(#paint0_linear_1019_11224)"/>
<g clip-path="url(#clip1_1019_11224)">
<g filter="url(#filter0_f_1019_11224)">
<path d="M725.993 -37.5746C756.535 -59.2127 798.836 -51.9943 820.474 -21.4518C842.112 9.09077 834.894 51.3916 804.351 73.0297C773.809 94.6678 731.508 87.4493 709.87 56.9068C688.232 26.3642 695.45 -15.9366 725.993 -37.5746Z" fill="url(#paint1_linear_1019_11224)" fill-opacity="0.6"/>
</g>
<g filter="url(#filter1_f_1019_11224)">
<path d="M-19.7321 129.568C-34.7394 101.641 -24.2662 66.8361 3.66055 51.8288C31.5873 36.8214 66.3922 47.2947 81.3995 75.2214C96.4069 103.148 85.9336 137.953 58.0069 152.96C30.0802 167.968 -4.72476 157.494 -19.7321 129.568Z" fill="#FFFAB6" fill-opacity="0.15"/>
</g>
<g filter="url(#filter2_f_1019_11224)">
<path d="M368.701 15.0715C349.822 -20.0586 362.997 -63.841 398.127 -82.7193C433.257 -101.598 477.04 -88.4229 495.918 -53.2928C514.796 -18.1627 501.622 25.6197 466.491 44.498C431.361 63.3763 387.579 50.2016 368.701 15.0715Z" fill="url(#paint2_linear_1019_11224)" fill-opacity="0.7"/>
</g>
</g>
</g>
<defs>
<filter id="filter0_f_1019_11224" x="593.717" y="-153.727" width="342.909" height="342.909" filterUnits="userSpaceOnUse" color-interpolation-filters="sRGB">
<feFlood flood-opacity="0" result="BackgroundImageFix"/>
<feBlend mode="normal" in="SourceGraphic" in2="BackgroundImageFix" result="shape"/>
<feGaussianBlur stdDeviation="38.4865" result="effect1_foregroundBlur_1019_11224"/>
</filter>
<filter id="filter1_f_1019_11224" x="-123.878" y="-52.3177" width="309.424" height="309.424" filterUnits="userSpaceOnUse" color-interpolation-filters="sRGB">
<feFlood flood-opacity="0" result="BackgroundImageFix"/>
<feBlend mode="normal" in="SourceGraphic" in2="BackgroundImageFix" result="shape"/>
<feGaussianBlur stdDeviation="38.4865" result="effect1_foregroundBlur_1019_11224"/>
</filter>
<filter id="filter2_f_1019_11224" x="257.546" y="-193.874" width="349.527" height="349.527" filterUnits="userSpaceOnUse" color-interpolation-filters="sRGB">
<feFlood flood-opacity="0" result="BackgroundImageFix"/>
<feBlend mode="normal" in="SourceGraphic" in2="BackgroundImageFix" result="shape"/>
<feGaussianBlur stdDeviation="38.4865" result="effect1_foregroundBlur_1019_11224"/>
</filter>
<linearGradient id="paint0_linear_1019_11224" x1="3.39508" y1="42.6714" x2="226.939" y2="531.778" gradientUnits="userSpaceOnUse">
<stop stop-color="#DBEBFF"/>
<stop offset="0.394573" stop-color="#FAF0F0"/>
<stop offset="0.522863" stop-color="#FAF5FF"/>
<stop offset="1" stop-color="#FDF2F8"/>
</linearGradient>
<linearGradient id="paint1_linear_1019_11224" x1="781.295" y1="-76.7539" x2="749.049" y2="112.209" gradientUnits="userSpaceOnUse">
<stop stop-color="#51A2FF" stop-opacity="0.1"/>
<stop offset="1" stop-color="white"/>
</linearGradient>
<linearGradient id="paint2_linear_1019_11224" x1="334.519" y1="-48.5371" x2="530.1" y2="10.3158" gradientUnits="userSpaceOnUse">
<stop stop-color="#C27AFF" stop-opacity="0.2"/>
<stop offset="1" stop-color="#FB64B6" stop-opacity="0.2"/>
</linearGradient>
<clipPath id="clip0_1019_11224">
<rect width="745" height="295" fill="white"/>
</clipPath>
<clipPath id="clip1_1019_11224">
<rect width="745" height="295" fill="white"/>
</clipPath>
</defs>
</svg>
