<svg width="20" height="20" viewBox="0 0 20 20" fill="none" xmlns="http://www.w3.org/2000/svg">
<g clip-path="url(#clip0_1018_23969)">
<path fill-rule="evenodd" clip-rule="evenodd" d="M19.0677 0.500908C18.7812 0.500908 18.2694 0.393432 17.5 0.500854C16.7307 0.608733 16.523 0.56425 16.2987 0.663084C16.0736 0.761848 15.5871 0.917955 15 1.50091C14.4124 2.08595 13.1145 3.42728 12 5.00091C10.8837 6.57625 9.96784 7.74907 9 9.50091C8.03176 11.2534 7.3385 12.6149 6.5 14.5009C5.72415 13.1727 5.12988 12.9746 4.5 12.5009C3.87182 12.0254 3.12017 12.2697 2.6893 12.2697C2.35278 12.2697 1.93116 12.4492 1.42263 12.8064C0.914678 13.1647 0.660645 13.5154 0.660645 13.8612C0.660645 14.1115 0.893712 14.4825 1.35986 14.9731C2.28311 15.9485 3.10037 16.9829 3.80753 18.0779C4.2395 18.7328 4.5268 19.1346 4.67003 19.2812C4.81242 19.4263 5.2464 19.5009 5.97219 19.5009C6.98176 19.5009 7.58144 19.3714 7.77219 19.111C7.96119 18.8603 8.31099 18.1129 8.82116 16.8668C10.0817 13.7473 11.649 10.7681 13.5225 7.93176C15.3975 5.09658 17.1148 2.95156 18.6783 1.49855C18.9898 1.22252 19.1769 1.0436 19.2427 0.960985C19.3068 0.878106 19.3395 0.794642 19.3395 0.707733C19.3394 0.570622 19.2486 0.500908 19.0677 0.500908Z" fill="#08B92F"/>
</g>
<defs>
<clipPath id="clip0_1018_23969">
<rect width="20" height="20" fill="white"/>
</clipPath>
</defs>
</svg>
