<svg width="20" height="20" viewBox="0 0 20 20" fill="none" xmlns="http://www.w3.org/2000/svg">
<path d="M17.7339 16.8255C17.1319 15.3195 15.2859 12.5955 13.2739 9.87951C15.1719 7.70351 16.8939 5.72151 17.3419 5.16151C18.2459 4.03151 18.1839 3.54751 16.4899 3.53951C15.2759 3.53351 14.8559 3.38751 14.0519 4.22951C13.5799 4.72351 12.5639 5.93351 11.3959 7.40751C9.52794 4.99951 7.79794 2.92351 7.06994 2.15951C6.02994 1.06951 5.48594 1.25951 3.91394 1.26751C1.72194 1.27951 1.63994 1.90551 2.81194 3.36751C3.46394 4.18351 6.20194 7.32751 9.00594 10.5395C7.55594 12.5175 6.25994 14.4535 5.82194 15.5515C5.24194 17.0035 6.53194 17.6375 7.62994 16.3575C8.23394 15.6515 9.46394 14.2435 10.8539 12.6515C12.8019 14.8815 14.5579 16.8935 15.3939 17.8695C16.8139 19.5255 18.4859 18.7055 17.7339 16.8255Z" fill="#ED1C24"/>
</svg>
